<svg xmlns="http://www.w3.org/2000/svg" xmlns:xlink="http://www.w3.org/1999/xlink" width="400" height="2079" viewBox="0 0 400 2079">
  <defs>
    <clipPath id="clip-path">
      <rect id="Rectangle_385527" data-name="Rectangle 385527" width="50" height="243" fill="#fff198"/>
    </clipPath>
    <clipPath id="clip-path-3">
      <rect id="Rectangle_385531" data-name="Rectangle 385531" width="50" height="243" transform="translate(0 -0.467)" fill="#fff198"/>
    </clipPath>
    <clipPath id="clip-path-5">
      <rect id="Rectangle_385540" data-name="Rectangle 385540" width="69" height="186" transform="translate(180 9486)" fill="#fff198"/>
    </clipPath>
  </defs>
  <g id="Group_1087131" data-name="Group 1087131" transform="translate(-1042 9386.004)">
    <g id="Group_1019436" data-name="Group 1019436" transform="translate(862 -22164.004)">
      <path id="Rectangle_385528" data-name="Rectangle 385528" d="M0,0H140a50,50,0,0,1,50,50V171a0,0,0,0,1,0,0H50A50,50,0,0,1,0,121V0A0,0,0,0,1,0,0Z" transform="translate(180 12797)" fill="#fffbe5"/>
      <path id="Rectangle_385532" data-name="Rectangle 385532" d="M0,0H140a50,50,0,0,1,50,50V171a0,0,0,0,1,0,0H50A50,50,0,0,1,0,121V0A0,0,0,0,1,0,0Z" transform="translate(180 13017)" fill="#fffbe5"/>
      <path id="Rectangle_385529" data-name="Rectangle 385529" d="M0,0H140a50,50,0,0,1,50,50V171a0,0,0,0,1,0,0H50A50,50,0,0,1,0,121V0A0,0,0,0,1,0,0Z" transform="translate(390 12797)" fill="#fffbe5"/>
      <path id="Rectangle_385533" data-name="Rectangle 385533" d="M0,0H140a50,50,0,0,1,50,50V171a0,0,0,0,1,0,0H50A50,50,0,0,1,0,121V0A0,0,0,0,1,0,0Z" transform="translate(390 13017)" fill="#fffbe5"/>
      <path id="Rectangle_385538" data-name="Rectangle 385538" d="M0,0H350a50,50,0,0,1,50,50v80a0,0,0,0,1,0,0H50A50,50,0,0,1,0,80V0A0,0,0,0,1,0,0Z" transform="translate(180 13248)" fill="#fffbe5"/>
      <text id="Optimización_del_valor_del_cliente_" data-name="Optimización del valor del cliente 
" transform="translate(244 12851)" fill="#12263f" font-size="16" font-family="Roboto-Regular, Roboto"><tspan x="-46.918" y="15">Optimización </tspan><tspan x="-42.723" y="39">del valor del </tspan><tspan x="-23.574" y="63">cliente </tspan><tspan x="0" y="87"></tspan></text>
      <text id="Redes_sociales_según_lo_que_se_requiera" data-name="Redes sociales, según lo que se requiera" transform="translate(244 13065)" fill="#12263f" font-size="16" font-family="Roboto-Regular, Roboto"><tspan x="-22.039" y="15">Redes </tspan><tspan x="-31.043" y="39">sociales, </tspan><tspan x="-45.336" y="63">según lo que </tspan><tspan x="-39.254" y="87">se requiera</tspan></text>
      <text id="Identificar_un_mercado_específico_para_un_producto_específico_" data-name="Identificar un mercado específico para un producto específico  " transform="translate(444 12825)" fill="#12263f" font-size="16" font-family="Roboto-Regular, Roboto"><tspan x="-46.375" y="15">Identificar un </tspan><tspan x="-31.496" y="39">mercado </tspan><tspan x="-54.156" y="63">específico para </tspan><tspan x="-42.691" y="87">un producto </tspan><tspan x="-36.434" y="111" xml:space="preserve">específico  </tspan></text>
      <text id="Hacer_una_elección_de_la_fuente_de_tráfico_correcta" data-name="Hacer una elección de la fuente de tráfico correcta" transform="translate(454 13057)" fill="#12263f" font-size="16" font-family="Roboto-Regular, Roboto"><tspan x="-36.344" y="15">Hacer una </tspan><tspan x="-48.715" y="39">elección de la </tspan><tspan x="-33.422" y="63">fuente de </tspan><tspan x="-54.156" y="87">tráfico correcta</tspan></text>
      <text id="Diseño_de_la_estrategia_según_la_población_y_el_producto" data-name="Diseño de la estrategia según la población y el producto" transform="translate(285 13297)" fill="#12263f" font-size="16" font-family="Roboto-Regular, Roboto"><tspan x="27.547" y="15">Diseño de la estrategia según la </tspan><tspan x="57.77" y="39">población y el producto</tspan></text>
      <g id="Group_1017754" data-name="Group 1017754" transform="translate(-958 3497)">
        <rect id="Rectangle_385446" data-name="Rectangle 385446" width="45" height="25" transform="translate(1265 9677) rotate(90)" fill="#a3bfe4"/>
        <path id="Polygon_7" data-name="Polygon 7" d="M29,0,58,39H0Z" transform="translate(1281 9760) rotate(180)" fill="#a3bfe4"/>
      </g>
      <g id="Group_1017757" data-name="Group 1017757" transform="translate(-748 3280)">
        <rect id="Rectangle_385446-2" data-name="Rectangle 385446" width="45" height="25" transform="translate(1265 9677) rotate(90)" fill="#a3bfe4"/>
        <path id="Polygon_7-2" data-name="Polygon 7" d="M29,0,58,39H0Z" transform="translate(1281 9760) rotate(180)" fill="#a3bfe4"/>
      </g>
      <g id="Mask_Group_83" data-name="Mask Group 83" transform="translate(180 12778)" clip-path="url(#clip-path)">
        <path id="Rectangle_385526" data-name="Rectangle 385526" d="M0,0H162a50,50,0,0,1,50,50V170a0,0,0,0,1,0,0H50A50,50,0,0,1,0,120V0A0,0,0,0,1,0,0Z" transform="translate(0 19)" fill="#fff198"/>
      </g>
      <g id="Mask_Group_86" data-name="Mask Group 86" transform="translate(180 12998)" clip-path="url(#clip-path)">
        <path id="Rectangle_385536" data-name="Rectangle 385536" d="M0,0H162a50,50,0,0,1,50,50V170a0,0,0,0,1,0,0H50A50,50,0,0,1,0,120V0A0,0,0,0,1,0,0Z" transform="translate(0 19)" fill="#fff198"/>
      </g>
      <g id="Mask_Group_84" data-name="Mask Group 84" transform="translate(390 12778.467)" clip-path="url(#clip-path-3)">
        <path id="Rectangle_385530" data-name="Rectangle 385530" d="M0,0H162a50,50,0,0,1,50,50V169a0,0,0,0,1,0,0H50A50,50,0,0,1,0,119V0A0,0,0,0,1,0,0Z" transform="translate(0 19.533)" fill="#fff198"/>
      </g>
      <g id="Mask_Group_85" data-name="Mask Group 85" transform="translate(390 12998.467)" clip-path="url(#clip-path-3)">
        <path id="Rectangle_385534" data-name="Rectangle 385534" d="M0,0H162a50,50,0,0,1,50,50V169a0,0,0,0,1,0,0H50A50,50,0,0,1,0,119V0A0,0,0,0,1,0,0Z" transform="translate(0 19.533)" fill="#fff198"/>
      </g>
      <g id="Mask_Group_87" data-name="Mask Group 87" transform="translate(0 3747)" clip-path="url(#clip-path-5)">
        <path id="Rectangle_385539" data-name="Rectangle 385539" d="M0,0H245a50,50,0,0,1,50,50v80a0,0,0,0,1,0,0H50A50,50,0,0,1,0,80V0A0,0,0,0,1,0,0Z" transform="translate(180 9501)" fill="#fff198"/>
      </g>
      <text id="_1" data-name="1" transform="translate(192 12851)" fill="#727997" font-size="41" font-family="Roboto-Black, Roboto" font-weight="800"><tspan x="0" y="39">1</tspan></text>
      <text id="_4" data-name="4" transform="translate(192 13071)" fill="#727997" font-size="41" font-family="Roboto-Black, Roboto" font-weight="800"><tspan x="0" y="39">4</tspan></text>
      <text id="_2" data-name="2" transform="translate(402 12847)" fill="#727997" font-size="41" font-family="Roboto-Black, Roboto" font-weight="800"><tspan x="0" y="39">2</tspan></text>
      <text id="_3" data-name="3" transform="translate(402 13067)" fill="#727997" font-size="41" font-family="Roboto-Black, Roboto" font-weight="800"><tspan x="0" y="39">3</tspan></text>
      <text id="_5" data-name="5" transform="translate(203 13285)" fill="#727997" font-size="41" font-family="Roboto-Black, Roboto" font-weight="800"><tspan x="0" y="39">5</tspan></text>
      <path id="Path_835921" data-name="Path 835921" d="M-8056.8-1882v107" transform="translate(8331.801 15260)" fill="none" stroke="#707070" stroke-width="3" stroke-dasharray="5"/>
      <path id="Path_835924" data-name="Path 835924" d="M-8056.8-1882v107" transform="translate(8538.801 15380)" fill="none" stroke="#707070" stroke-width="3" stroke-dasharray="5"/>
      <path id="Path_835922" data-name="Path 835922" d="M-8056.8-1882v107" transform="translate(-1458.5 21525.301) rotate(90)" fill="none" stroke="#707070" stroke-width="3" stroke-dasharray="5"/>
      <path id="Path_835923" data-name="Path 835923" d="M-8056.8-1882v107" transform="translate(-1455.999 21660.801) rotate(90)" fill="none" stroke="#707070" stroke-width="3" stroke-dasharray="5"/>
      <path id="Path_835927" data-name="Path 835927" d="M-8056.8-1882v107" transform="translate(-1455.999 21992.801) rotate(90)" fill="none" stroke="#707070" stroke-width="3" stroke-dasharray="5"/>
      <path id="Path_835928" data-name="Path 835928" d="M-8056.8-1882v107" transform="translate(-1455.999 22080.801) rotate(90)" fill="none" stroke="#707070" stroke-width="3" stroke-dasharray="5"/>
      <path id="Rectangle_385541" data-name="Rectangle 385541" d="M0,0H140a50,50,0,0,1,50,50v60a0,0,0,0,1,0,0H50A50,50,0,0,1,0,60V0A0,0,0,0,1,0,0Z" transform="translate(180 13419)" fill="#e4fdfb"/>
      <path id="Rectangle_385542" data-name="Rectangle 385542" d="M0,0H140a50,50,0,0,1,50,50v60a0,0,0,0,1,0,0H50A50,50,0,0,1,0,60V0A0,0,0,0,1,0,0Z" transform="translate(390 13419)" fill="#e4fdfb"/>
      <path id="Rectangle_385543" data-name="Rectangle 385543" d="M0,0H140a50,50,0,0,1,50,50v60a0,0,0,0,1,0,0H50A50,50,0,0,1,0,60V0A0,0,0,0,1,0,0Z" transform="translate(180 13549)" fill="#e4fdfb"/>
      <path id="Rectangle_385544" data-name="Rectangle 385544" d="M0,0H140a50,50,0,0,1,50,50v60a0,0,0,0,1,0,0H50A50,50,0,0,1,0,60V0A0,0,0,0,1,0,0Z" transform="translate(390 13549)" fill="#e4fdfb"/>
      <text id="_1.Ofrecer_un_lead_magnet" data-name="1.Ofrecer un lead magnet" transform="translate(209 13442)" fill="#12263f" font-size="16" font-family="Roboto-Bold, Roboto" font-weight="700"><tspan x="0" y="17">1</tspan><tspan y="17" font-family="Roboto-Regular, Roboto" font-weight="400">.Ofrecer un </tspan><tspan y="17" font-family="Roboto-BoldItalic, Roboto" font-style="italic">lead </tspan><tspan x="0" y="41" font-family="Roboto-BoldItalic, Roboto" font-style="italic">magnet</tspan></text>
      <text id="_2._Ofrecer_un_tripwire_" data-name="2. Ofrecer un tripwire " transform="translate(418 13442)" fill="#12263f" font-size="16" font-family="Roboto-Bold, Roboto" font-weight="700"><tspan x="0" y="15">2</tspan><tspan y="15" font-family="Roboto-Regular, Roboto" font-weight="400">. Ofrecer un </tspan><tspan x="0" y="39" font-family="Roboto-BoldItalic, Roboto" font-style="italic">tripwire </tspan></text>
      <text id="_3._Ofrecer_un_producto_principal" data-name="3. Ofrecer un producto principal" transform="translate(426 13578)" fill="#12263f" font-size="16" font-family="Roboto-Bold, Roboto" font-weight="700"><tspan x="0" y="15">3</tspan><tspan y="15" font-family="Roboto-Regular, Roboto" font-weight="400">. Ofrecer un </tspan><tspan x="0" y="39" font-family="Roboto-Regular, Roboto" font-weight="400">producto principal</tspan></text>
      <text id="_4._Ofrecer_un_maximizador_de_ganancias" data-name="4. Ofrecer un maximizador de ganancias" transform="translate(215 13568)" fill="#12263f" font-size="16" font-family="Roboto-Bold, Roboto" font-weight="700"><tspan x="0" y="15">4</tspan><tspan y="15" font-family="Roboto-Regular, Roboto" font-weight="400">. Ofrecer un </tspan><tspan x="0" y="39" font-family="Roboto-Regular, Roboto" font-weight="400">maximizador de </tspan><tspan x="0" y="63" font-family="Roboto-Regular, Roboto" font-weight="400">ganancias</tspan></text>
      <path id="Rectangle_385517" data-name="Rectangle 385517" d="M0,0H350a50,50,0,0,1,50,50v80a0,0,0,0,1,0,0H50A50,50,0,0,1,0,80V0A0,0,0,0,1,0,0Z" transform="translate(180 13709)" fill="#fffbe5"/>
      <text id="Para_crear_camino_de_retorno" data-name="Para crear camino de retorno" transform="translate(285 13764)" fill="#12263f" font-size="16" font-family="Roboto-Regular, Roboto"><tspan x="29.832" y="15">Para crear camino de retorno</tspan></text>
      <g id="Mask_Group_82" data-name="Mask Group 82" transform="translate(0 4208)" clip-path="url(#clip-path-5)">
        <path id="Rectangle_385518" data-name="Rectangle 385518" d="M0,0H245a50,50,0,0,1,50,50v80a0,0,0,0,1,0,0H50A50,50,0,0,1,0,80V0A0,0,0,0,1,0,0Z" transform="translate(180 9501)" fill="#fff198"/>
      </g>
      <text id="_7" data-name="7" transform="translate(203 13746)" fill="#727997" font-size="41" font-family="Roboto-Black, Roboto" font-weight="800"><tspan x="0" y="39">7</tspan></text>
      <g id="Group_1017748" data-name="Group 1017748" transform="translate(-769 3975)">
        <rect id="Rectangle_385446-3" data-name="Rectangle 385446" width="45" height="25" transform="translate(1265 9677) rotate(90)" fill="#a3bfe4"/>
        <path id="Polygon_7-3" data-name="Polygon 7" d="M29,0,58,39H0Z" transform="translate(1281 9760) rotate(180)" fill="#a3bfe4"/>
      </g>
      <path id="Path_835920" data-name="Path 835920" d="M-8056.8-1882v85" transform="translate(8331.801 15721)" fill="none" stroke="#707070" stroke-width="3" stroke-dasharray="5"/>
      <path id="Path_835925" data-name="Path 835925" d="M-8056.8-1882v41" transform="translate(8538.801 15850)" fill="none" stroke="#707070" stroke-width="3" stroke-dasharray="5"/>
      <path id="Path_835926" data-name="Path 835926" d="M-8056.8-1882v41" transform="translate(8331.801 15935)" fill="none" stroke="#707070" stroke-width="3" stroke-dasharray="5"/>
      <path id="Rectangle_385520" data-name="Rectangle 385520" d="M0,0H140a50,50,0,0,1,50,50V71a0,0,0,0,1,0,0H50A50,50,0,0,1,0,21V0A0,0,0,0,1,0,0Z" transform="translate(180 13899)" fill="#e4fdfb"/>
      <path id="Rectangle_385521" data-name="Rectangle 385521" d="M0,0H140a50,50,0,0,1,50,50V71a0,0,0,0,1,0,0H50A50,50,0,0,1,0,21V0A0,0,0,0,1,0,0Z" transform="translate(390 13899)" fill="#e4fdfb"/>
      <path id="Rectangle_385522" data-name="Rectangle 385522" d="M0,0H140a50,50,0,0,1,50,50V64a0,0,0,0,1,0,0H50A50,50,0,0,1,0,14V0A0,0,0,0,1,0,0Z" transform="translate(390 13990)" fill="#e4fdfb"/>
      <path id="Rectangle_385523" data-name="Rectangle 385523" d="M0,0H140a50,50,0,0,1,50,50V64a0,0,0,0,1,0,0H50A50,50,0,0,1,0,14V0A0,0,0,0,1,0,0Z" transform="translate(180 13991)" fill="#e4fdfb"/>
      <path id="Rectangle_385524" data-name="Rectangle 385524" d="M0,0H140a50,50,0,0,1,50,50V71a0,0,0,0,1,0,0H50A50,50,0,0,1,0,21V0A0,0,0,0,1,0,0Z" transform="translate(180 14080)" fill="#e4fdfb"/>
      <text id="Email_marketing" data-name="Email marketing" transform="translate(214 13924)" fill="#12263f" font-size="16" font-family="Roboto-Italic, Roboto" font-style="italic"><tspan x="0" y="17">Email marketing</tspan></text>
      <rect id="Rectangle_385525" data-name="Rectangle 385525" width="32" height="163" rx="16" transform="translate(475 13852) rotate(90)" fill="#e0e5ec"/>
      <text id="Mediante" transform="translate(362.5 13858.5)" fill="#12263f" font-size="16" font-family="Roboto-Regular, Roboto"><tspan x="0" y="15">Mediante</tspan></text>
      <text id="Blogging" transform="translate(424 13923)" fill="#12263f" font-size="16" font-family="Roboto-Italic, Roboto" font-style="italic"><tspan x="0" y="17">Blogging</tspan></text>
      <text id="Remarketing" transform="translate(424 14011)" fill="#12263f" font-size="16" font-family="Roboto-Italic, Roboto" font-style="italic"><tspan x="0" y="17">Remarketing</tspan></text>
      <text id="Social_media" data-name="Social media" transform="translate(214 14012)" fill="#12263f" font-size="16" font-family="Roboto-Italic, Roboto" font-style="italic"><tspan x="0" y="17">Social media</tspan></text>
      <text id="_Custom_audiences_" data-name=" Custom audiences " transform="translate(227 14095)" fill="#12263f" font-size="16" font-family="Roboto-Italic, Roboto" font-style="italic"><tspan x="0" y="17" xml:space="preserve"> Custom </tspan><tspan x="0" y="41">audiences </tspan></text>
      <g id="Group_1017755" data-name="Group 1017755" transform="translate(-78 5181)">
        <path id="Path_835874" data-name="Path 835874" d="M17,0A17,17,0,1,1,0,17,17,17,0,0,1,17,0Z" transform="translate(258 9078)" fill="#983333"/>
        <text id="_1-2" data-name="1" transform="translate(270 9102)" fill="#fff" font-size="20" font-family="Roboto-Regular, Roboto"><tspan x="0" y="0">1</tspan></text>
      </g>
      <g id="Group_1017756" data-name="Group 1017756" transform="translate(-78 5346)">
        <path id="Path_835874-2" data-name="Path 835874" d="M17,0A17,17,0,1,1,0,17,17,17,0,0,1,17,0Z" transform="translate(258 9078)" fill="#983333"/>
        <text id="_2-2" data-name="2" transform="translate(270 9102)" fill="#fff" font-size="20" font-family="Roboto-Regular, Roboto"><tspan x="0" y="0">2</tspan></text>
      </g>
      <g id="Group_1017751" data-name="Group 1017751" transform="translate(282 4936)">
        <path id="Path_835874-3" data-name="Path 835874" d="M17,0A17,17,0,1,1,0,17,17,17,0,0,1,17,0Z" transform="translate(258 9078)" fill="#983333"/>
        <text id="_3-2" data-name="3" transform="translate(270 9102)" fill="#fff" font-size="20" font-family="Roboto-Regular, Roboto"><tspan x="0" y="0">3</tspan></text>
      </g>
      <g id="Group_1017758" data-name="Group 1017758" transform="translate(-78 5530)">
        <path id="Path_835874-4" data-name="Path 835874" d="M17,0A17,17,0,1,1,0,17,17,17,0,0,1,17,0Z" transform="translate(258 9078)" fill="#983333"/>
        <text id="_3-3" data-name="3" transform="translate(270 9102)" fill="#fff" font-size="20" font-family="Roboto-Regular, Roboto"><tspan x="0" y="0">3</tspan></text>
      </g>
      <g id="Group_1017752" data-name="Group 1017752" transform="translate(70.5 5033)">
        <path id="Path_835874-5" data-name="Path 835874" d="M17,0A17,17,0,1,1,0,17,17,17,0,0,1,17,0Z" transform="translate(258 9078)" fill="#983333"/>
        <text id="_4-2" data-name="4" transform="translate(270 9102)" fill="#fff" font-size="20" font-family="Roboto-Regular, Roboto"><tspan x="0" y="0">4</tspan></text>
      </g>
      <g id="Group_1017759" data-name="Group 1017759" transform="translate(-78 5693)">
        <path id="Path_835874-6" data-name="Path 835874" d="M17,0A17,17,0,1,1,0,17,17,17,0,0,1,17,0Z" transform="translate(258 9078)" fill="#983333"/>
        <text id="_4-3" data-name="4" transform="translate(270 9102)" fill="#fff" font-size="20" font-family="Roboto-Regular, Roboto"><tspan x="0" y="0">4</tspan></text>
      </g>
      <g id="Group_1017737" data-name="Group 1017737" transform="translate(214 14215)">
        <path id="Path_841647" data-name="Path 841647" d="M20,0H346a20,20,0,0,1,20,20v82a20,20,0,0,1-20,20H20A20,20,0,0,1,0,102V20A20,20,0,0,1,20,0Z" fill="#e0e5ec"/>
        <text id="El_lead_magnet_es_el_contenido_que_se_ofrece_como_beneficio_a_los_usuarios_a_cambio_de_sus_datos_personales." data-name="El lead magnet es el contenido que se ofrece como beneficio a los usuarios a cambio de sus datos personales." transform="translate(27 23)" fill="#12263f" font-size="16" font-family="Roboto-Regular, Roboto"><tspan x="0" y="17">El </tspan><tspan y="17" font-family="Roboto-BoldItalic, Roboto" font-weight="700" font-style="italic">lead magnet</tspan><tspan y="17" xml:space="preserve"> es el contenido que se </tspan><tspan x="0" y="41">ofrece como beneficio a los usuarios a </tspan><tspan x="0" y="65">cambio de sus datos personales.</tspan></text>
      </g>
      <g id="Group_1017738" data-name="Group 1017738" transform="translate(214 14369)">
        <path id="Path_841648" data-name="Path 841648" d="M20,0H346a20,20,0,0,1,20,20V123a20,20,0,0,1-20,20H20A20,20,0,0,1,0,123V20A20,20,0,0,1,20,0Z" fill="#e0e5ec"/>
        <text id="El_tripwire_es_una_oferta_cuyo_objetivo_es_convertir_la_mayor_cantidad_de_nuevos_leads_que_se_acaban_de_suscribir_en_nuevos_clientes_de_la_empresa." data-name="El tripwire es una oferta cuyo objetivo es convertir la mayor cantidad de nuevos leads que se acaban de suscribir en nuevos clientes de la empresa." transform="translate(27 23)" fill="#12263f" font-size="16" font-family="Roboto-Regular, Roboto"><tspan x="0" y="17">El </tspan><tspan y="17" font-family="Roboto-BoldItalic, Roboto" font-weight="700" font-style="italic">tripwire </tspan><tspan y="17">es una oferta cuyo objetivo es </tspan><tspan x="0" y="41">convertir la mayor cantidad de nuevos </tspan><tspan x="0" y="65">leads que se acaban de suscribir en nuevos </tspan><tspan x="0" y="89">clientes de la empresa.</tspan></text>
      </g>
      <g id="Group_1017741" data-name="Group 1017741" transform="translate(214 14545)">
        <path id="Path_841649" data-name="Path 841649" d="M20,0H346a20,20,0,0,1,20,20V139a20,20,0,0,1-20,20H20A20,20,0,0,1,0,139V20A20,20,0,0,1,20,0Z" fill="#e0e5ec"/>
        <text id="El_remarketing_consiste_en_crear_campañas_de_anuncios_personalizadas_para_aquellos_usuarios_que_ya_han_visitado_previamente_la_Web_o_e-commerce_con_el_objetivo_de_incrementar_el_ROI_o_retorno_de_inversión._" data-name="El remarketing consiste en crear campañas de anuncios personalizadas para aquellos usuarios que ya han visitado previamente la Web o e-commerce, con el objetivo de incrementar el ROI o retorno de inversión. 
" transform="translate(27 23)" fill="#12263f" font-size="16" font-family="Roboto-Regular, Roboto"><tspan x="0" y="17">El </tspan><tspan y="17" font-family="Roboto-BoldItalic, Roboto" font-weight="700" font-style="italic">remarketing </tspan><tspan y="17">consiste en crear campañas </tspan><tspan x="0" y="41">de anuncios personalizadas para aquellos </tspan><tspan x="0" y="65">usuarios que ya han visitado previamente la </tspan><tspan x="0" y="89">Web o e-</tspan><tspan y="89" font-family="Roboto-Italic, Roboto" font-style="italic">commerce,</tspan><tspan y="89" xml:space="preserve"> con el objetivo de </tspan></text>
      </g>
      <g id="Group_1017742" data-name="Group 1017742" transform="translate(214 14736)">
        <path id="Path_841650" data-name="Path 841650" d="M20,0H346a20,20,0,0,1,20,20v81a20,20,0,0,1-20,20H20A20,20,0,0,1,0,101V20A20,20,0,0,1,20,0Z" fill="#e0e5ec"/>
        <text id="Las_custom_audiences_son_audiencias_creadas_a_partir_de_una_acción_específica_que_ha_realizado_un_usuario._" data-name="Las custom audiences  son audiencias creadas a partir de una acción específica que ha realizado un usuario.
" transform="translate(27 23)" fill="#12263f" font-size="16" font-family="Roboto-Regular, Roboto"><tspan x="0" y="17">Las </tspan><tspan y="17" font-family="Roboto-BoldItalic, Roboto" font-weight="700" font-style="italic">custom audiences</tspan><tspan y="17" xml:space="preserve">  son audiencias </tspan><tspan x="0" y="41">creadas a partir de una acción específica </tspan><tspan x="0" y="65">que ha realizado un usuario.</tspan></text>
      </g>
    </g>
    <g id="Group_1087071" data-name="Group 1087071" transform="translate(933.578 -17754.004)">
      <path id="Path_841654" data-name="Path 841654" d="M17,0A17,17,0,1,1,0,17,17,17,0,0,1,17,0Z" transform="translate(258 9078)" fill="#983333"/>
      <text id="_1-3" data-name="1" transform="translate(270 9102)" fill="#fff" font-size="20" font-family="Roboto-Regular, Roboto"><tspan x="0" y="0">1</tspan></text>
    </g>
    <g id="Group_1087072" data-name="Group 1087072" transform="translate(1143.578 -17754.004)">
      <path id="Path_841653" data-name="Path 841653" d="M17,0A17,17,0,1,1,0,17,17,17,0,0,1,17,0Z" transform="translate(258 9078)" fill="#983333"/>
      <text id="_2-3" data-name="2" transform="translate(270 9102)" fill="#fff" font-size="20" font-family="Roboto-Regular, Roboto"><tspan x="0" y="0">2</tspan></text>
    </g>
  </g>
</svg>
