<svg id="Group_1019615" data-name="Group 1019615" xmlns="http://www.w3.org/2000/svg" xmlns:xlink="http://www.w3.org/1999/xlink" width="85" height="85" viewBox="0 0 85 85">
  <defs>
    <clipPath id="clip-path">
      <rect id="Rectangle_385413" data-name="Rectangle 385413" width="85" height="85" fill="none"/>
    </clipPath>
    <clipPath id="clip-path-3">
      <rect id="Rectangle_385411" data-name="Rectangle 385411" width="43.095" height="85" fill="none"/>
    </clipPath>
  </defs>
  <g id="Group_1017628" data-name="Group 1017628" clip-path="url(#clip-path)">
    <g id="Group_1017627" data-name="Group 1017627" transform="translate(0 0)">
      <g id="Group_1017626" data-name="Group 1017626" clip-path="url(#clip-path)">
        <path id="Path_835883" data-name="Path 835883" d="M0,42.5A42.5,42.5,0,1,1,42.5,85,42.5,42.5,0,0,1,0,42.5" transform="translate(0 0)" fill="#fe3957"/>
        <g id="Group_1017625" data-name="Group 1017625" transform="translate(41.905)" style="mix-blend-mode: multiply;isolation: isolate">
          <g id="Group_1017624" data-name="Group 1017624">
            <g id="Group_1017623" data-name="Group 1017623" clip-path="url(#clip-path-3)">
              <path id="Path_835884" data-name="Path 835884" d="M50.374,0c-.2,0-.4.013-.594.015v84.97c.2,0,.395.015.594.015a42.5,42.5,0,1,0,0-85" transform="translate(-49.78 0)" fill="#cdced3"/>
            </g>
          </g>
        </g>
        <path id="Path_835885" data-name="Path 835885" d="M71.035,41.241A15.038,15.038,0,0,0,66.756,32.4a12.148,12.148,0,0,0-17.581,0L45.7,35.991,42.232,32.4a12.149,12.149,0,0,0-17.582,0,15.042,15.042,0,0,0-4.278,8.838C19.41,49.384,23.715,60.1,45.7,72.335v.005l.005,0,.005,0v-.005C67.692,60.1,72,49.384,71.035,41.241" transform="translate(-3.203 -4.53)" fill="#fff"/>
      </g>
    </g>
  </g>
</svg>
