<svg xmlns="http://www.w3.org/2000/svg" xmlns:xlink="http://www.w3.org/1999/xlink" width="62" height="62" viewBox="0 0 62 62">
  <defs>
    <clipPath id="clip-path">
      <rect id="Rectangle_385328" data-name="Rectangle 385328" width="37.492" height="32.328" fill="none"/>
    </clipPath>
  </defs>
  <g id="Group_1087120" data-name="Group 1087120" transform="translate(-270 -1182.301)">
    <g id="Group_1017407" data-name="Group 1017407" transform="translate(-3 -11723.699)">
      <g id="Group_1014856" data-name="Group 1014856" transform="translate(-111.999 10848)">
        <path id="Union_12" data-name="Union 12" d="M44.385,58.97a31.027,31.027,0,1,1,10.348-8.025L58.991,62Z" transform="translate(384.999 2058)" fill="#a3bfe4"/>
        <circle id="Ellipse_4842" data-name="Ellipse 4842" cx="26" cy="26" r="26" transform="translate(389.999 2063)" fill="#fff"/>
      </g>
    </g>
    <g id="Group_1017413" data-name="Group 1017413" transform="translate(282 1195.136)">
      <g id="Group_1017412" data-name="Group 1017412" transform="translate(0 0)" clip-path="url(#clip-path)">
        <path id="Path_835572" data-name="Path 835572" d="M37.492,31.912c-.4.485-.582.523-1.156.236-1.264-.631-2.531-1.258-3.789-1.9a.509.509,0,0,0-.592.041,12.236,12.236,0,0,1-18.043-5.48.415.415,0,0,0-.51-.3,11.914,11.914,0,0,1-7.917-2.009.458.458,0,0,0-.532-.007c-1.294.654-2.593,1.3-3.888,1.951A.687.687,0,0,1,.218,24.4a.656.656,0,0,1-.1-.865c.658-1.306,1.3-2.618,1.967-3.921a.477.477,0,0,0-.027-.559A12.265,12.265,0,1,1,23.534,7.417a.478.478,0,0,0,.536.347,12.927,12.927,0,0,1,5.461.791,12.138,12.138,0,0,1,7.9,10.3c.014.106.042.21.064.316V21a1.478,1.478,0,0,0-.064.242A11.611,11.611,0,0,1,35.565,26.6a.854.854,0,0,0-.044,1.009c.675,1.278,1.317,2.573,1.971,3.862ZM2.145,22.37l.059.051c.838-.419,1.687-.817,2.51-1.264a1.028,1.028,0,0,1,1.236.083,10.646,10.646,0,0,0,7.791,1.938,10.989,10.989,0,1,0-10.37-4.49.915.915,0,0,1,.082,1.077C3,20.624,2.579,21.5,2.145,22.37M24.138,9.081a12.082,12.082,0,0,1-1.32,9.484,12.238,12.238,0,0,1-7.735,5.684,10.921,10.921,0,0,0,9.737,6.777,10.666,10.666,0,0,0,6.794-2.077.9.9,0,0,1,1.075-.076c.785.419,1.587.8,2.384,1.2.076.038.161.06.3.11-.462-.924-.878-1.792-1.328-2.642a.933.933,0,0,1,.082-1.109,10.233,10.233,0,0,0,2.029-5.483,10.756,10.756,0,0,0-4.711-9.934,10.922,10.922,0,0,0-7.306-1.933" transform="translate(0 0)" fill="#727997"/>
        <path id="Path_835573" data-name="Path 835573" d="M30.749,28.862a1.934,1.934,0,1,1-.012,3.868,1.934,1.934,0,0,1,.012-3.868m.642,1.937a.64.64,0,1,0-.654.642.65.65,0,0,0,.654-.642" transform="translate(-18.473 -18.506)" fill="#727997"/>
        <path id="Path_835574" data-name="Path 835574" d="M43.249,30.789a1.938,1.938,0,0,1,3.876-.008,1.938,1.938,0,1,1-3.876.008m2.572.018a.637.637,0,1,0-1.274-.043.638.638,0,1,0,1.274.043" transform="translate(-27.731 -18.506)" fill="#727997"/>
        <path id="Path_835575" data-name="Path 835575" d="M14.43,30.775a1.935,1.935,0,0,1,3.87.02,1.935,1.935,0,1,1-3.87-.02m2.576.034a.646.646,0,1,0-.67.631.66.66,0,0,0,.67-.631" transform="translate(-9.252 -18.507)" fill="#727997"/>
        <path id="Path_835576" data-name="Path 835576" d="M64.875,52.378a1.929,1.929,0,0,1,1.953-1.906,1.934,1.934,0,0,1-.022,3.868,1.922,1.922,0,0,1-1.93-1.962m1.926.677a.647.647,0,1,0-.633-.663.652.652,0,0,0,.633.663" transform="translate(-41.597 -32.362)" fill="#727997"/>
        <path id="Path_835577" data-name="Path 835577" d="M83.137,52.409a1.935,1.935,0,1,1-3.869-.017,1.939,1.939,0,0,1,1.948-1.916,1.919,1.919,0,0,1,1.921,1.934M81.853,52.4a.646.646,0,1,0-.648.656.664.664,0,0,0,.648-.656" transform="translate(-50.826 -32.364)" fill="#727997"/>
      </g>
    </g>
  </g>
</svg>
