<svg xmlns="http://www.w3.org/2000/svg" xmlns:xlink="http://www.w3.org/1999/xlink" width="62" height="62" viewBox="0 0 62 62">
  <defs>
    <clipPath id="clip-path">
      <rect id="Rectangle_385329" data-name="Rectangle 385329" width="33.734" height="33.733" fill="none"/>
    </clipPath>
  </defs>
  <g id="Group_1087121" data-name="Group 1087121" transform="translate(-518 -1182.301)">
    <g id="Group_1017408" data-name="Group 1017408" transform="translate(245 -11723.699)">
      <g id="Group_1014856" data-name="Group 1014856" transform="translate(-111.999 10848)">
        <path id="Union_12" data-name="Union 12" d="M44.385,58.97a31.027,31.027,0,1,1,10.348-8.025L58.991,62Z" transform="translate(384.999 2058)" fill="#a3bfe4"/>
        <circle id="Ellipse_4842" data-name="Ellipse 4842" cx="26" cy="26" r="26" transform="translate(389.999 2063)" fill="#fff"/>
      </g>
    </g>
    <g id="Group_1017415" data-name="Group 1017415" transform="translate(533.631 1197.136)">
      <g id="Group_1017414" data-name="Group 1017414" transform="translate(0 0)" clip-path="url(#clip-path)">
        <path id="Path_835578" data-name="Path 835578" d="M0,32.88c.457-1.066.92-2.129,1.369-3.2q4.15-9.887,8.293-19.776c.042-.1.084-.2.118-.307a1.124,1.124,0,0,1,1.493-.853,10.335,10.335,0,0,1,1.943.857c.621.344,1.189.785,1.852,1.233.44-.717.927-1.422,1.323-2.173a15.457,15.457,0,0,0,1.665-6.015c.049-.6.077-1.205.086-1.808a.818.818,0,0,1,.5-.839h.33a.752.752,0,0,1,.494.74A18.281,18.281,0,0,1,17.53,9.318c-.424.8-.941,1.555-1.437,2.365.039.035.117.108.2.177A46.981,46.981,0,0,1,21.7,17.247a.4.4,0,0,0,.57.128,17.839,17.839,0,0,1,3.876-1.337.682.682,0,0,1,.83.295.587.587,0,0,1-.091.756,1.332,1.332,0,0,1-.489.242c-1.1.374-2.2.738-3.3,1.109a2.893,2.893,0,0,0-.289.137c.277.387.568.743.8,1.132.415.682.83,1.369,1.18,2.085a2.821,2.821,0,0,1,.234,1.112,1,1,0,0,1-.688.989c-1.69.7-3.384,1.392-5.072,2.1q-9.067,3.8-18.13,7.6c-.582.244-.8.182-1.135-.319v-.4M10.339,11.706c-.25.594-.462,1.208-.761,1.776a1.057,1.057,0,0,0,.184,1.366,18.123,18.123,0,0,1,1.584,2.411.638.638,0,0,1-.484.968c-.3.043-.522-.127-.721-.46C9.7,17.036,9.245,16.319,8.8,15.6l-.1.035c-.166.391-.311.793-.505,1.17a.927.927,0,0,0,.039.939C8.8,18.9,9.383,20.057,9.848,21.259a10.9,10.9,0,0,1,.754,5.579c-.072.493-.214.975-.33,1.491.354-.147.707-.267,1.031-.439a1.261,1.261,0,0,0,.522-.451,16.916,16.916,0,0,0,.9-1.9,13.725,13.725,0,0,0,.725-7.687,16.148,16.148,0,0,0-3.114-6.149m11.255,7.475c-.215.115-.4.228-.6.32a.653.653,0,0,1-.639-1.136c.112-.079.233-.147.373-.235a46.544,46.544,0,0,0-5.533-5.468c-.56.471-.844.533-1.158.261s-.285-.6.074-1.124a11.748,11.748,0,0,0-3.02-1.777,4.794,4.794,0,0,0,.221.568,16.84,16.84,0,0,0,.862,1.474,40.551,40.551,0,0,0,8.177,8.522c.873.689,1.857,1.237,2.8,1.839a3.273,3.273,0,0,0,.577.216,13.79,13.79,0,0,0-2.129-3.46M7.373,18.8c-.094.211-.144.319-.19.429-.56,1.334-1.113,2.672-1.685,4a.69.69,0,0,0,.026.645,9.183,9.183,0,0,1,1.062,4.889c-.032.385-.11.766-.173,1.188.471-.2.919-.352,1.333-.57a2.185,2.185,0,0,0,.726-.576,4.8,4.8,0,0,0,.884-2.646,11,11,0,0,0-.835-4.694c-.337-.876-.741-1.726-1.149-2.667m7.29-1.6a15.435,15.435,0,0,1-1.06,9.716c.161-.058.252-.087.339-.123.778-.325,1.55-.664,2.336-.97a2,2,0,0,0,.892-.692,7.245,7.245,0,0,0,1.354-4.02.538.538,0,0,0-.208-.476c-1.13-1.055-2.25-2.12-3.373-3.182-.069-.065-.139-.127-.279-.253M1.89,31.848c.762-.319,1.425-.644,2.119-.872a1.487,1.487,0,0,0,1.008-1.093,6.64,6.64,0,0,0-.309-4.562c0-.011-.038-.009-.075-.017L1.89,31.848m17.2-7.211,2.96-1.245-2.2-1.478-.758,2.723" transform="translate(0 0)" fill="#727997"/>
        <path id="Path_835579" data-name="Path 835579" d="M83.423,0c.082.028.163.058.245.085a1.977,1.977,0,0,1-.579,3.868,1.989,1.989,0,0,1-1.958-1.7A2,2,0,0,1,82.518.083c.083-.026.164-.056.246-.083Zm.325,1.981a.656.656,0,1,0-.678.652.666.666,0,0,0,.678-.652" transform="translate(-57.395 0)" fill="#727997"/>
        <path id="Path_835580" data-name="Path 835580" d="M97.193,39.153a1.974,1.974,0,1,1,0,3.947,1.974,1.974,0,0,1,0-3.947m.025,1.32a.64.64,0,0,0-.665.626.651.651,0,1,0,1.3.03.64.64,0,0,0-.636-.656" transform="translate(-67.387 -27.705)" fill="#727997"/>
        <path id="Path_835581" data-name="Path 835581" d="M90.113,22.417a.735.735,0,0,1,.728.655.676.676,0,0,1-.675.7A10.1,10.1,0,0,0,85.7,25.22a9.008,9.008,0,0,0-.985.765c-.371.315-.743.346-1.022.056a.679.679,0,0,1,.113-1.012,9.493,9.493,0,0,1,4.368-2.242c.636-.159,1.29-.249,1.935-.371" transform="translate(-59.1 -15.863)" fill="#727997"/>
        <path id="Path_835582" data-name="Path 835582" d="M92.011,92.266c0,.186,0,.326,0,.465,0,.545-.236.848-.651.853s-.66-.3-.666-.838c0-.141,0-.282,0-.476-.217,0-.41.007-.6,0a.658.658,0,1,1,0-1.313c.184-.007.368,0,.6,0,0-.152,0-.268,0-.384,0-.634.219-.933.668-.928s.648.3.651.913c0,.118,0,.237,0,.4.242,0,.447-.009.651,0a.652.652,0,0,1,.032,1.3c-.214.018-.432,0-.683,0" transform="translate(-63.249 -63.432)" fill="#727997"/>
        <path id="Path_835583" data-name="Path 835583" d="M68.385,34.352c-.235,0-.409.005-.583,0a.662.662,0,0,1-.728-.673.654.654,0,0,1,.722-.641c.183-.006.366,0,.592,0,0-.249-.011-.455,0-.66a.653.653,0,1,1,1.306.01c.012.2,0,.409,0,.653.255,0,.462-.01.667,0a.651.651,0,0,1,.039,1.3c-.215.021-.434,0-.7,0,0,.227.007.42,0,.613a.659.659,0,1,1-1.313-.011c-.007-.183,0-.367,0-.594" transform="translate(-47.463 -22.448)" fill="#727997"/>
        <path id="Path_835584" data-name="Path 835584" d="M111.433,24.2a.7.7,0,0,1-.714-.67.664.664,0,0,1,.652-.653.68.68,0,0,1,.71.667.665.665,0,0,1-.648.657" transform="translate(-78.347 -16.188)" fill="#727997"/>
        <path id="Path_835585" data-name="Path 835585" d="M74.593,17.571a.648.648,0,0,1-.663.66.657.657,0,1,1,.023-1.313.654.654,0,0,1,.639.653" transform="translate(-51.857 -11.971)" fill="#727997"/>
        <path id="Path_835586" data-name="Path 835586" d="M97.39,64.02a.657.657,0,1,1-.036,1.312.657.657,0,0,1,.036-1.312" transform="translate(-68.441 -45.302)" fill="#727997"/>
        <path id="Path_835587" data-name="Path 835587" d="M104.791,81.6a.648.648,0,0,1-.658.632.656.656,0,1,1,.014-1.312.654.654,0,0,1,.644.681" transform="translate(-73.225 -57.263)" fill="#727997"/>
        <path id="Path_835588" data-name="Path 835588" d="M39.954,8.054a1.96,1.96,0,0,1,1.98,1.952,1.972,1.972,0,1,1-1.98-1.952m.017,1.32a.64.64,0,0,0-.659.632.651.651,0,1,0,1.3.018.642.642,0,0,0-.643-.65" transform="translate(-26.883 -5.699)" fill="#727997"/>
        <path id="Path_835589" data-name="Path 835589" d="M16.963,12.492c0,.243.011.448,0,.652a.653.653,0,1,1-1.306-.006c-.012-.2,0-.393,0-.646-.2,0-.385,0-.566,0-.464-.013-.743-.26-.747-.654s.275-.647.735-.662c.554-.018.554-.018.575-.575.017-.463.264-.739.661-.737s.639.276.656.742c.02.55.02.55.58.57.458.016.736.27.729.667a.659.659,0,0,1-.719.649c-.183.007-.367,0-.594,0" transform="translate(-10.147 -6.98)" fill="#727997"/>
        <path id="Path_835590" data-name="Path 835590" d="M29.765,3.575a.674.674,0,0,1-.653-.655.673.673,0,0,1,.683-.658.657.657,0,0,1-.03,1.313" transform="translate(-20.6 -1.6)" fill="#727997"/>
        <path id="Path_835591" data-name="Path 835591" d="M36.483,64.38a.636.636,0,0,1,.636-.651.657.657,0,0,1,.676.653.676.676,0,0,1-.644.66.66.66,0,0,1-.668-.661" transform="translate(-25.816 -45.096)" fill="#727997"/>
      </g>
    </g>
  </g>
</svg>
