<svg xmlns="http://www.w3.org/2000/svg" xmlns:xlink="http://www.w3.org/1999/xlink" width="62" height="62" viewBox="0 0 62 62">
  <defs>
    <clipPath id="clip-path">
      <rect id="Rectangle_385331" data-name="Rectangle 385331" width="38.674" height="25.69" transform="translate(0 0)" fill="none"/>
    </clipPath>
  </defs>
  <g id="Group_1087124" data-name="Group 1087124" transform="translate(-1265 -1182.301)">
    <g id="Group_1017411" data-name="Group 1017411" transform="translate(992 -11723.699)">
      <g id="Group_1014856" data-name="Group 1014856" transform="translate(-111.999 10848)">
        <path id="Union_12" data-name="Union 12" d="M44.385,58.97a31.027,31.027,0,1,1,10.348-8.025L58.991,62Z" transform="translate(384.999 2058)" fill="#a3bfe4"/>
        <circle id="Ellipse_4842" data-name="Ellipse 4842" cx="26" cy="26" r="26" transform="translate(389.999 2063)" fill="#fff"/>
      </g>
    </g>
    <g id="Group_1017419" data-name="Group 1017419" transform="translate(1276.526 1202.06)">
      <g id="Group_1017418" data-name="Group 1017418" transform="translate(0 0)" clip-path="url(#clip-path)">
        <path id="Path_835598" data-name="Path 835598" d="M0,34.732l.375-2.185c.019-.112.031-.225.059-.334a.543.543,0,0,1,.634-.453.526.526,0,0,1,.462.625c-.082.661-.177,1.322-.3,1.977a3.155,3.155,0,0,0,.49,2.658A3.116,3.116,0,0,0,5.107,38.1a5.174,5.174,0,0,0,3.37-2.3c.708-1.07,1.427-2.134,2.108-3.222a3.469,3.469,0,0,1,3.168-1.761,1.194,1.194,0,0,0,.15-.013.492.492,0,0,0,.076-.04c0-.21-.005-.446,0-.681a1.85,1.85,0,0,1,1.853-1.851q3.494-.019,6.988,0a1.857,1.857,0,0,1,1.882,1.9c0,.212,0,.424,0,.661.3.023.568.034.838.066a3.218,3.218,0,0,1,2.389,1.481c.761,1.141,1.5,2.3,2.261,3.437A5.125,5.125,0,0,0,34.56,38.2,2.922,2.922,0,0,0,37.5,34.762q-1.033-6.636-2.057-13.274c-.01-.062-.014-.125-.02-.188-.044-.443.13-.719.478-.76.323-.038.578.188.642.6q.657,4.232,1.306,8.465c.258,1.678.522,3.356.773,5.035a4.083,4.083,0,0,1-4.54,4.676,6.416,6.416,0,0,1-4.9-3.009c-.7-1.075-1.418-2.14-2.109-3.221a2.339,2.339,0,0,0-2.12-1.138q-5.609.007-11.218,0a2.364,2.364,0,0,0-2.146,1.162c-.7,1.1-1.423,2.2-2.152,3.283a6.26,6.26,0,0,1-5.287,2.935A4.048,4.048,0,0,1,.078,36.074c-.02-.1-.052-.189-.078-.284V34.732M23.572,30.8v-.429c0-.781-.227-1.009-1.008-1.01H19.508c-1.194,0-2.389,0-3.583,0a.724.724,0,0,0-.8.638,7.357,7.357,0,0,0-.005.8Z" transform="translate(0 -13.651)" fill="#727997"/>
        <path id="Path_835599" data-name="Path 835599" d="M37.772,4.779a.548.548,0,0,1-.481.6.542.542,0,0,1-.636-.454c-.066-.307-.1-.621-.158-.929a3.433,3.433,0,0,0-3.34-2.842c-1.233-.032-2.467-.025-3.7-.011a2.965,2.965,0,0,0-1.851.661,4.92,4.92,0,0,1-3.254,1.088c-2.278-.028-4.557-.022-6.836,0a4.629,4.629,0,0,1-3.075-1.039,3.22,3.22,0,0,0-2.1-.715c-1.12,0-2.241,0-3.361.012A3.49,3.49,0,0,0,5.436,4.217Q4.527,10.107,3.616,16c-.066.424-.333.663-.668.6s-.519-.35-.452-.783Q3.118,11.808,3.745,7.8c.2-1.3.383-2.614.614-3.913A4.427,4.427,0,0,1,8.48.068a44.067,44.067,0,0,1,4.562.006,3.364,3.364,0,0,1,2,.818,3.9,3.9,0,0,0,2.62.871c2.3-.031,4.607-.018,6.911-.005a3.364,3.364,0,0,0,2.173-.727A4.718,4.718,0,0,1,29.9,0c1.006.025,2.014.009,3.021.013A4.628,4.628,0,0,1,37.687,4.2c.027.2.059.4.085.575" transform="translate(-1.65 0)" fill="#727997"/>
        <path id="Path_835600" data-name="Path 835600" d="M18.795,15.457c0-.42,0-.82,0-1.219a1.964,1.964,0,1,1,3.927-.015c.005.4,0,.8,0,1.255.451,0,.874-.013,1.3,0a1.975,1.975,0,0,1,1.866,1.4,1.889,1.889,0,0,1-.754,2.159,2.994,2.994,0,0,1-1.125.358,9.107,9.107,0,0,1-1.283.013c0,.423,0,.809,0,1.2a1.966,1.966,0,1,1-3.928.013c0-.387,0-.774,0-1.213-.485,0-.935.015-1.384,0a1.955,1.955,0,0,1-1.853-1.725,1.93,1.93,0,0,1,1.408-2.1,8.456,8.456,0,0,1,1.424-.1c.123-.007.245-.011.4-.018m2.8-.345h0c0-.277,0-.554,0-.83a.834.834,0,1,0-1.662-.011c-.007.541,0,1.082,0,1.623,0,.517-.192.71-.7.714-.553,0-1.108-.009-1.661.006a.839.839,0,0,0-.883.838.83.83,0,0,0,.891.822c.553.01,1.107,0,1.661.005.487.007.688.211.693.693.005.541,0,1.082,0,1.623a.835.835,0,1,0,1.662.011c.006-.516,0-1.032,0-1.548,0-.6.183-.779.795-.781.516,0,1.032.011,1.548-.008a1.192,1.192,0,0,0,.533-.143.788.788,0,0,0,.342-.886.836.836,0,0,0-.844-.626c-.591-.014-1.183,0-1.774-.009a.55.55,0,0,1-.6-.587c-.012-.3,0-.6,0-.906" transform="translate(-10.333 -8.132)" fill="#727997"/>
        <path id="Path_835601" data-name="Path 835601" d="M67.808,25.686a2.127,2.127,0,1,1-.03-4.253,2.127,2.127,0,1,1,.03,4.253m-.017-1.134a1,1,0,0,0,1-.968,1,1,0,1,0-1.993,0,.994.994,0,0,0,.993.973" transform="translate(-43.65 -14.247)" fill="#727997"/>
        <path id="Path_835602" data-name="Path 835602" d="M78.518,32.2a2.121,2.121,0,0,1,.025,4.243,2.121,2.121,0,1,1-.025-4.243m1,2.108a.969.969,0,0,0-.988-.975.988.988,0,1,0,.988.975" transform="translate(-50.79 -21.407)" fill="#727997"/>
        <path id="Path_835603" data-name="Path 835603" d="M80.65,12.845a2.124,2.124,0,1,1-2.105-2.118,2.127,2.127,0,0,1,2.105,2.118m-2.113-.984a.993.993,0,0,0-1,.972,1.013,1.013,0,0,0,1.005,1.013.99.99,0,0,0,.974-1,.974.974,0,0,0-.979-.986" transform="translate(-50.789 -7.131)" fill="#727997"/>
        <path id="Path_835604" data-name="Path 835604" d="M87.163,23.553a2.123,2.123,0,1,1,2.127,2.134,2.127,2.127,0,0,1-2.127-2.134m2.108,1a.99.99,0,0,0,1-.967,1.008,1.008,0,0,0-1-1.016.99.99,0,0,0-.978.993.973.973,0,0,0,.974.99" transform="translate(-57.942 -14.248)" fill="#727997"/>
      </g>
    </g>
  </g>
</svg>
