<svg xmlns="http://www.w3.org/2000/svg" xmlns:xlink="http://www.w3.org/1999/xlink" width="399.999" height="218.253" viewBox="0 0 399.999 218.253">
  <defs>
    <clipPath id="clip-path">
      <rect id="Rectangle_386037" data-name="Rectangle 386037" width="399.999" height="218.253" fill="none"/>
    </clipPath>
  </defs>
  <g id="Group_1019654" data-name="Group 1019654" transform="translate(0 -0.004)">
    <g id="Group_1019653" data-name="Group 1019653" transform="translate(0 0.004)" clip-path="url(#clip-path)">
      <path id="Path_838354" data-name="Path 838354" d="M18.157,214.288c-49.4-38.371,20.32-49.62-3.664-82.04C-1.564,110.542,3.8,73.036,30.225,62.668c32.593-12.787,77.292,12.006,104.7-16.579C154.7,25.462,172.518,5.663,203.314.867c53.539-8.338,56.48,46.483,97.549,47.8,25.183.809,50.247-11.362,70.683,10.464,29.349,31.347,35.157,79.007,21.271,119.041-5.111,14.737-15.488,35.938-15.488,35.938Z" transform="translate(0 -0.004)" fill="#e3eaff"/>
      <path id="Path_838355" data-name="Path 838355" d="M1305.133,1324.378s2.138,3.881-1.274,10.778c-3.478,7.028-2.844,11.937-2.844,11.937l-3.219,3.033s-.546-7.81,2.518-13.324a44.143,44.143,0,0,0,4.819-12.424" transform="translate(-1137.256 -1160.584)" fill="#95a6db"/>
      <path id="Path_838356" data-name="Path 838356" d="M1358.634,1342.034s.57,3.216-3.281,7.684c-3.935,4.549-4.6,8.264-4.6,8.264l-2.643,2.1s1.16-6.257,4.474-9.772a37.918,37.918,0,0,0,6.046-8.279" transform="translate(-1181.384 -1176.056)" fill="#95a6db"/>
      <path id="Path_838357" data-name="Path 838357" d="M1261.15,1383.8s-2.885,1.992-4.743,10.086c-1.515,6.6-.019,10.056-.972,14.1l4.089-4.384c.257-2.869-1.581-4.767-.5-10.815a70.533,70.533,0,0,1,2.122-8.986" transform="translate(-1100.167 -1212.657)" fill="#95a6db"/>
      <path id="Path_838358" data-name="Path 838358" d="M1090.228,1580.958s-1.286,3.272,1.685,11.02c2.42,6.322,5.711,7.173,6.341,8.631l1.429-3.182c-1.748-2.485-3.736-2.194-6.208-7.819a71.456,71.456,0,0,1-3.247-8.649" transform="translate(-955.15 -1385.431)" fill="#95a6db"/>
      <path id="Path_838359" data-name="Path 838359" d="M1204.885,1424.495a60.158,60.158,0,0,0-2.467,9.357c-.673,5.181,1.364,7.964,1.057,13.306l-2.877,3.462a23.093,23.093,0,0,1-1.414-11.975c1.821-10.672,5.7-14.15,5.7-14.15" transform="translate(-1050.634 -1248.319)" fill="#95a6db"/>
      <path id="Path_838360" data-name="Path 838360" d="M1143.246,1445.808a34.818,34.818,0,0,1,.186,10.131,27.712,27.712,0,0,0,3.968,17.953l-2.142,2.029s-6.569-5.419-5.166-13.949c1.492-9.014,3.155-16.164,3.155-16.164" transform="translate(-998.916 -1266.996)" fill="#95a6db"/>
      <path id="Path_838361" data-name="Path 838361" d="M1260.932,1547.914s2.414-.838,12.414.5c6.408.863,4.549-1.58,10.59.294-4.609.375-6.2,3.728-12.208,3.271a92.257,92.257,0,0,0-14.432.027Z" transform="translate(-1101.798 -1356.248)" fill="#95a6db"/>
      <path id="Path_838362" data-name="Path 838362" d="M1237.1,1601s-3.965,4.921-12.839,4.225a49.975,49.975,0,0,0-16.261,1.441l2.71-4.455s3.7-2.645,12.854-1.036A45.569,45.569,0,0,0,1237.1,1601" transform="translate(-1058.6 -1402.692)" fill="#95a6db"/>
      <path id="Path_838363" data-name="Path 838363" d="M1193.834,1668.933s-3.965,4.921-12.839,4.225a49.971,49.971,0,0,0-16.26,1.441l2.709-4.455s3.7-2.645,12.855-1.036a45.565,45.565,0,0,0,13.536-.175" transform="translate(-1020.684 -1462.224)" fill="#95a6db"/>
      <path id="Path_838364" data-name="Path 838364" d="M1365.292,1470.828s-2.851,2.547-8.443,1.9a27.689,27.689,0,0,0-9.851.531l1.608-1.66s2.337-1.672,8.125-.657a28.882,28.882,0,0,0,8.56-.111" transform="translate(-1180.407 -1288.732)" fill="#95a6db"/>
      <path id="Path_838365" data-name="Path 838365" d="M1300.354,1500.982a63.291,63.291,0,0,1,10.794.2c4.052.372,9.458-2.031,9.458-2.031s-4.2,5.779-10.251,4.842a55.785,55.785,0,0,0-13.815-.185Z" transform="translate(-1136.188 -1313.738)" fill="#95a6db"/>
      <path id="Path_838366" data-name="Path 838366" d="M1356.534,1409.381s3.668-5.67,9.771-6.758a32.99,32.99,0,0,0,10.277-3.769s-3.411,5.855-9.121,6.25a16.026,16.026,0,0,0-8.948,3.829Z" transform="translate(-1188.763 -1225.85)" fill="#95a6db"/>
      <path id="Path_838367" data-name="Path 838367" d="M1154.594,1504.493l-.913-.388c2.4-5.629,13.146-23.9,26.576-32.949l.554.823c-13.244,8.929-23.85,26.958-26.218,32.515" transform="translate(-1010.998 -1289.208)" fill="#95a6db"/>
      <path id="Path_838368" data-name="Path 838368" d="M2571.6,1357.7c-1.427.731-2.915,1-3.6,0-.593-.864,1.538-2.331,3.6-3.185v-3.586a8.05,8.05,0,0,1-3.6,1.422c-1.838.12-1.823-.927,1.315-2.719a17.053,17.053,0,0,0,2.287-1.545v-9.979c-2.134,3.431-6.511,10.034-8.013,9.1-2.1-1.295,7.345-9.631,7.865-12.363.316-1.668-3.19-8.737-3.19-8.737s-6.08,14.441-9,13.385c-1.407-.506,7.082-13.054,5.83-15.333s-4.758-4.157-4.758-4.157-2.89,11.046-4.4,9.766c-1.217-1.027,2.612-8.276,1.821-11.206a7.783,7.783,0,0,0-4.508-5.236s-1.888,6.666-4.079,5.294c-.859-.538,2.2-5.271,1.926-7.365-2.937.158-5.484.11-7.4-1.422-.04,1.623-2.3,3.518-5.509,5.529,1.167,2.709,7.107,3.724,6.315,5.719-.656,1.658-7.57-2.91-7.57-2.91s-2.5,3.3-1.252,6.686c.981,2.63,7.407,5.3,6.325,6.616-1.337,1.63-8.379-4.468-8.2-3.882,1.362,4.453-.571,9.861-.571,9.861,3.155,8.226,15.809,10.357,14.058,12.328-1.562,1.753-13.657-6.691-13.657-6.691l1.415,5.885s6.6,6.576,15.275,8.484c-4.478,2.194-14.036-3.428-14.036-3.428a31.156,31.156,0,0,0,4.385,8.942H2571.6Zm-33.361-34.515c.5-.643,6.588,2.121,5.74,3.711s-6.861-2.276-5.74-3.711m9.889,19.219c-.518,1.57-4.741-.03-7.112-1.52-3.045-1.913-4.615-4.182-3.628-5.208,1.079-1.124,3.14,1.042,5.932,2.374,3.315,1.585,5.309,2.838,4.808,4.355m.378-7.748c-.6,1.415-4.457-.188-4.132-1.753.213-1.027,4.73.338,4.132,1.753m5.332,17.193c-.619,1.668-4.806-.3-4.11-1.815.541-1.174,4.728.148,4.11,1.815m-1.413-25.074c-1.665-.561,1.054-5.96,2.567-5.071s-.922,5.622-2.567,5.071m2.755-6.982a.588.588,0,1,1,0,.005l-.009,0Z" transform="translate(-2219.923 -1147.838)" fill="#95a6db"/>
      <path id="Path_838369" data-name="Path 838369" d="M2654.466,1411.557l13.4,40.56h1.806Z" transform="translate(-2326.171 -1236.981)" fill="#3a62ad"/>
      <path id="Path_838370" data-name="Path 838370" d="M2650.233,1593.968l9.811,2.2.075,1.074Z" transform="translate(-2322.461 -1396.832)" fill="#3a62ad"/>
      <path id="Path_838371" data-name="Path 838371" d="M2702.881,1482.049l5.046-9.466-5.494,8.269Z" transform="translate(-2368.205 -1290.459)" fill="#3a62ad"/>
      <path id="Path_838372" data-name="Path 838372" d="M2746.467,1627.308l6.333-6.128-6.43,4.382Z" transform="translate(-2406.708 -1420.679)" fill="#3a62ad"/>
      <path id="Path_838373" data-name="Path 838373" d="M477.882,1362.974h30.936a31.146,31.146,0,0,0,4.385-8.942s-9.558,5.622-14.036,3.428c8.679-1.908,15.275-8.484,15.275-8.484l1.415-5.885s-12.1,8.444-13.658,6.691c-1.75-1.971,10.9-4.1,14.058-12.328,0,0-1.933-5.409-.571-9.861.178-.586-6.864,5.512-8.2,3.882-1.082-1.32,5.344-3.986,6.325-6.616,1.252-3.388-1.252-6.686-1.252-6.686s-6.914,4.568-7.57,2.91c-.791-2,5.149-3.01,6.315-5.719-3.208-2.011-5.469-3.907-5.509-5.529-1.918,1.532-4.465,1.58-7.4,1.422-.276,2.094,2.785,6.826,1.926,7.365-2.191,1.372-4.079-5.294-4.079-5.294a7.784,7.784,0,0,0-4.507,5.236c-.791,2.93,3.038,10.179,1.82,11.206-1.513,1.28-4.4-9.766-4.4-9.766s-3.506,1.878-4.758,4.157,7.237,14.827,5.83,15.333c-2.922,1.057-9-13.385-9-13.385s-3.506,7.069-3.19,8.737c.521,2.732,9.964,11.068,7.865,12.363-1.5.937-5.88-5.667-8.013-9.1v9.979a17.054,17.054,0,0,0,2.286,1.545c3.138,1.793,3.153,2.84,1.315,2.72a8.054,8.054,0,0,1-3.6-1.422v3.586c2.063.854,4.194,2.321,3.6,3.185-.686,1-2.174.731-3.6,0ZM505.5,1326.9c-.849-1.59,5.239-4.355,5.739-3.711,1.122,1.434-4.891,5.3-5.739,3.711m.659,11.153c2.792-1.332,4.853-3.5,5.932-2.374.987,1.027-.583,3.3-3.628,5.209-2.371,1.49-6.593,3.09-7.112,1.52-.5-1.517,1.492-2.77,4.808-4.355m-1.054-5.146c.326,1.565-3.533,3.168-4.132,1.753s3.919-2.78,4.132-1.753m-9.463,18.946c-.618-1.668,3.568-2.99,4.109-1.815.7,1.513-3.491,3.483-4.109,1.815m1.412-25.074c-1.645.551-4.079-4.182-2.567-5.071s4.232,4.51,2.567,5.071m-2.749-6.979-.008,0a6.275,6.275,0,1,1,0-.005Z" transform="translate(-418.779 -1147.838)" fill="#95a6db"/>
      <path id="Path_838374" data-name="Path 838374" d="M559.16,1411.557l-13.4,40.56H543.95Z" transform="translate(-476.676 -1236.981)" fill="#3a62ad"/>
      <path id="Path_838375" data-name="Path 838375" d="M601.115,1593.968l-9.811,2.2-.075,1.074Z" transform="translate(-518.107 -1396.832)" fill="#3a62ad"/>
      <path id="Path_838376" data-name="Path 838376" d="M579.59,1482.049l-5.046-9.466,5.494,8.269Z" transform="translate(-503.487 -1290.459)" fill="#3a62ad"/>
      <path id="Path_838377" data-name="Path 838377" d="M529.368,1627.308l-6.333-6.128,6.431,4.382Z" transform="translate(-458.348 -1420.679)" fill="#3a62ad"/>
      <path id="Path_838378" data-name="Path 838378" d="M2986.253,1546.063q-4.33-5.381-1.674-14.226,4.626,8,1.674,14.226" transform="translate(-2614.572 -1342.385)" fill="#95a6db"/>
      <path id="Path_838379" data-name="Path 838379" d="M3022.877,1488.163q-3.159-5.446.456-13.045,3.07,7.845-.456,13.045" transform="translate(-2647.727 -1292.681)" fill="#95a6db"/>
      <path id="Path_838380" data-name="Path 838380" d="M3059.236,1428.5q-2.207-5.559,2.25-12.195,1.8,7.8-2.25,12.195" transform="translate(-2680.24 -1241.143)" fill="#95a6db"/>
      <path id="Path_838381" data-name="Path 838381" d="M3105.629,1378.182q.109,6.767-4.017,9.7-.839-5,4.017-9.7" transform="translate(-2717.908 -1207.734)" fill="#95a6db"/>
      <path id="Path_838382" data-name="Path 838382" d="M3148.706,1363.564q-.914,5.591-4.74,7.391.044-4.236,4.74-7.391" transform="translate(-2755.131 -1194.924)" fill="#95a6db"/>
      <path id="Path_838383" data-name="Path 838383" d="M3167.829,1387.656q1.555-3.938,7.073-5.208-2.858,4.895-7.073,5.208" transform="translate(-2776.043 -1211.473)" fill="#95a6db"/>
      <path id="Path_838384" data-name="Path 838384" d="M3038.942,1608.151q-5.772,7.317-12.727,6.846,3.437-6.045,12.727-6.846" transform="translate(-2651.944 -1409.261)" fill="#95a6db"/>
      <path id="Path_838385" data-name="Path 838385" d="M3069.491,1521.8q4.333-3.7,11.7-1.713-6.485,4-11.7,1.713" transform="translate(-2689.867 -1331.479)" fill="#95a6db"/>
      <path id="Path_838386" data-name="Path 838386" d="M3108.217,1479.858q-5.641,3.49-10.183,1.491,3.768-3.222,10.183-1.491" transform="translate(-2714.88 -1296.305)" fill="#95a6db"/>
      <path id="Path_838387" data-name="Path 838387" d="M3134.946,1444.189q3.771-3.211,10.182-1.491-5.644,3.49-10.182,1.491" transform="translate(-2747.227 -1263.744)" fill="#95a6db"/>
      <path id="Path_838388" data-name="Path 838388" d="M2993.716,1464.329c2.423-10.746,2.715-9.881,5.243-16.128q1.022-2.533,2.185-4.8a48.2,48.2,0,0,1,5.834-8.642q3.863-4.759,6.717-6.271l.18-.212a.172.172,0,0,1,.19-.113.3.3,0,0,1,.236-.007.543.543,0,0,1,.153.2.3.3,0,0,1,.007.236l-.067.163a.639.639,0,0,1-.2.156v.039l-.173.073q-2.756,1.537-6.514,6.132a47.278,47.278,0,0,0-5.706,8.6,50.426,50.426,0,0,0-2.191,4.711l-.167.42q3.869-4.934,12.26-4.411-6.12,5.753-12.26,4.411c-2.448,6.152-2.668,5.106-5.026,15.582Z" transform="translate(-2623.463 -1251.505)" fill="#95a6db"/>
      <path id="Path_838389" data-name="Path 838389" d="M275.873,1556.789q4.33-5.381,1.674-14.226-4.626,8-1.674,14.226" transform="translate(-240.746 -1351.786)" fill="#95a6db"/>
      <path id="Path_838390" data-name="Path 838390" d="M242.623,1498.889q3.159-5.446-.456-13.045-3.07,7.845.456,13.045" transform="translate(-210.965 -1302.081)" fill="#95a6db"/>
      <path id="Path_838391" data-name="Path 838391" d="M205,1439.23q2.207-5.559-2.25-12.195-1.8,7.8,2.25,12.195" transform="translate(-177.19 -1250.545)" fill="#95a6db"/>
      <path id="Path_838392" data-name="Path 838392" d="M154.308,1388.908q-.11,6.767,4.016,9.7.84-5-4.016-9.7" transform="translate(-135.221 -1217.133)" fill="#95a6db"/>
      <path id="Path_838393" data-name="Path 838393" d="M107,1374.29q.914,5.591,4.74,7.391-.044-4.236-4.74-7.391" transform="translate(-93.767 -1204.323)" fill="#95a6db"/>
      <path id="Path_838394" data-name="Path 838394" d="M71.348,1398.383q-1.555-3.939-7.073-5.208,2.858,4.895,7.073,5.208" transform="translate(-56.326 -1220.873)" fill="#95a6db"/>
      <path id="Path_838395" data-name="Path 838395" d="M170.671,1609.531q5.772,7.316,12.727,6.845-3.437-6.045-12.727-6.845" transform="translate(-149.563 -1410.47)" fill="#95a6db"/>
      <path id="Path_838396" data-name="Path 838396" d="M136.875,1532.525q-4.333-3.7-11.7-1.713,6.485,4,11.7,1.713" transform="translate(-109.691 -1340.879)" fill="#95a6db"/>
      <path id="Path_838397" data-name="Path 838397" d="M108.925,1490.584q5.641,3.49,10.182,1.491-3.767-3.222-10.182-1.491" transform="translate(-95.454 -1305.704)" fill="#95a6db"/>
      <path id="Path_838398" data-name="Path 838398" d="M82.2,1454.915q-3.771-3.211-10.182-1.491,5.644,3.49,10.182,1.491" transform="translate(-63.108 -1273.144)" fill="#95a6db"/>
      <path id="Path_838399" data-name="Path 838399" d="M148.442,1475.055c-2.422-10.745-2.715-9.881-5.243-16.128q-1.023-2.533-2.185-4.8a48.212,48.212,0,0,0-5.834-8.642q-3.863-4.759-6.717-6.271l-.18-.213a.172.172,0,0,0-.19-.113.3.3,0,0,0-.236-.007.55.55,0,0,0-.152.2.3.3,0,0,0-.007.236l.067.163a.645.645,0,0,0,.2.156v.039l.173.073q2.757,1.538,6.513,6.132a47.273,47.273,0,0,1,5.707,8.6,50.413,50.413,0,0,1,2.191,4.712l.167.42q-3.869-4.934-12.26-4.411,6.12,5.753,12.26,4.411c2.448,6.152,2.668,5.105,5.026,15.582Z" transform="translate(-111.886 -1260.905)" fill="#95a6db"/>
      <path id="Path_838400" data-name="Path 838400" d="M114.315,1580.2q-.988-4.54-6.738-6.884,2.22,5.808,6.738,6.884" transform="translate(-94.272 -1378.738)" fill="#95a6db"/>
      <path id="Path_838401" data-name="Path 838401" d="M57.3,1571.45q2.863,4.409,6.794,4.509-1.629-3.59-6.794-4.509" transform="translate(-50.216 -1377.099)" fill="#95a6db"/>
      <path id="Path_838402" data-name="Path 838402" d="M20.463,1582.552q3.013,3.207,6.26,2.708-1.865-2.711-6.26-2.708" transform="translate(-17.932 -1386.828)" fill="#95a6db"/>
      <path id="Path_838403" data-name="Path 838403" d="M7.93,1608.427q-2.71-1.865-6.816-.29,3.964,1.916,6.816.29" transform="translate(-0.976 -1408.617)" fill="#95a6db"/>
      <path id="Path_838404" data-name="Path 838404" d="M160.786,1702.358q6.892,2.213,11.171-1.107-4.836-2.406-11.171,1.107" transform="translate(-140.901 -1489.99)" fill="#95a6db"/>
      <path id="Path_838405" data-name="Path 838405" d="M110.461,1646.249q-4.4-.506-8.285,3.971,5.915-.231,8.285-3.971" transform="translate(-89.539 -1442.602)" fill="#95a6db"/>
      <path id="Path_838406" data-name="Path 838406" d="M73.988,1634.633q5.149-.2,7.209-3.454-3.825-.443-7.209,3.454" transform="translate(-64.837 -1429.401)" fill="#95a6db"/>
      <path id="Path_838407" data-name="Path 838407" d="M41.28,1623.223q-3.823-.435-7.209,3.454,5.151-.2,7.209-3.454" transform="translate(-29.857 -1422.43)" fill="#95a6db"/>
      <path id="Path_838408" data-name="Path 838408" d="M91.63,1628.114c-6.22-5.875-6.034-5.191-10.372-8.121q-1.757-1.189-3.491-2.149a37.464,37.464,0,0,0-7.507-3.04,19.133,19.133,0,0,0-7.048-1.129l-.208-.059a.133.133,0,0,0-.171.01.232.232,0,0,0-.155.1.428.428,0,0,0-.01.2.232.232,0,0,0,.1.155l.114.076a.5.5,0,0,0,.2.013l.016.026.143-.028a19.832,19.832,0,0,1,6.857,1.128,36.709,36.709,0,0,1,7.405,3.065,39.157,39.157,0,0,1,3.455,2.087l.29.2q-4.633-1.5-9.814,2.473,6.439,1.054,9.814-2.473c4.245,2.9,3.933,2.134,10,7.863Z" transform="translate(-54.91 -1414.027)" fill="#95a6db"/>
      <path id="Path_838409" data-name="Path 838409" d="M1924.561,1559.634q4.228-5.9.925-15.02-4.385,8.659-.925,15.02" transform="translate(-1685.201 -1353.582)" fill="#95a6db"/>
      <path id="Path_838410" data-name="Path 838410" d="M1885.315,1501.417q3-5.9-1.239-13.657-2.762,8.409,1.239,13.657" transform="translate(-1650.071 -1303.76)" fill="#95a6db"/>
      <path id="Path_838411" data-name="Path 838411" d="M1841.408,1441.393q1.991-5.96-3.072-12.661-1.435,8.286,3.072,12.661" transform="translate(-1610.673 -1252.032)" fill="#95a6db"/>
      <path id="Path_838412" data-name="Path 838412" d="M1783.648,1391.8q.28,7.1,4.779,9.939.589-5.3-4.779-9.939" transform="translate(-1563.053 -1219.665)" fill="#95a6db"/>
      <path id="Path_838413" data-name="Path 838413" d="M1733.152,1379.228q1.285,5.811,5.4,7.476-.294-4.44-5.4-7.476" transform="translate(-1518.802 -1208.651)" fill="#95a6db"/>
      <path id="Path_838414" data-name="Path 838414" d="M1697.16,1406.578q-1.861-4.041-7.723-5.05,3.283,4.968,7.723,5.05" transform="translate(-1480.494 -1228.192)" fill="#95a6db"/>
      <path id="Path_838415" data-name="Path 838415" d="M1803.2,1632.682q6.481,7.338,13.749,6.438-3.958-6.14-13.749-6.438" transform="translate(-1580.189 -1430.758)" fill="#95a6db"/>
      <path id="Path_838416" data-name="Path 838416" d="M1774.014,1541.329q-4.762-3.627-12.376-1.114,7.035,3.822,12.376,1.114" transform="translate(-1543.765 -1348.826)" fill="#95a6db"/>
      <path id="Path_838417" data-name="Path 838417" d="M1742.21,1499.244q6.121,3.331,10.768.969-4.14-3.16-10.768-.969" transform="translate(-1526.74 -1313.037)" fill="#95a6db"/>
      <path id="Path_838418" data-name="Path 838418" d="M1712.088,1463.391q-4.143-3.148-10.768-.969,6.124,3.331,10.768.969" transform="translate(-1490.907 -1280.774)" fill="#95a6db"/>
      <path id="Path_838419" data-name="Path 838419" d="M1782.644,1482.38c-3.168-11.13-3.424-10.206-6.441-16.611q-1.22-2.6-2.572-4.912a50.642,50.642,0,0,0-6.624-8.724q-4.33-4.767-7.412-6.186l-.2-.212a.181.181,0,0,0-.206-.107.313.313,0,0,0-.248.007.579.579,0,0,0-.148.222.313.313,0,0,0,.006.248l.08.167a.677.677,0,0,0,.222.152v.041l.186.066q2.981,1.452,7.191,6.052a49.666,49.666,0,0,1,6.488,8.683,53.062,53.062,0,0,1,2.573,4.814l.2.431q-4.346-4.95-13.117-3.911,6.755,5.677,13.117,3.911c2.927,6.31,3.1,5.2,6.182,16.052Z" transform="translate(-1541.251 -1266.818)" fill="#95a6db"/>
      <path id="Path_838420" data-name="Path 838420" d="M492.411,1735.07H128.96a2.092,2.092,0,1,1,0-4.183H492.411a2.092,2.092,0,0,1,0,4.183" transform="translate(-111.177 -1516.817)" fill="#95a6db"/>
      <path id="Path_838421" data-name="Path 838421" d="M516.744,524.9l-.5-3.306s2.316-.361,2.193-1.988L516,519.578s-1.311-1.2.194-4.855c.348-3.437-1.919-1.713-2.228-2.8-.456-1.605-3.33,1.612-3.419,5.012a15.33,15.33,0,0,0,2.226,7.959Z" transform="translate(-447.404 -448.237)" fill="#f37a50"/>
      <path id="Path_838422" data-name="Path 838422" d="M818.866,1668.744a3.428,3.428,0,0,1,2.465-2.417c3.265,4.592,11.281,1.774,11.016,7.985-12.191-.08-17.258,0-17.258,0a46.419,46.419,0,0,1,.538-6.138l.635.119Z" transform="translate(-714.282 -1460.242)"/>
      <path id="Path_838423" data-name="Path 838423" d="M671.381,1669.717a3.428,3.428,0,0,1,2.465-2.417c3.264,4.592,11.281,1.774,11.016,7.985-12.191-.08-17.258,0-17.258,0a46.427,46.427,0,0,1,.538-6.138l.635.119Z" transform="translate(-585.037 -1461.095)"/>
      <path id="Path_838424" data-name="Path 838424" d="M799.746,1099.508s1.979,29.43,1.175,35.974-3.651,14.931-3.329,36.573c-3.974,1.014-9.732,0-9.732,0s-.854-24.471,3.348-35.4c-1.708-10.617-7.19-34.935-7.19-34.935Z" transform="translate(-687.054 -963.525)" fill="#201d40"/>
      <path id="Path_838425" data-name="Path 838425" d="M691.823,1106.013s-4,33.041-5.953,39.307-5.772,11.566-9.314,32.886a40.31,40.31,0,0,1-8.951-.852s1.615-26.191,7.976-32.341c.215-10.767-1.029-38.788-1.029-38.788Z" transform="translate(-585.038 -969.226)" fill="#2c2858"/>
      <path id="Path_838426" data-name="Path 838426" d="M578.56,766.646s-.293.227-16.76-2.608a.016.016,0,0,0-.013,0l-5.826,4.965a.016.016,0,0,0,0,.023c4.342,4.8,23.059,7.738,23.059,7.738Z" transform="translate(-487.197 -669.545)" fill="#95a6db"/>
      <path id="Path_838427" data-name="Path 838427" d="M795.319,749.34l5.786-.933,5.738,1.194-5.91,6.955Z" transform="translate(-696.957 -655.847)" fill="#95a6db"/>
      <path id="Path_838428" data-name="Path 838428" d="M812.5,724.8c2.288,1.787,4.71,2.551,7.229.741l.347-8.9-7.548-.09Z" transform="translate(-712.009 -627.925)" fill="#f37a50"/>
      <path id="Path_838429" data-name="Path 838429" d="M735.691,759.231h0l-1.771-.568.068-2.452-4.529,4.164-1.337.305-1.322-.366-4.335-4.365-.043,2.453-1.5.407-6.362.873v28.283l-2.375,13.081c7.447,1.936,18.542,2.04,26.477.4l-1.312-11.919,2.526-28.688Z" transform="translate(-624.102 -662.457)" fill="#95a6db"/>
      <path id="Path_838430" data-name="Path 838430" d="M828.4,819.687s-.795,17.3-2.1,26.15l2.316,2.8s2.3-2.182,2.927-2.577c1.417-15.608-1.137-26.3-1.137-26.3Z" transform="translate(-724.112 -718.312)" fill="#e62552"/>
      <path id="Path_838431" data-name="Path 838431" d="M831.5,790.9l2.44-.63,1.786.713-.762,3.006-2.16-.006Z" transform="translate(-728.665 -692.536)" fill="#c4204a"/>
      <path id="Path_838432" data-name="Path 838432" d="M792.083,760.177a16.73,16.73,0,0,1-3.754,3.634l-4.594-4.872,1.413-3.01Z" transform="translate(-686.805 -662.44)" fill="#fff"/>
      <path id="Path_838433" data-name="Path 838433" d="M851.233,762.047a18.126,18.126,0,0,0,3.578,3.754l3.578-4.483-2.548-3.254Z" transform="translate(-745.956 -664.31)" fill="#fff"/>
      <path id="Path_838434" data-name="Path 838434" d="M523.687,610.575a16.785,16.785,0,0,1,5.963-.67c3.342,14.346,6.168,19.9,4.4,23.759-1.473,3.217-5.106,2.6-6.658-.061-2.047-3.513-2.946-16.207-3.707-23.029" transform="translate(-458.919 -534.422)" fill="#95a6db"/>
      <path id="Path_838435" data-name="Path 838435" d="M927.841,795.5c3.9.145,8.475,18.431,8.475,18.431l7.615-8.126,3.038,7.164s-9.927,12.653-14.226,11.363c-4.015-1.2-6.064-15.631-6.064-15.631Z" transform="translate(-812.071 -697.112)" fill="#95a6db"/>
      <path id="Path_838436" data-name="Path 838436" d="M724.979,542.89c-3.715.441-5.657-4.3-5.657-4.3a2.243,2.243,0,0,1-1.892-2.642,2.928,2.928,0,0,1-2.055-3.55c.392-1.744,2.1-1.662,2.323-3.7.177-1.639-1-5.656,4.233-5.967a4.181,4.181,0,0,1,3.272-3.774c3.853-.892,4.805,1.424,6.494,1.839,1.886.464,5.942-1.27,6.47,3.1a5.177,5.177,0,0,1,3.93,2.024,4.562,4.562,0,0,1-.3,5.018,4.339,4.339,0,0,1,2.655,2.782,3.816,3.816,0,0,1-1.569,4,3.974,3.974,0,0,1-1.695.6c-.882.144-.938,2.505-1.715,2.962a17.827,17.827,0,0,1-3.98,1.658Z" transform="translate(-626.823 -454.591)" fill="#2c2858"/>
      <path id="Path_838437" data-name="Path 838437" d="M786.6,571.692c.428,6.406-3.088,11.858-7.854,12.177s-8.976-4.617-9.4-11.023,3.383-10.544,8.148-10.863,8.682,3.3,9.11,9.709" transform="translate(-674.163 -492.462)" fill="#f37a50"/>
      <path id="Path_838438" data-name="Path 838438" d="M804.385,654.253a.919.919,0,1,1,.856-.978.919.919,0,0,1-.856.978" transform="translate(-704.043 -571.729)"/>
      <path id="Path_838439" data-name="Path 838439" d="M863.483,650.3a.919.919,0,1,1,.856-.978.919.919,0,0,1-.856.978" transform="translate(-755.831 -568.267)"/>
      <path id="Path_838440" data-name="Path 838440" d="M861,636.223a.441.441,0,0,1-.394-.19,1.317,1.317,0,0,0-.861-.626,1.594,1.594,0,0,0-1.071.319.441.441,0,0,1-.552-.689,2.483,2.483,0,0,1,1.745-.5,2.153,2.153,0,0,1,1.466,1,.442.442,0,0,1-.334.69" transform="translate(-751.852 -556.039)" fill="#2c2858"/>
      <path id="Path_838441" data-name="Path 838441" d="M793.012,640.229a.441.441,0,0,1-.391-.693,2.763,2.763,0,0,1,1.826-1.3,2.154,2.154,0,0,1,1.55.4.441.441,0,0,1-.548.692,1.269,1.269,0,0,0-.886-.215,1.95,1.95,0,0,0-1.218.926.44.44,0,0,1-.333.188" transform="translate(-694.523 -559.287)" fill="#2c2858"/>
      <path id="Path_838442" data-name="Path 838442" d="M846.508,667.13c1.243.776,1.637,1.1,2.114,1.357a2.658,2.658,0,0,1-2.352,1.627,2.256,2.256,0,0,0,1.23-1.431Z" transform="translate(-741.606 -584.622)" fill="#de623c"/>
      <path id="Path_838443" data-name="Path 838443" d="M752.362,647.9c.89,1.329.814,2.94-.171,3.6s-2.5.118-3.395-1.211-.814-2.94.171-3.6,2.5-.117,3.395,1.211" transform="translate(-655.644 -566.464)" fill="#f37a50"/>
      <path id="Path_838444" data-name="Path 838444" d="M758.674,660.089a.294.294,0,0,1-.3-.39,1.214,1.214,0,0,0-.065-1.188,1.905,1.905,0,0,0-1.607-.466.294.294,0,0,1-.059-.586,2.444,2.444,0,0,1,2.128.686,1.744,1.744,0,0,1,.16,1.745.3.3,0,0,1-.259.2" transform="translate(-662.833 -576.133)" fill="#de623c"/>
      <path id="Path_838445" data-name="Path 838445" d="M818.677,700.023a.288.288,0,0,1,.275-.453,20.427,20.427,0,0,0,5.425.121.288.288,0,0,1,.254.465,3.6,3.6,0,0,1-5.954-.133" transform="translate(-717.378 -613.048)" fill="#fff"/>
      <path id="Path_838446" data-name="Path 838446" d="M745.1,552.488l10.2-8.549,11.545,5.6-1.25,8.272c-.366-3.8-2.675-2.529-3.9-3.618-1.244-1.1-1.811-2.857-4.655-1.243,0,0-2.365-1.56-3.518.727-.891,1.769-2.155,1.458-3.406,1.574-1.476.138-1.1,1.566-2,1.538Z" transform="translate(-652.948 -476.667)" fill="#2c2858"/>
      <path id="Path_838447" data-name="Path 838447" d="M567.994,339.249a2.675,2.675,0,0,0-.595-1.013c-2.107-3.035-6.935-1.245-13.964.787-1.175.34-.94-1.241-1.478-4.381-.35-2.042-2.564-4.649-4.7-3.978-3.514,1.106.735,2.8-.224,10.6-.512,4.169-4.867,3.295-3.714,6.958l2.625,8.338c.449,1.426,1.021,2.752,3.106,2.344,2.021-.4,2.018,1.128,4.835.241l14.1-4.438a2.728,2.728,0,0,0,1.788-3.413,2.686,2.686,0,0,0-1.039-1.4,2.675,2.675,0,0,0-.4-4.074,2.692,2.692,0,0,0-.685-4.262,2.7,2.7,0,0,0,.345-2.315" transform="translate(-475.959 -289.675)" fill="#33ece0"/>
      <path id="Path_838448" data-name="Path 838448" d="M649.081,398.663l6.722-2.116a2.745,2.745,0,0,0,1.839-1.975.716.716,0,0,0-1.4-.323,1.3,1.3,0,0,1-.874.938l-6.883,2.167a1.291,1.291,0,1,1-.775-2.463l4.6-1.448a.714.714,0,1,0-.429-1.361l-4.6,1.448a2.727,2.727,0,0,0-1.788,3.412,2.685,2.685,0,0,1,1.366,3.774,2.687,2.687,0,0,1,1.377,3.769,2.683,2.683,0,0,1,1.639,3.688,2.727,2.727,0,0,0,3.42,1.773l4.285-1.349a2.746,2.746,0,0,0,1.84-1.975.712.712,0,0,0-.532-.858.72.72,0,0,0-.862.532,1.307,1.307,0,0,1-.875.939l-4.285,1.349a1.291,1.291,0,1,1-.775-2.463l5.083-1.6a2.746,2.746,0,0,0,1.84-1.975.716.716,0,0,0-1.394-.326,1.288,1.288,0,0,1-.875.94l-5.518,1.737a1.291,1.291,0,1,1-.776-2.463l6.322-1.99a2.747,2.747,0,0,0,1.84-1.975.716.716,0,0,0-1.394-.326,1.29,1.29,0,0,1-.875.939l-6.494,2.044a1.291,1.291,0,1,1-.776-2.463" transform="translate(-565.556 -343.561)" fill="#0fcebb"/>
      <path id="Path_838449" data-name="Path 838449" d="M506.08,461.429l-4.39,1.382a1.154,1.154,0,0,1-1.447-.754l-4.106-13.045a1.154,1.154,0,0,1,.754-1.447l4.39-1.382a1.154,1.154,0,0,1,1.447.754l4.106,13.044a1.154,1.154,0,0,1-.754,1.447" transform="translate(-434.729 -390.954)" fill="#7f99eb"/>
      <path id="Path_838450" data-name="Path 838450" d="M550.3,557.763c.59-.221.957-.326,1.042-1.225s.015-2.046.766-1.672,1.278,2.144,1.152,2.87c-.867.523-2.961.027-2.961.027" transform="translate(-482.245 -486.179)" fill="#f37a50"/>
      <path id="Path_838451" data-name="Path 838451" d="M519.926,610.135l-.531,3.255,8.208-.905-1.784-3.142a21.539,21.539,0,0,0-5.893.792" transform="translate(-455.158 -533.982)" fill="#fff"/>
      <path id="Path_838452" data-name="Path 838452" d="M2587.976,605.4s.072,4.063.49,7.37c0,0,3.429-4.5,3.428-4.5a22.285,22.285,0,0,1-.576-5.291c.025-.377-6.978-.663-3.342,2.423" transform="translate(-2266.987 -528.207)" fill="#f37a50"/>
      <path id="Path_838453" data-name="Path 838453" d="M2746.522,1669.534c-3.22,4.3-11.128,1.659-10.866,7.469,12.025-.074,17.023,0,17.023,0a41.272,41.272,0,0,0-.531-5.741Z" transform="translate(-2397.314 -1463.052)"/>
      <path id="Path_838454" data-name="Path 838454" d="M2892,1670.442c-3.22,4.3-11.128,1.66-10.866,7.469,12.025-.075,17.023,0,17.023,0a41.19,41.19,0,0,0-.531-5.741Z" transform="translate(-2524.799 -1463.848)"/>
      <path id="Path_838455" data-name="Path 838455" d="M2768.992,1139.341s-1.953,27.529-1.159,33.649,3.6,13.966,3.283,34.21c3.92.949,9.6,0,9.6,0s.842-22.89-3.3-33.114c1.685-9.932,7.092-32.678,7.092-32.678Z" transform="translate(-2425.351 -998.432)" fill="#201d40"/>
      <path id="Path_838456" data-name="Path 838456" d="M2838.545,1145.425s3.942,30.906,5.872,36.767,3.873,9.764,7.367,29.706c4.029.195,10.649.258,10.649.258s-1.593-24.5-7.867-30.251c-.213-10.071,1.014-36.281,1.014-36.281Z" transform="translate(-2487.484 -1003.763)" fill="#2c2858"/>
      <path id="Path_838457" data-name="Path 838457" d="M2854.164,643.236c-2.137,5.34-7.269,8.308-11.463,6.63s-5.861-7.368-3.725-12.708,7.27-8.308,11.463-6.63,5.861,7.368,3.725,12.708" transform="translate(-2487.047 -552.137)" fill="#f37a50"/>
      <path id="Path_838458" data-name="Path 838458" d="M2850.18,692.882a.786.786,0,1,1-.2-1.093.786.786,0,0,1,.2,1.093" transform="translate(-2496.427 -606.108)"/>
      <path id="Path_838459" data-name="Path 838459" d="M2896.92,711.578a.85.85,0,1,1-.212-1.184.851.851,0,0,1,.212,1.184" transform="translate(-2537.282 -622.402)"/>
      <path id="Path_838460" data-name="Path 838460" d="M2853.028,711.764c-1.062.837-2.39,1.847-2.39,1.847a2.062,2.062,0,0,0,1.482,1.836c-.541-.491-1.016-1.145-.453-1.9s1.361-1.784,1.361-1.784" transform="translate(-2498.081 -623.736)" fill="#de623c"/>
      <path id="Path_838461" data-name="Path 838461" d="M2906.806,701.657a.392.392,0,0,1-.381-.3c-.01-.042-.274-1.063-1.149-1.068a.392.392,0,0,1,0-.784,2.092,2.092,0,0,1,1.908,1.669.392.392,0,0,1-.291.472.384.384,0,0,1-.091.011" transform="translate(-2545.62 -612.993)"/>
      <path id="Path_838462" data-name="Path 838462" d="M2851.316,679.452a.327.327,0,0,1-.281-.16.952.952,0,0,0-.567-.41,1.068,1.068,0,0,0-.83.3.327.327,0,0,1-.408-.51,1.673,1.673,0,0,1,1.361-.431,1.611,1.611,0,0,1,1.006.719.327.327,0,0,1-.281.492" transform="translate(-2496.74 -594.34)"/>
      <path id="Path_838463" data-name="Path 838463" d="M2841.9,616.772c-1.545-4.968.409-7.608.409-7.608-1.327-.266-1.842.193-1.842.193a2.946,2.946,0,0,1-.163-2.551c-2.743-1.069-4.108.707-6.582,1.305-3.388.819-7.573-.532-7.965-4.668a.706.706,0,0,1,1.1-.652,3.117,3.117,0,0,0,1.846.54,3.324,3.324,0,0,1-.746-1.909.705.705,0,0,1,1.166-.55c.7.586,2.011,1.14,4.341.7,1.551-.291,5.1-2.774,7.312-2.289a5.45,5.45,0,0,1,3.86,4.137,5.681,5.681,0,0,1,4.889,5.351c.438,4.8-5.128,8.491-5.128,8.491Z" transform="translate(-2476.276 -525.115)"/>
      <path id="Path_838464" data-name="Path 838464" d="M2941.773,731.729a2.045,2.045,0,1,0,3.119.536,2.26,2.26,0,0,0-3.119-.536" transform="translate(-2576.752 -640.901)" fill="#f37a50"/>
      <path id="Path_838465" data-name="Path 838465" d="M2950.8,742.358a.294.294,0,0,1-.091-.1,1.338,1.338,0,0,1,.136-1.637,1.425,1.425,0,0,1,1.623-.3.3.3,0,1,1-.265.528.844.844,0,0,0-.932.186.757.757,0,0,0-.042.943.3.3,0,0,1-.429.384" transform="translate(-2585.592 -648.64)" fill="#de623c"/>
      <path id="Path_838466" data-name="Path 838466" d="M2852.335,752.634a.25.25,0,0,1,.264-.377,17.746,17.746,0,0,0,4.7.419.25.25,0,0,1,.194.418,3.124,3.124,0,0,1-5.154-.46" transform="translate(-2499.535 -659.216)" fill="#fff"/>
      <path id="Path_838467" data-name="Path 838467" d="M2648.683,781.914s-.6-.262-15.792-3.936a.015.015,0,0,0-.012,0l-5.747,4.271a.015.015,0,0,0,0,.022c3.753,4.752,20.906,8.494,20.906,8.494l.648-8.852v0" transform="translate(-2302.211 -681.761)" fill="#201d40"/>
      <path id="Path_838468" data-name="Path 838468" d="M2857.814,804.7l5.458-.51,5.281,1.473-5.949,6.123Z" transform="translate(-2504.37 -704.728)" fill="#95a6db"/>
      <path id="Path_838469" data-name="Path 838469" d="M2873.114,779.839c2.224,1.826,2.894,3.093,7.4.647l.708-7.265-7.693-.606Z" transform="translate(-2517.777 -677.061)" fill="#f37a50"/>
      <path id="Path_838470" data-name="Path 838470" d="M2803.27,812.194h0l-1.617-.64.216-2.285-4.487,3.6-1.267.2-1.211-.424-3.774-4.344-.194,2.287-1.427.286-5.147.833-.613,28.568L2781.719,850a48.986,48.986,0,0,0,21.976,1.8l-.252-9.757,5.334-27.92Z" transform="translate(-2437.686 -708.338)" fill="#95a6db"/>
      <path id="Path_838471" data-name="Path 838471" d="M2867.3,870.193,2864.073,892l1.785,2.481,2.328-1.788.792-22.323Z" transform="translate(-2509.854 -762.571)" fill="#2c2858"/>
      <path id="Path_838472" data-name="Path 838472" d="M2888.591,847.169l1.178-.311,1.2.524-.508,2.586-1.69-.152Z" transform="translate(-2531.34 -742.122)" fill="#2c2858"/>
      <path id="Path_838473" data-name="Path 838473" d="M2763.238,809.561l-.87,26.336-3.488,16.967s-5.515-.556-8.9-3.781l4.343-12.773,1.883-26.855Z" transform="translate(-2409.869 -709.345)" fill="#2c2858"/>
      <path id="Path_838474" data-name="Path 838474" d="M2822.625,810.309l-.866,25.982-4.015-19.921Z" transform="translate(-2469.256 -710.093)" fill="#494c7f"/>
      <path id="Path_838475" data-name="Path 838475" d="M2897.233,823.412l-7.162,42.715s9.5,1.167,13.412-1.4l-2.121-14.042,2.593-23.839Z" transform="translate(-2532.637 -721.576)" fill="#2c2858"/>
      <path id="Path_838476" data-name="Path 838476" d="M2918.322,823.412l-4.186,25.036,7.495-18.889Z" transform="translate(-2553.726 -721.576)" fill="#494c7f"/>
      <path id="Path_838477" data-name="Path 838477" d="M2582.655,634.088a15.7,15.7,0,0,1,5.493-1.152c4.383,13.062,7.508,17.983,6.2,21.734-1.086,3.126-4.524,2.876-6.2.534-2.217-3.09-4.18-14.831-5.493-21.115" transform="translate(-2263.241 -554.657)" fill="#201d40"/>
      <path id="Path_838478" data-name="Path 838478" d="M2861.266,1189.769a2.353,2.353,0,0,1-.034-1.036c.142-3.259,4.589-4.2,10.793-6,1.037-.3.116-1.369-.962-3.966-.7-1.689-.277-4.679,1.629-5.183,3.145-.831.772,2.438,5.167,7.81,2.348,2.87,5.186.165,6.052,3.443l1.971,7.46c.337,1.276.535,2.535-1.214,3.213-1.7.657-.975,1.793-3.5,2.459l-12.615,3.333a2.408,2.408,0,0,1-2.943-1.7,2.362,2.362,0,0,0-1.619-3.234,2.361,2.361,0,0,0-1.624-3.231,2.371,2.371,0,0,0-1.107-3.369" transform="translate(-2507.328 -1028.331)" fill="#33ece0"/>
      <path id="Path_838479" data-name="Path 838479" d="M2873.949,1272.539l-6.015,1.589a2.423,2.423,0,0,1-2.3-.607.632.632,0,0,1,.889-.9,1.148,1.148,0,0,0,1.094.288l6.159-1.627a1.14,1.14,0,1,0-.582-2.2l-4.116,1.088a.63.63,0,1,1-.322-1.218l4.117-1.088a2.407,2.407,0,0,1,2.943,1.7,2.371,2.371,0,0,0,.76,3.461,2.372,2.372,0,0,0,.749,3.463,2.369,2.369,0,0,0,.515,3.525,2.407,2.407,0,0,1-1.717,2.935l-3.834,1.013a2.424,2.424,0,0,1-2.3-.606.628.628,0,0,1-.008-.891.636.636,0,0,1,.895-.009,1.154,1.154,0,0,0,1.1.288l3.834-1.013a1.14,1.14,0,1,0-.582-2.2l-4.549,1.2a2.425,2.425,0,0,1-2.3-.607.632.632,0,0,1,.887-.9,1.138,1.138,0,0,0,1.1.289l4.938-1.3a1.14,1.14,0,1,0-.582-2.2l-5.656,1.495a2.425,2.425,0,0,1-2.3-.606.632.632,0,0,1,.887-.9,1.139,1.139,0,0,0,1.1.288l5.811-1.536a1.14,1.14,0,1,0-.583-2.2" transform="translate(-2511.054 -1110.987)" fill="#0fcebb"/>
      <path id="Path_838480" data-name="Path 838480" d="M3035.378,1248.369l3.928-1.038a1.019,1.019,0,0,0,.725-1.245l-3.084-11.672a1.019,1.019,0,0,0-1.246-.725l-3.927,1.038a1.019,1.019,0,0,0-.725,1.245l3.084,11.672a1.019,1.019,0,0,0,1.245.725" transform="translate(-2656.149 -1081.081)" fill="#7f99eb"/>
      <path id="Path_838481" data-name="Path 838481" d="M3042.82,1204.216l.072,3.126s-2.231-.066-2.309,1.458l2.095.065s1.275,1.647-.552,4.86c-.729,3.148,1.578,1.816,1.736,2.862.233,1.543,3.281-1.1,3.764-4.247.626-4.069-.2-4.558-.2-4.558l-.921-3.09Z" transform="translate(-2664.534 -1055.283)" fill="#f37a50"/>
      <path id="Path_838482" data-name="Path 838482" d="M2992.294,851.163c3.633.379,12.6,22.786,12.6,22.786l-.59,22.617-5.885-.95-1.335-19.308-6.2-12.123Z" transform="translate(-2620.977 -745.895)" fill="#201d40"/>
      <path id="Path_838483" data-name="Path 838483" d="M2854.927,813.073a11.353,11.353,0,0,1-3.9,2.576l-2.2-5.81,1.111-1.534Z" transform="translate(-2496.498 -708.337)" fill="#fff"/>
      <path id="Path_838484" data-name="Path 838484" d="M2898.12,819.9a9.785,9.785,0,0,0,3.379,3.228l3.207-5.35-.832-1.683Z" transform="translate(-2539.691 -715.163)" fill="#fff"/>
      <path id="Path_838485" data-name="Path 838485" d="M2221.947,481.3a11.56,11.56,0,0,1-.144,3.208l2.311,1.218c2.818-1.758,3.2-5.581,3.24-6.006.1-1.1.21-1.615.063-1.7s-1.129-.356-1.321,1.244c-.241,2.008-1.846.675-.318-3.4.383-1.02-.114-2.94-.859-2.245-.821.765-2.683,2.963-2.97,7.681" transform="translate(-1947.018 -414.914)" fill="#f37a50"/>
      <path id="Path_838486" data-name="Path 838486" d="M2376.164,1657.138l-.325,3.346,2.8.85,2.249-2.4.37-1.382Z" transform="translate(-2082.003 -1452.189)" fill="#f37a50"/>
      <path id="Path_838487" data-name="Path 838487" d="M2305.03,1655.676l-.39-3.042,5.951-.4-.072,3.429Z" transform="translate(-2019.61 -1447.892)" fill="#f37a50"/>
      <path id="Path_838488" data-name="Path 838488" d="M2165.595,635.7c-3.254-2.96-9.033-2.767-9.914,1.867s-.582,7.719-6.351,7c-4.594-.571-9.317,3.554-9.313,10.037,0,8.294,5.75,5.064,4.42,9.161s-2.187,8.254,3.742,8.386,10.532-4.834,9.836-11.576,3.621-4.269,4.876-7.6c1.785-4.742,2.7-17.274,2.7-17.274" transform="translate(-1875.347 -555.351)" fill="#201d40"/>
      <path id="Path_838489" data-name="Path 838489" d="M2364.883,1110.935s4.3,27.2,3.137,38.864-6.986,29.1-6.986,29.1l-5.092-.413s.32-1.789.157-8.647-1.189-16.521,2.769-21.093c-.495-8.916-6.1-37.812-6.1-37.812Z" transform="translate(-2061.781 -973.539)" fill="#0e6a41"/>
      <path id="Path_838490" data-name="Path 838490" d="M2267.25,1103.531c-2.227,8-2.351,30.178-.506,42.98s3.562,25.281,3.562,25.281l5.952.084V1140.8c0-5.487,1.484-22.4,1.484-22.4l1.852-13.945Z" transform="translate(-1985.276 -967.051)" fill="#0e6a41"/>
      <path id="Path_838491" data-name="Path 838491" d="M2329.215,655.618c0,5.347-3.225,9.682-7.2,9.682s-7.2-4.335-7.2-9.682,3.225-9.682,7.2-9.682,7.2,4.335,7.2,9.682" transform="translate(-2028.523 -566.049)" fill="#f37a50"/>
      <path id="Path_838492" data-name="Path 838492" d="M2350.368,786.468v10.288s3.429,1.829,6.4,0c-.457-2.286-.729-9.569-.729-9.569Z" transform="translate(-2059.683 -689.201)" fill="#f37a50"/>
      <path id="Path_838493" data-name="Path 838493" d="M2280.089,831.346h17.068s3.065,6.88,2.649,12.772-1.165,21.921-1.165,21.921-14.548,1.416-21.231-.647a238.2,238.2,0,0,1,.206-25.318,29.8,29.8,0,0,1,2.474-8.727" transform="translate(-1995.539 -728.529)" fill="#f5a3b7"/>
      <path id="Path_838494" data-name="Path 838494" d="M2216.055,595.933a36.62,36.62,0,0,0-4.293-.358s-5.923-12.356-7.991-16.031c-1.409-5.9-1.306-15.617-1.306-15.617l-2.311-1.218s-3.868,11.592-2.9,16.953c.256,1.414,7.552,20.33,7.552,20.33s-1.783,22.45-2.7,27.762a24.619,24.619,0,0,0,10.511.365Z" transform="translate(-1925.37 -493.116)" fill="#3f964f"/>
      <path id="Path_838495" data-name="Path 838495" d="M2398.249,595.039l3.241,32.187s2.661.856,8.376-.844c.229-6.8-2.2-28.17-2.2-28.17a82.593,82.593,0,0,0,8.181-20.818c-.229-4.675-2.256-15.39-2.256-15.39l-5.919-.315,2.107,15.134s-7.263,15.847-8.01,18.134a12.2,12.2,0,0,0-3.517.082" transform="translate(-2101.642 -492.222)" fill="#3f964f"/>
      <path id="Path_838496" data-name="Path 838496" d="M2305.014,644.513a14.687,14.687,0,0,0,9.761-5.587c1.349,3.346,5.123,5.587,5.123,5.587s2.828-6.4-2.316-9.854c-4.907-3.294-16.616-1.043-12.568,9.854" transform="translate(-2019.206 -554.945)" fill="#2c2858"/>
      <path id="Path_838497" data-name="Path 838497" d="M2343.125,730.074a.765.765,0,1,1,.765-.765.765.765,0,0,1-.765.765" transform="translate(-2052.664 -638.44)"/>
      <path id="Path_838498" data-name="Path 838498" d="M2392.45,730.074a.765.765,0,1,1,.765-.765.765.765,0,0,1-.765.765" transform="translate(-2095.89 -638.44)"/>
      <path id="Path_838499" data-name="Path 838499" d="M2391.2,718.5a.367.367,0,0,1-.317-.18,1.1,1.1,0,0,0-.68-.568,1.328,1.328,0,0,0-.908.206.368.368,0,0,1-.42-.6,2.068,2.068,0,0,1,1.478-.322,1.793,1.793,0,0,1,1.163.913.368.368,0,0,1-.316.555" transform="translate(-2093.287 -628.325)" fill="#2c2858"/>
      <path id="Path_838500" data-name="Path 838500" d="M2334.2,718.275a.368.368,0,0,1-.287-.6,2.3,2.3,0,0,1,1.59-.976,1.793,1.793,0,0,1,1.266.417.368.368,0,0,1-.494.545,1.059,1.059,0,0,0-.724-.228,1.627,1.627,0,0,0-1.064.7.366.366,0,0,1-.287.138" transform="translate(-2045.195 -628.059)" fill="#2c2858"/>
      <path id="Path_838501" data-name="Path 838501" d="M2376.609,742.857c.99.714,1.3,1.007,1.681,1.245a2.214,2.214,0,0,1-2.044,1.221,1.879,1.879,0,0,0,1.1-1.121Z" transform="translate(-2082.36 -650.984)" fill="#de623c"/>
      <path id="Path_838502" data-name="Path 838502" d="M2299.05,722.565c.825,1.045.866,2.388.092,3s-2.072.26-2.9-.785-.866-2.389-.092-3,2.072-.26,2.9.785" transform="translate(-2011.686 -632.25)" fill="#f37a50"/>
      <path id="Path_838503" data-name="Path 838503" d="M2305.065,732.226a.245.245,0,0,1-.226-.34,1.011,1.011,0,0,0,.012-.991,1.586,1.586,0,0,0-1.309-.476.245.245,0,0,1-.017-.49,2.036,2.036,0,0,1,1.73.689,1.453,1.453,0,0,1,.036,1.459.245.245,0,0,1-.226.15" transform="translate(-2018.426 -639.652)" fill="#de623c"/>
      <path id="Path_838504" data-name="Path 838504" d="M2357.356,770.948a.223.223,0,0,1,.235-.336,15.808,15.808,0,0,0,4.182.373.223.223,0,0,1,.172.372,2.782,2.782,0,0,1-4.589-.41" transform="translate(-2065.777 -675.301)" fill="#fff"/>
      <path id="Path_838505" data-name="Path 838505" d="M2375.331,1673.685a2.994,2.994,0,0,1,2.182-2.029c2.889,3.854,9.985,1.489,9.75,6.7-10.79-.067-15.274,0-15.274,0a37.03,37.03,0,0,1,.476-5.151l.562.1Z" transform="translate(-2078.629 -1464.912)" fill="#e62552"/>
      <path id="Path_838506" data-name="Path 838506" d="M2386.638,1726.217h-14.02a.63.63,0,0,1-.63-.63v-.905h15.28v.905a.63.63,0,0,1-.63.63" transform="translate(-2078.629 -1511.38)" fill="#fff"/>
      <path id="Path_838507" data-name="Path 838507" d="M2305.608,1678.37s-.849-3.165-.923-3.572c-.085-.462-.334-1.555-.385-2.116a4.58,4.58,0,0,0-2.581-1.027,4.52,4.52,0,0,0-2.908,1.04,33.353,33.353,0,0,1-.471,3.327c-.214.765-.8,2.548-.8,2.548Z" transform="translate(-2013.391 -1464.911)" fill="#e62552"/>
      <path id="Path_838508" data-name="Path 838508" d="M2304.3,1723.279c-.2.628-2.637-.1-4.417-.1-1.494,0-3.428.579-3.648.354a3.733,3.733,0,0,0-.066,2.028s1.557.08,3.426,0a37.225,37.225,0,0,0,4.84-.2,2.464,2.464,0,0,0-.134-2.083" transform="translate(-2012.079 -1510.066)" fill="#fff"/>
      <path id="Path_838509" data-name="Path 838509" d="M430.656,1592.919l2.878-11.334-7.14-.983c-.245,5.36-.646,10.638-.611,12.067Z" transform="translate(-373.121 -1385.119)" fill="#f37a50"/>
      <path id="Path_838510" data-name="Path 838510" d="M274.627,1580.075h-7.455c.245,1.787,1.223,11.46,1.223,11.46.63,1.429,6.185,1.1,6.185.3-.42-1.742.012-11.536.047-11.759" transform="translate(-234.129 -1384.657)" fill="#f37a50"/>
      <path id="Path_838511" data-name="Path 838511" d="M351.292,1151.209l7.352,1.086,5.1-30.485c-1.05-11.569-11.235-36.182-11.235-36.182l-11.48,4.02-.28,10.854,13.824,23.406c-1.8,4.526-3.035,19.162-3.28,27.3" transform="translate(-298.605 -951.362)" fill="#c4204a"/>
      <path id="Path_838512" data-name="Path 838512" d="M269.013,1060.887c-.105-.715-.14-.938-.735-1.3l-11.025-3.127-2.625,2.591c-2.485,9.023-.945,21.575,1.015,31.536-2.87,8.621-1.747,26.393-.592,34.746h7.84c.455-5.584.312-15.941.347-20.944,1.015-4.02,1.995-8.309,2.87-12.82,1.12-5.762,2.52-11.346,2.9-16.572a82.366,82.366,0,0,0,0-14.115" transform="translate(-222.009 -925.806)" fill="#e62552"/>
      <path id="Path_838513" data-name="Path 838513" d="M196.84,591.124c4.232-.9,13.4-4.157,10.059-10.539s-5.383-4.144-2.921-11-1.791-13.1-6.77-12.352-6.733,4.449-12.463,2.661-11.361,3.026-9.809,8.086,2.18,7.482-.248,9.83-12.12,3.9-9.11,10.746,4.842,6.7,3.048,9.748.808,7.158,6.27,7.4,10.624-1.126,13.432-6.874a16.307,16.307,0,0,1,8.511-7.707" transform="translate(-144.598 -488.266)" fill="#2c2858"/>
      <path id="Path_838514" data-name="Path 838514" d="M301.57,612.837c-.586,5.52,2.454,10.367,6.789,10.827s8.324-3.642,8.91-9.161-2.454-10.367-6.789-10.827-8.324,3.642-8.91,9.161" transform="translate(-264.21 -528.985)" fill="#f37a50"/>
      <path id="Path_838515" data-name="Path 838515" d="M311.969,731.408l6.844,4.243s.607,3.025.91,4.006c.626,2.025-1.771,2.91-3.8,1.65a14.178,14.178,0,0,1-3.338-2.947Z" transform="translate(-273.386 -640.95)" fill="#f37a50"/>
      <path id="Path_838516" data-name="Path 838516" d="M315.955,603.251c-2-.136-3.472-1.493-4.748-3.589-2.533,5.337-12.592,6.879-13.213,5.752.44-3.886,1.385-9.876,8.764-11.757,5.8-1.478,9.2,9.593,9.2,9.593" transform="translate(-261.138 -520.118)" fill="#2c2858"/>
      <path id="Path_838517" data-name="Path 838517" d="M410.225,687.594a.758.758,0,1,0,.341-1.017.758.758,0,0,0-.341,1.017" transform="translate(-359.42 -601.595)"/>
      <path id="Path_838518" data-name="Path 838518" d="M361.85,681.583a.821.821,0,1,0,.369-1.1.821.821,0,0,0-.369,1.1" transform="translate(-317.022 -596.248)"/>
      <path id="Path_838519" data-name="Path 838519" d="M412.443,678.62a.285.285,0,0,0,.136-.444,2,2,0,0,0-1.9-.759.285.285,0,0,0,.108.56,1.432,1.432,0,0,1,1.34.545.285.285,0,0,0,.317.1" transform="translate(-359.684 -593.616)" fill="#2c2858"/>
      <path id="Path_838520" data-name="Path 838520" d="M387.175,703.206a7.589,7.589,0,0,0,.611,1.506.3.3,0,0,1-.075.405,4.127,4.127,0,0,1-2.2.411.08.08,0,0,1-.021-.157,3.891,3.891,0,0,0,1.3-.606.358.358,0,0,0,.133-.3c-.011-.263-.029-.8-.011-1.224a.135.135,0,0,1,.262-.039" transform="translate(-337.766 -616.158)" fill="#de623c"/>
      <path id="Path_838521" data-name="Path 838521" d="M291.2,690.3a1.973,1.973,0,1,1-2.986-.643,2.181,2.181,0,0,1,2.986.643" transform="translate(-252.01 -604.053)" fill="#f37a50"/>
      <path id="Path_838522" data-name="Path 838522" d="M299.5,699.288a.283.283,0,0,0,.1-.084,1.291,1.291,0,0,0,.1-1.582,1.375,1.375,0,0,0-1.507-.517.285.285,0,1,0,.179.542.814.814,0,0,1,.864.308.73.73,0,0,1-.092.906.285.285,0,0,0,.356.427" transform="translate(-261.138 -610.838)" fill="#de623c"/>
      <path id="Path_838523" data-name="Path 838523" d="M268.453,798.271l-1.907-7.964a50.7,50.7,0,0,0-6.113-1.8l-.6,1.943-5.629-2.841-6.609,1.006c-1.1,4.77-.224,6.223.106,11.913.183,2.678.1,9.227.688,13.872-2.42,5.481-3.915,10.631-3.951,12.221,0,0,17.637,3.95,18.223,3.95l1.32-3.473,2.53,2.762a43.548,43.548,0,0,0,3.3-3.594,85.594,85.594,0,0,1-1.771-11.081Z" transform="translate(-214.207 -690.203)" fill="#3f964f"/>
      <path id="Path_838524" data-name="Path 838524" d="M289.663,780.372l-3.771,1.6c.333,3.789,9.732,6,9.732,6l.537-3.867Z" transform="translate(-250.534 -683.859)" fill="#0e6a41"/>
      <path id="Path_838525" data-name="Path 838525" d="M368.928,788.267l1.68,2.278s1.924-2.3,1.143-3.684a4.137,4.137,0,0,0-2.513-1.743Z" transform="translate(-323.3 -688.017)" fill="#0e6a41"/>
      <path id="Path_838526" data-name="Path 838526" d="M362.966,732.462a2.9,2.9,0,0,1-.549-.052,3.562,3.562,0,0,1-2.121-1.429.319.319,0,0,1,.533-.351,2.956,2.956,0,0,0,1.714,1.154,2.9,2.9,0,0,0,2.211-.61.319.319,0,1,1,.366.523,3.771,3.771,0,0,1-2.155.764" transform="translate(-315.69 -640.143)" fill="#de623c"/>
      <path id="Path_838527" data-name="Path 838527" d="M402.556,735.9a3.3,3.3,0,0,0-.465-1.37c-1.787-4.186-8.057-3.228-17.043-2.525-1.5.118-.825-1.732-.693-5.653.086-2.55-1.937-6.247-4.676-5.968-4.516.46.19,3.564-2.908,12.74-1.656,4.9-6.691,2.765-6.212,7.471l1.092,10.713c.187,1.832.547,3.575,3.165,3.6,2.537.025,2.155,1.863,5.774,1.493l18.114-1.847a3.36,3.36,0,0,0,3.006-3.673,3.3,3.3,0,0,1,.525-5.019,3.295,3.295,0,0,1,.532-5.018,3.308,3.308,0,0,1-.21-4.944" transform="translate(-324.701 -631.277)" fill="#33ece0"/>
      <path id="Path_838528" data-name="Path 838528" d="M507.652,831.4l8.637-.881A3.383,3.383,0,0,0,519,828.594a.882.882,0,0,0-1.6-.737,1.6,1.6,0,0,1-1.287.914l-8.844.9a1.59,1.59,0,1,1-.323-3.164l5.91-.6a.879.879,0,1,0-.178-1.749l-5.911.6a3.36,3.36,0,0,0-3.006,3.672,3.308,3.308,0,0,1,.709,4.893,3.31,3.31,0,0,1,.724,4.891,3.305,3.305,0,0,1,1.06,4.857,3.36,3.36,0,0,0,3.686,2.99l5.505-.561a3.383,3.383,0,0,0,2.712-1.924.877.877,0,0,0-.428-1.167.887.887,0,0,0-1.173.428,1.61,1.61,0,0,1-1.289.915l-5.505.561a1.59,1.59,0,1,1-.323-3.164l6.531-.666a3.383,3.383,0,0,0,2.712-1.925.882.882,0,0,0-1.6-.74,1.587,1.587,0,0,1-1.289.916l-7.09.723a1.591,1.591,0,1,1-.323-3.165l8.122-.828a3.383,3.383,0,0,0,2.712-1.924.882.882,0,0,0-1.6-.74,1.588,1.588,0,0,1-1.289.915l-8.344.851a1.591,1.591,0,1,1-.323-3.165" transform="translate(-441.44 -722.224)" fill="#0fcebb"/>
      <path id="Path_838529" data-name="Path 838529" d="M322.5,869.384l-5.64.575a1.422,1.422,0,0,1-1.559-1.27l-1.709-16.76a1.422,1.422,0,0,1,1.27-1.559l5.64-.575a1.422,1.422,0,0,1,1.559,1.27l1.709,16.76a1.422,1.422,0,0,1-1.27,1.559" transform="translate(-274.803 -744.69)" fill="#7f99eb"/>
      <path id="Path_838530" data-name="Path 838530" d="M395.241,976.568c-1.062-.162-2.21-.767-3.069-.152l-1.371-2.49c2.389-2.465,6.775-2.533,7.212-2.478,1.135.142,1.677.138,1.732.306s.115,1.218-1.544,1.065c-2.081-.193-1.083,1.719,3.365,1.06,1.114-.165,2.945.754,2.082,1.356-.952.664-3.577,2.067-8.407,1.333" transform="translate(-342.468 -851.294)" fill="#f37a50"/>
      <path id="Path_838531" data-name="Path 838531" d="M236.3,960.872c-1.651.56-2.617,5.749-2.157,6.149,7.055,2.833,20.982.072,20.982.072l1.2-2.574a130.879,130.879,0,0,1-20.028-3.647" transform="translate(-205.088 -842.035)" fill="#f37a50"/>
      <path id="Path_838532" data-name="Path 838532" d="M227.729,800.5c-1.082,4.681-.823,20.344.289,21.679l5.657-3.831s1.682-15.725,1.869-18.4c.335-4.638-6.063-7.089-7.815.556" transform="translate(-198.958 -697.193)" fill="#f37a50"/>
      <path id="Path_838533" data-name="Path 838533" d="M220.741,800.5c-1.082,4.681-2.361,17.909-1.248,19.244l8.067-3.817s.809-13.3,1-15.983c.335-4.638-6.062-7.089-7.815.556" transform="translate(-191.97 -697.193)" fill="#0e6a41"/>
      <path id="Path_838534" data-name="Path 838534" d="M217.725,963.838l8.661-3.8s.6,0,.426.69c0,0,1.382.256,1.664,1.039l-6,6.411a3.125,3.125,0,0,1-2.558-1.831c-.031-.015-2.089-.634-2.2-2.509" transform="translate(-190.798 -841.304)" fill="#097a48"/>
      <path id="Path_838535" data-name="Path 838535" d="M571.954,798.972a.817.817,0,0,1-.116-.227l-.034.028a1.424,1.424,0,0,1-1.958.052.843.843,0,0,1-.135-.272,1.178,1.178,0,0,1-1.33-.277.885.885,0,0,1-.173-.494,1.177,1.177,0,0,1-1.393-.3,1.38,1.38,0,0,1,2.166-1.643.985.985,0,0,1,.184.425,1.341,1.341,0,0,1,1.753.085.848.848,0,0,1,.135.272,1.177,1.177,0,0,1,1.33.277.875.875,0,0,1,.17.456,1.006,1.006,0,0,1,1.231.228,1.165,1.165,0,0,1-1.829,1.388" transform="translate(-496.536 -697.061)" fill="#f37a50"/>
      <path id="Path_838536" data-name="Path 838536" d="M425.721,1663.274a3.216,3.216,0,0,1,2.343-2.178c3.1,4.138,10.722,1.6,10.469,7.2-11.587-.072-16.4,0-16.4,0a39.725,39.725,0,0,1,.512-5.531l.6.107Z" transform="translate(-369.924 -1455.658)" fill="#2c2858"/>
      <path id="Path_838537" data-name="Path 838537" d="M437.863,1719.684H422.808a.677.677,0,0,1-.677-.677v-.972H438.54v.972a.677.677,0,0,1-.677.677" transform="translate(-369.924 -1505.556)" fill="#fff"/>
      <path id="Path_838538" data-name="Path 838538" d="M275.153,1667.559s-.93-3.47-1.012-3.916c-.093-.507-.366-1.705-.422-2.32a5.024,5.024,0,0,0-2.83-1.126,4.953,4.953,0,0,0-3.188,1.14,36.533,36.533,0,0,1-.517,3.647c-.235.839-.873,2.793-.873,2.793Z" transform="translate(-233.375 -1454.871)" fill="#2c2858"/>
      <path id="Path_838539" data-name="Path 838539" d="M273.715,1716.793c-.217.689-2.891-.106-4.843-.105-1.639,0-3.759.635-4,.388a4.094,4.094,0,0,0-.072,2.224s1.708.088,3.755,0a40.806,40.806,0,0,0,5.306-.223,2.7,2.7,0,0,0-.147-2.284" transform="translate(-231.936 -1504.375)" fill="#fff"/>
      <path id="Path_838540" data-name="Path 838540" d="M1976.251,729.051h0l-3.765.014-.853,8.157v.736l4.4,2.321,4.687-2.295-.758-8.919Z" transform="translate(-1727.785 -638.885)" fill="#f37a50"/>
      <path id="Path_838541" data-name="Path 838541" d="M1968.792,596.068c-2.317,5.791-7.883,9.01-12.431,7.19s-6.356-7.99-4.039-13.781,7.883-9.01,12.431-7.189,6.356,7.99,4.039,13.781" transform="translate(-1709.981 -509.827)" fill="#f37a50"/>
      <path id="Path_838542" data-name="Path 838542" d="M1964.473,649.907a.852.852,0,1,1-.213-1.186.852.852,0,0,1,.213,1.186" transform="translate(-1720.154 -568.356)"/>
      <path id="Path_838543" data-name="Path 838543" d="M2015.159,670.183a.922.922,0,1,1-.23-1.284.922.922,0,0,1,.23,1.284" transform="translate(-1764.459 -586.028)"/>
      <path id="Path_838544" data-name="Path 838544" d="M1967.559,670.383c-1.152.908-2.592,2-2.592,2a2.236,2.236,0,0,0,1.608,1.99c-.587-.532-1.1-1.241-.491-2.059s1.476-1.935,1.476-1.935" transform="translate(-1721.947 -587.473)" fill="#de623c"/>
      <path id="Path_838545" data-name="Path 838545" d="M2025.879,659.423a.431.431,0,0,0,.1-.012.425.425,0,0,0,.315-.512,2.268,2.268,0,0,0-2.069-1.81.425.425,0,0,0,0,.85c.96,0,1.244,1.146,1.246,1.157a.426.426,0,0,0,.413.327" transform="translate(-1773.501 -575.823)" fill="#201d40"/>
      <path id="Path_838546" data-name="Path 838546" d="M1965.7,635.342a.354.354,0,0,0,.305-.533,1.746,1.746,0,0,0-1.092-.78,1.814,1.814,0,0,0-1.476.468.354.354,0,0,0,.443.553,1.153,1.153,0,0,1,.9-.324,1.026,1.026,0,0,1,.609.442.354.354,0,0,0,.306.175" transform="translate(-1720.494 -555.594)" fill="#201d40"/>
      <path id="Path_838547" data-name="Path 838547" d="M1982.714,574.265a7.661,7.661,0,0,0-2.814-8.788s1.281-.115,1.434-1.914a4.733,4.733,0,0,1-2.978-.064c-6.364-2.3-10.746-2.273-10.746.45,0,.969-4.353.361-4,6.881.585-.611,1.627-3.2,3.047-3.464s.138,1.629,3.1,2.036c2.992.411,5.193-.315,7.021,1.372,1.43,1.472,1.785,8.962,1.567,9.413.5-1.034,3.506-3.469,4.367-5.921" transform="translate(-1720.739 -492.349)" fill="#201d40"/>
      <path id="Path_838548" data-name="Path 838548" d="M1943.806,670.383s-.271,3.4.219,4.449c.51-1.363,1.6.082,2.633.217,2.485.329,6.967-.5,7.412,3.227,3.036.961,5.88-5.539,5.88-5.539.174,7.261-5.139,11.385-12.786,10.177-5.038-.8-5.505-7.811-3.358-12.531" transform="translate(-1702.342 -587.473)" fill="#201d40"/>
      <path id="Path_838549" data-name="Path 838549" d="M1966.152,712.424a6.457,6.457,0,0,0,1.534-.6.283.283,0,1,0-.267-.5,4.1,4.1,0,0,1-3.134.532,2.959,2.959,0,0,1-1.632-1.291.283.283,0,0,0-.5.263,3.482,3.482,0,0,0,1.958,1.567,3.828,3.828,0,0,0,2.043.03" transform="translate(-1719.45 -622.552)" fill="#de623c"/>
      <path id="Path_838550" data-name="Path 838550" d="M2072.984,686.948a2.217,2.217,0,1,0,3.38.594,2.451,2.451,0,0,0-3.38-.594" transform="translate(-1815.303 -601.635)" fill="#f37a50"/>
      <path id="Path_838551" data-name="Path 838551" d="M2082.768,698.47a.321.321,0,0,1-.1-.11,1.45,1.45,0,0,1,.154-1.774,1.545,1.545,0,0,1,1.76-.323.321.321,0,1,1-.289.572.914.914,0,0,0-1.011.2.821.821,0,0,0-.049,1.022.321.321,0,0,1-.466.415" transform="translate(-1824.892 -610.023)" fill="#de623c"/>
      <path id="Path_838552" data-name="Path 838552" d="M1873.8,1669.79c-3.329,4.594-11.505,1.775-11.234,7.988,12.433-.08,17.6,0,17.6,0a45.6,45.6,0,0,0-.549-6.14Z" transform="translate(-1632.202 -1463.277)"/>
      <path id="Path_838553" data-name="Path 838553" d="M2032.327,1669.79c-3.329,4.594-11.505,1.775-11.234,7.988,12.433-.08,17.6,0,17.6,0a45.542,45.542,0,0,0-.549-6.14Z" transform="translate(-1771.126 -1463.277)"/>
      <path id="Path_838554" data-name="Path 838554" d="M1887.081,1101.978s-3.605,30.5-2.785,37.047,5.311,13.876,4.982,35.526c4.053,1.015,9.925,0,9.925,0s.871-24.48-3.414-35.414c1.742-10.621,7.333-34.947,7.333-34.947Z" transform="translate(-1651.146 -965.69)" fill="#201d40"/>
      <path id="Path_838555" data-name="Path 838555" d="M1968.94,1109.274s4.076,33.052,6.071,39.322,4.717,11.02,8.329,32.348c4.165.208,9.213.55,9.213.55s-.562-27.053-7.049-33.205c-.22-10.771,1.049-38.8,1.049-38.8Z" transform="translate(-1725.428 -972.083)" fill="#2c2858"/>
      <path id="Path_838556" data-name="Path 838556" d="M1914.308,792.414s-7.079-2.479-9.44-1.342c-7.335,3.532-9.018,0-9.018,0a59.5,59.5,0,0,0-8.651-.571c-.769,10.267-2.044,43.1-2.044,43.1a71.528,71.528,0,0,0,15.188,2.1,69.482,69.482,0,0,0,14.9-2.017s-.395-14.353-.723-19.688c.107-5.98-.212-13.7-.212-21.585" transform="translate(-1652.006 -692.735)" fill="#e62552"/>
      <path id="Path_838557" data-name="Path 838557" d="M2076.908,1057.123l-1.345,1.662s-.495-2.266-2.051-1.961v2.429s-.878,1.4-4.577.365c-3.357.057-1.434,2.049-2.448,2.471-1.5.624,1.938,3.03,5.23,2.726,4.26-.393,4.543-1.353,4.543-1.353l2.525-1.822Z" transform="translate(-1810.594 -926.095)" fill="#f37a50"/>
      <path id="Path_838558" data-name="Path 838558" d="M2120.87,805.967c6.468,2.782,14.4,9.2,19.288,19.353,1.674,3.483-6.288,4.187-7.875,2.813s-11.413-11.628-11.413-11.628Z" transform="translate(-1858.568 -706.288)" fill="#c4204a"/>
      <path id="Path_838559" data-name="Path 838559" d="M2145.541,959.107c5.658-7.608,8.185-13.63,10.01-14.557,2.442-1.241,6.458-1.18,6.457,3.071s-15.52,17.13-15.52,17.13Z" transform="translate(-1880.188 -827.117)" fill="#c4204a"/>
      <path id="Path_838560" data-name="Path 838560" d="M1673.282,720.152l-27.889-9.928-4.346,6.568,31.514,15.589Z" transform="translate(-1438.088 -622.387)" fill="#c4204a"/>
      <path id="Path_838561" data-name="Path 838561" d="M1304.3,641.448c.557,1.588,5.576,2.468,5.957,2.019,2.664-6.839-.143-20.255-.143-20.255l-2.5-1.134a126.342,126.342,0,0,1-3.317,19.37" transform="translate(-1142.984 -545.142)" fill="#f37a50"/>
      <path id="Path_838562" data-name="Path 838562" d="M1153.627,783.609c4.68-1.494,17.933-9.878,18.525-11.553l-5.544-2.969s-15.1,6.708-17.553,7.943c-4.251,2.129-3.064,9.032,4.572,6.579" transform="translate(-1004.81 -673.969)" fill="#f37a50"/>
      <path id="Path_838563" data-name="Path 838563" d="M1030.753,595.494c.352-4.8-1.035-9.037-4.861-11.2-3.878-2.188-8.736-.042-8.736-.042s-4.112-1.463-7.838,2.642-.908,7.717-2.432,10.711c-.9,1.773-5.493,2.138-4.308,7.913.342,1.665,2.345,2.786,4.042,2.9,2.981.2,5.756-.956,6.965.2,3.981,3.8,12.805,2.424,14.04-1.049.383-1.077,8.32,1.007,7.528-6.328-.4-3.717-4.715-1.456-4.4-5.744" transform="translate(-878.413 -511.172)" fill="#2c2858"/>
      <path id="Path_838564" data-name="Path 838564" d="M1063.022,819.594c0-4.011,3.476-10.021,1.81-14.07-1.214-3.257-3.242-8.725-5.725-9.638-1.172-.43-2.376-.73-3.836-1.134,0,0,.454,2.669-1.262,2.807-3.3.265-5.039-3.97-5.039-3.97-1.781-.17-9.89,2.479-10.272,3.781.019,5.254,4.613,12.325,6.009,18.006a30.034,30.034,0,0,1-.77,10.109s11.6,3.876,19.39-.413c0,0-.306-2.769-.306-5.478" transform="translate(-910.236 -695.434)" fill="#3f964f"/>
      <path id="Path_838565" data-name="Path 838565" d="M1123.824,760.163l-5.117-.766.262,4.228s1.4,4.67,4.309,4.736,2.108-3.565,2.108-3.565Z" transform="translate(-980.349 -665.478)" fill="#f37a50"/>
      <path id="Path_838566" data-name="Path 838566" d="M1077.886,624.727c1.321,5.517,5.9,9.148,10.237,8.11s6.774-6.351,5.453-11.868-5.9-9.148-10.237-8.11-6.774,6.351-5.453,11.867" transform="translate(-944.263 -536.909)" fill="#f37a50"/>
      <path id="Path_838567" data-name="Path 838567" d="M1190.3,683.469a.775.775,0,1,0,.348-1.039.775.775,0,0,0-.348,1.039" transform="translate(-1043.018 -597.959)"/>
      <path id="Path_838568" data-name="Path 838568" d="M1141.047,694.953a.839.839,0,1,0,.377-1.125.839.839,0,0,0-.377,1.125" transform="translate(-999.849 -607.941)"/>
      <path id="Path_838569" data-name="Path 838569" d="M1131.183,685.148a.291.291,0,0,0,.135-.138,2.222,2.222,0,0,1,1.567-1.085.292.292,0,0,0-.082-.577,2.774,2.774,0,0,0-2.014,1.417.292.292,0,0,0,.395.384" transform="translate(-990.913 -598.831)" fill="#2c2858"/>
      <path id="Path_838570" data-name="Path 838570" d="M1189.278,674.848a.292.292,0,0,0,.075-.469,2.048,2.048,0,0,0-2.033-.5.292.292,0,0,0,.189.552,1.462,1.462,0,0,1,1.434.362.292.292,0,0,0,.335.054" transform="translate(-1040.304 -590.461)" fill="#2c2858"/>
      <path id="Path_838571" data-name="Path 838571" d="M1182.019,704.728a7.772,7.772,0,0,0,1.2,1.144.307.307,0,0,1,.1.409,4.215,4.215,0,0,1-1.872,1.31.082.082,0,0,1-.086-.137,3.974,3.974,0,0,0,.954-1.112.366.366,0,0,0,0-.332c-.121-.24-.363-.729-.527-1.134a.138.138,0,0,1,.227-.147" transform="translate(-1035.234 -617.533)" fill="#de623c"/>
      <path id="Path_838572" data-name="Path 838572" d="M1072.671,706.154a2.016,2.016,0,1,1-3.12.077,2.229,2.229,0,0,1,3.12-.077" transform="translate(-936.963 -618.3)" fill="#f37a50"/>
      <path id="Path_838573" data-name="Path 838573" d="M1081.561,716.691a.292.292,0,0,0,.1-.086,1.319,1.319,0,0,0,.1-1.617,1.406,1.406,0,0,0-1.54-.528.292.292,0,1,0,.183.554.832.832,0,0,1,.883.315.747.747,0,0,1-.094.926.292.292,0,0,0,.364.436" transform="translate(-946.451 -626.045)" fill="#de623c"/>
      <path id="Path_838574" data-name="Path 838574" d="M1147.788,737.96a.233.233,0,0,1,.214-.371,16.478,16.478,0,0,0,4.379,0,.233.233,0,0,1,.213.371,2.9,2.9,0,0,1-4.806,0" transform="translate(-1005.793 -646.366)" fill="#fff"/>
      <path id="Path_838575" data-name="Path 838575" d="M1074.069,616.8c5.172-.693,12.408-5.962,13-8.666-1-3.248-6.33-4.881-9.34-3.376s-5.852,7.954-3.662,12.042" transform="translate(-940.553 -529.472)" fill="#2c2858"/>
      <path id="Path_838576" data-name="Path 838576" d="M1145.329,1148.689c-.343-3.417,1.42-29.424,1.42-29.424,4.986-22.863,3.028-39.23,3.028-39.23l-8.57.6-3.378,12.92,1.6,21.577s-.6,1.661-.919,2.989c-1.721,7.2-.007,15.81,1.053,21.547.491,2.659,1.255,8.246,1.275,9.516l-2.153,2.783s7.792,8.624,8.991,8.678c2.33.105,1.643-2.2,1.643-2.2-3.2-3.289-3.894-8.777-3.993-9.756" transform="translate(-997.064 -946.461)" fill="#f37a50"/>
      <path id="Path_838577" data-name="Path 838577" d="M1139.225,1645l.429,5.541,1,.045.5-5.146c2.651.677,4.55,5.487,4.55,5.487,1.826.655,6.467,1.1,8.119.253.4-1.619-3.836-2.754-3.836-2.754a4.264,4.264,0,0,1-3.446.315,16.244,16.244,0,0,1-5.028-9.581s-4.671.326-2.286,5.839" transform="translate(-997.736 -1436.437)" fill="#e62552"/>
      <path id="Path_838578" data-name="Path 838578" d="M975.318,1081.7l-12.073-1.663c-4.618,10.449-6.124,28.642-7.378,35.124-5.033,8.438-6.631,34.027-6.631,34.027l-2.153,2.783s7.792,8.624,8.991,8.678c2.33.105,1.643-2.2,1.643-2.2a16.625,16.625,0,0,1-4.035-8.62c-.311-1.445,9.772-29.833,9.772-29.833l1.076-2.694c12.317-20.343,14.338-35.722,14.338-35.722Z" transform="translate(-829.951 -946.461)" fill="#f37a50"/>
      <path id="Path_838579" data-name="Path 838579" d="M941.2,1645l.429,5.541,1,.045.5-5.146c2.651.677,4.55,5.487,4.55,5.487,1.826.655,6.467,1.1,8.119.253.4-1.619-3.837-2.754-3.837-2.754a4.264,4.264,0,0,1-3.446.315,16.245,16.245,0,0,1-5.028-9.581s-4.671.326-2.286,5.839" transform="translate(-824.202 -1436.437)" fill="#e62552"/>
      <path id="Path_838580" data-name="Path 838580" d="M993.888,1068.739c1.206-4.034.706-32.468,11.351-40.32l18.291,1.489c4.233,6.852,2.68,24.68,1.255,39.352-8.612,3.074-15.459,4.308-30.9-.52" transform="translate(-870.967 -901.228)" fill="#3f964f"/>
      <path id="Path_838581" data-name="Path 838581" d="M1420.562,250.2a6.794,6.794,0,0,0-1.5-2.58c-5.309-7.734-17.591-3.254-35.464,1.813-2.988.848-2.369-3.164-3.694-11.142-.862-5.189-6.449-11.838-11.87-10.162-8.938,2.762,1.829,7.124-.709,26.923-1.356,10.579-12.4,8.3-9.521,17.617l6.553,21.2c1.12,3.626,2.555,7,7.855,5.992,5.138-.979,5.11,2.89,12.273.676l35.854-11.081a6.926,6.926,0,0,0,4.585-8.642,6.821,6.821,0,0,0-2.621-3.563,6.792,6.792,0,0,0-.97-10.35,6.834,6.834,0,0,0-1.684-10.829,6.845,6.845,0,0,0,.908-5.874" transform="translate(-1189.462 -199.68)" fill="#33ece0"/>
      <path id="Path_838582" data-name="Path 838582" d="M1626.828,402.308l17.1-5.284a6.972,6.972,0,0,0,4.7-4.99,1.818,1.818,0,0,0-3.538-.84,3.306,3.306,0,0,1-2.231,2.369l-17.506,5.41a3.278,3.278,0,1,1-1.936-6.263l11.7-3.615a1.812,1.812,0,1,0-1.07-3.462l-11.7,3.616a6.924,6.924,0,0,0-4.585,8.64,6.848,6.848,0,0,0,3.95,4.293,6.818,6.818,0,0,0,3.434,9.606,6.856,6.856,0,0,0,3.939,9.792,6.827,6.827,0,0,0-.345,4.883,6.924,6.924,0,0,0,8.661,4.546l10.9-3.368a6.973,6.973,0,0,0,4.7-4.989,1.808,1.808,0,0,0-1.339-2.185,1.827,1.827,0,0,0-2.2,1.34,3.319,3.319,0,0,1-2.234,2.372l-10.9,3.368a3.278,3.278,0,1,1-1.936-6.263l12.928-4a6.972,6.972,0,0,0,4.7-4.991,1.817,1.817,0,0,0-3.535-.845,3.272,3.272,0,0,1-2.233,2.374l-14.034,4.337a3.279,3.279,0,1,1-1.936-6.265l16.077-4.969a6.973,6.973,0,0,0,4.7-4.989,1.817,1.817,0,0,0-3.535-.845,3.276,3.276,0,0,1-2.234,2.372l-16.516,5.1a3.279,3.279,0,1,1-1.936-6.265" transform="translate(-1417.407 -337.868)" fill="#0fcebb"/>
      <path id="Path_838583" data-name="Path 838583" d="M1263.058,559.66l-11.164,3.45a2.93,2.93,0,0,1-3.665-1.934L1237.976,528a2.93,2.93,0,0,1,1.934-3.665l11.164-3.45a2.931,2.931,0,0,1,3.665,1.934l10.253,33.175a2.93,2.93,0,0,1-1.934,3.665" transform="translate(-1084.753 -456.35)" fill="#7f99eb"/>
      <path id="Path_838584" data-name="Path 838584" d="M1390.137,786.463c-1.164.071-2.522-.309-3.294.539l-2.025-2.33c1.974-3.163,6.616-4.237,7.093-4.278,1.238-.109,1.813-.236,1.91-.071s.4,1.268-1.4,1.483c-2.254.271-.758,2.073,3.816.357,1.145-.43,3.3.128,2.521.965-.859.922-3.326,3.012-8.624,3.335" transform="translate(-1213.549 -683.746)" fill="#f37a50"/>
      <path id="Path_838585" data-name="Path 838585" d="M1235.641,817.868c-1.088,1.55,1.4,6.718,2.055,6.773,8-2.044,18.436-13.4,18.436-13.4l-.6-3.028a142.141,142.141,0,0,1-19.893,9.656" transform="translate(-1082.583 -708.256)" fill="#f37a50"/>
      <path id="Path_838586" data-name="Path 838586" d="M1034.14,823.14c4.81,2.724,21.861,7.266,23.7,6.475l-1.783-6.848s-17.079-7.348-19.973-8.43c-5.006-1.885-9.8,4.37-1.941,8.8" transform="translate(-902.594 -713.321)" fill="#f37a50"/>
      <path id="Path_838587" data-name="Path 838587" d="M2377,215.757a4.857,4.857,0,0,0-.25-2.118c-1.288-6.582-10.619-7.129-23.785-8.879-2.2-.292-.656-2.749.74-8.36.908-3.649-.871-9.6-4.9-10.038-6.649-.725-.822,5.194-8.108,17.465-3.893,6.557-10.493,1.927-11.249,8.856l-1.72,15.774c-.294,2.7-.311,5.319,3.454,6.162,3.649.816,2.532,3.347,7.861,3.928l26.672,2.908a4.952,4.952,0,0,0,5.462-4.369,4.877,4.877,0,0,0-.708-3.082,4.856,4.856,0,0,0,2.3-7.067,4.886,4.886,0,0,0,1.969-7.584,4.894,4.894,0,0,0,2.263-3.6" transform="translate(-2039.736 -163.262)" fill="#33ece0"/>
      <path id="Path_838588" data-name="Path 838588" d="M2539.8,378.605l12.718,1.386a4.984,4.984,0,0,0,4.5-1.941,1.3,1.3,0,0,0-2.083-1.555,2.363,2.363,0,0,1-2.136.921L2539.774,376a2.343,2.343,0,1,1,.508-4.659l8.7.949a1.3,1.3,0,1,0,.281-2.575l-8.7-.949a4.95,4.95,0,0,0-5.461,4.368,4.9,4.9,0,0,0,1.373,3.938,4.875,4.875,0,0,0-.473,7.278,4.9,4.9,0,0,0-.2,7.543,4.884,4.884,0,0,0-1.613,3.106,4.95,4.95,0,0,0,4.392,5.442l8.106.884a4.985,4.985,0,0,0,4.5-1.939,1.292,1.292,0,0,0-.259-1.814,1.307,1.307,0,0,0-1.822.256,2.372,2.372,0,0,1-2.139.922l-8.106-.884a2.343,2.343,0,1,1,.508-4.659l9.617,1.048a4.985,4.985,0,0,0,4.5-1.941,1.3,1.3,0,0,0-2.08-1.558,2.338,2.338,0,0,1-2.139.924l-10.44-1.138a2.344,2.344,0,1,1,.508-4.661l11.96,1.3a4.986,4.986,0,0,0,4.5-1.94,1.3,1.3,0,0,0-2.08-1.558,2.341,2.341,0,0,1-2.139.922l-12.287-1.339a2.344,2.344,0,1,1,.508-4.661" transform="translate(-2220.715 -323.129)" fill="#0fcebb"/>
      <path id="Path_838589" data-name="Path 838589" d="M2253.945,372.517l-8.3-.905a2.2,2.2,0,0,1-2.2-2.348l2.69-24.679a2.1,2.1,0,0,1,2.31-1.856l8.3.905a2.1,2.1,0,0,1,1.856,2.31l-2.691,24.679a2.063,2.063,0,0,1-1.961,1.894" transform="translate(-1965.965 -300.331)" fill="#7f99eb"/>
      <path id="Path_838590" data-name="Path 838590" d="M1422.562,946.253l5.487.043-4.937,2.395a1.829,1.829,0,0,0-1.027,1.753l.48,8.166-3.076-7.586a1.829,1.829,0,0,0-1.672-1.142l-5.364-.067,4.816-2.364a1.829,1.829,0,0,0,1.02-1.749l-.48-8.172,3.074,7.581a1.829,1.829,0,0,0,1.681,1.142" transform="translate(-1237.765 -821.581)" fill="#33ece0"/>
      <path id="Path_838591" data-name="Path 838591" d="M1952.8,233.746l4.617,2.438-5.22-.137a1.741,1.741,0,0,0-1.636,1.032l-3.168,7.11.721-7.757a1.74,1.74,0,0,0-.914-1.7l-4.5-2.4,5.1.11a1.74,1.74,0,0,0,1.627-1.032l3.171-7.116-.72,7.751a1.741,1.741,0,0,0,.921,1.7" transform="translate(-1702.432 -196.555)" fill="#33ece0"/>
      <path id="Path_838592" data-name="Path 838592" d="M1286.047,225.932l3.442-.008-3.081,1.534a1.148,1.148,0,0,0-.633,1.106l.354,5.119-1.979-4.739a1.148,1.148,0,0,0-1.056-.705l-3.365-.007,3.005-1.514a1.147,1.147,0,0,0,.628-1.1l-.354-5.123,1.977,4.735a1.147,1.147,0,0,0,1.062.705" transform="translate(-1121.457 -193.222)" fill="#33ece0"/>
      <path id="Path_838593" data-name="Path 838593" d="M1648.888,1170.863l3.3,2.061-3.87-.385a1.3,1.3,0,0,0-1.271.677l-2.739,5.109.957-5.722a1.3,1.3,0,0,0-.586-1.31l-3.214-2.03,3.785.359a1.3,1.3,0,0,0,1.265-.678l2.741-5.113-.956,5.718a1.3,1.3,0,0,0,.591,1.313" transform="translate(-1438.452 -1019.894)" fill="#33ece0"/>
      <path id="Path_838594" data-name="Path 838594" d="M2765.85,442.446l3.033,1.628-3.44-.114a1.148,1.148,0,0,0-1.083.673l-2.121,4.672.51-5.11a1.148,1.148,0,0,0-.594-1.123l-2.958-1.605,3.364.1a1.147,1.147,0,0,0,1.077-.673l2.123-4.676-.51,5.106a1.148,1.148,0,0,0,.6,1.125" transform="translate(-2417.95 -382.266)" fill="#33ece0"/>
      <path id="Path_838595" data-name="Path 838595" d="M569.29,1098.288l3.434-.24-2.971,1.738a1.148,1.148,0,0,0-.557,1.146l.7,5.084-2.293-4.595a1.148,1.148,0,0,0-1.1-.633l-3.358.22,2.9-1.713a1.147,1.147,0,0,0,.553-1.144l-.7-5.087,2.292,4.591a1.148,1.148,0,0,0,1.107.632" transform="translate(-493.494 -957.879)" fill="#33ece0"/>
      <path id="Path_838596" data-name="Path 838596" d="M2564.7,1118.521a3.9,3.9,0,1,1-3.9-3.9,3.9,3.9,0,0,1,3.9,3.9" transform="translate(-2240.67 -976.77)" fill="#fff"/>
      <path id="Path_838597" data-name="Path 838597" d="M1444.69,1304.97a3.043,3.043,0,1,1,0-4.3,3.043,3.043,0,0,1,0,4.3" transform="translate(-1261.464 -1139.025)" fill="#fff"/>
      <path id="Path_838598" data-name="Path 838598" d="M2616.562,1054.6a2.1,2.1,0,1,1-2.1,2.1,2.1,2.1,0,0,1,2.1-2.1m0-.9a2.993,2.993,0,1,0,2.993,2.993,2.993,2.993,0,0,0-2.993-2.993" transform="translate(-2290.332 -923.383)" fill="#fff"/>
      <path id="Path_838599" data-name="Path 838599" d="M1104.9,405.835a2.986,2.986,0,1,1-2.986,2.986,2.99,2.99,0,0,1,2.986-2.986m0-1.275a4.261,4.261,0,1,0,4.261,4.261,4.262,4.262,0,0,0-4.261-4.261" transform="translate(-964.518 -354.526)" fill="#fff"/>
      <path id="Path_838600" data-name="Path 838600" d="M114.439,634.146a2.681,2.681,0,1,1-2.681,2.681,2.684,2.684,0,0,1,2.681-2.681m0-1.145a3.826,3.826,0,1,0,3.826,3.826A3.826,3.826,0,0,0,114.439,633" transform="translate(-96.933 -554.714)" fill="#fff"/>
    </g>
  </g>
</svg>
