<svg xmlns="http://www.w3.org/2000/svg" xmlns:xlink="http://www.w3.org/1999/xlink" width="190.475" height="242.018" viewBox="0 0 190.475 242.018">
  <defs>
    <clipPath id="clip-path">
      <rect id="Rectangle_385895" data-name="Rectangle 385895" width="190.475" height="242.018" fill="none"/>
    </clipPath>
    <clipPath id="clip-path-4">
      <rect id="Rectangle_385869" data-name="Rectangle 385869" width="22.757" height="21.714" fill="none"/>
    </clipPath>
    <clipPath id="clip-path-5">
      <rect id="Rectangle_385870" data-name="Rectangle 385870" width="5.363" height="13.855" fill="none"/>
    </clipPath>
    <clipPath id="clip-path-6">
      <rect id="Rectangle_385871" data-name="Rectangle 385871" width="4.874" height="43.081" fill="none"/>
    </clipPath>
    <clipPath id="clip-path-7">
      <rect id="Rectangle_385872" data-name="Rectangle 385872" width="12.214" height="3.78" fill="none"/>
    </clipPath>
    <clipPath id="clip-path-8">
      <rect id="Rectangle_385873" data-name="Rectangle 385873" width="14.154" height="4.87" fill="none"/>
    </clipPath>
    <clipPath id="clip-path-10">
      <rect id="Rectangle_385877" data-name="Rectangle 385877" width="14.163" height="7.467" fill="none"/>
    </clipPath>
    <clipPath id="clip-path-11">
      <rect id="Rectangle_385878" data-name="Rectangle 385878" width="1.706" height="1.669" fill="none"/>
    </clipPath>
    <clipPath id="clip-path-12">
      <rect id="Rectangle_385879" data-name="Rectangle 385879" width="1.708" height="1.676" fill="none"/>
    </clipPath>
    <clipPath id="clip-path-13">
      <rect id="Rectangle_385880" data-name="Rectangle 385880" width="12.396" height="8.619" fill="none"/>
    </clipPath>
    <clipPath id="clip-path-14">
      <rect id="Rectangle_385881" data-name="Rectangle 385881" width="10.705" height="6.727" fill="none"/>
    </clipPath>
    <clipPath id="clip-path-15">
      <rect id="Rectangle_385882" data-name="Rectangle 385882" width="4.563" height="6.407" fill="none"/>
    </clipPath>
    <clipPath id="clip-path-16">
      <rect id="Rectangle_385883" data-name="Rectangle 385883" width="13.493" height="7.355" fill="none"/>
    </clipPath>
    <clipPath id="clip-path-17">
      <rect id="Rectangle_385884" data-name="Rectangle 385884" width="9.804" height="8.039" fill="none"/>
    </clipPath>
    <clipPath id="clip-path-19">
      <rect id="Rectangle_385887" data-name="Rectangle 385887" width="19.243" height="5.016" fill="none"/>
    </clipPath>
    <clipPath id="clip-path-20">
      <rect id="Rectangle_385888" data-name="Rectangle 385888" width="5.708" height="5.331" fill="none"/>
    </clipPath>
    <clipPath id="clip-path-21">
      <rect id="Rectangle_385889" data-name="Rectangle 385889" width="2.017" height="1.978" fill="none"/>
    </clipPath>
    <clipPath id="clip-path-22">
      <rect id="Rectangle_385890" data-name="Rectangle 385890" width="3.394" height="21.688" fill="none"/>
    </clipPath>
  </defs>
  <g id="Group_1019423" data-name="Group 1019423" clip-path="url(#clip-path)">
    <g id="Group_1019361" data-name="Group 1019361">
      <g id="Group_1019360" data-name="Group 1019360" clip-path="url(#clip-path)">
        <path id="Path_837618" data-name="Path 837618" d="M173.569,98.572l.793-34.748s7.737-1.5,14.631-12.019c4.562-6.959,2.88-14.333,3.757-17.388.536-1.868,4.94-1.492,6.87-1.268,1.829.213,4.851,1.23,6.121,4.122,2.353,5.363-.94,18.192-.94,18.192s-1.437,2.613,2.221,2.613H220.07a7.1,7.1,0,0,1,4.639,1.658,5.276,5.276,0,0,1,1.91,4.612c-.392,4.965-3,7.185-3,8.23s1.437,2.874.392,5.879-1.7,2.743-1.7,4.18a23.454,23.454,0,0,1-1.176,7.316,10.656,10.656,0,0,1-1.96,3.266s.392,4.7-.914,7.446-6.794,4.181-8.622,4.181-14.893-2.613-18.551-3.527-13.988-4.444-17.516-2.746" transform="translate(-83.08 -15.776)" fill="#263238"/>
        <path id="Path_837619" data-name="Path 837619" d="M164.607,99.222V64.079s7.738-1.5,14.632-12.019a58.647,58.647,0,0,0,7.5-15.636,3.99,3.99,0,0,1,4.253-2.906,6.079,6.079,0,0,1,5.3,3.822c2.353,5.362-1.24,18.378-1.24,18.378s-1.437,2.612,2.221,2.612h13.047a7.1,7.1,0,0,1,4.639,1.659,5.276,5.276,0,0,1,1.91,4.612c-.392,4.965-3.005,7.186-3.005,8.23s1.437,2.874.392,5.879-1.7,2.743-1.7,4.181a23.457,23.457,0,0,1-1.176,7.316,10.645,10.645,0,0,1-1.96,3.266s.393,4.7-.914,7.447-6.793,4.18-8.622,4.18-14.893-2.612-18.551-3.527-13.195-4.05-16.722-2.352" transform="translate(-78.79 -16.031)" fill="#455a64"/>
        <path id="Path_837620" data-name="Path 837620" d="M189.066,30.133a24.162,24.162,0,0,1-2.9-2.16,24.132,24.132,0,0,1-2.732-2.372,24.143,24.143,0,0,1,2.9,2.16,24.185,24.185,0,0,1,2.732,2.372" transform="translate(-87.801 -12.253)" fill="#263238"/>
        <path id="Path_837621" data-name="Path 837621" d="M199.5,17.9a9.035,9.035,0,0,1-1.019-1.3c-.595-.831-1.383-2-2.2-3.333s-1.5-2.565-1.973-3.472a9.122,9.122,0,0,1-.7-1.5,11.083,11.083,0,0,1,.868,1.407c.512.882,1.224,2.1,2.036,3.423s1.573,2.51,2.126,3.367A11.143,11.143,0,0,1,199.5,17.9" transform="translate(-92.67 -3.967)" fill="#263238"/>
        <path id="Path_837622" data-name="Path 837622" d="M214.561,0a47.384,47.384,0,0,1,.136,5.071,47.382,47.382,0,0,1-.136,5.071,47.477,47.477,0,0,1-.136-5.071A47.479,47.479,0,0,1,214.561,0" transform="translate(-102.636)" fill="#263238"/>
        <path id="Path_837623" data-name="Path 837623" d="M232.919,15.222a20.432,20.432,0,0,1-2.255,2.448,20.549,20.549,0,0,1-2.448,2.256,20.517,20.517,0,0,1,2.256-2.448,20.468,20.468,0,0,1,2.448-2.256" transform="translate(-109.236 -7.285)" fill="#263238"/>
        <path id="Path_837624" data-name="Path 837624" d="M240.777,27.063a13.548,13.548,0,0,1-1.815,2.007,13.549,13.549,0,0,1-2.007,1.815,13.516,13.516,0,0,1,1.815-2.007,13.55,13.55,0,0,1,2.007-1.815" transform="translate(-113.42 -12.953)" fill="#263238"/>
        <path id="Path_837625" data-name="Path 837625" d="M229.908,62.665a6.116,6.116,0,0,1-.825,1.051c-.54.622-1.312,1.46-2.2,2.349s-1.727,1.661-2.35,2.2a6.069,6.069,0,0,1-1.051.825,7,7,0,0,1,.921-.966l2.288-2.252,2.252-2.287a7.019,7.019,0,0,1,.966-.921" transform="translate(-106.97 -29.994)" fill="#455a64"/>
        <path id="Path_837626" data-name="Path 837626" d="M231.555,53.652a4.657,4.657,0,0,1-.758.952,25.56,25.56,0,0,1-2.116,2.032c-.867.749-1.672,1.4-2.253,1.867a5.81,5.81,0,0,1-.974.725,27.227,27.227,0,0,1,3.049-2.8c.862-.745,1.619-1.443,2.156-1.961a6.455,6.455,0,0,1,.9-.818" transform="translate(-107.914 -25.68)" fill="#455a64"/>
        <path id="Path_837627" data-name="Path 837627" d="M231.779,45.522a3.177,3.177,0,0,1-.605.787,12.2,12.2,0,0,1-1.783,1.6c-1.518,1.078-2.67,2.03-2.721,1.979a12.63,12.63,0,0,1,2.558-2.2c1.491-1.091,2.483-2.232,2.551-2.17" transform="translate(-108.496 -21.788)" fill="#455a64"/>
        <path id="Path_837628" data-name="Path 837628" d="M230.266,38.741a11.347,11.347,0,0,1-1.789,1.709,11.356,11.356,0,0,1-1.967,1.5,11.393,11.393,0,0,1,1.79-1.709,11.376,11.376,0,0,1,1.966-1.5" transform="translate(-108.42 -18.542)" fill="#455a64"/>
        <path id="Path_837629" data-name="Path 837629" d="M226.4,34.737a4.053,4.053,0,0,1-1.14.915,4.052,4.052,0,0,1-1.29.689,4.02,4.02,0,0,1,1.14-.916,4.01,4.01,0,0,1,1.289-.689" transform="translate(-107.204 -16.623)" fill="#455a64"/>
        <path id="Path_837630" data-name="Path 837630" d="M230.207,74.544a12.7,12.7,0,0,1-1.9,1.805,12.73,12.73,0,0,1-2.074,1.6,12.729,12.729,0,0,1,1.9-1.805,12.7,12.7,0,0,1,2.074-1.6" transform="translate(-108.288 -35.68)" fill="#455a64"/>
        <path id="Path_837631" data-name="Path 837631" d="M267.25,98.047a43.476,43.476,0,0,1-3.92,2.85,43.483,43.483,0,0,1-4.073,2.625,43.293,43.293,0,0,1,3.919-2.85,43.124,43.124,0,0,1,4.074-2.625" transform="translate(-124.095 -46.93)" fill="#455a64"/>
        <path id="Path_837632" data-name="Path 837632" d="M269.822,86.618a15.488,15.488,0,0,1-2.3,1.749,15.532,15.532,0,0,1-2.458,1.526,30.811,30.811,0,0,1,4.761-3.275" transform="translate(-126.873 -41.459)" fill="#455a64"/>
        <path id="Path_837633" data-name="Path 837633" d="M265.341,114.4c.038.069-1.337.884-2.962,2s-2.888,2.091-2.939,2.03a3.74,3.74,0,0,1,.76-.728c.5-.418,1.207-.967,2.026-1.525s1.589-1.02,2.159-1.329a3.743,3.743,0,0,1,.956-.442" transform="translate(-124.183 -54.759)" fill="#455a64"/>
        <path id="Path_837634" data-name="Path 837634" d="M262.287,126.838a52.887,52.887,0,0,1-6.054,4.542,52.73,52.73,0,0,1,6.054-4.542" transform="translate(-122.647 -60.711)" fill="#455a64"/>
        <path id="Path_837635" data-name="Path 837635" d="M258.034,142.757a4.917,4.917,0,0,1-.87.847c-.565.491-1.372,1.14-2.3,1.806s-1.8,1.223-2.448,1.6a4.96,4.96,0,0,1-1.081.553,5.951,5.951,0,0,1,.978-.715c.617-.418,1.469-1,2.392-1.659s1.744-1.284,2.338-1.735a5.962,5.962,0,0,1,.991-.7" transform="translate(-120.303 -68.331)" fill="#455a64"/>
        <path id="Path_837636" data-name="Path 837636" d="M253.8,155.681a6.3,6.3,0,0,1-1.03.97c-.666.564-1.616,1.307-2.7,2.084s-2.091,1.438-2.839,1.889a6.33,6.33,0,0,1-1.248.665,8.677,8.677,0,0,1,1.144-.826c.718-.491,1.705-1.175,2.784-1.948s2.042-1.49,2.737-2.014a8.654,8.654,0,0,1,1.15-.82" transform="translate(-117.741 -74.517)" fill="#455a64"/>
        <path id="Path_837637" data-name="Path 837637" d="M252.313,48.518a13.667,13.667,0,0,1-2.715-.136,27.049,27.049,0,0,1,5.43,0,13.668,13.668,0,0,1-2.715.136" transform="translate(-119.472 -23.093)" fill="#263238"/>
      </g>
    </g>
    <g id="Group_1019378" data-name="Group 1019378">
      <g id="Group_1019377" data-name="Group 1019377" clip-path="url(#clip-path)">
        <path id="Path_837638" data-name="Path 837638" d="M35.923,88.159a41.112,41.112,0,0,1-2.073-6.78,14.351,14.351,0,0,1,.268-7.02c.111-.341,1.081-2.64,1.439-2.619.256.014-.312,2.144-.174,2.36a12.17,12.17,0,0,1,1.666,7.033,32.064,32.064,0,0,1-1.126,7.026" transform="translate(-16.056 -34.339)" fill="#263238"/>
        <path id="Path_837639" data-name="Path 837639" d="M51.257,97.059c-.053-1.67-.089-2.989-.076-2.99s5.706-.82,5.842-6.513c.066-2.75-.259-8.421-.613-13.552a10.612,10.612,0,0,0-10.463-9.882l-.549-.006c-5.928.277-9,5.467-8.564,11.385l.884,20.751,4.225,4.627a5.36,5.36,0,0,0,9.314-3.82" transform="translate(-17.611 -30.69)" fill="#bd8c83"/>
        <path id="Path_837640" data-name="Path 837640" d="M57.67,119.474a13.755,13.755,0,0,1-7.388-2.278s1.7,4.36,7.391,3.914Z" transform="translate(-24.068 -56.097)" fill="#896360"/>
        <path id="Path_837641" data-name="Path 837641" d="M70.16,91.344a.813.813,0,0,1-.793.811.778.778,0,0,1-.83-.743.814.814,0,0,1,.793-.812.779.779,0,0,1,.83.743" transform="translate(-32.806 -43.366)" fill="#263238"/>
        <path id="Path_837642" data-name="Path 837642" d="M69.147,86.775c-.1.1-.713-.358-1.588-.366s-1.521.422-1.615.314c-.046-.048.058-.238.34-.438a2.227,2.227,0,0,1,1.294-.383,2.143,2.143,0,0,1,1.262.424c.267.21.356.4.306.449" transform="translate(-31.56 -41.117)" fill="#263238"/>
        <path id="Path_837643" data-name="Path 837643" d="M54.527,91.516a.813.813,0,0,1-.793.811.778.778,0,0,1-.83-.743.814.814,0,0,1,.793-.812.779.779,0,0,1,.83.743" transform="translate(-25.323 -43.449)" fill="#263238"/>
        <path id="Path_837644" data-name="Path 837644" d="M52.7,87.263c-.1.1-.714-.358-1.588-.366s-1.521.422-1.615.314c-.046-.048.058-.238.341-.438a2.231,2.231,0,0,1,1.294-.383,2.143,2.143,0,0,1,1.262.424c.266.21.356.4.306.449" transform="translate(-23.686 -41.351)" fill="#263238"/>
        <path id="Path_837645" data-name="Path 837645" d="M61.22,94.334a5.789,5.789,0,0,1,1.424-.24c.224-.02.436-.063.475-.214a1.135,1.135,0,0,0-.141-.664q-.306-.815-.641-1.709A29.218,29.218,0,0,1,60.9,87.039a29.287,29.287,0,0,1,1.788,4.342q.321.9.613,1.719a1.292,1.292,0,0,1,.106.878.561.561,0,0,1-.371.323,1.523,1.523,0,0,1-.38.048,5.675,5.675,0,0,1-1.44-.015" transform="translate(-29.148 -41.662)" fill="#263238"/>
        <path id="Path_837646" data-name="Path 837646" d="M52.441,81.779c-.089.237-.961.116-1.989.229-1.03.093-1.861.386-2,.171-.06-.1.087-.325.424-.552a3.477,3.477,0,0,1,3.035-.3c.375.155.563.344.525.457" transform="translate(-23.188 -38.822)" fill="#263238"/>
        <path id="Path_837647" data-name="Path 837647" d="M68.749,81.109c-.152.2-.757,0-1.482,0-.725-.027-1.337.149-1.481-.058-.063-.1.031-.3.3-.492a2.148,2.148,0,0,1,2.387.048c.259.2.345.406.278.5" transform="translate(-31.48 -38.398)" fill="#263238"/>
        <path id="Path_837648" data-name="Path 837648" d="M34.225,93.871c-.1-.043-3.9-1.2-3.82,2.692s3.973,3.011,3.977,2.9-.157-5.591-.157-5.591" transform="translate(-14.553 -44.839)" fill="#bd8c83"/>
        <path id="Path_837649" data-name="Path 837649" d="M34.071,99.175c-.017-.012-.067.049-.18.1a.677.677,0,0,1-.507.021,1.68,1.68,0,0,1-.808-1.491,2.238,2.238,0,0,1,.17-.975.783.783,0,0,1,.5-.531.345.345,0,0,1,.4.178c.055.108.031.186.052.192s.082-.067.047-.227a.431.431,0,0,0-.158-.241.511.511,0,0,0-.377-.091.954.954,0,0,0-.7.618,2.3,2.3,0,0,0-.213,1.091,1.76,1.76,0,0,0,1.024,1.662.727.727,0,0,0,.618-.116c.118-.1.137-.186.124-.193" transform="translate(-15.462 -46.003)" fill="#896360"/>
        <path id="Path_837650" data-name="Path 837650" d="M52.345,67.006c.62-.366-1.33-2.352-2.9-3.009-2.372-.994-5.964-1.543-8.1-.869A9.385,9.385,0,0,0,35.409,67.7a15.318,15.318,0,0,0-1.491,7.869,4.647,4.647,0,0,0,.618,2.362c.569.845,1.628,1.357,1.617,2.546a1.628,1.628,0,0,0,.439,1.177c.734.737,1.585,0,1.965-.726a11.279,11.279,0,0,0,.878-5.123,11.393,11.393,0,0,0-.354-3.7c-.21-.644-.533-1.248-.707-1.9a2.341,2.341,0,0,1,.219-1.952,2.436,2.436,0,0,1,.307-.329,4.06,4.06,0,0,1,4.006-.884c2.215.712,5.993,1.761,6.949.988a6,6,0,0,0,1.692-1.819Z" transform="translate(-16.22 -30.074)" fill="#263238"/>
        <path id="Path_837651" data-name="Path 837651" d="M61.027,105.264c.025.064-.138.206-.462.3a2.319,2.319,0,0,1-2.355-.819c-.2-.273-.238-.485-.179-.52.131-.08.6.5,1.413.766.808.3,1.53.131,1.583.275" transform="translate(-27.765 -49.884)" fill="#263238"/>
        <path id="Path_837652" data-name="Path 837652" d="M57.758,419.188,55.58,430.845S66.7,436.974,66.5,439.167L43.75,435.756l2.648-18.3Z" transform="translate(-20.941 -199.817)" fill="#33ece0"/>
        <g id="Group_1019364" data-name="Group 1019364" transform="translate(22.809 217.636)" opacity="0.3">
          <g id="Group_1019363" data-name="Group 1019363">
            <g id="Group_1019362" data-name="Group 1019362" clip-path="url(#clip-path-4)">
              <path id="Path_837653" data-name="Path 837653" d="M57.758,419.188,55.58,430.845S66.7,436.974,66.5,439.167L43.75,435.756l2.648-18.3Z" transform="translate(-43.75 -417.453)"/>
            </g>
          </g>
        </g>
        <path id="Path_837654" data-name="Path 837654" d="M52.49,439.21a.94.94,0,0,0-.8.964.9.9,0,0,0,.948.8.991.991,0,0,0,.844-1.025.937.937,0,0,0-1.079-.726" transform="translate(-24.74 -210.223)" fill="#e0e0e0"/>
        <path id="Path_837655" data-name="Path 837655" d="M43.75,450.876l.339-1.835L65.779,453s.947.593.725,1.289Z" transform="translate(-20.941 -214.937)" fill="#263238"/>
        <path id="Path_837656" data-name="Path 837656" d="M65.106,442.865c-.02.111-.583.078-1.184.353-.607.26-.961.7-1.057.639-.1-.037.165-.676.9-1s1.382-.094,1.342,0" transform="translate(-30.082 -211.898)" fill="#263238"/>
        <path id="Path_837657" data-name="Path 837657" d="M69.878,445.54c.009.112-.5.228-.948.642s-.631.894-.741.873c-.107,0-.087-.661.48-1.164s1.223-.457,1.209-.35" transform="translate(-32.615 -213.228)" fill="#263238"/>
        <path id="Path_837658" data-name="Path 837658" d="M73.177,449.826c-.1.008-.176-.57.2-1.136s.932-.73.966-.63c.049.1-.337.376-.639.846s-.415.925-.527.92" transform="translate(-34.987 -214.454)" fill="#263238"/>
        <path id="Path_837659" data-name="Path 837659" d="M65.38,437.285c-.062.094-.548-.136-1.183-.187s-1.154.073-1.2-.031.486-.43,1.232-.359,1.215.5,1.147.577" transform="translate(-30.154 -209.029)" fill="#263238"/>
        <path id="Path_837660" data-name="Path 837660" d="M45.819,426.128l-.21,11.857s11.982,4.195,12.157,6.39l-23.005.42-.432-18.489Z" transform="translate(-16.432 -203.97)" fill="#33ece0"/>
        <path id="Path_837661" data-name="Path 837661" d="M41.687,447.169a.94.94,0,0,0-.63,1.084.9.9,0,0,0,1.069.634.99.99,0,0,0,.661-1.151A.937.937,0,0,0,41.6,447.2" transform="translate(-19.641 -214.02)" fill="#e0e0e0"/>
        <path id="Path_837662" data-name="Path 837662" d="M35.157,460.221l.03-1.865,22.046.3s1.032.427.93,1.151Z" transform="translate(-16.828 -219.396)" fill="#263238"/>
        <path id="Path_837663" data-name="Path 837663" d="M54.773,448.544c0,.113-.563.174-1.108.545s-.832.849-.936.807c-.1-.02.052-.7.72-1.132s1.347-.323,1.324-.219" transform="translate(-25.225 -214.653)" fill="#263238"/>
        <path id="Path_837664" data-name="Path 837664" d="M59.966,450.424c.028.108-.456.308-.828.79s-.474.986-.586.984c-.1.019-.195-.637.28-1.228s1.13-.653,1.134-.546" transform="translate(-27.986 -215.579)" fill="#263238"/>
        <path id="Path_837665" data-name="Path 837665" d="M63.939,454.161c-.1.026-.268-.533.009-1.153s.8-.875.848-.782c.065.091-.27.427-.49.94s-.255.982-.367.995" transform="translate(-30.536 -216.453)" fill="#263238"/>
        <path id="Path_837666" data-name="Path 837666" d="M54,443.088c-.045.1-.564-.042-1.2.012s-1.126.264-1.186.168c-.066-.08.409-.5,1.156-.558s1.281.288,1.227.377" transform="translate(-24.704 -211.904)" fill="#263238"/>
        <path id="Path_837667" data-name="Path 837667" d="M25.242,249.536l.306,11.731,3.465,36.419s-1.1,17.74-1.805,27.756c-.609,8.7,1.149,23.773,1.149,23.773L43,348.833,46.921,298.3l2.433-31.512L54.3,250.32Z" transform="translate(-12.082 -119.442)" fill="#263238"/>
        <path id="Path_837668" data-name="Path 837668" d="M74.222,252.2l.923,47.63a19.955,19.955,0,0,1-1.17,7.129L61.4,342l-.62,2.313-8.8-1.887,4.274-92.89Z" transform="translate(-24.878 -119.442)" fill="#263238"/>
        <path id="Path_837669" data-name="Path 837669" d="M65.453,270.794a1.422,1.422,0,0,1,.011.229c0,.165,0,.387.005.67,0,.606,0,1.472-.006,2.58,0,2.241-.065,5.482-.171,9.486-.234,8.007-.771,19.062-1.739,31.237-.949,12.181-2.06,23.18-2.874,31.139l-.987,9.422-.282,2.56c-.033.281-.06.5-.08.665a1.383,1.383,0,0,1-.036.226,1.425,1.425,0,0,1,.009-.229c.013-.165.031-.386.053-.668.054-.6.131-1.464.23-2.566.214-2.243.521-5.462.9-9.433.765-7.964,1.846-18.964,2.794-31.142.969-12.171,1.535-23.218,1.818-31.22.131-4,.225-7.24.258-9.48.025-1.107.044-1.973.058-2.579.009-.283.017-.505.022-.67a1.4,1.4,0,0,1,.017-.228" transform="translate(-28.381 -129.618)" fill="#455a64"/>
        <path id="Path_837670" data-name="Path 837670" d="M37.81,255.3a1.835,1.835,0,0,1-.047.539,8.077,8.077,0,0,1-.378,1.427,9.351,9.351,0,0,1-7.139,6.048,8.193,8.193,0,0,1-1.469.139,1.83,1.83,0,0,1-.54-.042c0-.052.771-.022,1.971-.286a9.711,9.711,0,0,0,7-5.928c.457-1.14.555-1.907.606-1.9" transform="translate(-13.515 -122.204)" fill="#455a64"/>
        <path id="Path_837671" data-name="Path 837671" d="M71.2,258.213a.753.753,0,1,1-.773-.734.753.753,0,0,1,.773.734" transform="translate(-33.358 -123.245)" fill="#455a64"/>
        <path id="Path_837672" data-name="Path 837672" d="M91.623,261.922a4.75,4.75,0,0,1-1.057-.941,11.612,11.612,0,0,1-2.925-6.1,4.747,4.747,0,0,1-.071-1.413c.045,0,.09.534.261,1.38a13.52,13.52,0,0,0,2.879,6.007c.553.663.943,1.035.912,1.068" transform="translate(-41.905 -121.324)" fill="#455a64"/>
        <path id="Path_837673" data-name="Path 837673" d="M0,285.666l27.336-10.437L36.773,296.6,7.88,306.673Z" transform="translate(0 -131.74)" fill="#455a64"/>
        <path id="Path_837674" data-name="Path 837674" d="M26.9,281.553a16.353,16.353,0,0,1-2.533-2.606c-.011-.225-.391-1.905-.726-3.348a1.365,1.365,0,0,1,1.531-1.725l1.853-.713a11.837,11.837,0,0,0-1.684-2.525,18.8,18.8,0,0,0-3.369-2.2l-.279-3.232-7.4,1.482,1.072,7.424s1.832,6.969,2.654,7.636a8.84,8.84,0,0,0,3.128.987c.919,1.064,2.793.609,2.793.609,2.112,1.224,1.985-.311,1.985-.311a.429.429,0,0,0,.22.113.926.926,0,0,0,.752-1.593" transform="translate(-6.845 -126.943)" fill="#bd8c83"/>
        <path id="Path_837675" data-name="Path 837675" d="M28.1,286.659a4.336,4.336,0,0,0,.029,1.269,6.585,6.585,0,0,0,.915,2.92,5.907,5.907,0,0,0,2.348,1.909,3.994,3.994,0,0,0,1.159.458,5.638,5.638,0,0,0-1.047-.662,6.6,6.6,0,0,1-2.191-1.891,7.457,7.457,0,0,1-.958-2.771,5.689,5.689,0,0,0-.256-1.231" transform="translate(-13.436 -137.212)" fill="#896360"/>
        <path id="Path_837676" data-name="Path 837676" d="M25.014,288.286a2.426,2.426,0,0,0-.034,1.163,8.2,8.2,0,0,0,.239,1.235,3.834,3.834,0,0,0,.657,1.416A6.475,6.475,0,0,0,27.03,293.1l1,.708a3.915,3.915,0,0,0,.967.59c.027-.036-.29-.33-.826-.776-.266-.222-.591-.486-.955-.766a7.369,7.369,0,0,1-1.086-.976,3.9,3.9,0,0,1-.622-1.294,11.77,11.77,0,0,1-.3-1.183c-.139-.685-.145-1.119-.191-1.121" transform="translate(-11.938 -137.99)" fill="#896360"/>
        <path id="Path_837677" data-name="Path 837677" d="M21.687,290.446a8.921,8.921,0,0,0,.679,2.742,1.242,1.242,0,0,0,.354.523,4.218,4.218,0,0,0,.405.357,5.063,5.063,0,0,0,.758.494c.457.242.782.295.793.254s-.266-.172-.674-.454a7.965,7.965,0,0,1-.686-.53c-.123-.106-.249-.223-.368-.348a1.013,1.013,0,0,1-.273-.4c-.239-.749-.483-1.4-.662-1.88a3.488,3.488,0,0,0-.327-.759" transform="translate(-10.367 -139.024)" fill="#896360"/>
        <path id="Path_837678" data-name="Path 837678" d="M76.276,139.373s6.4,3.2,8.915,6.834,6.851,10.209,6.851,10.209l5.784-15.029,8.673,3.848s-4.954,17.946-5.869,19.91c-1.267,2.721-4.286,5.158-9.016,4.871s-3.218-.162-6.324-3.071L81.1,162.055Z" transform="translate(-36.51 -66.712)" fill="#33ece0"/>
        <g id="Group_1019367" data-name="Group 1019367" transform="translate(43.744 86.659)" opacity="0.3">
          <g id="Group_1019366" data-name="Group 1019366">
            <g id="Group_1019365" data-name="Group 1019365" clip-path="url(#clip-path-5)">
              <path id="Path_837679" data-name="Path 837679" d="M83.906,166.223a46.931,46.931,0,0,0,5.363,13.855,33.351,33.351,0,0,1-2.731-3.085c-.713-.842-1.726-2.014-1.726-2.014-.274-2.943-.906-8.756-.906-8.756" transform="translate(-83.906 -166.223)"/>
            </g>
          </g>
        </g>
        <path id="Path_837680" data-name="Path 837680" d="M107.624,178.57a4.09,4.09,0,0,1-.267-1.051c-.127-.656-.274-1.567-.4-2.579s-.2-1.932-.235-2.6a4.113,4.113,0,0,1,.007-1.084,36.3,36.3,0,0,1,.5,3.651,36.067,36.067,0,0,1,.395,3.662" transform="translate(-51.074 -81.974)" fill="#263238"/>
        <path id="Path_837681" data-name="Path 837681" d="M36.5,123.715l-.321-3.1a1.01,1.01,0,0,1,1.219-.99c3.7.789,14.533,3.144,14.661,3.708.077.343.01,2.61-.031,4.5Z" transform="translate(-17.317 -57.247)" fill="#33ece0"/>
        <path id="Path_837682" data-name="Path 837682" d="M6.419,143.237S2.586,145.96,1.927,153.3c-.405,4.5-.966,33.71-.966,33.71L7.2,211.336l9.95-2.517L13.62,183.187l.344-22.259Z" transform="translate(-0.46 -68.562)" fill="#33ece0"/>
        <path id="Path_837683" data-name="Path 837683" d="M12.931,226.4a.775.775,0,0,1,.172-.06l.513-.146,1.976-.53,7.262-1.886-.081.121c-.748-5.131-1.739-11.931-2.824-19.376-.254-1.769-.5-3.5-.741-5.164l0-.011v-.011c.123-6.991.23-13.14.308-17.566.05-2.185.091-3.945.119-5.182q.029-.886.045-1.395c.007-.145.013-.264.018-.361a.416.416,0,0,1,.015-.123.471.471,0,0,1,.011.123c0,.1,0,.215.008.361q0,.508,0,1.4c-.008,1.237-.02,3-.034,5.183-.053,4.426-.126,10.575-.21,17.567v-.022c.24,1.663.49,3.394.745,5.163l2.753,19.386.014.1-.095.023-7.285,1.793-1.991.474-.521.115a.783.783,0,0,1-.18.029" transform="translate(-6.19 -83.629)" fill="#263238"/>
        <path id="Path_837684" data-name="Path 837684" d="M24.71,125.944s-11.46,5.661-13.859,9.016c-2.91,4.069,5.144,17.074,5.759,20.3.3,1.55,2.215,13.2,1.311,22.384a157.488,157.488,0,0,0-.684,18.381l37-2.983c0-6.453-1.668-11.432-2.779-19.625l-2.78-26.734-4.019-13.739-5.715-2.416Z" transform="translate(-4.892 -60.284)" fill="#33ece0"/>
        <path id="Path_837685" data-name="Path 837685" d="M82.677,157.072a1.1,1.1,0,0,1,.065.282l.13.816c.107.709.25,1.738.417,3.009.334,2.544.757,6.063,1.166,9.956s.725,7.425.926,9.983c.1,1.279.175,2.314.217,3.03.017.331.031.6.042.825a1.083,1.083,0,0,1,0,.289,1.109,1.109,0,0,1-.053-.284c-.026-.221-.058-.492-.1-.821-.077-.756-.181-1.778-.309-3.022-.262-2.591-.617-6.1-1.01-9.971L83.085,161.2c-.133-1.242-.243-2.264-.325-3.02-.031-.33-.056-.6-.076-.823a1.084,1.084,0,0,1-.007-.289" transform="translate(-39.571 -75.184)" fill="#263238"/>
        <path id="Path_837686" data-name="Path 837686" d="M21.977,153.425c-.054,0-.013-.767-.255-1.963a9.649,9.649,0,0,0-5.771-7.048c-1.124-.473-1.885-.585-1.874-.638a1.71,1.71,0,0,1,.536.052,8.069,8.069,0,0,1,1.414.4,9.268,9.268,0,0,1,5.9,7.2,8.043,8.043,0,0,1,.109,1.464,1.722,1.722,0,0,1-.055.536" transform="translate(-6.738 -68.816)" fill="#263238"/>
        <path id="Path_837687" data-name="Path 837687" d="M63.111,212.834a3.518,3.518,0,0,1-.723-.1,17.314,17.314,0,0,1-1.931-.483,22.655,22.655,0,0,1-2.765-1.043,23.427,23.427,0,0,1-6.036-3.961,22.631,22.631,0,0,1-2.057-2.122,17.093,17.093,0,0,1-1.211-1.579,3.569,3.569,0,0,1-.383-.621c.045-.032.632.825,1.748,2.066a25.887,25.887,0,0,0,2.081,2.058,25.165,25.165,0,0,0,5.97,3.918,25.843,25.843,0,0,0,2.716,1.09c1.582.529,2.6.727,2.591.781" transform="translate(-22.978 -97.129)" fill="#263238"/>
        <g id="Group_1019370" data-name="Group 1019370" transform="translate(12.274 92.366)" opacity="0.3">
          <g id="Group_1019369" data-name="Group 1019369">
            <g id="Group_1019368" data-name="Group 1019368" clip-path="url(#clip-path-6)">
              <path id="Path_837688" data-name="Path 837688" d="M24.772,177.17c-2.381,14.185-1.173,29.171,2.488,43.08l.948-.075a174.678,174.678,0,0,0-3.436-43.005" transform="translate(-23.542 -177.17)"/>
            </g>
          </g>
        </g>
        <g id="Group_1019373" data-name="Group 1019373" transform="translate(30.026 116.589)" opacity="0.3">
          <g id="Group_1019372" data-name="Group 1019372">
            <g id="Group_1019371" data-name="Group 1019371" clip-path="url(#clip-path-7)">
              <path id="Path_837689" data-name="Path 837689" d="M57.594,223.632a32.85,32.85,0,0,0,12.214,2.481,3.631,3.631,0,0,1-2.987,1.274,9.406,9.406,0,0,1-3.361-.326c-2.108-.645-4.587-1.633-5.867-3.429" transform="translate(-57.594 -223.632)"/>
            </g>
          </g>
        </g>
        <path id="Path_837690" data-name="Path 837690" d="M52.216,130.884a2.542,2.542,0,0,1-.637.116,9.371,9.371,0,0,1-1.764.007A22.029,22.029,0,0,1,44.2,129.56c-2.122-.764-4.078-1.4-5.419-2.053a8.626,8.626,0,0,1-1.522-.894,2.7,2.7,0,0,1-.36-.32c-.076-.08-.113-.124-.106-.131s.181.143.528.364a10.627,10.627,0,0,0,1.541.8c1.345.6,3.3,1.2,5.431,1.972a24.748,24.748,0,0,0,5.542,1.511,19.584,19.584,0,0,0,2.382.068" transform="translate(-17.611 -60.388)" fill="#263238"/>
        <path id="Path_837691" data-name="Path 837691" d="M40.6,120.223a12.311,12.311,0,0,1,0,2.182,12.33,12.33,0,0,1-.12,2.179,11.3,11.3,0,0,1,.123-4.361" transform="translate(-19.3 -57.546)" fill="#263238"/>
        <path id="Path_837692" data-name="Path 837692" d="M51.189,122.542a15.878,15.878,0,0,1,.164,2.576,15.788,15.788,0,0,1,.014,2.582,17.03,17.03,0,0,1-.177-5.158" transform="translate(-24.443 -58.656)" fill="#263238"/>
        <path id="Path_837693" data-name="Path 837693" d="M63.807,125.678a12.4,12.4,0,0,1-.07,5.061,22.11,22.11,0,0,1,.025-2.531,21.839,21.839,0,0,1,.046-2.53" transform="translate(-30.493 -60.157)" fill="#263238"/>
        <g id="Group_1019376" data-name="Group 1019376" transform="translate(19.755 66.153)" opacity="0.3">
          <g id="Group_1019375" data-name="Group 1019375">
            <g id="Group_1019374" data-name="Group 1019374" clip-path="url(#clip-path-8)">
              <path id="Path_837694" data-name="Path 837694" d="M37.893,126.889a7.874,7.874,0,0,0,3.33,2.441,24.653,24.653,0,0,0,5.245,2.093,9.855,9.855,0,0,0,5.579-.135,21.662,21.662,0,0,1-7.14-1.636c-2.3-.862-4.735-1.865-6.985-2.756" transform="translate(-37.893 -126.889)"/>
            </g>
          </g>
        </g>
        <path id="Path_837695" data-name="Path 837695" d="M128.8,116.018l-3.251.459-.379-4.407-.581-3.876.248-6.795-3.306,3.951a3.064,3.064,0,0,0-.485,1.422l-.336,11.927-.059,5.1,5.785,3.63-.124-6.07,1.344-1.437a5.8,5.8,0,0,0,1.146-3.907" transform="translate(-57.751 -48.536)" fill="#bd8c83"/>
        <rect id="Rectangle_385874" data-name="Rectangle 385874" width="13.428" height="36.089" transform="translate(70.349 47.255)" fill="#263238"/>
        <rect id="Rectangle_385875" data-name="Rectangle 385875" width="13.428" height="36.089" transform="translate(66.721 47.255)" fill="#455a64"/>
        <path id="Path_837696" data-name="Path 837696" d="M140.44,104.619a3.03,3.03,0,1,1-3.03-3.03,3.03,3.03,0,0,1,3.03,3.03" transform="translate(-64.322 -48.626)" fill="#fff"/>
        <path id="Path_837697" data-name="Path 837697" d="M157.329,101.054a18.629,18.629,0,0,1-1.7,2.68,18.638,18.638,0,0,1-1.92,2.525,18.635,18.635,0,0,1,1.7-2.68,18.654,18.654,0,0,1,1.919-2.525" transform="translate(-73.575 -48.37)" fill="#455a64"/>
        <path id="Path_837698" data-name="Path 837698" d="M157.329,108.712a18.628,18.628,0,0,1-1.7,2.68,18.639,18.639,0,0,1-1.92,2.525,18.636,18.636,0,0,1,1.7-2.68,18.616,18.616,0,0,1,1.919-2.525" transform="translate(-73.575 -52.035)" fill="#455a64"/>
        <path id="Path_837699" data-name="Path 837699" d="M157.329,116.37a18.629,18.629,0,0,1-1.7,2.68,18.638,18.638,0,0,1-1.92,2.525,37.093,37.093,0,0,1,3.615-5.2" transform="translate(-73.575 -55.701)" fill="#455a64"/>
        <path id="Path_837700" data-name="Path 837700" d="M157.329,124.029a18.629,18.629,0,0,1-1.7,2.68,18.638,18.638,0,0,1-1.92,2.525,37.092,37.092,0,0,1,3.615-5.2" transform="translate(-73.575 -59.367)" fill="#455a64"/>
        <path id="Path_837701" data-name="Path 837701" d="M157.329,131.687a18.662,18.662,0,0,1-1.7,2.68,18.637,18.637,0,0,1-1.92,2.525,37.092,37.092,0,0,1,3.615-5.2" transform="translate(-73.575 -63.032)" fill="#455a64"/>
        <path id="Path_837702" data-name="Path 837702" d="M157.329,139.345a36.975,36.975,0,0,1-3.615,5.2,37.092,37.092,0,0,1,3.615-5.2" transform="translate(-73.575 -66.698)" fill="#455a64"/>
        <path id="Path_837703" data-name="Path 837703" d="M157.329,147a36.975,36.975,0,0,1-3.615,5.2,37.092,37.092,0,0,1,3.615-5.2" transform="translate(-73.575 -70.364)" fill="#455a64"/>
        <path id="Path_837704" data-name="Path 837704" d="M157.258,94.3a18.627,18.627,0,0,1-1.7,2.68,18.638,18.638,0,0,1-1.92,2.525,18.638,18.638,0,0,1,1.7-2.68,18.7,18.7,0,0,1,1.919-2.525" transform="translate(-73.541 -45.136)" fill="#455a64"/>
        <path id="Path_837705" data-name="Path 837705" d="M155.986,90.64a13.018,13.018,0,0,1-2.14,3.081,13.018,13.018,0,0,1,2.14-3.081" transform="translate(-73.637 -43.385)" fill="#455a64"/>
        <path id="Path_837706" data-name="Path 837706" d="M122.726,114.82a24.75,24.75,0,0,1,2.605-3.742,3.515,3.515,0,0,1,1.114-.974,1.321,1.321,0,0,1,1.406.1,1.383,1.383,0,0,1,.231,1.567,5.281,5.281,0,0,1-1.011,1.35,2.772,2.772,0,0,0-.792,1.468,4.539,4.539,0,0,0,.287,1.559,5.121,5.121,0,0,1-1.333,4.787" transform="translate(-58.744 -52.629)" fill="#bd8c83"/>
        <path id="Path_837707" data-name="Path 837707" d="M125.231,120.81c-.019-.018.174-.212.448-.613a5.266,5.266,0,0,0,.8-1.871,5.014,5.014,0,0,0,.1-1.4,6.945,6.945,0,0,0-.341-1.584,2.46,2.46,0,0,1-.092-.933,2.206,2.206,0,0,1,.357-.917c.356-.559.876-.985,1.232-1.518a1.848,1.848,0,0,0,.333-.849,1.026,1.026,0,0,0-1.673-.974,4.545,4.545,0,0,0-1.155,1.095c-.33.394-.627.77-.89,1.119-.526.7-.92,1.288-1.189,1.7a4.526,4.526,0,0,1-.435.628,3.433,3.433,0,0,1,.339-.686,20.271,20.271,0,0,1,1.12-1.76c.254-.36.545-.747.87-1.151a4.66,4.66,0,0,1,1.21-1.175,1.712,1.712,0,0,1,.926-.233,1.2,1.2,0,0,1,.912.454,1.746,1.746,0,0,1-.127,2c-.394.582-.909,1-1.235,1.511a1.951,1.951,0,0,0-.321.8,2.213,2.213,0,0,0,.077.832,6.955,6.955,0,0,1,.322,1.636,5.057,5.057,0,0,1-.142,1.456,4.965,4.965,0,0,1-.905,1.892,3.412,3.412,0,0,1-.383.423c-.1.089-.149.131-.156.124" transform="translate(-58.742 -52.503)" fill="#896360"/>
      </g>
    </g>
    <g id="Group_1019404" data-name="Group 1019404">
      <g id="Group_1019403" data-name="Group 1019403" clip-path="url(#clip-path)">
        <path id="Path_837708" data-name="Path 837708" d="M284.66,222.469c-.751.418-7.745.5-7.745.5l.28,5.613,13.883,1.355Z" transform="translate(-132.548 -106.487)" fill="#33ece0"/>
        <path id="Path_837709" data-name="Path 837709" d="M219.634,214.069a2.347,2.347,0,0,0-.478,1.092c-.007.439,12.165,9.358,14.661,11.181a1.679,1.679,0,0,0,.993.323l16.711-.024.088-1.33s-15.26-10.852-15.553-10.825-16.422-.416-16.422-.416" transform="translate(-104.901 -102.466)" fill="#263238"/>
        <path id="Path_837710" data-name="Path 837710" d="M237.976,215.834c-.228.021-14.75-.2-14.75-.2s11.032,8.29,12.974,9.709a1.307,1.307,0,0,0,.774.251l15.421.3Z" transform="translate(-106.849 -103.215)" fill="#fafafa"/>
        <path id="Path_837711" data-name="Path 837711" d="M265.071,221.6H263.9s-4.236-3.116-4.674-3.214c-.19-.042-3.453-.483-3.453-.483l-3.655,1.409s-.195.823,1.266.971a7.2,7.2,0,0,0,3.146-.627,37.847,37.847,0,0,0,4.644,4c1.384.771,4.075,1.98,4.075,1.98Z" transform="translate(-120.675 -104.301)" fill="#ffbe9d"/>
        <g id="Group_1019381" data-name="Group 1019381" transform="translate(144.367 115.982)" opacity="0.3">
          <g id="Group_1019380" data-name="Group 1019380">
            <g id="Group_1019379" data-name="Group 1019379" clip-path="url(#clip-path-10)">
              <path id="Path_837712" data-name="Path 837712" d="M284.66,222.469c-.751.418-7.745.5-7.745.5l.28,5.613,13.883,1.355Z" transform="translate(-276.915 -222.469)"/>
            </g>
          </g>
        </g>
        <path id="Path_837713" data-name="Path 837713" d="M305.67,361.553l6.672,16.162-20.065,8.4c-.686-1.966,8.083-10.161,8.083-10.161l-4.7-10.18Z" transform="translate(-139.882 -173.06)" fill="#33ece0"/>
        <g id="Group_1019384" data-name="Group 1019384" transform="translate(165.581 199.42)" opacity="0.6">
          <g id="Group_1019383" data-name="Group 1019383">
            <g id="Group_1019382" data-name="Group 1019382" clip-path="url(#clip-path-11)">
              <path id="Path_837714" data-name="Path 837714" d="M318.343,382.521a.889.889,0,0,1,.958.7.854.854,0,0,1-.684.956.937.937,0,0,1-1.011-.744c-.026-.436.387-.957.821-.916" transform="translate(-317.606 -382.513)" fill="#fff"/>
            </g>
          </g>
        </g>
        <path id="Path_837715" data-name="Path 837715" d="M312.283,391.055l-.674-1.631-19.025,8.684s-.73.763-.366,1.35Z" transform="translate(-139.824 -186.401)" fill="#fff"/>
        <path id="Path_837716" data-name="Path 837716" d="M307.108,388.931c.044.1.553-.064,1.167.049.617.1,1.043.418,1.117.341.082-.057-.309-.581-1.055-.705s-1.288.234-1.229.315" transform="translate(-146.998 -186)" fill="#263238"/>
        <path id="Path_837717" data-name="Path 837717" d="M303.772,392.472c.017.1.511.093,1.018.369.515.26.786.673.882.628.1-.023-.074-.626-.71-.956s-1.227-.135-1.19-.041" transform="translate(-145.402 -187.79)" fill="#263238"/>
        <path id="Path_837718" data-name="Path 837718" d="M302.147,397.115c.1-.016.029-.563-.447-.994s-1.024-.453-1.031-.354.4.267.783.627.595.752.7.721" transform="translate(-143.917 -189.413)" fill="#263238"/>
        <path id="Path_837719" data-name="Path 837719" d="M305.54,383.732c.079.072.471-.251,1.041-.446s1.074-.2,1.09-.306-.545-.281-1.213-.043-1,.737-.918.794" transform="translate(-146.244 -183.241)" fill="#263238"/>
        <path id="Path_837720" data-name="Path 837720" d="M304.554,377.115a2.037,2.037,0,0,0,1-.426,4.93,4.93,0,0,0,.917-.763,5.23,5.23,0,0,0,.449-.548,1.335,1.335,0,0,0,.2-.363.463.463,0,0,0-.173-.54.581.581,0,0,0-.523-.044,1.411,1.411,0,0,0-.355.21,3.833,3.833,0,0,0-1.207,1.472,1.813,1.813,0,0,0-.249,1.064c.058.014.156-.388.481-.942a4.343,4.343,0,0,1,.685-.881,4.038,4.038,0,0,1,.5-.42c.189-.145.369-.222.463-.15.035.028.043.041.025.121a1.1,1.1,0,0,1-.151.266,5.834,5.834,0,0,1-.4.525,6.038,6.038,0,0,1-.815.779c-.508.4-.875.587-.851.639" transform="translate(-145.777 -179.204)" fill="#263238"/>
        <path id="Path_837721" data-name="Path 837721" d="M302.7,377.122a1.741,1.741,0,0,0-.142-1.082,3.522,3.522,0,0,0-1.109-1.545.9.9,0,0,0-.853-.239.51.51,0,0,0-.3.456,1.476,1.476,0,0,0,.052.411,2.438,2.438,0,0,0,.282.677,2.505,2.505,0,0,0,.864.859,1.406,1.406,0,0,0,1.063.265,8.9,8.9,0,0,1-.919-.483,2.5,2.5,0,0,1-.713-.811,2.228,2.228,0,0,1-.225-.589c-.058-.226-.051-.432.038-.444a.626.626,0,0,1,.49.182,3.659,3.659,0,0,1,.477.441,3.864,3.864,0,0,1,.615.921c.274.577.323.988.383.981" transform="translate(-143.738 -179.125)" fill="#263238"/>
        <path id="Path_837722" data-name="Path 837722" d="M261.871,374.153l5.878,16.467-20.45,7.417c-.589-2,8.568-9.756,8.568-9.756l-4.2-10.4Z" transform="translate(-118.358 -179.091)" fill="#33ece0"/>
        <g id="Group_1019387" data-name="Group 1019387" transform="translate(142.73 206.003)" opacity="0.6">
          <g id="Group_1019386" data-name="Group 1019386">
            <g id="Group_1019385" data-name="Group 1019385" clip-path="url(#clip-path-12)">
              <path id="Path_837723" data-name="Path 837723" d="M274.554,395.147a.889.889,0,0,1,.923.744.854.854,0,0,1-.729.921.937.937,0,0,1-.973-.792c0-.436.433-.937.865-.874" transform="translate(-273.775 -395.14)" fill="#fff"/>
            </g>
          </g>
        </g>
        <path id="Path_837724" data-name="Path 837724" d="M267.694,404.213l-.593-1.662L247.676,410.3s-.767.727-.432,1.33Z" transform="translate(-118.305 -192.684)" fill="#fff"/>
        <path id="Path_837725" data-name="Path 837725" d="M263.047,401.007c.04.1.555-.037,1.163.106.612.127,1.021.468,1.1.395.085-.053-.28-.6-1.019-.756s-1.3.172-1.243.255" transform="translate(-125.908 -191.801)" fill="#263238"/>
        <path id="Path_837726" data-name="Path 837726" d="M259.552,404.362c.012.1.506.118,1,.418.5.285.753.71.85.67.1-.019-.043-.628-.663-.989s-1.218-.194-1.186-.1" transform="translate(-124.236 -193.491)" fill="#263238"/>
        <path id="Path_837727" data-name="Path 837727" d="M257.705,408.907c.1-.011.056-.561-.4-1.015s-1-.5-1.013-.4.383.286.751.665.557.78.66.754" transform="translate(-122.677 -195.027)" fill="#263238"/>
        <path id="Path_837728" data-name="Path 837728" d="M261.708,395.768c.075.076.483-.228,1.061-.395s1.083-.148,1.1-.252-.531-.307-1.21-.1-1.033.688-.956.749" transform="translate(-125.264 -189.038)" fill="#263238"/>
        <path id="Path_837729" data-name="Path 837729" d="M260.963,389.135a2.037,2.037,0,0,0,1.022-.377,4.881,4.881,0,0,0,.952-.717,5.141,5.141,0,0,0,.475-.526,1.331,1.331,0,0,0,.222-.353.462.462,0,0,0-.147-.547.583.583,0,0,0-.52-.07,1.43,1.43,0,0,0-.365.192,3.955,3.955,0,0,0-.557.449,3.833,3.833,0,0,0-.719.962,1.817,1.817,0,0,0-.3,1.05c.057.016.175-.38.526-.918a4.341,4.341,0,0,1,.727-.846,3.979,3.979,0,0,1,.522-.395c.2-.136.38-.2.47-.128.033.03.041.043.019.123a1.078,1.078,0,0,1-.164.258,5.725,5.725,0,0,1-.429.506,6.07,6.07,0,0,1-.852.738c-.527.376-.9.543-.881.6" transform="translate(-124.912 -185.007)" fill="#263238"/>
        <path id="Path_837730" data-name="Path 837730" d="M259.209,388.982a1.731,1.731,0,0,0-.089-1.087,3.523,3.523,0,0,0-1.033-1.6.9.9,0,0,0-.841-.28.509.509,0,0,0-.324.441,1.485,1.485,0,0,0,.031.413,2.416,2.416,0,0,0,.25.69,2.5,2.5,0,0,0,.821.9c.592.385,1.052.353,1.048.316a8.977,8.977,0,0,1-.894-.527,2.51,2.51,0,0,1-.673-.845,2.264,2.264,0,0,1-.2-.6c-.046-.229-.029-.434.061-.441a.623.623,0,0,1,.48.205,3.59,3.59,0,0,1,.455.463,3.911,3.911,0,0,1,.569.95c.246.59.275,1,.335,1" transform="translate(-122.975 -184.759)" fill="#263238"/>
        <path id="Path_837731" data-name="Path 837731" d="M289.656,105.135a3.36,3.36,0,0,0-.9,2.858c.084,1.034.4,2.045.417,3.082.04,2.01-1.012,3.923-.974,5.933s1.17,3.875,1.36,5.886c.179,1.9,2.384,3.327,1.91,5.177s-3.605,4.351-2.679,6.02a1.577,1.577,0,0,0,.75.758,1.916,1.916,0,0,0,1.032,0l4.8-.909a3.113,3.113,0,0,0,1.647-.66,2.883,2.883,0,0,0,.669-1.841c.392-4.031-.547-8.054-1.059-12.072a57.356,57.356,0,0,1-.041-14.129" transform="translate(-137.948 -50.324)" fill="#263238"/>
        <path id="Path_837732" data-name="Path 837732" d="M303.507,157.185h0" transform="translate(-145.276 -75.238)" fill="#ffbe9d"/>
        <path id="Path_837733" data-name="Path 837733" d="M291.726,106.506a9.331,9.331,0,0,1,8.77-9.228,9.062,9.062,0,0,1,9.6,8.838l-.217,20.415a1.777,1.777,0,0,1-.389,1.085,8.321,8.321,0,0,1-5.525,3.006,8.721,8.721,0,0,1-5.279-1.487,1.739,1.739,0,0,1-.775-1.55l.237-4.557a.029.029,0,0,0-.029-.032,6.187,6.187,0,0,1-1.273-.125c-1.183-.378-4.169-1.773-4.881-6.348a92.513,92.513,0,0,1-.238-10.017" transform="translate(-139.63 -46.557)" fill="#ffbe9d"/>
        <path id="Path_837734" data-name="Path 837734" d="M301.783,122.58a5.424,5.424,0,0,0-1.308-.233c-.206-.021-.4-.062-.434-.2a1.016,1.016,0,0,1,.141-.6q.294-.734.618-1.54a26.348,26.348,0,0,0,1.391-4.028,26.374,26.374,0,0,0-1.717,3.911c-.206.541-.4,1.056-.592,1.549a1.156,1.156,0,0,0-.112.794.512.512,0,0,0,.337.3,1.428,1.428,0,0,0,.349.048,5.347,5.347,0,0,0,1.327,0" transform="translate(-143.469 -55.514)" fill="#263238"/>
        <path id="Path_837735" data-name="Path 837735" d="M294.131,121.045a.737.737,0,0,0,.718.743.716.716,0,0,0,.776-.663.737.737,0,0,0-.717-.744.718.718,0,0,0-.777.664" transform="translate(-140.788 -57.621)" fill="#263238"/>
        <path id="Path_837736" data-name="Path 837736" d="M294.5,117.417c.081.125.7-.34,1.5-.278s1.346.591,1.445.479c.048-.05-.026-.268-.261-.514a1.781,1.781,0,0,0-1.142-.529,1.8,1.8,0,0,0-1.209.368c-.27.211-.375.418-.334.474" transform="translate(-140.961 -55.798)" fill="#263238"/>
        <path id="Path_837737" data-name="Path 837737" d="M308.77,121.222a.737.737,0,0,0,.718.743.716.716,0,0,0,.776-.663.738.738,0,0,0-.717-.743.717.717,0,0,0-.777.664" transform="translate(-147.795 -57.705)" fill="#263238"/>
        <path id="Path_837738" data-name="Path 837738" d="M309.331,117.766c.105.112.7-.435,1.565-.487s1.53.4,1.618.271c.044-.055-.066-.263-.356-.473a2.026,2.026,0,0,0-2.541.172c-.256.248-.338.467-.286.517" transform="translate(-148.057 -55.864)" fill="#263238"/>
        <path id="Path_837739" data-name="Path 837739" d="M303.989,144.742a13.057,13.057,0,0,0,7.018-2.044s-1.252,4.043-7.1,3.5Z" transform="translate(-145.47 -68.304)" fill="#eb996e"/>
        <path id="Path_837740" data-name="Path 837740" d="M304.223,131.809a1.473,1.473,0,0,1,1.305-.529,1.323,1.323,0,0,1,.913.483.814.814,0,0,1,.058.945.99.99,0,0,1-1.058.262,3.043,3.043,0,0,1-1.027-.605.884.884,0,0,1-.229-.235.263.263,0,0,1,0-.3" transform="translate(-145.58 -62.834)" fill="#eb996e"/>
        <path id="Path_837741" data-name="Path 837741" d="M305.841,129.694c-.131-.007-.138.852-.89,1.462s-1.683.515-1.691.634c-.013.054.206.167.6.178a2.214,2.214,0,0,0,1.411-.482,1.864,1.864,0,0,0,.69-1.226c.036-.36-.061-.573-.12-.568" transform="translate(-145.157 -62.079)" fill="#263238"/>
        <path id="Path_837742" data-name="Path 837742" d="M308.774,112.823c.075.216.882.127,1.825.253.946.107,1.7.391,1.833.2.058-.092-.071-.3-.375-.509a3.083,3.083,0,0,0-1.351-.489,3.118,3.118,0,0,0-1.435.143c-.35.132-.529.3-.5.4" transform="translate(-147.795 -53.731)" fill="#263238"/>
        <path id="Path_837743" data-name="Path 837743" d="M294.639,112.477c.152.172.7-.048,1.362-.1.664-.072,1.238.046,1.357-.15.052-.094-.047-.27-.3-.424a2,2,0,0,0-2.191.2c-.225.2-.293.388-.225.472" transform="translate(-141.02 -53.403)" fill="#263238"/>
        <path id="Path_837744" data-name="Path 837744" d="M306.631,94.277a2.735,2.735,0,0,1,2.156-1.027c3.6-.289,7.423,2.135,9.207,5.274a11.853,11.853,0,0,1-.116,10.807l-1.352.14c-2.77-.362-6.905-8.442-10.5-13-.447-.566.2-1.6.609-2.2" transform="translate(-146.408 -44.623)" fill="#263238"/>
        <path id="Path_837745" data-name="Path 837745" d="M291.852,96.435c1.609-1.59,4.174-3.486,7.184-2.091.395.9-.6,1.957-1.414,2.56-1.189.883-2.215,1.463-3,2.1-1.586,1.287-3.592,3.459-3.917,6-.02.16-.144.174-.3.138a4.615,4.615,0,0,1-.76-2.526,6.684,6.684,0,0,1,2.21-6.182" transform="translate(-138.61 -44.926)" fill="#263238"/>
        <path id="Path_837746" data-name="Path 837746" d="M324.75,120.981c.085-.039,3.467-1.109,3.433,2.366s-3.515,2.723-3.521,2.623.088-4.989.088-4.989" transform="translate(-155.402 -57.82)" fill="#ffbe9d"/>
        <path id="Path_837747" data-name="Path 837747" d="M326.72,125.7c.015-.011.06.043.162.091a.6.6,0,0,0,.452.014,1.5,1.5,0,0,0,.706-1.337,1.991,1.991,0,0,0-.161-.868.7.7,0,0,0-.45-.469.308.308,0,0,0-.359.163c-.048.1-.027.166-.045.172s-.074-.059-.045-.2a.386.386,0,0,1,.139-.216.453.453,0,0,1,.335-.085.849.849,0,0,1,.627.545,2.054,2.054,0,0,1,.2.97,1.571,1.571,0,0,1-.9,1.492.65.65,0,0,1-.553-.1c-.107-.087-.124-.165-.112-.171" transform="translate(-156.386 -58.854)" fill="#eb996e"/>
        <path id="Path_837748" data-name="Path 837748" d="M231.288,138.132l-5.108,2.638-2.05-3.443a16.333,16.333,0,0,1-2.69-1.934l-1.821-2.06a1.892,1.892,0,0,1-.458-1.653.549.549,0,0,1,.159-.32l.506-.89s-.279-1.265-.358-2.066a6.577,6.577,0,0,1,.595-2.265l-1.908-4.086a1.051,1.051,0,0,1,.154-1.156.444.444,0,0,1,.632-.089c.651.439,2.55,3.744,2.55,3.744l.7.681.9.145s-.267-1.273.283-1.559l2.6,1.877,2.148,3.01s.425,4.349,1,5.509,2.165,3.918,2.165,3.918" transform="translate(-104.371 -57.78)" fill="#ffbe9d"/>
        <path id="Path_837749" data-name="Path 837749" d="M223.306,134.326a7.01,7.01,0,0,1-1.414-3.238c.048-.012.261.752.652,1.643s.8,1.568.762,1.595" transform="translate(-106.207 -62.746)" fill="#eb996e"/>
        <path id="Path_837750" data-name="Path 837750" d="M221.692,139.571a1.956,1.956,0,0,1-.41-.894,2.724,2.724,0,0,1-.181-.965,3.189,3.189,0,0,1,.341.918,6.111,6.111,0,0,1,.251.942" transform="translate(-105.826 -65.917)" fill="#eb996e"/>
        <path id="Path_837751" data-name="Path 837751" d="M223.806,126.643a8.778,8.778,0,0,1,.6.821c.364.511.88,1.208,1.473,1.96.3.376.584.73.849,1.049a3.4,3.4,0,0,0,.783.741,1.67,1.67,0,0,0,.945.252.506.506,0,0,1-.273.053,1.487,1.487,0,0,1-.732-.2,3.256,3.256,0,0,1-.84-.743c-.273-.316-.566-.668-.863-1.046-.6-.754-1.1-1.466-1.44-2a4.8,4.8,0,0,1-.5-.887" transform="translate(-107.126 -60.618)" fill="#eb996e"/>
        <path id="Path_837752" data-name="Path 837752" d="M229.638,131.72c-.027.005-.075-.247-.235-.62a3.6,3.6,0,0,0-.911-1.268,4.625,4.625,0,0,1-.662-.605,1.322,1.322,0,0,1-.283-.7,1.453,1.453,0,0,1,.04-.675c.029,0,.006.26.077.656a1.279,1.279,0,0,0,.284.616,5.44,5.44,0,0,0,.654.579,3.247,3.247,0,0,1,.911,1.35,1.514,1.514,0,0,1,.125.663" transform="translate(-108.911 -61.199)" fill="#eb996e"/>
        <path id="Path_837753" data-name="Path 837753" d="M311.195,193.247v-9.032s.97-14.069.97-18.406-5.109-13.943-5.109-13.943l-8.37.252-6.162.137c-.063,0-10.178,9.8-10.178,9.8a28.84,28.84,0,0,0-1.722,12.682,23.434,23.434,0,0,0,.714,3.53l2.173,8.509s1.218,5.673,1.638,7.643c.33,1.549,17.534.8,25.015.664,1.788-.034,1.03-1.835,1.03-1.835" transform="translate(-134.262 -72.692)" fill="#33ece0"/>
        <path id="Path_837754" data-name="Path 837754" d="M236.006,146.662s10.734,15.348,11.1,15.348,12.919-8.839,12.919-8.839,5.493-4.073,8.82-3.333-.939,15.421-.939,15.421-17.191,9.784-22.982,10.277-13.269-22.677-13.269-22.677l-.987-1.325Z" transform="translate(-110.413 -70.201)" fill="#33ece0"/>
        <path id="Path_837755" data-name="Path 837755" d="M289.744,184.235a1.433,1.433,0,0,1-.276.176l-.815.458-3.022,1.636-2.094,1.118c-.381.2-.755.418-1.179.611a6.618,6.618,0,0,0-1.216.634,1.292,1.292,0,0,0-.573,1.16,8.01,8.01,0,0,0,.211,1.492c.212,1.016.535,2.043.776,3.136.9,4.329,2.009,8.185,2.7,11.006.349,1.409.61,2.555.778,3.349l.182.917a1.434,1.434,0,0,1,.045.324,1.49,1.49,0,0,1-.1-.312l-.232-.905-.861-3.325c-.732-2.8-1.867-6.655-2.775-11-.234-1.068-.559-2.108-.77-3.137a8.142,8.142,0,0,1-.21-1.546,1.558,1.558,0,0,1,.164-.78,1.751,1.751,0,0,1,.518-.581l4.55-2.333,3.062-1.559.839-.412a1.5,1.5,0,0,1,.3-.127" transform="translate(-134.173 -88.185)" fill="#263238"/>
        <path id="Path_837756" data-name="Path 837756" d="M261.141,181.732a8.455,8.455,0,0,1,.38-5.708c.08.025-.318,1.261-.417,2.839s.119,2.855.037,2.868" transform="translate(-124.84 -84.255)" fill="#263238"/>
        <path id="Path_837757" data-name="Path 837757" d="M256.873,180.887a5.313,5.313,0,0,1,.861-2.7,5.764,5.764,0,0,1,1.909-2.091,24.652,24.652,0,0,0-1.675,2.229,17.835,17.835,0,0,0-1.1,2.558" transform="translate(-122.947 -84.29)" fill="#263238"/>
        <path id="Path_837758" data-name="Path 837758" d="M302.118,166.694c-.048-.012.113-.637.2-1.664a12.339,12.339,0,0,0-1.9-7.666c-.557-.869-.991-1.346-.953-1.379.014-.013.131.1.334.309a7.931,7.931,0,0,1,.779.963,11.255,11.255,0,0,1,1.928,7.792,7.954,7.954,0,0,1-.24,1.216,1.47,1.47,0,0,1-.152.429" transform="translate(-143.342 -74.663)" fill="#263238"/>
        <g id="Group_1019390" data-name="Group 1019390" transform="translate(163.715 82.361)" opacity="0.3">
          <g id="Group_1019389" data-name="Group 1019389">
            <g id="Group_1019388" data-name="Group 1019388" clip-path="url(#clip-path-13)">
              <path id="Path_837759" data-name="Path 837759" d="M325.7,160.731a5.258,5.258,0,0,1-1-2.753l-10.488,2.358a3.255,3.255,0,0,0,.844,3.338,9.356,9.356,0,0,0,3.07,1.909,7.3,7.3,0,0,0,4.3.94,6.275,6.275,0,0,0,2.671-1.463,3.553,3.553,0,0,0,1.221-1.511,3.6,3.6,0,0,0-.618-2.817" transform="translate(-314.026 -157.978)"/>
            </g>
          </g>
        </g>
        <g id="Group_1019393" data-name="Group 1019393" transform="translate(146.604 94.38)" opacity="0.3">
          <g id="Group_1019392" data-name="Group 1019392">
            <g id="Group_1019391" data-name="Group 1019391" clip-path="url(#clip-path-14)">
              <path id="Path_837760" data-name="Path 837760" d="M281.585,187.106l-.379.448a9.062,9.062,0,0,0,10.705-6.521,44.017,44.017,0,0,1-10.326,6.073" transform="translate(-281.206 -181.033)"/>
            </g>
          </g>
        </g>
        <g id="Group_1019396" data-name="Group 1019396" transform="translate(132.134 91.809)" opacity="0.3">
          <g id="Group_1019395" data-name="Group 1019395">
            <g id="Group_1019394" data-name="Group 1019394" clip-path="url(#clip-path-15)">
              <path id="Path_837761" data-name="Path 837761" d="M258.013,176.1c-2.163.826-4.31,3.119-4.547,5.421a1.316,1.316,0,0,0,.05.638.524.524,0,0,0,.494.347c.325-.03.469-.413.554-.728a14.117,14.117,0,0,1,3.45-5.678" transform="translate(-253.45 -176.102)"/>
            </g>
          </g>
        </g>
        <path id="Path_837762" data-name="Path 837762" d="M326.928,127.009a5.4,5.4,0,0,1-2.609-5.507,27.987,27.987,0,0,1,1.3-3.631,3.753,3.753,0,0,0-.409-3.661,12.947,12.947,0,0,0-1.922-1.327,4.908,4.908,0,0,1-1.646-2.631c-.053-1,.016-2.03-.023-3.029a12.649,12.649,0,0,0-10.495-11.967l-5.47,1.973A13.993,13.993,0,0,0,308.768,104a29.707,29.707,0,0,1,2.436,2.864,4.151,4.151,0,0,1,.654,3.571c-.377,1.042-1.331,1.8-1.693,2.844-.715,2.063,1.1,4.255.763,6.413a4.532,4.532,0,0,1-.749,1.776,9.933,9.933,0,0,1-1.409.44,10.122,10.122,0,0,0-2.812.941,2.784,2.784,0,0,0-1.49,2.405,44.491,44.491,0,0,1,6.969.034c-1.571,2.077-2.767,5.878-2.3,6.342.612.613,5,1.659,5.859,1.726,3.626.279,2.88-2.133,6.488-2.59a1.894,1.894,0,0,0,1.078-.375,1.794,1.794,0,0,0,.346-1.567c-.128-1.034-.4-2.073-.606-3.106a5.549,5.549,0,0,0,4.629,1.3" transform="translate(-145.734 -45.595)" fill="#263238"/>
        <path id="Path_837763" data-name="Path 837763" d="M313.843,132.464s-.014-.029-.029-.09a2.1,2.1,0,0,1-.052-.272,3.08,3.08,0,0,1,.059-1.062,5.406,5.406,0,0,1,.645-1.554,18.466,18.466,0,0,1,1.275-1.816,8.147,8.147,0,0,0,1.281-2.3,3.236,3.236,0,0,0,.129-1.423,3.686,3.686,0,0,0-.577-1.408c-.284-.453-.622-.9-.911-1.4a3.129,3.129,0,0,1-.473-1.719,4.15,4.15,0,0,1,.543-1.759c.288-.547.628-1.065.924-1.607a5.105,5.105,0,0,0,.623-1.685,5.162,5.162,0,0,0-.034-1.744,8.436,8.436,0,0,0-1.294-3.063c-.589-.9-1.25-1.687-1.853-2.439a22.4,22.4,0,0,1-1.594-2.168,7.741,7.741,0,0,1-1.264-3.666,4.953,4.953,0,0,1,.071-1.06,1.74,1.74,0,0,1,.1-.357,7.349,7.349,0,0,0-.063,1.411,7.879,7.879,0,0,0,1.322,3.569,23.159,23.159,0,0,0,1.606,2.129,30.2,30.2,0,0,1,1.887,2.444,8.628,8.628,0,0,1,1.347,3.153,5.011,5.011,0,0,1-.613,3.607c-.6,1.1-1.388,2.1-1.439,3.246a2.87,2.87,0,0,0,.433,1.581c.274.483.608.927.9,1.394a3.9,3.9,0,0,1,.6,1.506,3.458,3.458,0,0,1-.151,1.525,8.214,8.214,0,0,1-1.342,2.347,19.441,19.441,0,0,0-1.3,1.779,5.513,5.513,0,0,0-.673,1.5,3.938,3.938,0,0,0-.08,1.4" transform="translate(-148.976 -47.806)" fill="#455a64"/>
        <path id="Path_837764" data-name="Path 837764" d="M277.849,242.908l-2.261-.147c-.914,1.1-1.477,2.461-2.41,3.546a8.931,8.931,0,0,1-3.832,2.467,26.666,26.666,0,0,1-4.487,1.031,5.186,5.186,0,0,0,.194,1.418,1.747,1.747,0,0,0,.889,1.074,2.469,2.469,0,0,0,1.314.082,24.7,24.7,0,0,0,6.849-1.911A6.862,6.862,0,0,0,277.2,248.2c1-1.516.845-3.487.652-5.292" transform="translate(-126.776 -116.2)" fill="#455a64"/>
        <path id="Path_837765" data-name="Path 837765" d="M263.428,297.814c.4.47,19.19,43.374,19.19,43.374s12.725-5.342,12.411-5.813-15.181-38.71-15.181-38.71Z" transform="translate(-126.092 -142.001)" fill="#263238"/>
        <path id="Path_837766" data-name="Path 837766" d="M279.841,234.475l-25.347-.155-.339,5.6c-1.407,3.2-2.768,4.842-4.649,5.453-7.694,2.5-27.357,8.962-30.2,10.634-3.546,2.086-3.032,7.575-3.449,11.329s20.592,50.275,20.592,50.275l14.543-6.207-11.87-37.876-.835-4.8,40.223-.58s7.667-1.92,7.458-12.558-6.128-21.113-6.128-21.113" transform="translate(-103.319 -112.159)" fill="#263238"/>
        <path id="Path_837767" data-name="Path 837767" d="M318.031,270.072a3.432,3.432,0,0,1,.176.738,11.519,11.519,0,0,1,.161,2.063,12.774,12.774,0,0,1-6.75,11.2,11.553,11.553,0,0,1-1.9.822,3.44,3.44,0,0,1-.735.189,23.722,23.722,0,0,0,2.542-1.179,13.091,13.091,0,0,0,6.652-11.036,23.712,23.712,0,0,0-.145-2.8" transform="translate(-147.897 -129.272)" fill="#33ece0"/>
        <path id="Path_837768" data-name="Path 837768" d="M287.107,235.605a2.7,2.7,0,0,0-2.631.16,2.036,2.036,0,0,0-.672,1.931,2.855,2.855,0,0,0,1.154,1.749,1.925,1.925,0,0,0,2.174.241,1.712,1.712,0,0,0,.642-1.177,5.061,5.061,0,0,0-.061-1.373,3.053,3.053,0,0,0-.356-1.246,1.045,1.045,0,0,0-1.1-.515" transform="translate(-135.829 -112.642)" fill="#455a64"/>
        <path id="Path_837769" data-name="Path 837769" d="M315.373,233.9a91.616,91.616,0,0,1,4.321,12.225,30.655,30.655,0,0,1,.728,12.859c-.537,2.958-1.268,6.41-3.815,8.007a4.872,4.872,0,0,1-3.154,1.09c-4.735.249-13.247.1-17.985-.069-2.288-.082-5.22.216-7.507.134,6.908-6.031,10.977-16.157,9.449-25.2a5.564,5.564,0,0,0-1.791-3.712,6.639,6.639,0,0,0-3.616-.861c-1.255-.072-1.585.242-2.72.242-1.737,0-1.492-4.181-.274-4.495Z" transform="translate(-137.835 -111.956)" fill="#455a64"/>
        <path id="Path_837770" data-name="Path 837770" d="M321.223,269.687a3.889,3.889,0,0,1-.2.715c-.144.457-.387,1.106-.715,1.9a34.535,34.535,0,0,1-7.413,11.055c-.607.6-1.117,1.074-1.484,1.381a3.96,3.96,0,0,1-.584.461,3.886,3.886,0,0,1,.513-.539c.344-.33.831-.82,1.418-1.437a39.117,39.117,0,0,0,7.375-11c.348-.777.617-1.413.791-1.857a3.889,3.889,0,0,1,.3-.679" transform="translate(-148.777 -129.088)" fill="#263238"/>
        <path id="Path_837771" data-name="Path 837771" d="M325.824,282.96a1.944,1.944,0,0,1-.279.446c-.192.279-.491.667-.876,1.133a26.443,26.443,0,0,1-7.226,6.037c-.528.3-.963.521-1.271.661a1.969,1.969,0,0,1-.489.2c-.02-.039.639-.391,1.662-1.022a32.293,32.293,0,0,0,7.178-6c.8-.895,1.266-1.481,1.3-1.454" transform="translate(-151.104 -135.441)" fill="#263238"/>
        <path id="Path_837772" data-name="Path 837772" d="M319.063,299.216c0,.075-6.373.136-14.232.136s-14.233-.06-14.233-.136,6.371-.136,14.233-.136,14.232.06,14.232.136" transform="translate(-139.097 -143.157)" fill="#263238"/>
        <path id="Path_837773" data-name="Path 837773" d="M306.253,246.464c-.034.039-.642-.514-1.74-1.241a17.605,17.605,0,0,0-2.006-1.142,17.387,17.387,0,0,0-5.393-1.607,17.72,17.72,0,0,0-2.3-.142c-1.317.008-2.129.137-2.135.087a2.328,2.328,0,0,1,.564-.125,11.653,11.653,0,0,1,1.567-.153,15.438,15.438,0,0,1,2.338.085,16.187,16.187,0,0,1,5.474,1.63,15.49,15.49,0,0,1,2,1.208,11.622,11.622,0,0,1,1.228.986,2.351,2.351,0,0,1,.4.413" transform="translate(-140.091 -115.896)" fill="#263238"/>
        <path id="Path_837774" data-name="Path 837774" d="M318.434,245.181a5.2,5.2,0,0,1-1.229-.163c-.751-.142-1.782-.373-2.906-.684s-2.129-.642-2.845-.907a5.221,5.221,0,0,1-1.138-.492,6.11,6.11,0,0,1,1.2.309c.73.217,1.738.518,2.857.827s2.138.569,2.876.758a6.106,6.106,0,0,1,1.187.35" transform="translate(-148.535 -116.281)" fill="#263238"/>
        <path id="Path_837775" data-name="Path 837775" d="M289.03,238.859a1.386,1.386,0,0,1-.808-.351,2.618,2.618,0,0,1-.408-3.86c.372-.417.706-.538.717-.512s-.26.216-.567.632a2.608,2.608,0,0,0,.38,3.59c.387.344.7.457.687.5" transform="translate(-137.446 -112.069)" fill="#263238"/>
        <path id="Path_837776" data-name="Path 837776" d="M286.3,239.693c-.011.078-.442.059-.906.266s-.751.521-.815.477c-.067-.03.157-.492.707-.726s1.038-.086,1.014-.017" transform="translate(-136.209 -114.677)" fill="#263238"/>
        <path id="Path_837777" data-name="Path 837777" d="M287.382,239.588c.011,0-.022.139-.2.289a1.409,1.409,0,0,1-.928.266,2.769,2.769,0,0,1-1.358-.442,2.6,2.6,0,0,1-1.09-1.37,2.431,2.431,0,0,1,.083-1.751,2.075,2.075,0,0,1,1.012-1.014,1.878,1.878,0,0,1,.944-.182c.227.021.344.074.339.089a2.631,2.631,0,0,0-1.2.265,1.951,1.951,0,0,0-.871.944,2.252,2.252,0,0,0-.053,1.565,2.432,2.432,0,0,0,.969,1.245,2.742,2.742,0,0,0,1.231.459,1.416,1.416,0,0,0,.856-.161c.181-.107.246-.217.266-.2" transform="translate(-135.785 -112.666)" fill="#263238"/>
        <g id="Group_1019399" data-name="Group 1019399" transform="translate(154.631 126.363)" opacity="0.3">
          <g id="Group_1019398" data-name="Group 1019398">
            <g id="Group_1019397" data-name="Group 1019397" clip-path="url(#clip-path-16)">
              <path id="Path_837778" data-name="Path 837778" d="M310.054,248.655l-.006-.021a4.173,4.173,0,0,0-1.272-1.717c-3.18-2.9-8.2-4.986-12.176-4.452a16.455,16.455,0,0,1,8,2.9,28.019,28.019,0,0,1,3.951,4.06.864.864,0,0,0,1.5-.765" transform="translate(-296.601 -242.38)"/>
            </g>
          </g>
        </g>
        <g id="Group_1019402" data-name="Group 1019402" transform="translate(164.693 147.893)" opacity="0.3">
          <g id="Group_1019401" data-name="Group 1019401">
            <g id="Group_1019400" data-name="Group 1019400" clip-path="url(#clip-path-17)">
              <path id="Path_837779" data-name="Path 837779" d="M325.684,283.678a29.712,29.712,0,0,1-9.782,8.039c2.133-.392,4.818-.916,6.584-2.166,1.865-1.319,3.428-3.6,3.2-5.873" transform="translate(-315.902 -283.678)"/>
            </g>
          </g>
        </g>
      </g>
    </g>
    <path id="Path_837780" data-name="Path 837780" d="M108.9,405.812l3.1-.047,6.84-60.071-3.049-.35Z" transform="translate(-52.125 -165.302)" fill="#455a64"/>
    <path id="Path_837781" data-name="Path 837781" d="M143.715,405.812l3.1-.047,6.84-60.071-3.049-.35Z" transform="translate(-68.79 -165.302)" fill="#455a64"/>
    <path id="Path_837782" data-name="Path 837782" d="M239.539,406.534l-3.1-.047-6.841-59.52,3.05-.35Z" transform="translate(-109.901 -165.911)" fill="#455a64"/>
    <path id="Path_837783" data-name="Path 837783" d="M201.251,406.534l-3.1-.047-6.841-59.52,3.05-.35Z" transform="translate(-91.574 -165.911)" fill="#455a64"/>
    <rect id="Rectangle_385886" data-name="Rectangle 385886" width="62.476" height="6.472" transform="translate(61.594 183.873)" fill="#455a64"/>
    <path id="Path_837784" data-name="Path 837784" d="M158.228,214.265l-39.582.489-.5,71.678,45.451.621Z" transform="translate(-56.552 -102.56)" fill="#455a64"/>
    <g id="Group_1019418" data-name="Group 1019418">
      <g id="Group_1019417" data-name="Group 1019417" clip-path="url(#clip-path)">
        <path id="Path_837785" data-name="Path 837785" d="M180.229,237.334c-.207-1.385-4.349-5.968-4.349-5.968s-2.071-8.312-2.692-10.763a8.123,8.123,0,0,0-.9-2.008,16.185,16.185,0,0,0-6.047-5.833l-5.732-3.223-1.372-3.052-14.73-2.624-2.97,3.412s-11.12,4.222-12.58,5.5c-1.791,1.572,3.1,27.807,3.1,27.807s-3.8,15.92-4.6,19.215.352,7.922.352,7.922l7.537-7.2c2.1-2.634,5.83-5.815,9.139-5.768l28.283.125-1.126-7.922,22.868,4.448s3.935-7.673,4.246-7.827-18.432-6.239-18.432-6.239" transform="translate(-60.827 -97.581)" fill="#33ece0"/>
        <path id="Path_837786" data-name="Path 837786" d="M160.7,211.643a121.15,121.15,0,0,0,4.016,12.714,30.4,30.4,0,0,1,1.824,10.417V257.15l13.561-.921-2.027-14.739s-1.653-9.508-2.116-13.124c-.424-3.312-1.885-13.388-1.885-13.388s-7.7,2.448-13.373-3.335" transform="translate(-76.914 -101.302)" fill="#fff"/>
        <path id="Path_837787" data-name="Path 837787" d="M218.731,273.557a.855.855,0,0,1,0-.341,5.062,5.062,0,0,1,.178-.911,6.124,6.124,0,0,1,4.178-4.187,5.1,5.1,0,0,1,.911-.18.851.851,0,0,1,.342,0c.006.042-.475.093-1.2.345a6.513,6.513,0,0,0-4.065,4.074c-.251.725-.3,1.206-.343,1.2" transform="translate(-104.691 -128.244)" fill="#263238"/>
        <path id="Path_837788" data-name="Path 837788" d="M220.083,267.862a5.432,5.432,0,0,1,4.211-.347c-.015.074-.958-.109-2.12-.008s-2.065.424-2.091.355" transform="translate(-105.344 -127.917)" fill="#263238"/>
        <g id="Group_1019407" data-name="Group 1019407" transform="translate(68.586 152.154)" opacity="0.3">
          <g id="Group_1019406" data-name="Group 1019406">
            <g id="Group_1019405" data-name="Group 1019405" clip-path="url(#clip-path-19)">
              <path id="Path_837789" data-name="Path 837789" d="M132.734,291.85l-1.177,1.335a9.506,9.506,0,0,0,4.778,3.159,24.337,24.337,0,0,0,5.764.522,8.32,8.32,0,0,0,2.331-.222,10.894,10.894,0,0,1,2.279-.7,5.92,5.92,0,0,1,1.582.226,3.083,3.083,0,0,0,1.584.025,1.253,1.253,0,0,0,.922-1.169,83.551,83.551,0,0,0-18.065-3.171" transform="translate(-131.557 -291.85)"/>
            </g>
          </g>
        </g>
        <path id="Path_837790" data-name="Path 837790" d="M186.117,290.3l-3.327-3.534-6.844-1.731s-6.272,1.878-6.422,1.873-5.458-1.45-5.458-1.45l-1.855,6.8,9.56.655,10.916-.437s.569-.53.232-.893,1.825.613,2.08.625.749.207,1.085-.2a1.44,1.44,0,0,0,.033-1.711" transform="translate(-77.643 -136.433)" fill="#ffbe9d"/>
        <path id="Path_837791" data-name="Path 837791" d="M195.093,295.832a5.961,5.961,0,0,1-1.087-.31c-.663-.21-1.581-.492-2.608-.755s-1.968-.457-2.651-.594a5.845,5.845,0,0,1-1.1-.257,4.69,4.69,0,0,1,1.13.086,24.407,24.407,0,0,1,2.682.528,23.435,23.435,0,0,1,2.605.829,4.6,4.6,0,0,1,1.03.473" transform="translate(-89.818 -140.679)" fill="#eb996e"/>
        <path id="Path_837792" data-name="Path 837792" d="M198.438,292.666a14.307,14.307,0,0,1-1.518-.49c-.932-.314-2.234-.7-3.682-1.1a19.318,19.318,0,0,0-3.711-.917,9.061,9.061,0,0,0-1.576.062,1.239,1.239,0,0,1,.41-.138,4.5,4.5,0,0,1,1.176-.1,16.092,16.092,0,0,1,3.768.853c1.449.4,2.752.819,3.673,1.176.461.177.829.334,1.08.449a1.435,1.435,0,0,1,.38.2" transform="translate(-89.964 -138.801)" fill="#eb996e"/>
        <path id="Path_837793" data-name="Path 837793" d="M122.128,220.964s-2.428,1.593-3.629,6.534-6.4,25.116-5.334,28.135,21.812,5.98,21.812,5.98l2.458-10.372L126.9,248.359s.133-9.607.267-13.587-5.039-13.808-5.039-13.808" transform="translate(-54.099 -105.766)" fill="#33ece0"/>
        <path id="Path_837794" data-name="Path 837794" d="M157.765,282.008l3.395.836-2.042,7.829-3.336-.534Z" transform="translate(-74.566 -134.985)" fill="#fff"/>
        <path id="Path_837795" data-name="Path 837795" d="M113.13,279.763c.018,0-.01.173.051.488a2.3,2.3,0,0,0,.723,1.178,9.984,9.984,0,0,0,4.807,1.932l.007,0,.008,0c1,.327,2.134.588,3.35.863s2.524.551,3.9.832c2.761.565,5.815,1.158,9.05,1.764l-.141.091c.234-.962.483-1.979.734-3.01l1.68-6.872.083.142-9.363-2.673-.005,0-.006,0a9.25,9.25,0,0,0-4.084-.715,9.028,9.028,0,0,0-3.082.724,10.39,10.39,0,0,0-1.771.981l-.429.312a.867.867,0,0,1-.152.1.909.909,0,0,1,.133-.123c.093-.076.227-.194.414-.336a9.566,9.566,0,0,1,1.761-1.034,8.97,8.97,0,0,1,3.116-.778,9.344,9.344,0,0,1,4.167.691l-.01,0,9.376,2.629.11.031-.027.112c-.531,2.186-1.093,4.493-1.672,6.873l-.735,3.01-.028.113-.113-.021c-3.238-.609-6.291-1.212-9.05-1.79-1.38-.287-2.686-.574-3.9-.855s-2.348-.553-3.363-.9l.015,0a9.877,9.877,0,0,1-4.843-2.03,2.3,2.3,0,0,1-.707-1.235,1.441,1.441,0,0,1,0-.5" transform="translate(-54.142 -130.964)" fill="#263238"/>
        <path id="Path_837796" data-name="Path 837796" d="M133.514,272.492c-.029.031-.381-.291-1.014-.715a9.682,9.682,0,0,0-5.611-1.634c-.762.018-1.231.1-1.239.059a3.863,3.863,0,0,1,1.23-.233,8.585,8.585,0,0,1,5.72,1.666,3.866,3.866,0,0,1,.913.857" transform="translate(-60.144 -129.211)" fill="#263238"/>
        <path id="Path_837797" data-name="Path 837797" d="M140.561,242.416a3.087,3.087,0,0,1,.007.633c-.009.407-.044.994-.1,1.719-.116,1.449-.332,3.45-.711,5.638a39.25,39.25,0,0,1-1.309,5.534c-.116.346-.235.654-.336.925l-.3.68a3.115,3.115,0,0,1-.323.546,3.139,3.139,0,0,1,.236-.585l.26-.689c.089-.273.2-.583.3-.929a48.881,48.881,0,0,0,1.231-5.523c.377-2.18.621-4.171.781-5.612l.177-1.71a3.1,3.1,0,0,1,.088-.626" transform="translate(-65.809 -116.034)" fill="#263238"/>
        <path id="Path_837798" data-name="Path 837798" d="M160.556,221.537c-.016,0-.049-.119-.164-.322a2,2,0,0,0-.709-.716,1.89,1.89,0,0,0-2.831,1.145l-.066.31-.144-.287a29.069,29.069,0,0,1-1.443-3.362,16.435,16.435,0,0,1-1.066-5.941c0-.388.059-.736.083-1.042.057-.3.1-.566.151-.777a3.576,3.576,0,0,1,.209-.643,14.05,14.05,0,0,0-.269,2.465,17.553,17.553,0,0,0,1.127,5.868,32.182,32.182,0,0,0,1.411,3.347l-.211.023a2.068,2.068,0,0,1,1.458-1.476,2.033,2.033,0,0,1,1.666.268,1.914,1.914,0,0,1,.7.789,1.24,1.24,0,0,1,.089.257c.013.06.016.091.01.093" transform="translate(-73.772 -100.472)" fill="#263238"/>
        <path id="Path_837799" data-name="Path 837799" d="M188.326,222.083a3.433,3.433,0,0,1-.109-.561,5.862,5.862,0,0,1-.1-1.583,3.314,3.314,0,0,1,1.138-2.091,2.163,2.163,0,0,1,1.372-.493,1.871,1.871,0,0,1,1.445.646l-.209.119-.448-1.128c-.881-2.224-1.665-4.242-2.221-5.707l-.646-1.739a3.635,3.635,0,0,1-.206-.65,3.625,3.625,0,0,1,.3.616l.719,1.712c.6,1.449,1.408,3.458,2.289,5.682l.446,1.129.288.729-.5-.609a1.643,1.643,0,0,0-1.258-.567,1.954,1.954,0,0,0-1.237.429,3.2,3.2,0,0,0-1.111,1.943,6.722,6.722,0,0,0,.027,1.55,2.378,2.378,0,0,1,.022.572" transform="translate(-90.034 -99.99)" fill="#263238"/>
        <path id="Path_837800" data-name="Path 837800" d="M205.329,236.437c.067-.009,1.134,7.167,2.383,16.028s2.206,16.054,2.139,16.064-1.134-7.166-2.383-16.03-2.206-16.053-2.139-16.063" transform="translate(-98.281 -113.172)" fill="#263238"/>
        <g id="Group_1019410" data-name="Group 1019410" transform="translate(81.571 117.605)" opacity="0.3">
          <g id="Group_1019409" data-name="Group 1019409">
            <g id="Group_1019408" data-name="Group 1019408" clip-path="url(#clip-path-20)">
              <path id="Path_837801" data-name="Path 837801" d="M156.464,225.582a14.82,14.82,0,0,0,1.176,5.331,3.782,3.782,0,0,1,1.866-1.494,2.97,2.97,0,0,1,2.665,1.1,4.839,4.839,0,0,0-.851-2.036,2.388,2.388,0,0,0-1.872-.979,1.657,1.657,0,0,0-1.575,1.285l-1.353-3.178" transform="translate(-156.464 -225.582)"/>
            </g>
          </g>
        </g>
        <path id="Path_837802" data-name="Path 837802" d="M136.952,229.266c-.045,0-.03-.494-.173-1.266a7.7,7.7,0,0,0-1.148-2.807,8.27,8.27,0,0,0-1.079-1.283,7.284,7.284,0,0,0-1.082-.842c-.663-.419-1.131-.58-1.115-.622.006-.016.125.014.339.082a2.523,2.523,0,0,1,.381.148,4.161,4.161,0,0,1,.484.243,6.412,6.412,0,0,1,1.147.825,7.6,7.6,0,0,1,1.129,1.312,7.01,7.01,0,0,1,1.115,2.916,4.944,4.944,0,0,1,.046.948.955.955,0,0,1-.045.346" transform="translate(-63.353 -106.473)" fill="#263238"/>
        <path id="Path_837803" data-name="Path 837803" d="M171.073,158.867a10.114,10.114,0,0,0-11.307-7.766l-.518.075c-5.544,1.132-7.68,6.472-6.395,11.983l3.924,19.458.758,2.026a10.262,10.262,0,0,0,12.616,1.309l.12-1.142L169.1,178.54s5.255-1.61,4.547-6.993c-.342-2.6-1.482-7.9-2.569-12.681" transform="translate(-72.991 -72.275)" fill="#ffbe9d"/>
        <path id="Path_837804" data-name="Path 837804" d="M177.683,202.843a13.167,13.167,0,0,1-7.338-1.046s2.213,3.629,7.505,2.372Z" transform="translate(-81.537 -96.592)" fill="#eb996e"/>
        <path id="Path_837805" data-name="Path 837805" d="M185.069,173.4a.775.775,0,0,1-.628.881.742.742,0,0,1-.891-.578.776.776,0,0,1,.628-.881.742.742,0,0,1,.891.578" transform="translate(-87.852 -82.717)" fill="#263238"/>
        <path id="Path_837806" data-name="Path 837806" d="M169.572,175.357a.775.775,0,0,1-.628.881.741.741,0,0,1-.891-.578.776.776,0,0,1,.628-.881.742.742,0,0,1,.891.578" transform="translate(-80.434 -83.652)" fill="#263238"/>
        <path id="Path_837807" data-name="Path 837807" d="M167.621,172.815c-.084.114-.746-.224-1.6-.1s-1.415.63-1.522.544c-.052-.038.021-.231.267-.462a2.252,2.252,0,0,1,1.2-.558,2.155,2.155,0,0,1,1.288.2c.289.155.4.321.362.373" transform="translate(-78.733 -82.434)" fill="#263238"/>
        <path id="Path_837808" data-name="Path 837808" d="M182.859,170.8c-.084.114-.749-.223-1.6-.095s-1.422.632-1.529.545c-.052-.038.021-.231.268-.463a2.277,2.277,0,0,1,1.206-.559,2.171,2.171,0,0,1,1.293.2c.29.154.406.321.364.372" transform="translate(-86.02 -81.47)" fill="#263238"/>
        <path id="Path_837809" data-name="Path 837809" d="M176.743,178.716a5.588,5.588,0,0,1,1.306-.435c.208-.052.4-.122.416-.271a1.087,1.087,0,0,0-.231-.605l-.855-1.516a27.853,27.853,0,0,1-2.006-4,27.908,27.908,0,0,1,2.323,3.828l.83,1.529a1.236,1.236,0,0,1,.228.812.537.537,0,0,1-.3.358,1.409,1.409,0,0,1-.351.1,5.389,5.389,0,0,1-1.359.2" transform="translate(-83.941 -82.276)" fill="#263238"/>
        <path id="Path_837810" data-name="Path 837810" d="M166.15,166.75c-.067.232-.905.182-1.873.367-.972.166-1.74.506-1.884.312-.065-.093.058-.315.361-.557a3.318,3.318,0,0,1,2.862-.517c.369.119.562.285.533.395" transform="translate(-77.723 -79.567)" fill="#263238"/>
        <path id="Path_837811" data-name="Path 837811" d="M182.158,165.125c-.157.211-.893.107-1.749.208-.859.076-1.562.328-1.754.153-.085-.086,0-.289.3-.507a2.894,2.894,0,0,1,1.381-.49,2.843,2.843,0,0,1,1.443.2c.326.155.45.336.382.437" transform="translate(-85.5 -78.726)" fill="#263238"/>
        <path id="Path_837812" data-name="Path 837812" d="M170.338,150.535a1.036,1.036,0,0,0-1.177-.7,2.2,2.2,0,0,0,.7-.467.746.746,0,0,0,.166-.781c-.187-.4-.731-.424-1.168-.494a2.8,2.8,0,0,1-1.517-.773,23.92,23.92,0,0,1-1.41-2.05,3.606,3.606,0,0,0-5.628.043,3.754,3.754,0,0,0-5.888,1.621,4.38,4.38,0,0,0-5.4,5.463l3.6,1.662a1.825,1.825,0,0,1,2.025-1.834c1.048.173,1.835,1.269,2.9,1.226.826-.035,1.448-.752,2.217-1.057a3.939,3.939,0,0,1,2.92.281A11.363,11.363,0,0,0,165.5,153.7a5.6,5.6,0,0,0,3.373-.811,3.6,3.6,0,0,0,1.174-.933,1.591,1.591,0,0,0,.3-1.422" transform="translate(-71.246 -68.897)" fill="#263238"/>
        <path id="Path_837813" data-name="Path 837813" d="M152.861,154.9l15.366-1.9a7.083,7.083,0,0,0-2.631-2.274,12.093,12.093,0,0,0-7.3-1.482c-2.5.321-7.144,4.107-8.7,6.093a3.958,3.958,0,0,0-1.062,2.781c.06,2.02,1.5,4.114,2.228,6,.375.972,1.26,3.95,1.26,3.95h0c.844-.126,1.059-.844.809-1.659l-.637-3.25a5,5,0,0,0,.667-5.993c-.262-.265-.927-1.561,0-2.265" transform="translate(-71.091 -71.397)" fill="#263238"/>
        <path id="Path_837814" data-name="Path 837814" d="M149.553,168.061c-1.1-2.631-2.166-5.463-1.654-8.27l-.459.035-.174.161a2.166,2.166,0,0,0-2.026,3.6,1.872,1.872,0,0,0-1.676,1.847,3.479,3.479,0,0,0,.707,1.738,4.21,4.21,0,0,1,.793,1.708,1.352,1.352,0,0,1-.86,1.508,1.547,1.547,0,0,0,1.841.641,3.061,3.061,0,0,1-.9,1.457A3.559,3.559,0,0,0,148.6,172a2.963,2.963,0,0,0,1.376-1.614,3.715,3.715,0,0,0-.426-2.322" transform="translate(-68.718 -76.485)" fill="#263238"/>
        <path id="Path_837815" data-name="Path 837815" d="M152.278,181.757c-.1-.027-3.85-.56-3.2,3.1s4.185,2.253,4.172,2.147-.969-5.244-.969-5.244" transform="translate(-71.32 -86.979)" fill="#ffbe9d"/>
        <path id="Path_837816" data-name="Path 837816" d="M153.4,186.932c-.018-.009-.056.056-.155.124a.647.647,0,0,1-.474.094,1.6,1.6,0,0,1-.98-1.286,2.144,2.144,0,0,1,.017-.944.746.746,0,0,1,.393-.573.329.329,0,0,1,.407.108c.067.094.057.171.078.174s.067-.075.011-.221a.411.411,0,0,0-.185-.2.483.483,0,0,0-.369-.031.909.909,0,0,0-.565.685,2.2,2.2,0,0,0-.041,1.058,1.68,1.68,0,0,0,1.208,1.415.7.7,0,0,0,.566-.2c.1-.111.1-.2.088-.2" transform="translate(-72.514 -88.146)" fill="#eb996e"/>
        <path id="Path_837817" data-name="Path 837817" d="M147.155,169.189c-.01.008-.119-.127-.118-.42a1.4,1.4,0,0,1,.576-1.041,4.281,4.281,0,0,1,1.639-.606,2.087,2.087,0,0,0,1.58-1.052,3.079,3.079,0,0,0,.06-1.967c-.161-.608-.391-1.15-.529-1.624a2.757,2.757,0,0,1-.161-1.583,7.132,7.132,0,0,0,.355,1.519c.16.458.407.982.592,1.62a3.241,3.241,0,0,1-.055,2.156,1.834,1.834,0,0,1-.79.846,3.7,3.7,0,0,1-.991.344,4.416,4.416,0,0,0-1.581.514,1.34,1.34,0,0,0-.582.884,3.219,3.219,0,0,0,.006.411" transform="translate(-70.38 -77.014)" fill="#455a64"/>
        <path id="Path_837818" data-name="Path 837818" d="M145.015,167.434c-.014.007-.094-.1-.153-.319a1.609,1.609,0,0,1,.071-.969,1.685,1.685,0,0,1,.375-.577,1.907,1.907,0,0,1,.668-.413,2.058,2.058,0,0,0,.666-.369.856.856,0,0,0,.2-.707c-.022-.282-.1-.572-.128-.869a4.388,4.388,0,0,1,0-.847,4.047,4.047,0,0,1,.373-1.378,1.022,1.022,0,0,1,.754-.614c.244-.027.359.071.349.082s-.128-.027-.328.028a.944.944,0,0,0-.591.592,4.3,4.3,0,0,0-.292,1.312,4.447,4.447,0,0,0,.02.795c.028.272.107.555.134.877a1.124,1.124,0,0,1-.285.93,2.183,2.183,0,0,1-.766.417,1.535,1.535,0,0,0-.956.824,2.078,2.078,0,0,0-.107,1.208" transform="translate(-69.319 -76.761)" fill="#455a64"/>
        <path id="Path_837819" data-name="Path 837819" d="M169.541,149.024c.023,0-.254.234-.764.063a2.18,2.18,0,0,1-.765-.51,3,3,0,0,0-.945-.657,2.573,2.573,0,0,0-2.755.511c-.417.384-.765.893-1.249,1.341a2.392,2.392,0,0,1-.872.534,2,2,0,0,1-1.059.025c-.692-.16-1.264-.505-1.861-.645a4.691,4.691,0,0,0-1.766-.107,4.6,4.6,0,0,0-2.676,1.288,5.065,5.065,0,0,0-1.134,1.7c-.179.454-.231.724-.256.719s-.005-.07.014-.2a3.874,3.874,0,0,1,.137-.558,4.8,4.8,0,0,1,1.1-1.8,4.724,4.724,0,0,1,2.786-1.409,4.873,4.873,0,0,1,1.87.1c.644.152,1.227.5,1.854.638a1.728,1.728,0,0,0,.911-.017,2.134,2.134,0,0,0,.767-.47c.454-.412.812-.922,1.259-1.327a2.691,2.691,0,0,1,1.546-.722,2.865,2.865,0,0,1,1.47.218,3.083,3.083,0,0,1,.975.728,2.193,2.193,0,0,0,.693.522,1.055,1.055,0,0,0,.724.042" transform="translate(-73.443 -70.599)" fill="#455a64"/>
        <path id="Path_837820" data-name="Path 837820" d="M174.253,187.3c.114-.041.34.731,1.161,1.085s1.617.03,1.654.136c.025.045-.139.2-.484.314a2,2,0,0,1-1.368-.07,1.745,1.745,0,0,1-.924-.925c-.124-.314-.093-.53-.039-.541" transform="translate(-83.385 -89.65)" fill="#263238"/>
        <path id="Path_837821" data-name="Path 837821" d="M258.791,339.353a7.261,7.261,0,0,0-5.216-1.721l-3.189,10.138c2.338.1,4.67,1.309,6.927.691a4.941,4.941,0,0,0,3.439-4.061,5.87,5.87,0,0,0-1.96-5.047" transform="translate(-119.849 -161.604)" fill="#33ece0"/>
        <path id="Path_837822" data-name="Path 837822" d="M254.162,337.059c.006-.082.347-.145.967-.139a7.868,7.868,0,0,1,2.611.492,7.1,7.1,0,0,1,3.18,2.47,6.576,6.576,0,0,1,1.06,2.2,5.8,5.8,0,0,1,.079,2.659,5.373,5.373,0,0,1-1.159,2.421,5.059,5.059,0,0,1-2.058,1.427,7.362,7.362,0,0,1-4.013.259,12.544,12.544,0,0,1-2.5-.776c-.562-.243-.857-.421-.832-.5s.369-.058.967.042,1.45.281,2.488.375a7.148,7.148,0,0,0,3.466-.448,4.089,4.089,0,0,0,1.56-1.151,4.353,4.353,0,0,0,.878-1.893,5.225,5.225,0,0,0-.863-3.963,6.821,6.821,0,0,0-2.6-2.322,11.8,11.8,0,0,0-2.327-.814c-.58-.15-.91-.248-.9-.335" transform="translate(-120.379 -161.269)" fill="#f5f5f5"/>
        <path id="Path_837823" data-name="Path 837823" d="M193.538,410.129l-6.94,19.444,24.146,8.757c.7-2.358-10.117-11.52-10.117-11.52l4.957-12.275Z" transform="translate(-89.317 -196.312)" fill="#33ece0"/>
        <g id="Group_1019413" data-name="Group 1019413" transform="translate(103.127 226.736)" opacity="0.6">
          <g id="Group_1019412" data-name="Group 1019412">
            <g id="Group_1019411" data-name="Group 1019411" clip-path="url(#clip-path-21)">
              <path id="Path_837824" data-name="Path 837824" d="M198.907,434.917a1.049,1.049,0,0,0-1.09.878,1.008,1.008,0,0,0,.861,1.088,1.106,1.106,0,0,0,1.15-.936c.005-.515-.511-1.106-1.021-1.032" transform="translate(-197.811 -434.909)" fill="#fff"/>
            </g>
          </g>
        </g>
        <path id="Path_837825" data-name="Path 837825" d="M186.6,445.621l.7-1.962,22.936,9.149s.905.858.509,1.571Z" transform="translate(-89.316 -212.361)" fill="#fff"/>
        <path id="Path_837826" data-name="Path 837826" d="M211.878,441.837c-.046.116-.655-.044-1.373.125-.722.15-1.206.552-1.3.466-.1-.062.331-.7,1.2-.892s1.532.2,1.468.3" transform="translate(-100.132 -211.319)" fill="#263238"/>
        <path id="Path_837827" data-name="Path 837827" d="M216.436,445.8c-.015.124-.6.139-1.179.493-.592.336-.889.839-1,.791-.118-.022.051-.742.783-1.168s1.439-.229,1.4-.116" transform="translate(-102.538 -213.315)" fill="#263238"/>
        <path id="Path_837828" data-name="Path 837828" d="M219.076,451.163c-.116-.014-.067-.663.47-1.2s1.182-.593,1.2-.477c.031.121-.453.338-.886.785s-.658.921-.78.89" transform="translate(-104.838 -215.127)" fill="#263238"/>
        <path id="Path_837829" data-name="Path 837829" d="M213.566,435.651c-.089.09-.57-.269-1.253-.466s-1.279-.175-1.3-.3.627-.363,1.428-.12,1.22.813,1.128.884" transform="translate(-101.001 -208.056)" fill="#263238"/>
        <path id="Path_837830" data-name="Path 837830" d="M213.87,427.819a2.414,2.414,0,0,1-1.207-.445,5.779,5.779,0,0,1-1.125-.848,6.106,6.106,0,0,1-.561-.62,1.579,1.579,0,0,1-.262-.417.547.547,0,0,1,.174-.647.689.689,0,0,1,.614-.082,1.674,1.674,0,0,1,.431.227,4.605,4.605,0,0,1,.658.531,4.539,4.539,0,0,1,.849,1.136,2.147,2.147,0,0,1,.355,1.24c-.068.019-.206-.448-.621-1.084a5.162,5.162,0,0,0-.858-1,4.8,4.8,0,0,0-.617-.466c-.231-.16-.448-.241-.555-.151-.04.035-.049.051-.022.145a1.274,1.274,0,0,0,.193.3,6.8,6.8,0,0,0,.506.6,7.128,7.128,0,0,0,1.007.872,8.835,8.835,0,0,1,1.04.7" transform="translate(-100.841 -203.297)" fill="#263238"/>
        <path id="Path_837831" data-name="Path 837831" d="M216.344,427.638a2.045,2.045,0,0,1,.1-1.284,4.174,4.174,0,0,1,.645-1.264,4.224,4.224,0,0,1,.575-.622,1.062,1.062,0,0,1,.993-.331.6.6,0,0,1,.383.52,1.725,1.725,0,0,1-.036.488,2.867,2.867,0,0,1-.295.815,2.954,2.954,0,0,1-.97,1.062c-.7.455-1.242.417-1.237.373a10.43,10.43,0,0,0,1.055-.622,2.96,2.96,0,0,0,.795-1,2.626,2.626,0,0,0,.231-.706c.055-.271.034-.512-.071-.521a.736.736,0,0,0-.567.243,4.276,4.276,0,0,0-.538.547,4.6,4.6,0,0,0-.671,1.122c-.29.7-.324,1.183-.4,1.178" transform="translate(-103.529 -203.003)" fill="#263238"/>
        <path id="Path_837832" data-name="Path 837832" d="M139.052,310.081c-3.663.085-7.137.6-9.66,3.259-3.346,3.523-7.484,8.543-7.719,12.024-.351,5.2,2.788,6.749,5.079,8.018a6.358,6.358,0,0,0,3.327.77l42.336-.322,1.329-7.171-27.381-6.748,1.137-10.305Z" transform="translate(-58.227 -148.195)" fill="#263238"/>
        <path id="Path_837833" data-name="Path 837833" d="M170.194,309.042l13.318-.613s23.006,1.279,27.913,5.777,4.294,9.61,2.658,14.518-16.051,36.294-16.051,36.294a5.422,5.422,0,0,1,.511,3.987,5.262,5.262,0,0,1-3.759,3.581l-12.8-4.705s-1.738-.614-.511-2.25a5.664,5.664,0,0,1,2.045-1.943v-3.271s4.5-8.179,4.907-9.3,4.721-17.771,4.721-17.771l2.864-4.922s-6.927-3.257-12.93-5.617l-14.021-3.455Z" transform="translate(-80.92 -147.632)" fill="#263238"/>
        <path id="Path_837834" data-name="Path 837834" d="M204.931,418.357c-.026.031-.43-.288-1.124-.737a15.177,15.177,0,0,0-5.978-2.273c-.816-.126-1.33-.155-1.329-.2a5.033,5.033,0,0,1,1.351.023,12.767,12.767,0,0,1,6.053,2.3,4.97,4.97,0,0,1,1.025.88" transform="translate(-94.057 -198.702)" fill="#455a64"/>
        <path id="Path_837835" data-name="Path 837835" d="M220.946,411.585a4.478,4.478,0,0,1-.743-.783c-.432-.507-1.007-1.226-1.609-2.044s-1.117-1.581-1.473-2.144a4.464,4.464,0,0,1-.527-.943,5.014,5.014,0,0,1,.67.846l1.527,2.1,1.547,2.081a5.022,5.022,0,0,1,.608.892" transform="translate(-103.673 -194.177)" fill="#455a64"/>
        <path id="Path_837836" data-name="Path 837836" d="M227.311,338.148c.008.04-.47.142-1.213.388a12.757,12.757,0,0,0-5.128,3.2c-.547.559-.849.944-.881.919a4.391,4.391,0,0,1,.754-1.037,10.882,10.882,0,0,1,5.205-3.25,4.411,4.411,0,0,1,1.264-.222" transform="translate(-105.347 -161.854)" fill="#455a64"/>
        <path id="Path_837837" data-name="Path 837837" d="M208.822,358.214a1.221,1.221,0,0,1,.053-.277c.051-.2.116-.462.2-.78l.767-2.857c.679-2.434,1.6-5.744,2.62-9.4.531-1.833.987-3.582,1.5-5.165a10.771,10.771,0,0,1,2.411-3.678,13.768,13.768,0,0,1,2.289-1.887c.3-.188.528-.331.691-.416a1.234,1.234,0,0,1,.252-.125c.011.019-.32.218-.889.619a15.263,15.263,0,0,0-2.217,1.928,10.842,10.842,0,0,0-2.324,3.636c-.492,1.561-.947,3.33-1.476,5.157l-2.689,9.378c-.349,1.174-.634,2.134-.842,2.835l-.241.767a1.212,1.212,0,0,1-.1.263" transform="translate(-99.954 -159.694)" fill="#455a64"/>
        <path id="Path_837838" data-name="Path 837838" d="M185.291,324.564c-.068.006-.348-2.484-.625-5.561s-.448-5.577-.381-5.584.348,2.483.625,5.562.448,5.577.381,5.583" transform="translate(-88.203 -150.021)" fill="#455a64"/>
        <path id="Path_837839" data-name="Path 837839" d="M138.074,343.138c-.038.018-.243-.385-.66-.975a9.579,9.579,0,0,0-4.374-3.417c-.674-.262-1.114-.363-1.106-.4a3.609,3.609,0,0,1,1.165.241,8.392,8.392,0,0,1,4.46,3.485,3.6,3.6,0,0,1,.515,1.071" transform="translate(-63.151 -161.946)" fill="#455a64"/>
        <path id="Path_837840" data-name="Path 837840" d="M148.83,328.08c-.024.038-.588-.324-1.566-.769a14.763,14.763,0,0,0-8.185-1.175c-1.064.152-1.707.34-1.719.3a1.751,1.751,0,0,1,.442-.168,9.62,9.62,0,0,1,1.25-.3,13.4,13.4,0,0,1,8.287,1.189,9.631,9.631,0,0,1,1.115.641,1.758,1.758,0,0,1,.376.285" transform="translate(-65.748 -155.928)" fill="#455a64"/>
        <path id="Path_837841" data-name="Path 837841" d="M190.809,336.416a1.731,1.731,0,0,1-.332-.055l-.94-.2-3.451-.776c-2.914-.653-6.945-1.527-11.414-2.413s-8.531-1.611-11.474-2.118l-3.485-.6-.947-.169a1.767,1.767,0,0,1-.328-.076,1.682,1.682,0,0,1,.335.027l.954.124c.828.112,2.023.289,3.5.521,2.951.463,7.02,1.164,11.494,2.048s8.5,1.789,11.4,2.485c1.453.348,2.626.64,3.434.852l.93.249a1.744,1.744,0,0,1,.32.1" transform="translate(-75.838 -157.96)" fill="#455a64"/>
        <path id="Path_837842" data-name="Path 837842" d="M162.294,325.727c-.047.014-.147-.559-.586-1.353a5.922,5.922,0,0,0-.969-1.253,15.679,15.679,0,0,0-1.482-1.282,22.36,22.36,0,0,0-3.033-1.883,9.928,9.928,0,0,1-1.3-.737,8.151,8.151,0,0,1,1.374.581,17.621,17.621,0,0,1,3.1,1.844,13.609,13.609,0,0,1,1.5,1.319,5.579,5.579,0,0,1,.959,1.328,4.6,4.6,0,0,1,.378,1.035,1.148,1.148,0,0,1,.055.4" transform="translate(-74.158 -152.796)" fill="#455a64"/>
        <path id="Path_837843" data-name="Path 837843" d="M257.638,343.98c.054.053-.654.768-1.205,1.857s-.731,2.075-.806,2.061a5.391,5.391,0,0,1,2.011-3.918" transform="translate(-122.349 -164.647)" fill="#263238"/>
        <g id="Group_1019416" data-name="Group 1019416" transform="translate(107.44 126.203)" opacity="0.3">
          <g id="Group_1019415" data-name="Group 1019415">
            <g id="Group_1019414" data-name="Group 1019414" clip-path="url(#clip-path-22)">
              <path id="Path_837844" data-name="Path 837844" d="M206.083,242.073l3.03,21.347.151.341a45.8,45.8,0,0,0-3.181-21.688" transform="translate(-206.083 -242.074)"/>
            </g>
          </g>
        </g>
        <path id="Path_837845" data-name="Path 837845" d="M205.994,265.1l-9.854,17.234-24.279.528-.06,1.1,23.508-.175.746-.025,24.825.049,5.016-8.652,6.408-9.185a.906.906,0,0,0-.747-1.425l-24.78.094a.907.907,0,0,0-.784.457" transform="translate(-82.234 -126.628)" fill="#e0e0e0"/>
        <path id="Path_837846" data-name="Path 837846" d="M268.174,284.9s1.275,1.169,1.073,2.163-.134,1.732-1.073,1.8a1.43,1.43,0,0,1-1.276,1.477,1.574,1.574,0,0,1-1.525,1.826s-.556,1.666-1.7,1.263a10.117,10.117,0,0,1-1.88-.873l-.336-.6s-1.681-.632-1.267-1.582c.252-.576,1.121-.726,1.121-.726a1.633,1.633,0,0,1,.107-1.476c.4-.542,1.716-.094,1.716-.094a1.849,1.849,0,0,1,.416-1.285c.447-.53,2.537.91,2.537.91l1.14-1.362Z" transform="translate(-124.512 -136.369)" fill="#ffbe9d"/>
        <path id="Path_837847" data-name="Path 837847" d="M266.462,296.512a23.273,23.273,0,0,1-4.06-2.523,23.359,23.359,0,0,1,4.06,2.523" transform="translate(-125.6 -140.718)" fill="#eb996e"/>
        <path id="Path_837848" data-name="Path 837848" d="M269.662,293.244a19.619,19.619,0,0,1-3.761-2.267,19.694,19.694,0,0,1,3.761,2.267" transform="translate(-127.275 -139.276)" fill="#eb996e"/>
        <path id="Path_837849" data-name="Path 837849" d="M269.128,288.767a6.609,6.609,0,0,1,1.724.915,15.832,15.832,0,0,1,1.621,1.075,5.219,5.219,0,0,1-1.751-.866,9.57,9.57,0,0,1-1.594-1.124" transform="translate(-128.82 -138.217)" fill="#eb996e"/>
        <path id="Path_837850" data-name="Path 837850" d="M255.568,265.684a.415.415,0,0,1-.119.013l-.348.012-1.341.023-4.93.039-16.264.036h-1.184a.979.979,0,0,0-.9.427l-1.1,1.99L227.282,272l-3.556,6.389-2.416,4.3-.668,1.163-.179.3a.461.461,0,0,1-.068.1.418.418,0,0,1,.046-.111l.158-.311.627-1.185,2.348-4.335,3.51-6.415,2.081-3.783q.545-.988,1.109-2.007a1.224,1.224,0,0,1,1.107-.537h1.184l16.264.036,4.93.039,1.341.023.348.012a.461.461,0,0,1,.119.012" transform="translate(-105.494 -127.112)" fill="#263238"/>
        <path id="Path_837851" data-name="Path 837851" d="M254.044,282.027a1.047,1.047,0,1,0,1.565-.185,1.119,1.119,0,0,0-1.565.185" transform="translate(-121.439 -134.79)" fill="#fff"/>
        <path id="Path_837852" data-name="Path 837852" d="M228.841,349.688a.423.423,0,0,1,.034-.11l.123-.313.5-1.2,1.886-4.447,6.47-15.024-.007.021a20.857,20.857,0,0,0,.612-4.62,11.867,11.867,0,0,0-1.061-5.355,9.647,9.647,0,0,0-1.484-2.145,9.807,9.807,0,0,0-1.8-1.739,10.454,10.454,0,0,0-2.137-1.052c-.725-.289-1.437-.551-2.134-.777-1.393-.459-2.714-.813-3.929-1.1-2.431-.572-4.432-.878-5.815-1.076l-1.6-.213-.415-.056a.569.569,0,0,1-.141-.028.577.577,0,0,1,.143,0l.418.03c.367.03.909.079,1.6.163a57.145,57.145,0,0,1,5.845.994c1.222.276,2.552.62,3.955,1.073.7.223,1.421.482,2.153.77a10.608,10.608,0,0,1,2.192,1.069,10.027,10.027,0,0,1,1.851,1.776,9.9,9.9,0,0,1,1.525,2.2A12.093,12.093,0,0,1,238.726,324a20.971,20.971,0,0,1-.623,4.68l0,.011,0,.011-6.554,14.988-1.96,4.414-.539,1.183-.145.3a.424.424,0,0,1-.057.1" transform="translate(-104.322 -148.599)" fill="#455a64"/>
      </g>
    </g>
    <g id="Group_1019420" data-name="Group 1019420">
      <g id="Group_1019419" data-name="Group 1019419" clip-path="url(#clip-path)">
        <path id="Path_837853" data-name="Path 837853" d="M88.147,64.843l5.119-2.9a13.716,13.716,0,1,0-3.654-3.285l-.006,0Z" transform="translate(-41.521 -17.51)" fill="#fff"/>
        <path id="Path_837854" data-name="Path 837854" d="M88.081,64.76l1.408-6.207a.052.052,0,0,1,.062-.039.05.05,0,0,1,.02.009l.006,0-.072.073a13.686,13.686,0,0,1-2.777-6.577,12.368,12.368,0,0,1-.111-2.171c.021-.373.03-.753.062-1.137l.175-1.158a13.83,13.83,0,0,1,5.5-8.571,13.677,13.677,0,0,1,5.3-2.319,13.987,13.987,0,0,1,6.1.162,13.526,13.526,0,0,1,5.641,2.94,13.772,13.772,0,0,1,3.773,5.285,13.991,13.991,0,0,1,.944,6.148,13.529,13.529,0,0,1-1.668,5.643,13.915,13.915,0,0,1-8.011,6.507,14.83,14.83,0,0,1-4.46.594,13.649,13.649,0,0,1-6.8-2.05h.051L88.081,64.76l5.095-2.948a.05.05,0,0,1,.051,0,13.612,13.612,0,0,0,6.75,1.992,14.7,14.7,0,0,0,4.408-.606,13.762,13.762,0,0,0,7.893-6.444,13.355,13.355,0,0,0,1.636-5.565,13.808,13.808,0,0,0-.936-6.057,13.586,13.586,0,0,0-3.718-5.205,13.338,13.338,0,0,0-5.555-2.9,13.8,13.8,0,0,0-6.012-.165,13.508,13.508,0,0,0-5.226,2.278,13.682,13.682,0,0,0-5.45,8.447q-.09.58-.177,1.144c-.033.379-.043.755-.066,1.125a12.223,12.223,0,0,0,.1,2.147,13.639,13.639,0,0,0,2.714,6.532.052.052,0,0,1-.009.073.053.053,0,0,1-.064,0l-.006,0,.082-.029L88.081,64.76" transform="translate(-41.455 -17.427)" fill="#263238"/>
        <path id="Path_837855" data-name="Path 837855" d="M98.206,58.861l1.968-1.968,3.794,3.373,7.448-7.167,1.827,1.968-9.556,8.994Z" transform="translate(-47.007 -25.417)" fill="#33ece0"/>
      </g>
    </g>
    <path id="Path_837856" data-name="Path 837856" d="M40.6,389.14H38.318l-1.3-78.355H41.9Z" transform="translate(-17.72 -148.76)" fill="#e0e0e0"/>
    <g id="Group_1019422" data-name="Group 1019422">
      <g id="Group_1019421" data-name="Group 1019421" clip-path="url(#clip-path)">
        <path id="Path_837857" data-name="Path 837857" d="M40.471,389.015s0-.142,0-.41.006-.67.01-1.185c.013-1.047.031-2.577.056-4.547.056-3.949.136-9.656.236-16.726.219-14.129.524-33.7.863-55.488l.136.138H36.894l.136-.138c.633,38.311,1.117,70.208,1.193,78.356l-.031-.03L39.9,389c.377.006.568.013.568.013s-.175.007-.55.013l-1.729.018h-.03v-.031c-.194-8.147-.767-40.042-1.4-78.353l0-.138h5.151l0,.138c-.384,21.83-.728,41.433-.977,55.586-.134,7.056-.242,12.752-.317,16.693-.041,1.957-.072,3.475-.094,4.514q-.019.762-.029,1.168c-.008.262-.016.391-.016.391" transform="translate(-17.594 -148.635)" fill="#263238"/>
        <path id="Path_837858" data-name="Path 837858" d="M326.589,389.345h-2.279l-.728-78.131h4.876Z" transform="translate(-154.885 -148.965)" fill="#e0e0e0"/>
        <path id="Path_837859" data-name="Path 837859" d="M326.463,389.22s0-.142,0-.409.01-.668.019-1.182c.02-1.044.05-2.569.089-4.534l.358-16.678c.323-14.089.77-33.6,1.267-55.331l.136.139h-4.875l.136-.137c.355,38.2.607,70,.623,78.131l-.031-.03,1.712.018c.377.006.567.013.567.013s-.175.007-.55.013l-1.729.018h-.03v-.031c-.135-8.13-.476-39.932-.833-78.13v-.137h5.151l0,.139c-.543,21.767-1.03,41.314-1.381,55.427-.186,7.035-.335,12.715-.439,16.645-.055,1.95-.1,3.465-.127,4.5-.016.507-.029.894-.038,1.164s-.019.39-.019.39" transform="translate(-154.759 -148.84)" fill="#263238"/>
        <rect id="Rectangle_385893" data-name="Rectangle 385893" width="182.004" height="6.463" transform="translate(8.336 156.059)" fill="#e0e0e0"/>
        <path id="Path_837860" data-name="Path 837860" d="M15.958,299.217s.309-.006.923-.01l2.73-.009,10.525-.019,38.837-.041,128.989-.056h.136v6.734h-.136l-182-.1h-.034v-.034c.009-2.22.016-3.838.02-4.9s.014-1.558.014-1.558c0,.23.011,2.069.034,6.463l-.034-.033,182-.1-.136.136v-6.463l.136.136L69.074,299.3l-38.87-.041-10.557-.019-2.747-.009c-.62,0-.942-.01-.942-.01" transform="translate(-7.622 -143.158)" fill="#263238"/>
        <path id="Path_837861" data-name="Path 837861" d="M54.809,299.524s-.017.026-.058.07-.1.112-.19.194a3.784,3.784,0,0,1-.915.595,5.967,5.967,0,0,1-1.758.479,15.319,15.319,0,0,1-2.452.088,29.412,29.412,0,0,1-2.952-.276,32.079,32.079,0,0,0-3.362-.325,25.138,25.138,0,0,0-7.567,1.191c-2.6.753-5.023,1.611-7.344,2.133a24.471,24.471,0,0,1-3.349.539,17.4,17.4,0,0,1-2.976,0,11.782,11.782,0,0,1-4.081-1.06,6.417,6.417,0,0,1-1.262-.766.4.4,0,0,1,.088.046l.243.147a8.932,8.932,0,0,0,.974.512,12.1,12.1,0,0,0,4.054.994,17.473,17.473,0,0,0,2.94-.017,24.645,24.645,0,0,0,3.313-.551c2.3-.527,4.717-1.386,7.326-2.143a25.1,25.1,0,0,1,7.649-1.187,31.79,31.79,0,0,1,3.385.344c1.049.145,2.029.264,2.929.3a15.53,15.53,0,0,0,2.426-.059,6.033,6.033,0,0,0,1.735-.441,4.481,4.481,0,0,0,1.205-.8" transform="translate(-7.917 -143.369)" fill="#fff"/>
        <path id="Path_837862" data-name="Path 837862" d="M36.469,299.695a4.242,4.242,0,0,1-.551.382,13.28,13.28,0,0,1-1.661.868,16.567,16.567,0,0,1-2.716.9,17.933,17.933,0,0,1-3.548.451,16.285,16.285,0,0,1-6.345-1.064,3.938,3.938,0,0,1-1.531-1.016,1.7,1.7,0,0,1-.25-.39c-.038-.1-.054-.146-.046-.149a3.986,3.986,0,0,0,.368.5,4.163,4.163,0,0,0,1.531.943,16.881,16.881,0,0,0,6.266,1,18.435,18.435,0,0,0,3.5-.43,17.739,17.739,0,0,0,2.7-.85,16.628,16.628,0,0,0,1.682-.811,4.732,4.732,0,0,1,.6-.324" transform="translate(-9.487 -143.442)" fill="#fff"/>
        <path id="Path_837863" data-name="Path 837863" d="M120.326,305a2.613,2.613,0,0,1,.282.083,6.485,6.485,0,0,0,.84.181,5.986,5.986,0,0,0,3.185-.4l-.009.082a8.647,8.647,0,0,0-3.95-1.25,9.084,9.084,0,0,0-5.137,1.084c-.192.113-.378.252-.4.42s.131.322.341.417a2.76,2.76,0,0,0,.705.2l.775.142c1.042.188,2.117.375,3.231.508a23.48,23.48,0,0,0,3.436.19,15.382,15.382,0,0,0,1.764-.137c.294-.041.588-.087.878-.15a5.174,5.174,0,0,0,.85-.223,2.852,2.852,0,0,0,1.1-.647.874.874,0,0,0,.212-.993,1.878,1.878,0,0,0-.866-.785,7.553,7.553,0,0,0-1.208-.479,19.854,19.854,0,0,0-5.055-.851,25.354,25.354,0,0,0-8.629,1.086,23.145,23.145,0,0,0-5.2,2.3c-.555.349-.982.624-1.255.827l-.321.222a.615.615,0,0,1-.115.071.662.662,0,0,1,.1-.084l.306-.235c.264-.212.683-.5,1.233-.856a22.341,22.341,0,0,1,5.191-2.368,25.3,25.3,0,0,1,8.7-1.133,20.018,20.018,0,0,1,5.124.853,7.78,7.78,0,0,1,1.249.494,2.062,2.062,0,0,1,.954.873,1.029,1.029,0,0,1-.243,1.166,3.072,3.072,0,0,1-1.19.7,5.392,5.392,0,0,1-.886.233c-.3.064-.6.111-.9.152a15.6,15.6,0,0,1-1.794.138,23.65,23.65,0,0,1-3.475-.2c-1.122-.135-2.2-.326-3.245-.517l-.775-.145a2.932,2.932,0,0,1-.762-.222.986.986,0,0,1-.32-.227.439.439,0,0,1-.117-.349c.039-.257.283-.412.481-.531a9.268,9.268,0,0,1,5.268-1.087,8.709,8.709,0,0,1,4.01,1.3l.074.047-.083.034a5.991,5.991,0,0,1-3.255.369,4.222,4.222,0,0,1-1.11-.315" transform="translate(-50.638 -144.646)" fill="#fff"/>
        <path id="Path_837864" data-name="Path 837864" d="M172.792,299.846a.9.9,0,0,1,.179.325,2.028,2.028,0,0,1,.12.97,4.513,4.513,0,0,1-1.773,2.82,8.729,8.729,0,0,1-1.656,1.143,8.208,8.208,0,0,1-1.6.629,9.032,9.032,0,0,1-1.158.236,1.964,1.964,0,0,1-.436.03c-.008-.033.611-.1,1.54-.387a8.781,8.781,0,0,0,1.538-.648,9.139,9.139,0,0,0,1.606-1.128,4.667,4.667,0,0,0,1.778-2.709,2.9,2.9,0,0,0-.142-1.283" transform="translate(-79.683 -143.524)" fill="#fff"/>
        <path id="Path_837865" data-name="Path 837865" d="M216.919,307.172a9.614,9.614,0,0,0-.835-.66,6.624,6.624,0,0,0-2.847-1.043,7.8,7.8,0,0,0-2.167.051,11.433,11.433,0,0,1-2.54.19A5.622,5.622,0,0,1,206,304.7a9.229,9.229,0,0,0-2.541-1.224,11.384,11.384,0,0,0-5.643-.071,14.744,14.744,0,0,0-4.175,1.718,22.087,22.087,0,0,0-2.421,1.678l-.618.495a1.434,1.434,0,0,1-.223.167,1.345,1.345,0,0,1,.19-.192c.13-.123.328-.3.589-.52a19.4,19.4,0,0,1,2.388-1.731,14.531,14.531,0,0,1,4.212-1.776,11.529,11.529,0,0,1,5.776.062,9.346,9.346,0,0,1,2.6,1.253,5.417,5.417,0,0,0,2.42.982,11.4,11.4,0,0,0,2.486-.172,7.883,7.883,0,0,1,2.222-.029,6.463,6.463,0,0,1,2.877,1.115,3.407,3.407,0,0,1,.779.714" transform="translate(-91.127 -144.99)" fill="#fff"/>
        <path id="Path_837866" data-name="Path 837866" d="M270.869,299.459a1.551,1.551,0,0,1-.2.221,8.409,8.409,0,0,1-.622.6,16.311,16.311,0,0,1-2.657,1.917,23.112,23.112,0,0,1-4.61,2.075,22.164,22.164,0,0,1-2.973.77,18.751,18.751,0,0,1-3.326.348,19.757,19.757,0,0,1-6.31-1.067,22.634,22.634,0,0,1-4.585-2.112,17.17,17.17,0,0,1-2.639-1.933c-.292-.245-.481-.463-.623-.6a1.493,1.493,0,0,1-.2-.22,1.843,1.843,0,0,1,.235.2c.153.129.351.338.652.575a18.876,18.876,0,0,0,2.668,1.878,23.286,23.286,0,0,0,4.569,2.06,19.787,19.787,0,0,0,6.23,1.039,18.657,18.657,0,0,0,3.279-.338,22.46,22.46,0,0,0,2.945-.752,23.805,23.805,0,0,0,4.595-2.025,17.825,17.825,0,0,0,2.685-1.861c.3-.235.5-.446.651-.575a1.73,1.73,0,0,1,.234-.2" transform="translate(-115.896 -143.338)" fill="#fff"/>
        <path id="Path_837867" data-name="Path 837867" d="M272.573,299.34a.663.663,0,0,1-.155.1c-.107.06-.261.154-.471.26-.414.22-1.032.515-1.823.838a22.069,22.069,0,0,1-2.88.952,15.356,15.356,0,0,1-3.757.522,18.313,18.313,0,0,1-6.673-1.369,15.7,15.7,0,0,1-1.806-.862c-.207-.111-.356-.21-.46-.273s-.155-.1-.15-.107a6.879,6.879,0,0,1,.657.321c.417.212,1.036.5,1.829.806a19.079,19.079,0,0,0,6.6,1.3,15.645,15.645,0,0,0,3.7-.5,23.9,23.9,0,0,0,2.872-.908c.795-.306,1.421-.582,1.847-.783a6.414,6.414,0,0,1,.672-.3" transform="translate(-121.768 -143.281)" fill="#fff"/>
        <path id="Path_837868" data-name="Path 837868" d="M307.831,300.445a.941.941,0,0,1-.21,0l-.6-.031-.43-.026-.512,0c-.368,0-.786-.014-1.247.017l-.725.032-.781.074c-.542.038-1.11.142-1.712.224a30.539,30.539,0,0,0-3.8.921,29.3,29.3,0,0,0-3.564,1.424c-.513.27-1.016.507-1.449.774l-.639.373-.564.371c-.367.229-.67.463-.942.664l-.38.28-.3.251-.422.344a.724.724,0,0,1-.159.112c-.006,0,.037-.051.125-.136l.392-.368.288-.264.369-.292c.265-.21.564-.452.927-.69l.559-.383.637-.385c.432-.275.936-.519,1.451-.8a27.755,27.755,0,0,1,3.589-1.45,29.128,29.128,0,0,1,3.846-.917c.609-.078,1.183-.177,1.731-.209l.789-.064.731-.02c.466-.022.888,0,1.257.01l.515.018.431.042.594.065a.868.868,0,0,1,.2.035" transform="translate(-138.521 -143.724)" fill="#fff"/>
        <path id="Path_837869" data-name="Path 837869" d="M213.941,305.958a7.393,7.393,0,0,0-1-.967,9.965,9.965,0,0,0-3.668-1.664,24.026,24.026,0,0,0-2.862-.513c-1.044-.135-2.169-.24-3.346-.406a33.555,33.555,0,0,1-3.634-.74,28.448,28.448,0,0,0-3.877-.76,19.605,19.605,0,0,0-7.552.847,31,31,0,0,0-3.072,1.121c-.941.392-1.8.778-2.588,1.138-1.567.719-2.813,1.333-3.673,1.759l-.989.492-.259.126a.389.389,0,0,1-.092.038.361.361,0,0,1,.08-.053l.247-.141c.218-.122.544-.3.967-.521.846-.445,2.081-1.075,3.641-1.811.78-.367,1.641-.761,2.581-1.159a30.328,30.328,0,0,1,3.086-1.144,19.659,19.659,0,0,1,7.652-.87,28.334,28.334,0,0,1,3.912.77,33.79,33.79,0,0,0,3.607.746c1.169.169,2.293.28,3.34.422a23.636,23.636,0,0,1,2.881.54,9.723,9.723,0,0,1,3.68,1.736,3.916,3.916,0,0,1,.94,1.018" transform="translate(-84.879 -143.906)" fill="#fff"/>
        <path id="Path_837870" data-name="Path 837870" d="M160.527,299.525a1.156,1.156,0,0,1-.027.413,4.122,4.122,0,0,1-.356,1.091,6.609,6.609,0,0,1-2.8,2.906,21.022,21.022,0,0,1-4.146,1.55c-.554.15-1.008.257-1.324.323a2.6,2.6,0,0,1-.5.084,2.646,2.646,0,0,1,.472-.152l1.3-.377a23.938,23.938,0,0,0,4.076-1.581,6.874,6.874,0,0,0,2.773-2.8,7.447,7.447,0,0,0,.53-1.456" transform="translate(-72.459 -143.37)" fill="#fff"/>
        <path id="Path_837871" data-name="Path 837871" d="M87.882,305.891a3.038,3.038,0,0,1,.443-.346c.292-.216.735-.511,1.3-.861a39.358,39.358,0,0,1,4.642-2.428c1.892-.845,3.659-1.52,4.941-2,.642-.239,1.164-.427,1.526-.554a3.691,3.691,0,0,1,.573-.18,3.429,3.429,0,0,1-.536.244l-1.5.606c-1.264.508-3.016,1.2-4.9,2.041a48.359,48.359,0,0,0-4.655,2.373c-.57.335-1.026.614-1.335.813a3.388,3.388,0,0,1-.5.291" transform="translate(-42.065 -143.369)" fill="#fff"/>
        <path id="Path_837872" data-name="Path 837872" d="M78.344,299.966c0,.021-.421-.044-1.174,0a9.783,9.783,0,0,0-3.036.75,29,29,0,0,0-3.944,2.149,21.128,21.128,0,0,1-2.375,1.25,15.251,15.251,0,0,1-2.841.888,32.191,32.191,0,0,1-5.814.567c-1.8.043-3.416.014-4.77.059a28.933,28.933,0,0,0-3.191.253c-.372.056-.662.1-.856.14a1.9,1.9,0,0,1-.3.044,1.918,1.918,0,0,1,.289-.08c.191-.049.479-.106.85-.173a25.418,25.418,0,0,1,3.2-.313c1.36-.062,2.979-.046,4.771-.1a32.893,32.893,0,0,0,5.764-.576,15.181,15.181,0,0,0,2.795-.87,21.376,21.376,0,0,0,2.356-1.228,27.977,27.977,0,0,1,4-2.129,9.525,9.525,0,0,1,3.1-.7,6.664,6.664,0,0,1,.878.023,1.858,1.858,0,0,1,.3.044" transform="translate(-23.953 -143.546)" fill="#fff"/>
        <path id="Path_837873" data-name="Path 837873" d="M332.96,305.891a2.974,2.974,0,0,1,.443-.346c.292-.216.735-.511,1.3-.861a39.354,39.354,0,0,1,4.641-2.428c1.892-.845,3.659-1.52,4.941-2,.642-.239,1.164-.427,1.526-.554a3.688,3.688,0,0,1,.573-.18,3.369,3.369,0,0,1-.536.244l-1.5.606c-1.264.508-3.016,1.2-4.9,2.041a48.347,48.347,0,0,0-4.655,2.373c-.571.335-1.027.614-1.336.813a3.437,3.437,0,0,1-.5.291" transform="translate(-159.374 -143.369)" fill="#fff"/>
        <path id="Path_837874" data-name="Path 837874" d="M323.421,299.966c0,.021-.421-.044-1.174,0a9.782,9.782,0,0,0-3.036.75,28.993,28.993,0,0,0-3.944,2.149,21.128,21.128,0,0,1-2.375,1.25,15.252,15.252,0,0,1-2.841.888,32.191,32.191,0,0,1-5.814.567c-1.8.043-3.416.014-4.77.059a28.931,28.931,0,0,0-3.191.253c-.372.056-.662.1-.856.14a1.9,1.9,0,0,1-.3.044,1.918,1.918,0,0,1,.289-.08c.191-.049.479-.106.85-.173a25.416,25.416,0,0,1,3.2-.313c1.36-.062,2.979-.046,4.771-.1a32.893,32.893,0,0,0,5.764-.576,15.182,15.182,0,0,0,2.795-.87,21.375,21.375,0,0,0,2.356-1.228,27.977,27.977,0,0,1,4-2.129,9.525,9.525,0,0,1,3.1-.7,6.664,6.664,0,0,1,.878.023,1.859,1.859,0,0,1,.3.044" transform="translate(-141.261 -143.546)" fill="#fff"/>
        <path id="Path_837875" data-name="Path 837875" d="M290.864,299.209c0,.051-7.606.091-16.987.091s-16.988-.041-16.988-.091,7.6-.091,16.988-.091,16.987.041,16.987.091" transform="translate(-122.962 -143.175)" fill="#263238"/>
      </g>
    </g>
  </g>
</svg>
