<svg id="Group_1018225" data-name="Group 1018225" xmlns="http://www.w3.org/2000/svg" xmlns:xlink="http://www.w3.org/1999/xlink" width="295" height="190.369" viewBox="0 0 295 190.369">
  <defs>
    <clipPath id="clip-path">
      <rect id="Rectangle_385461" data-name="Rectangle 385461" width="295" height="190.369" fill="none"/>
    </clipPath>
    <clipPath id="clip-path-3">
      <rect id="Rectangle_385451" data-name="Rectangle 385451" width="2.727" height="2.374" fill="none"/>
    </clipPath>
    <clipPath id="clip-path-4">
      <rect id="Rectangle_385452" data-name="Rectangle 385452" width="2.636" height="4.078" fill="none"/>
    </clipPath>
    <clipPath id="clip-path-5">
      <rect id="Rectangle_385453" data-name="Rectangle 385453" width="2.379" height="4.118" fill="none"/>
    </clipPath>
    <clipPath id="clip-path-6">
      <rect id="Rectangle_385458" data-name="Rectangle 385458" width="2.513" height="3.729" fill="none"/>
    </clipPath>
    <clipPath id="clip-path-7">
      <rect id="Rectangle_385459" data-name="Rectangle 385459" width="2.296" height="3.611" fill="none"/>
    </clipPath>
  </defs>
  <g id="Group_1018224" data-name="Group 1018224" clip-path="url(#clip-path)">
    <g id="Group_1018223" data-name="Group 1018223">
      <g id="Group_1018222" data-name="Group 1018222" clip-path="url(#clip-path)">
        <path id="Path_836339" data-name="Path 836339" d="M295,1078.334c0,8.045-66.038,14.568-147.5,14.568S0,1086.379,0,1078.334s66.038-14.568,147.5-14.568,147.5,6.522,147.5,14.568" transform="translate(0 -902.532)" fill="#b8d5dc"/>
        <path id="Path_836340" data-name="Path 836340" d="M995.024,54.674l4.363,2.392a3.338,3.338,0,0,0,4.6-1.522l2.784-5.582a3.67,3.67,0,0,0-1.435-4.838l-3.085-1.693a3.631,3.631,0,0,1-1.764-3.844q.081-.444.148-.893a3.5,3.5,0,0,1,2.658-2.924l3.094-.7a3.6,3.6,0,0,0,2.63-4.26l-1.243-6.156a3.406,3.406,0,0,0-4.042-2.752l-3.1.7a3.308,3.308,0,0,1-3.55-1.519q-.232-.378-.477-.747a3.73,3.73,0,0,1,.124-4.274l2.163-2.877a3.707,3.707,0,0,0-.556-5.035l-4.7-3.9a3.3,3.3,0,0,0-4.792.6l-3.061,4.07a3.342,3.342,0,0,1-3.471,1.269,22.872,22.872,0,0,0-3.327-.551,3.477,3.477,0,0,1-3.068-2.822l-.8-3.985A3.406,3.406,0,0,0,971.078.081L965.219,1.4a3.6,3.6,0,0,0-2.63,4.259l1.082,5.361a3.692,3.692,0,0,1-1.271,3.619q-.384.3-.755.622a3.265,3.265,0,0,1-3.72.389L953,12.951a3.338,3.338,0,0,0-4.607,1.521l-2.787,5.586a3.67,3.67,0,0,0,1.435,4.837l4.229,2.321a3.633,3.633,0,0,1,1.781,3.74l-.008.049a3.519,3.519,0,0,1-2.66,2.946L946,34.941a3.6,3.6,0,0,0-2.631,4.26l1.244,6.16a3.405,3.405,0,0,0,4.046,2.751l4.384-.992a3.322,3.322,0,0,1,3.566,1.54l.029.047a3.738,3.738,0,0,1-.183,4.184l-2.965,3.942a3.708,3.708,0,0,0,.557,5.037l4.7,3.895a3.3,3.3,0,0,0,4.792-.6l3.451-4.595a3.311,3.311,0,0,1,3.547-1.251q.461.13.928.241a3.492,3.492,0,0,1,2.555,2.754l1.08,5.362a3.406,3.406,0,0,0,4.044,2.753l5.862-1.323a3.6,3.6,0,0,0,2.63-4.259l-.8-3.988a3.681,3.681,0,0,1,1.709-3.9,23.883,23.883,0,0,0,2.819-1.941,3.292,3.292,0,0,1,3.662-.343m-15.552-5.733c-6.806,1.536-15.511-5.124-16.953-12.274S967,22.33,973.8,20.8s13.4,5.278,14.839,12.428-2.359,14.178-9.166,15.715" transform="translate(-808.682 0)" fill="#b8d5dc"/>
        <path id="Path_836341" data-name="Path 836341" d="M968.587,94a3.552,3.552,0,0,1-3.427-2.919l-1.08-5.362a3.392,3.392,0,0,0-2.478-2.671c-.31-.074-.623-.155-.932-.242a3.207,3.207,0,0,0-3.441,1.214l-3.451,4.594a3.406,3.406,0,0,1-4.934.62l-4.7-3.895a3.708,3.708,0,0,1-1.311-2.466,3.812,3.812,0,0,1,.736-2.724l2.965-3.942a3.623,3.623,0,0,0,.177-4.057l-.022-.035a3.244,3.244,0,0,0-3.467-1.5l-4.384.992a3.512,3.512,0,0,1-4.167-2.834l-1.244-6.16a3.834,3.834,0,0,1,.481-2.766,3.507,3.507,0,0,1,2.228-1.623l4.388-.989a3.431,3.431,0,0,0,2.581-2.857l.007-.05a3.521,3.521,0,0,0-1.727-3.626l-4.229-2.321a3.616,3.616,0,0,1-1.724-2.173,3.843,3.843,0,0,1,.246-2.811l2.787-5.587a3.441,3.441,0,0,1,4.744-1.566l4.922,2.7a3.162,3.162,0,0,0,3.61-.377c.249-.214.5-.424.758-.625a3.587,3.587,0,0,0,1.232-3.509l-1.082-5.361a3.834,3.834,0,0,1,.481-2.764,3.507,3.507,0,0,1,2.227-1.623l5.858-1.324a3.512,3.512,0,0,1,4.166,2.836l.8,3.985a3.361,3.361,0,0,0,2.977,2.737,23.037,23.037,0,0,1,3.341.554,3.26,3.26,0,0,0,3.368-1.231l3.061-4.07a3.405,3.405,0,0,1,4.934-.616l4.7,3.9a3.708,3.708,0,0,1,1.309,2.466,3.812,3.812,0,0,1-.736,2.723l-2.163,2.877a3.6,3.6,0,0,0-.121,4.144c.164.246.325.5.48.75a3.222,3.222,0,0,0,3.444,1.473l3.1-.7a3.512,3.512,0,0,1,4.163,2.835l1.243,6.156a3.835,3.835,0,0,1-.481,2.766,3.507,3.507,0,0,1-2.228,1.623l-3.094.7a3.411,3.411,0,0,0-2.578,2.835c-.045.3-.095.6-.149.9a3.5,3.5,0,0,0,1.711,3.726l3.086,1.693a3.616,3.616,0,0,1,1.724,2.174,3.843,3.843,0,0,1-.246,2.811l-2.785,5.582a3.442,3.442,0,0,1-4.742,1.568l-4.363-2.392a3.21,3.21,0,0,0-3.553.334,24.091,24.091,0,0,1-2.832,1.949,3.558,3.558,0,0,0-1.659,3.782l.8,3.988a3.834,3.834,0,0,1-.482,2.765,3.507,3.507,0,0,1-2.227,1.623l-5.862,1.323a3.352,3.352,0,0,1-.739.083m-8.761-11.529a3.285,3.285,0,0,1,.9.125c.306.086.617.167.924.24a3.6,3.6,0,0,1,2.633,2.837l1.08,5.362a3.307,3.307,0,0,0,3.923,2.67l5.862-1.323a3.3,3.3,0,0,0,2.1-1.529,3.61,3.61,0,0,0,.453-2.6l-.8-3.988a3.778,3.778,0,0,1,1.76-4.016,23.869,23.869,0,0,0,2.807-1.932,3.4,3.4,0,0,1,3.77-.353l4.363,2.392a3.242,3.242,0,0,0,4.468-1.477l2.785-5.582a3.615,3.615,0,0,0,.231-2.645,3.4,3.4,0,0,0-1.623-2.046l-3.086-1.693a3.719,3.719,0,0,1-1.817-3.961c.053-.291.1-.59.147-.889a3.623,3.623,0,0,1,2.737-3.013l3.094-.7a3.3,3.3,0,0,0,2.1-1.529,3.608,3.608,0,0,0,.453-2.6l-1.243-6.156a3.309,3.309,0,0,0-3.921-2.669l-3.1.7a3.422,3.422,0,0,1-3.657-1.566c-.153-.249-.313-.5-.475-.743a3.82,3.82,0,0,1,.128-4.4l2.163-2.877a3.589,3.589,0,0,0,.693-2.562,3.49,3.49,0,0,0-1.232-2.32l-4.7-3.9a3.209,3.209,0,0,0-4.649.581l-3.062,4.07a3.459,3.459,0,0,1-3.573,1.307,22.866,22.866,0,0,0-3.313-.549,3.568,3.568,0,0,1-3.159-2.907l-.8-3.985a3.307,3.307,0,0,0-3.924-2.669L955.4,24.891a3.305,3.305,0,0,0-2.1,1.529,3.608,3.608,0,0,0-.453,2.6l1.082,5.361a3.811,3.811,0,0,1-1.309,3.728c-.252.2-.5.408-.752.619a3.356,3.356,0,0,1-3.831.4l-4.922-2.7a3.242,3.242,0,0,0-4.47,1.476l-2.787,5.586a3.616,3.616,0,0,0-.231,2.645,3.4,3.4,0,0,0,1.623,2.046L941.48,50.5a3.741,3.741,0,0,1,1.835,3.853l-.007.049a3.643,3.643,0,0,1-2.74,3.035l-4.388.989a3.3,3.3,0,0,0-2.1,1.529,3.608,3.608,0,0,0-.453,2.6l1.244,6.16a3.307,3.307,0,0,0,3.925,2.668l4.384-.992a3.44,3.44,0,0,1,3.673,1.586l.029.047a3.85,3.85,0,0,1-.189,4.311l-2.965,3.942a3.588,3.588,0,0,0-.693,2.563,3.49,3.49,0,0,0,1.234,2.321l4.7,3.895a3.209,3.209,0,0,0,4.649-.584l3.451-4.594a3.454,3.454,0,0,1,2.755-1.413" transform="translate(-800.158 -19.745)" fill="#366f90"/>
        <path id="Path_836342" data-name="Path 836342" d="M325.3,153.487l-65.695,19.735a1.766,1.766,0,0,1-2.2-1.365L237.471,85.129a1.892,1.892,0,0,1,1.3-2.276l52.7-13.663,12.83,6.6,22.21,75.325a1.9,1.9,0,0,1-1.209,2.375" transform="translate(-203.539 -58.703)" fill="#f5fbfa"/>
        <path id="Path_836343" data-name="Path 836343" d="M295.2,116.125h-.043l-.228,0a3.532,3.532,0,0,1-2.814-1.006,3.72,3.72,0,0,1-.959-2.667l.062-6.02a.346.346,0,0,1,.336-.353h0a.347.347,0,0,1,.332.361l-.062,6.021a3,3,0,0,0,.757,2.148,2.931,2.931,0,0,0,2.338.8l.245,0h.033a2.562,2.562,0,0,0,2.476-2.563l.243-10a1.115,1.115,0,0,0-1.046-1.17l-2.068-.057h-.028a1.107,1.107,0,0,0-1.074,1.111l-.14,5.789a1.173,1.173,0,0,0,.295.815,1.042,1.042,0,0,0,.751.355,1.056,1.056,0,0,0,.767-.313,1.167,1.167,0,0,0,.334-.8l.09-3.693a.371.371,0,0,1,.344-.348.349.349,0,0,1,.327.366l-.09,3.693a1.9,1.9,0,0,1-.543,1.3,1.734,1.734,0,0,1-1.247.509,1.694,1.694,0,0,1-1.221-.577,1.909,1.909,0,0,1-.479-1.325l.14-5.789a1.8,1.8,0,0,1,1.744-1.807h.046l2.068.057a1.811,1.811,0,0,1,1.7,1.9l-.243,10a3.257,3.257,0,0,1-3.149,3.259" transform="translate(-249.606 -85.614)" fill="#fff198"/>
        <path id="Path_836344" data-name="Path 836344" d="M379.225,255.918l-33.338,8.515a.749.749,0,0,1-1.012-.61l-.008-.536a.855.855,0,0,1,.7-.782l33.346-7.979a.875.875,0,0,1,.807.184c.4.387.133,1.047-.5,1.208" transform="translate(-295.654 -215.924)" fill="#b8d5dc"/>
        <path id="Path_836345" data-name="Path 836345" d="M373.71,308.766,352.7,314.332c-.328.087-.665-.241-.7-.684l-.045-.528a.632.632,0,0,1,.4-.709l21.058-5.038a.523.523,0,0,1,.537.249c.291.414.164,1.04-.232,1.145" transform="translate(-301.722 -260.775)" fill="#b8d5dc"/>
        <path id="Path_836346" data-name="Path 836346" d="M388.531,325.663l-28.8,7.43a.7.7,0,0,1-.9-.637l-.022-.533a.759.759,0,0,1,.589-.755l28.825-6.9a.714.714,0,1,1,.309,1.393" transform="translate(-307.605 -275.103)" fill="#b8d5dc"/>
        <path id="Path_836347" data-name="Path 836347" d="M546.935,269.743l-21.013,5.566c-.328.087-.665-.241-.7-.684l-.045-.528a.633.633,0,0,1,.4-.709l21.058-5.038a.523.523,0,0,1,.537.249c.291.414.164,1.04-.232,1.145" transform="translate(-450.228 -227.667)" fill="#b8d5dc"/>
        <path id="Path_836348" data-name="Path 836348" d="M418.539,175.738l-26.193,6.806a.681.681,0,0,1-.832-.653l-.029-.531a.71.71,0,0,1,.524-.74l26.223-6.274a.65.65,0,0,1,.651.222.731.731,0,0,1-.343,1.171" transform="translate(-335.617 -147.905)" fill="#b8d5dc"/>
        <path id="Path_836349" data-name="Path 836349" d="M371.085,224.663l-19.5,5.2c-.3.081-.623-.251-.664-.693l-.05-.527a.615.615,0,0,1,.359-.7l19.548-4.677a.491.491,0,0,1,.5.257c.277.417.168,1.039-.2,1.137" transform="translate(-300.798 -189.42)" fill="#b8d5dc"/>
        <path id="Path_836350" data-name="Path 836350" d="M532.309,188.344l-19.5,5.2c-.3.081-.623-.251-.664-.693l-.05-.527a.615.615,0,0,1,.359-.7L532,186.95a.491.491,0,0,1,.5.257c.277.417.168,1.039-.2,1.137" transform="translate(-439.015 -158.606)" fill="#b8d5dc"/>
        <path id="Path_836351" data-name="Path 836351" d="M388.527,431.464a4.229,4.229,0,0,1-4.037-3.318l-4.248-17.409a4.464,4.464,0,0,1,2.99-5.4l15.131-4.165a3.934,3.934,0,0,1,3.161.47,4.381,4.381,0,0,1,1.922,2.706l4.248,17.409a4.638,4.638,0,0,1-.442,3.357,4.179,4.179,0,0,1-2.548,2.041l-15.131,4.166a3.931,3.931,0,0,1-1.045.142m10.887-29.4a3.034,3.034,0,0,0-.807.11l-15.131,4.165a3.419,3.419,0,0,0-2.29,4.134l4.248,17.409a3.186,3.186,0,0,0,3.893,2.432l15.131-4.166a3.2,3.2,0,0,0,1.951-1.563,3.552,3.552,0,0,0,.339-2.571L402.5,404.609a3.356,3.356,0,0,0-1.472-2.073,3.036,3.036,0,0,0-1.614-.47" transform="translate(-325.865 -340.246)" fill="#b8d5dc"/>
        <path id="Path_836352" data-name="Path 836352" d="M423.517,386.848c-.819,0-2.206-1.053-8.923-6.3a1.858,1.858,0,0,1-.358-2.5,1.62,1.62,0,0,1,2.35-.38c2.226,1.739,4.666,3.61,6.182,4.73,1.14-2.756,3.787-9.078,9.988-23.807a1.639,1.639,0,0,1,2.22-.9,1.83,1.83,0,0,1,.848,2.358c-4.128,9.806-10.359,24.64-10.718,25.575a1.758,1.758,0,0,1-1,1.07,1.568,1.568,0,0,1-.594.152" transform="translate(-354.843 -303.344)" fill="#fff198"/>
        <path id="Path_836353" data-name="Path 836353" d="M616.191,69.19l1.839,7.932A1.383,1.383,0,0,0,619.7,78.2l9.317-2.411Z" transform="translate(-528.259 -58.703)" fill="#b8d5dc"/>
        <path id="Path_836354" data-name="Path 836354" d="M184.2,314.315l-6.693-12.989.1-.077,98.336-74.761.084.088,27.018,28.062L370.214,200.6l-12-16.829.336.05,43.059,6.321-.019.148-5.964,45.944-.2-.288-11.794-16.54L298.9,287.574l-.085-.118L270.365,248.18Zm-6.327-12.9,6.42,12.459,86.129-66.107.083.115,28.445,39.273,84.729-68.165.085.119L395.44,235.48l5.851-45.081-42.445-6.231,11.761,16.49-.112.09-67.473,54.283-27.108-28.154Z" transform="translate(-152.175 -155.919)" fill="#331832"/>
        <path id="Path_836355" data-name="Path 836355" d="M317.852,234.867l-44.673-6.559,12.367,17.341-70.129,56.419-29.388-40.576L78.405,344.1,88.634,366.16l92.808-71.233,29.7,41,88.191-70.95,12.365,17.339Z" transform="translate(-67.216 -193.704)" fill="#33ece0"/>
        <path id="Path_836356" data-name="Path 836356" d="M775.661,88.979a1.106,1.106,0,0,1-1.01-.674l-.6-1.381a.951.951,0,0,0-.844-.573,7.056,7.056,0,0,1-1.011-.1.927.927,0,0,0-1,.514l-.515,1.062a1.083,1.083,0,0,1-1.472.5l-1.6-.823a1.12,1.12,0,0,1-.558-.667,1.154,1.154,0,0,1,.062-.852l.692-1.428a.978.978,0,0,0-.1-1.022q-.091-.116-.176-.236a.923.923,0,0,0-.966-.363l-1.615.384a1.1,1.1,0,0,1-1.321-.845l-.412-1.788a1.15,1.15,0,0,1,.127-.842,1.087,1.087,0,0,1,.691-.516L765.418,79a.946.946,0,0,0,.716-.842l0-.017a.97.97,0,0,0-.516-.947l-1.2-.614a1.121,1.121,0,0,1-.558-.667,1.153,1.153,0,0,1,.061-.852l.794-1.641a1.083,1.083,0,0,1,1.472-.5l1.2.616a.92.92,0,0,0,1.051-.148.977.977,0,0,0,.233-1.1l-.579-1.339a1.154,1.154,0,0,1-.025-.857,1.1,1.1,0,0,1,.584-.635l1.634-.738a1.093,1.093,0,0,1,1.449.58l.673,1.559a.935.935,0,0,0,.854.574h.009c.1,0,.193,0,.289,0a.931.931,0,0,0,.859-.534l.691-1.428a1.084,1.084,0,0,1,1.471-.5l1.6.822a1.119,1.119,0,0,1,.558.667,1.153,1.153,0,0,1-.061.852l-.514,1.061a.978.978,0,0,0,.2,1.127,7.457,7.457,0,0,1,.688.772.936.936,0,0,0,.953.347l1.431-.34a1.105,1.105,0,0,1,1.321.846l.411,1.787a1.15,1.15,0,0,1-.127.842,1.087,1.087,0,0,1-.691.516l-1.012.24a.94.94,0,0,0-.718.87q-.008.132-.02.265a.965.965,0,0,0,.516.94l.846.435a1.12,1.12,0,0,1,.557.667,1.152,1.152,0,0,1-.061.851l-.794,1.64a1.083,1.083,0,0,1-1.472.5l-.845-.434a.915.915,0,0,0-1.046.143q-.1.09-.194.177a.964.964,0,0,0-.243,1.111l.422.977a1.154,1.154,0,0,1,.025.857,1.1,1.1,0,0,1-.584.635l-1.633.737a1.063,1.063,0,0,1-.438.095m-3.625-2.915a1.131,1.131,0,0,1,.189.016,6.878,6.878,0,0,0,.989.1,1.114,1.114,0,0,1,.987.674l.6,1.381a.933.933,0,0,0,1.238.493l1.633-.737a.936.936,0,0,0,.5-.539.974.974,0,0,0-.022-.722l-.423-.977a1.157,1.157,0,0,1,.287-1.316q.1-.085.19-.173a1.072,1.072,0,0,1,1.225-.169l.845.434a.924.924,0,0,0,1.257-.427l.794-1.64a.972.972,0,0,0,.052-.718.953.953,0,0,0-.474-.566l-.846-.435a1.14,1.14,0,0,1-.607-1.113q.012-.129.02-.258a1.108,1.108,0,0,1,.845-1.028l1.011-.24a.925.925,0,0,0,.589-.439.971.971,0,0,0,.107-.71l-.411-1.787a.942.942,0,0,0-1.128-.718l-1.431.34a1.1,1.1,0,0,1-1.114-.406,7.273,7.273,0,0,0-.672-.754,1.157,1.157,0,0,1-.237-1.333l.514-1.061a.972.972,0,0,0,.052-.718.952.952,0,0,0-.475-.566l-1.6-.822a.924.924,0,0,0-1.256.427l-.691,1.428a1.1,1.1,0,0,1-1.009.627c-.094,0-.188,0-.283,0h-.01a1.1,1.1,0,0,1-1-.675l-.673-1.559a.933.933,0,0,0-1.238-.493l-1.634.738a.935.935,0,0,0-.5.539.973.973,0,0,0,.021.722l.579,1.339a1.151,1.151,0,0,1-.263,1.293,1.081,1.081,0,0,1-1.24.184l-1.2-.616a.924.924,0,0,0-1.257.427l-.794,1.641a.972.972,0,0,0-.052.718.951.951,0,0,0,.475.566l1.2.615a1.145,1.145,0,0,1,.607,1.12,1.121,1.121,0,0,1-.844,1.009l-1.386.329a.925.925,0,0,0-.589.439.97.97,0,0,0-.107.71l.412,1.788a.942.942,0,0,0,1.128.718l1.615-.384a1.081,1.081,0,0,1,1.131.427q.084.117.172.23a1.159,1.159,0,0,1,.121,1.211l-.692,1.428a.973.973,0,0,0-.052.718.952.952,0,0,0,.475.567l1.6.823a.924.924,0,0,0,1.256-.427l.514-1.062a1.088,1.088,0,0,1,.982-.622" transform="translate(-654.275 -58.222)" fill="#331832"/>
        <path id="Path_836357" data-name="Path 836357" d="M809.551,116.3a3.519,3.519,0,0,1-1.614-.4A4.272,4.272,0,0,1,806,113.323a5.022,5.022,0,0,1,.108-3.584c.963-1.986,3.717-2.424,5.536-1.488a3.272,3.272,0,0,1,1.592,2.011,5.33,5.33,0,0,1-.279,3.78,3.821,3.821,0,0,1-3.4,2.254m-1.543-.551a3.527,3.527,0,0,0,4.8-1.782,5.142,5.142,0,0,0,.27-3.646,3.107,3.107,0,0,0-1.509-1.91c-1.752-.9-4.4-.489-5.321,1.412a4.837,4.837,0,0,0-.1,3.45A4.1,4.1,0,0,0,808.008,115.745Z" transform="translate(-690.742 -91.443)" fill="#331832"/>
        <path id="Path_836358" data-name="Path 836358" d="M692.986,263.981l-.1,2.337a1.575,1.575,0,0,0,1.439,1.69l2.653.128a1.563,1.563,0,0,0,1.583-1.546l.073-1.653a1.6,1.6,0,0,1,1.142-1.5q.185-.05.369-.108a1.446,1.446,0,0,1,1.613.583l.842,1.2a1.447,1.447,0,0,0,2.119.315l2.123-1.716a1.7,1.7,0,0,0,.3-2.267l-.843-1.2a1.7,1.7,0,0,1-.079-1.819q.1-.173.2-.349a1.478,1.478,0,0,1,1.658-.766l1.5.379a1.517,1.517,0,0,0,1.823-1.205l.616-2.769a1.622,1.622,0,0,0-1.12-1.947l-2.126-.537a1.574,1.574,0,0,1-1.131-1.25,11.982,11.982,0,0,0-.408-1.538,1.7,1.7,0,0,1,.509-1.861l1.375-1.111a1.7,1.7,0,0,0,.3-2.269l-1.6-2.267a1.447,1.447,0,0,0-2.118-.314l-1.849,1.494a1.432,1.432,0,0,1-1.621.147q-.188-.107-.378-.206a1.626,1.626,0,0,1-.841-1.526l.118-2.637a1.575,1.575,0,0,0-1.439-1.691l-2.655-.128a1.562,1.562,0,0,0-1.583,1.545l-.1,2.265a1.608,1.608,0,0,1-1.1,1.484l-.02.006a1.451,1.451,0,0,1-1.622-.58l-1.195-1.7a1.447,1.447,0,0,0-2.119-.315l-2.125,1.717a1.7,1.7,0,0,0-.3,2.269l1.2,1.7a1.708,1.708,0,0,1,.074,1.83l-.013.022a1.477,1.477,0,0,1-1.635.724l-2.059-.52a1.516,1.516,0,0,0-1.823,1.206L682,250.5a1.622,1.622,0,0,0,1.121,1.947l2.4.6a1.563,1.563,0,0,1,1.138,1.286q.036.223.08.446a1.681,1.681,0,0,1-.578,1.628l-1.85,1.493a1.7,1.7,0,0,0-.3,2.269l1.6,2.269a1.447,1.447,0,0,0,2.118.315l1.376-1.111a1.441,1.441,0,0,1,1.809-.012,10.466,10.466,0,0,0,1.267.841,1.643,1.643,0,0,1,.813,1.51m-.7-7.793c-1.854-2.635-.925-7.658,1.541-9.65s6.317-.824,8.168,1.811.473,6.778-1.993,8.77a5.189,5.189,0,0,1-7.716-.93" transform="translate(-584.638 -200.292)" fill="#fff198"/>
        <path id="Path_836359" data-name="Path 836359" d="M682.263,596.324a.82.82,0,0,1-.129-.011l-5.738-1.006a.833.833,0,0,1-.65-.962.808.808,0,0,1,.906-.69l5.738,1.005a.833.833,0,0,1,.65.962.8.8,0,0,1-.777.7" transform="translate(-579.306 -503.668)" fill="#331832"/>
        <path id="Path_836360" data-name="Path 836360" d="M1220.5,684.592a.751.751,0,0,1-.14-.013l-6.126-1.167a.835.835,0,0,1-.636-.972.79.79,0,0,1,.915-.676l6.126,1.167a.835.835,0,0,1,.636.972.8.8,0,0,1-.775.689" transform="translate(-1040.404 -578.418)" fill="#331832"/>
        <path id="Path_836361" data-name="Path 836361" d="M1021.122,262.816l-6.275-1.909a4.622,4.622,0,0,1-2.956-5.66l2.228-8.263a4.28,4.28,0,0,1,5.329-3.14l6.275,1.909a4.622,4.622,0,0,1,2.956,5.66l-2.228,8.263a4.28,4.28,0,0,1-5.329,3.14" transform="translate(-867.347 -206.735)" fill="#502a53"/>
        <path id="Path_836362" data-name="Path 836362" d="M1027.87,233.337l-14.048-4.273a3.775,3.775,0,0,1-2.414-4.622,3.5,3.5,0,0,1,4.352-2.564l14.048,4.273a3.775,3.775,0,0,1,2.414,4.622h0a3.5,3.5,0,0,1-4.352,2.564" transform="translate(-866.959 -188.124)" fill="#fff198"/>
        <path id="Path_836363" data-name="Path 836363" d="M629.91,342.358c7.246-26.874,33.966-42.319,59.679-34.5s40.684,35.948,33.438,62.822S689.061,413,663.348,405.18s-40.684-35.948-33.438-62.822" transform="translate(-538.455 -259.474)" fill="#764678"/>
        <path id="Path_836364" data-name="Path 836364" d="M661.1,369.916c6.576-24.388,30.824-38.4,54.159-31.306s36.921,32.623,30.345,57.011-30.824,38.4-54.159,31.306S654.529,394.3,661.1,369.916" transform="translate(-565.343 -285.723)" fill="#e6f1ef"/>
        <path id="Path_836365" data-name="Path 836365" d="M1023.743,394.8a.628.628,0,0,1-.2-.031.75.75,0,0,1-.474-.921l1.728-6.253a.685.685,0,0,1,.867-.5.75.75,0,0,1,.474.921l-1.728,6.253a.707.707,0,0,1-.671.534" transform="translate(-877.052 -328.392)" fill="#331832"/>
        <path id="Path_836366" data-name="Path 836366" d="M893.087,851.009a.628.628,0,0,1-.2-.031.75.75,0,0,1-.474-.921l1.728-6.253a.685.685,0,0,1,.867-.5.75.75,0,0,1,.474.921l-1.728,6.253a.707.707,0,0,1-.671.534" transform="translate(-765.041 -715.454)" fill="#331832"/>
        <path id="Path_836367" data-name="Path 836367" d="M1041.406,869a.7.7,0,0,1-.663-.508l-.773-2.465a.753.753,0,0,1,.442-.939.69.69,0,0,1,.885.469l.773,2.465a.754.754,0,0,1-.442.94.654.654,0,0,1-.221.038" transform="translate(-891.532 -733.934)" fill="#331832"/>
        <path id="Path_836368" data-name="Path 836368" d="M883.62,394.856a.7.7,0,0,1-.663-.508l-.985-3.142a.752.752,0,0,1,.443-.939.688.688,0,0,1,.884.469l.985,3.142a.753.753,0,0,1-.443.94.643.643,0,0,1-.22.039" transform="translate(-756.081 -331.08)" fill="#331832"/>
        <path id="Path_836369" data-name="Path 836369" d="M1142.5,806.771a.675.675,0,0,1-.482-.2l-1.588-1.605a.775.775,0,0,1-.025-1.05.671.671,0,0,1,.989-.026l1.588,1.605a.775.775,0,0,1,.025,1.05.676.676,0,0,1-.507.231" transform="translate(-977.505 -681.867)" fill="#331832"/>
        <path id="Path_836370" data-name="Path 836370" d="M778.9,460.673a.673.673,0,0,1-.482-.2l-1.728-1.747a.775.775,0,0,1-.025-1.05.672.672,0,0,1,.989-.026l1.728,1.747a.775.775,0,0,1,.025,1.05.676.676,0,0,1-.507.231" transform="translate(-665.663 -388.106)" fill="#331832"/>
        <path id="Path_836371" data-name="Path 836371" d="M771.852,799.2a.684.684,0,0,1-.562-.3.772.772,0,0,1,.144-1.039l2.446-1.929a.672.672,0,0,1,.978.153.772.772,0,0,1-.144,1.039l-2.446,1.929a.667.667,0,0,1-.416.147" transform="translate(-661.106 -675.172)" fill="#331832"/>
        <path id="Path_836372" data-name="Path 836372" d="M1142.119,466.749a.679.679,0,0,1-.521-.247.775.775,0,0,1,.054-1.049l2.175-2.069a.672.672,0,0,1,.988.058.775.775,0,0,1-.055,1.049l-2.175,2.069a.677.677,0,0,1-.467.19" transform="translate(-978.536 -392.989)" fill="#331832"/>
        <path id="Path_836373" data-name="Path 836373" d="M715.221,703.477a.707.707,0,0,1-.674-.544.749.749,0,0,1,.487-.914l1.786-.526a.7.7,0,0,1,.861.517.749.749,0,0,1-.487.914l-1.786.526a.672.672,0,0,1-.187.027" transform="translate(-612.557 -595.146)" fill="#331832"/>
        <path id="Path_836374" data-name="Path 836374" d="M1195.262,569.055a.707.707,0,0,1-.674-.544.749.749,0,0,1,.487-.914l2.673-.787a.693.693,0,0,1,.861.517.749.749,0,0,1-.487.914l-2.673.786a.671.671,0,0,1-.187.027" transform="translate(-1024.095 -480.876)" fill="#331832"/>
        <path id="Path_836375" data-name="Path 836375" d="M885.106,486.126a.693.693,0,0,1-.615-.388l-14.4-28.107a.767.767,0,0,1,.281-1.008.68.68,0,0,1,.948.3l14.4,28.107a.768.768,0,0,1-.281,1.008.669.669,0,0,1-.333.09" transform="translate(-745.852 -387.337)" fill="#331832"/>
        <path id="Path_836376" data-name="Path 836376" d="M969.162,532.34a1.424,1.424,0,0,1-1.082-.508,1.623,1.623,0,0,1,.1-2.2L986.5,511.932a1.405,1.405,0,0,1,2.067.1,1.623,1.623,0,0,1-.1,2.2l-18.324,17.705a1.413,1.413,0,0,1-.985.4" transform="translate(-829.606 -433.996)" fill="#fff198"/>
        <path id="Path_836377" data-name="Path 836377" d="M949.03,615.476a3.538,3.538,0,0,1,4.321-2.715,3.8,3.8,0,0,1,2.557,4.589,3.538,3.538,0,0,1-4.321,2.715,3.8,3.8,0,0,1-2.556-4.589" transform="translate(-813.504 -519.784)" fill="#502a53"/>
        <path id="Path_836378" data-name="Path 836378" d="M1165.681,1140s.038,1.622,1.072,2.08,4.027.87,2.909,1.913c-.642.6-3.668.212-4.522.212s-1.656.4-2.291-.212c-.7-.668,0-3.993,0-3.993a3.263,3.263,0,0,0,1.4.39,2.607,2.607,0,0,0,1.432-.39" transform="translate(-996.641 -967.212)" fill="#331832"/>
        <path id="Path_836379" data-name="Path 836379" d="M1164.625,817.035s.206,7.32-1.993,21.363c-1.588,10.138-3.463,20.354-4.382,25.251a3.674,3.674,0,0,1-3.36,3.1l-.884.038a3.129,3.129,0,0,1-3.091-3.474l2.231-33.134.55-10.906Z" transform="translate(-986.669 -693.198)" fill="#73b3ce"/>
        <path id="Path_836380" data-name="Path 836380" d="M1097.1,1140s.038,1.622,1.072,2.08,4.028.87,2.909,1.913c-.642.6-3.667.212-4.521.212s-1.656.4-2.291-.212c-.7-.668,0-3.993,0-3.993a3.263,3.263,0,0,0,1.4.39,2.607,2.607,0,0,0,1.432-.39" transform="translate(-937.844 -967.212)" fill="#331832"/>
        <path id="Path_836381" data-name="Path 836381" d="M1096.042,817.035s.206,7.32-1.993,21.363c-1.588,10.138-3.462,20.354-4.382,25.251a3.674,3.674,0,0,1-3.36,3.1l-.883.038a3.129,3.129,0,0,1-3.091-3.474l2.231-33.134.55-10.906Z" transform="translate(-927.873 -693.198)" fill="#73b3ce"/>
        <path id="Path_836382" data-name="Path 836382" d="M1094.3,857.563c.021.883,5.049,1.234,11.268,1.028s11.189-1.12,11.167-2-5.025-1.4-11.244-1.2-11.213,1.287-11.191,2.17" transform="translate(-938.136 -725.704)" fill="#331832"/>
        <path id="Path_836383" data-name="Path 836383" d="M1094.586,678.821s1.1-4.629,9.213-4.676c11.7-.068,10.617,11.351,11.7,28.705,0,0-11.525-1.731-22.441.757,0,0-1.013-17.713,1.528-24.786" transform="translate(-936.905 -571.965)" fill="#366f90"/>
        <path id="Path_836384" data-name="Path 836384" d="M1083.977,677.942l5.3,3.114s11.6,1.119,14.683.58a5.011,5.011,0,0,0,3.925-2.941,16.7,16.7,0,0,0-8.857-4.568,15.913,15.913,0,0,0-1.631-.2,15.083,15.083,0,0,0-2.819.06c-7.067.846-10.6,3.953-10.6,3.953" transform="translate(-929.29 -571.75)" fill="#366f90"/>
        <path id="Path_836385" data-name="Path 836385" d="M1152.587,631.866l.613-2.1.178-.611,1.048-3.594.138,3.575.083,2.146.026.679a2.138,2.138,0,0,0,.421,1.322,1,1,0,0,1-.317,1.557c-.766.351-2.869-.613-3.708-1.712.007,0,1.32-.583,1.518-1.262" transform="translate(-986.808 -530.745)" fill="#ffb27d"/>
        <path id="Path_836386" data-name="Path 836386" d="M1119.687,864.1s-6.738-2.106-20.693.785l-.108,2.132,20.457.768Z" transform="translate(-942.072 -732.503)" fill="#73b3ce"/>
        <path id="Path_836387" data-name="Path 836387" d="M1082.568,699.787c-.447.677.561,2.278,2.25,3.575s3.42,1.8,3.867,1.122-.561-2.278-2.25-3.575-3.42-1.8-3.867-1.122" transform="translate(-927.992 -593.465)" fill="#331832"/>
        <path id="Path_836388" data-name="Path 836388" d="M1228.021,705.385a11.575,11.575,0,0,0-1.476-2.922l.107-.085a11.735,11.735,0,0,1,1.5,2.969Z" transform="translate(-1051.513 -595.919)" fill="#331832"/>
        <path id="Path_836389" data-name="Path 836389" d="M1166.46,657.974a2.8,2.8,0,0,1-1.611-.952l1.7.391Z" transform="translate(-998.622 -557.438)" fill="#331832"/>
        <path id="Path_836390" data-name="Path 836390" d="M1185.94,616.658a5.01,5.01,0,0,1,0,1.961c-.214,1.091-1.258-1.59-1.258-1.59Z" transform="translate(-1015.624 -523.192)" fill="#5c305d"/>
        <path id="Path_836391" data-name="Path 836391" d="M1158.321,612.494c-.261-2.109-1.807-3.632-3.453-3.4s-2.77,2.125-2.509,4.234,1.807,3.632,3.453,3.4,2.77-2.125,2.51-4.234" transform="translate(-987.881 -516.753)" fill="#ffb27d"/>
        <path id="Path_836392" data-name="Path 836392" d="M1138.252,600.031l1.456-.16a1.052,1.052,0,0,0,.786-.506c.3-.5.657-.75,2.015-.7a2.858,2.858,0,0,0,3.04-1.976,1.042,1.042,0,0,0-1.554-1.171c-.864.465-.493-.675-1.323-.8-1.552-.226-1.842,1.044-3.113,1-1.666-.054-4.65,1.29-3.235,4.4Z" transform="translate(-973.85 -504.56)" fill="#331832"/>
        <path id="Path_836393" data-name="Path 836393" d="M1170.162,632.643a.065.065,0,0,0,.028-.05.064.064,0,0,0-.056-.07.648.648,0,0,0-.7.425.067.067,0,0,0,.027.087.065.065,0,0,0,.082-.029,1.026,1.026,0,0,1,.583-.353.058.058,0,0,0,.037-.01" transform="translate(-1002.545 -536.647)" fill="#080435"/>
        <path id="Path_836394" data-name="Path 836394" d="M1172.656,636.988c.038.149.152.246.254.216s.153-.174.115-.323-.152-.246-.254-.216-.153.174-.115.323" transform="translate(-1005.304 -540.161)" fill="#080435"/>
        <path id="Path_836395" data-name="Path 836395" d="M1186.622,630.786a.045.045,0,0,0,.033-.032.081.081,0,0,0-.024-.087.411.411,0,0,0-.621.075.081.081,0,0,0,0,.091.044.044,0,0,0,.067.01.605.605,0,0,1,.516-.063.039.039,0,0,0,.03.008" transform="translate(-1016.75 -534.982)" fill="#080435"/>
        <path id="Path_836396" data-name="Path 836396" d="M1186.474,635.038c-.018.153.052.289.157.3s.2-.1.222-.252-.052-.289-.157-.3-.2.1-.222.252" transform="translate(-1017.158 -538.571)" fill="#080435"/>
        <path id="Path_836397" data-name="Path 836397" d="M1138.547,628.044s1,2.3,2.43,2.473a2.131,2.131,0,0,1,1.277-2.826,7.306,7.306,0,0,0-3.707.353" transform="translate(-976.073 -532.471)" fill="#5c305d"/>
        <path id="Path_836398" data-name="Path 836398" d="M1152.012,633.223c.234.386.644.549.916.363a.783.783,0,0,0,.067-1.036c-.234-.386-.645-.549-.916-.363a.783.783,0,0,0-.067,1.036" transform="translate(-987.481 -536.302)" fill="#ffb27d"/>
        <path id="Path_836399" data-name="Path 836399" d="M1176.538,646.146a5.824,5.824,0,0,1-1.962.164.96.96,0,0,0,1.187.806c.6-.117.775-.971.775-.971" transform="translate(-1006.96 -548.21)" fill="#fff"/>
        <path id="Path_836400" data-name="Path 836400" d="M1188.047,596.743a.472.472,0,0,1-.493-.418l.082-.008a.383.383,0,0,0,.411.338h.022l0,.087Z" transform="translate(-1018.086 -505.934)" fill="#331832"/>
        <path id="Path_836401" data-name="Path 836401" d="M1185.231,604.423l-.011-.042c.018-.005,1.847-.582,1.924-1.582a.688.688,0,0,0-.137-.574c-.179-.164-.51-.085-.8-.012l-.131.031-.01-.043.132-.031c.3-.076.641-.159.838.021a.727.727,0,0,1,.15.611c-.078,1.03-1.876,1.6-1.953,1.62" transform="translate(-1016.086 -510.826)" fill="#fff"/>
        <path id="Path_836402" data-name="Path 836402" d="M1156.754,599.073a3.763,3.763,0,0,1-.549-.041l.006-.042a3.86,3.86,0,0,0,.543.039,2.755,2.755,0,0,0,2.111-.86l.032.028a2.809,2.809,0,0,1-2.143.876" transform="translate(-991.211 -507.505)" fill="#fff"/>
        <path id="Path_836403" data-name="Path 836403" d="M1161.17,903.571l-.1-.022c.017-.088,1.753-8.8,2.694-10.8a3.332,3.332,0,0,1,2.469-2.148l.008.112a3.233,3.233,0,0,0-2.383,2.087c-.934,1.987-2.667,10.685-2.684,10.772" transform="translate(-995.379 -755.614)" fill="#331832"/>
        <path id="Path_836404" data-name="Path 836404" d="M1218.676,697c0-21.067-16.079-38.145-35.913-38.145s-35.913,17.078-35.913,38.145,16.079,38.145,35.913,38.145,35.913-17.078,35.913-38.145" transform="translate(-983.19 -558.993)" fill="#fff198"/>
        <path id="Path_836405" data-name="Path 836405" d="M1254.045,738.994c0-16.923-12.917-30.643-28.85-30.643s-28.85,13.719-28.85,30.643,12.917,30.643,28.85,30.643,28.85-13.719,28.85-30.643" transform="translate(-1025.623 -600.987)" fill="#f5fbfa"/>
        <path id="Path_836406" data-name="Path 836406" d="M1293.831,786.232c0-12.263-9.36-22.2-20.905-22.2s-20.905,9.941-20.905,22.2,9.359,22.2,20.905,22.2,20.905-9.941,20.905-22.2" transform="translate(-1073.354 -648.225)" fill="#fff198"/>
        <path id="Path_836407" data-name="Path 836407" d="M1328.218,827.059c0-8.234-6.285-14.91-14.038-14.91s-14.038,6.676-14.038,14.91,6.285,14.91,14.038,14.91,14.038-6.676,14.038-14.91" transform="translate(-1114.608 -689.052)" fill="#f5fbfa"/>
        <path id="Path_836408" data-name="Path 836408" d="M1364.188,869.767a6.867,6.867,0,1,0-6.855,7.28,7.077,7.077,0,0,0,6.855-7.28" transform="translate(-1157.762 -731.76)" fill="#fff198"/>
        <path id="Path_836409" data-name="Path 836409" d="M1192.244,770.052s1.459-2.184,2.926-2.356,3.463.785,2.575,1.1a9.2,9.2,0,0,1-2.126.378s2.651-.008,2.385.651-2.573.643-2.573.643,3.156.257,2.714.793-2.838.323-2.838.323,2.927.364,2.4.974-2.417-.317-2.684.342-1.536,3.183-3.353,2.62Z" transform="translate(-1021.616 -651.32)" fill="#ffb27d"/>
        <path id="Path_836410" data-name="Path 836410" d="M1211.666,777.393l-.08-.079c.327-.379,1.084-.267,1.114-.261l-.015.114c-.007,0-.729-.107-1.018.227" transform="translate(-1038.689 -659.259)" fill="#fff198"/>
        <path id="Path_836411" data-name="Path 836411" d="M1208.936,785.977l-.065-.093a1.794,1.794,0,0,1,1.314-.3l-.017.113a1.751,1.751,0,0,0-1.232.282" transform="translate(-1036.361 -666.494)" fill="#fff198"/>
        <path id="Path_836412" data-name="Path 836412" d="M1208.556,793.3l-.086-.071c.318-.435,1.21-.3,1.246-.295l-.015.114c-.009,0-.865-.131-1.145.252" transform="translate(-1036.018 -672.73)" fill="#fff198"/>
        <path id="Path_836413" data-name="Path 836413" d="M1100.181,727.339c1.007-.074.366-5.625.366-5.625-5.843,1.092-8.475-.245-9.654-1.558-2.38-2.65-1.468-6.984-1.458-7.033,0,0,.128-.8-1.765-1.759a4.753,4.753,0,0,0-2.145-.57.89.89,0,0,0-.859.761c-.35,2.037-1.055,8.258,2.529,12.285,2.451,2.754,8.09,3.859,12.986,3.5" transform="translate(-929.624 -603.06)" fill="#ffb27d"/>
        <g id="Group_1018209" data-name="Group 1018209" transform="translate(158.61 119.175)" opacity="0.5">
          <g id="Group_1018208" data-name="Group 1018208">
            <g id="Group_1018207" data-name="Group 1018207" clip-path="url(#clip-path-3)">
              <path id="Path_836414" data-name="Path 836414" d="M1113.261,788.648a1.816,1.816,0,0,1-.871-.243,1.412,1.412,0,0,1-.846-1.656.8.8,0,0,1,.476-.414,1.6,1.6,0,0,1,1.256.182,1.411,1.411,0,0,1,.845,1.657.792.792,0,0,1-.476.413,1.183,1.183,0,0,1-.383.061m-.854-2.091a.914.914,0,0,0-.3.048.53.53,0,0,0-.319.27c-.175.376.159.962.729,1.279a1.327,1.327,0,0,0,1.048.163.526.526,0,0,0,.319-.269c.176-.377-.158-.963-.728-1.28a1.566,1.566,0,0,0-.745-.211" transform="translate(-1111.469 -786.273)" fill="#ec865c"/>
            </g>
          </g>
        </g>
        <path id="Path_836415" data-name="Path 836415" d="M1271.841,670.626a1.175,1.175,0,0,1,1.733.186c.891,1.283.844,3.79.268,2.985a11.89,11.89,0,0,1-1.006-1.912s1.221,3.065.535,3.117-1.7-2.6-1.7-2.6.924,3.1.261,2.929-1.6-2.575-1.6-2.575,1.057,2.981.291,2.76-1.018-1.88-1.276-2.557c-.244-.64.065-1.014.663-1.22,0,0,.483-.572.906-.6.162-.011.249-.217.349-.275a3.9,3.9,0,0,1,.577-.237" transform="translate(-1088.135 -568.712)" fill="#ffb27d"/>
        <path id="Path_836416" data-name="Path 836416" d="M531.443,715.22s4.217,8.5,4.983,8.029c1.132-.691,2.362-7.41,2.362-7.41l4.073.777s-.286,11.885-4.911,13.75c-4.426,1.785-8.6-6.056-8.6-6.056l-.76-7.6Z" transform="translate(-453.156 -606.815)" fill="#ffb27d"/>
        <path id="Path_836417" data-name="Path 836417" d="M591.757,684.716h0a1.357,1.357,0,0,1-1.6-1.109l-1.414-7.1a1.44,1.44,0,0,1,1.045-1.705h0a1.358,1.358,0,0,1,1.6,1.109l1.414,7.1a1.44,1.44,0,0,1-1.045,1.705" transform="translate(-504.697 -572.497)" fill="#331832"/>
        <path id="Path_836418" data-name="Path 836418" d="M595.916,540.58s10.1-8,14.163-17.253l7.968,33.839s-13.221-8.876-20.525-9.769a4.6,4.6,0,0,1-2.474-3.148,4.382,4.382,0,0,1,.869-3.67" transform="translate(-510.067 -444.007)" fill="#73b3ce"/>
        <path id="Path_836419" data-name="Path 836419" d="M688.731,538.448c2.228,9.463,6.818,16.4,10.251,15.486s4.411-9.319,2.182-18.782-6.818-16.4-10.251-15.486-4.411,9.319-2.182,18.782" transform="translate(-589.422 -440.832)" fill="#fff198"/>
        <path id="Path_836420" data-name="Path 836420" d="M709.221,614.133l5.5.192a1.577,1.577,0,0,1,1.489,1.25l.286,1.215a1.994,1.994,0,0,1-.908,2.186l-5,2.867a7.984,7.984,0,0,1-1.367-7.71" transform="translate(-607.6 -521.049)" fill="#764678"/>
        <path id="Path_836421" data-name="Path 836421" d="M747.148,619.812a3.783,3.783,0,0,1-1.486-2.4,2.242,2.242,0,0,1,.616-2.358l.065.105a2.088,2.088,0,0,0-.564,2.227,3.641,3.641,0,0,0,1.429,2.317Z" transform="translate(-639.192 -521.83)" fill="#331832"/>
        <path id="Path_836422" data-name="Path 836422" d="M569.971,637.153l-4.121,1.881a2.038,2.038,0,0,0-1.086,2.326l.405,1.721a1.9,1.9,0,0,0,2.081,1.5l4.326-.611s-1.32-.534-1.883-3.149a6.551,6.551,0,0,1,.278-3.668" transform="translate(-484.122 -540.58)" fill="#fff198"/>
        <path id="Path_836423" data-name="Path 836423" d="M600.445,643.885c-3.206-2.72-1.638-6.849-1.622-6.891l.109.049c-.015.04-1.549,4.083,1.588,6.743Z" transform="translate(-513.028 -540.446)" fill="#331832"/>
        <path id="Path_836424" data-name="Path 836424" d="M624.341,628.317c-4.778-5.645-2.606-10.949-2.584-11l.109.053c-.023.052-2.161,5.284,2.563,10.865Z" transform="translate(-532.592 -523.748)" fill="#331832"/>
        <path id="Path_836425" data-name="Path 836425" d="M595.546,699.123s.656,1.517-.652,2.143c-1.668.8-3.323.248-2.716-.343.12-.116,1.7-.865,1.7-.865s-3.75.758-3.632-.122,3.35-1.485,3.35-1.485-3.716.372-3.351-.421,3.3-1.362,3.3-1.362-3.613.572-3.169-.339,2.369-.8,3.194-.957c.78-.144,1.12.342,1.2,1.15a2.424,2.424,0,0,1,.443,1.3c-.029.208.179.37.219.512a5.533,5.533,0,0,1,.118.789" transform="translate(-505.996 -589.954)" fill="#ffb27d"/>
        <path id="Path_836426" data-name="Path 836426" d="M615.738,727.774l-.017-.124c1.907-.3,1.79-1.461,1.784-1.511l.118-.016c0,.013.143,1.334-1.885,1.651" transform="translate(-527.856 -616.065)" fill="#e28e57"/>
        <path id="Path_836427" data-name="Path 836427" d="M483.161,1149.761s.041,1.742,1.151,2.234,4.326.935,3.124,2.055c-.69.643-3.939.227-4.857.227s-1.779.425-2.461-.228c-.75-.718,0-4.289,0-4.289a3.507,3.507,0,0,0,1.5.419,2.8,2.8,0,0,0,1.538-.418" transform="translate(-411.318 -975.493)" fill="#331832"/>
        <path id="Path_836428" data-name="Path 836428" d="M393.835,1149.759s.041,1.742,1.151,2.234,4.326.935,3.124,2.055c-.69.643-3.939.227-4.857.227s-1.779.425-2.461-.228c-.75-.718,0-4.289,0-4.289a3.505,3.505,0,0,0,1.5.418,2.8,2.8,0,0,0,1.538-.418" transform="translate(-334.74 -975.491)" fill="#331832"/>
        <path id="Path_836429" data-name="Path 836429" d="M479.14,834.643s.205,7.293-1.986,21.283c-1.582,10.1-3.45,20.278-4.366,25.157a3.66,3.66,0,0,1-3.348,3.091l-.88.038a3.117,3.117,0,0,1-3.079-3.461L467.7,847.74l.548-10.865Z" transform="translate(-399.048 -708.137)" fill="#fff198"/>
        <path id="Path_836430" data-name="Path 836430" d="M420.758,856.084c.1.888,4.826.78,10.612,0s10.289-2.109,10.188-3-4.768-1-10.554-.218-10.347,2.325-10.246,3.213" transform="translate(-360.713 -723.16)" fill="#331832"/>
        <path id="Path_836431" data-name="Path 836431" d="M396.766,865.183l-12.352,42.145a4.025,4.025,0,0,1-3.716,3l-.742.013a2.946,2.946,0,0,1-2.773-3.563l6.757-39.6a1.275,1.275,0,0,1,.853-.976c2.317-.71,12.2-2.766,11.974-1.023" transform="translate(-323.317 -733.468)" fill="#fff198"/>
        <path id="Path_836432" data-name="Path 836432" d="M422.2,690.615a7.422,7.422,0,0,1,7.5-4.688c5.855.223,10.275,8.395,11.371,25.958a34.892,34.892,0,0,0-20.818,2.976s-.623-17.087,1.949-24.246" transform="translate(-360.222 -581.956)" fill="#764678"/>
        <path id="Path_836433" data-name="Path 836433" d="M402.305,689.425l4.6,3.56s10.661,1.133,13.492.588a4.764,4.764,0,0,0,3.607-2.977,15.059,15.059,0,0,0-8.138-4.623,13.31,13.31,0,0,0-1.5-.2,13.721,13.721,0,0,0-2.59.06,24,24,0,0,0-9.475,3.591" transform="translate(-344.895 -581.802)" fill="#764678"/>
        <path id="Path_836434" data-name="Path 836434" d="M400.719,709.191c-.452.684.482,2.236,2.086,3.467s3.27,1.675,3.722.991-.482-2.236-2.086-3.467-3.27-1.675-3.722-.991" transform="translate(-343.438 -601.427)" fill="#331832"/>
        <path id="Path_836435" data-name="Path 836435" d="M474.83,918.836l-.2-.069,2.657-8.577a8.267,8.267,0,0,1,3.554-4.655l.1.191a8.061,8.061,0,0,0-3.46,4.534Z" transform="translate(-406.901 -768.283)" fill="#020202"/>
        <path id="Path_836436" data-name="Path 836436" d="M450.624,861.338a33.062,33.062,0,0,0-6.727-.08,64.856,64.856,0,0,0-11.566,2.029l1.985.354,12.431.523,2.5-2.18Z" transform="translate(-370.636 -730.613)" fill="#fff198"/>
        <path id="Path_836437" data-name="Path 836437" d="M532.934,718.484l-1.381-2.741.126-.071,1.381,2.741Z" transform="translate(-455.699 -607.198)" fill="#331832"/>
        <path id="Path_836438" data-name="Path 836438" d="M508.6,648.368l-.025-.069c.007,0,.743-.3.891-.882a1.133,1.133,0,0,0-.277-.971c-.123-.162-.235-.308-.339-.441-.712-.921-.978-1.266-.915-2.108l.07.006c-.061.812.181,1.125.9,2.055.1.134.216.28.339.442a1.205,1.205,0,0,1,.29,1.037,1.645,1.645,0,0,1-.934.932" transform="translate(-435.442 -546.302)" fill="#331832"/>
        <path id="Path_836439" data-name="Path 836439" d="M488.873,643.917a3.929,3.929,0,0,0,.84,2.526c.952,1.221.207,2.309-.927,1.943s-1.368,1.142-2.835.526,2.922-4.995,2.922-4.995" transform="translate(-416.346 -546.319)" fill="#331832"/>
        <path id="Path_836440" data-name="Path 836440" d="M469.578,646.284l.516-1.908.151-.558.886-3.279.169,3.251.1,1.951.029.55a1.608,1.608,0,0,0,1,1.327s.48.616-.407,1.054c-1.043.515-2.936-.19-3.7-1.181a1.5,1.5,0,0,0,1.255-1.207" transform="translate(-401.492 -543.453)" fill="#ffb27d"/>
        <path id="Path_836441" data-name="Path 836441" d="M480.595,662.057c0,.018.006.035.01.053a1.985,1.985,0,0,0,1.3,1.371l.006-.007-.1-1.951a1.481,1.481,0,0,0-1.055.028.472.472,0,0,0-.16.5" transform="translate(-412.002 -561.188)" fill="#f09962"/>
        <path id="Path_836442" data-name="Path 836442" d="M474.909,622.415c-.248-2.062-1.725-3.56-3.3-3.346s-2.648,2.058-2.4,4.12,1.725,3.56,3.3,3.346,2.648-2.058,2.4-4.12" transform="translate(-402.223 -525.22)" fill="#ffb27d"/>
        <path id="Path_836443" data-name="Path 836443" d="M470.243,642.205a.678.678,0,0,0,1.017-.062.869.869,0,0,0-.294-1.088.678.678,0,0,0-1.017.062.869.869,0,0,0,.294,1.089" transform="translate(-402.806 -543.725)" fill="#ffb27d"/>
        <path id="Path_836444" data-name="Path 836444" d="M486.331,642.869a.068.068,0,0,0,.038-.047.07.07,0,0,0-.047-.085.683.683,0,0,0-.815.313.073.073,0,0,0,.014.1.069.069,0,0,0,.091-.015,1.075,1.075,0,0,1,.677-.26.061.061,0,0,0,.041,0" transform="translate(-416.213 -545.288)" fill="#080435"/>
        <path id="Path_836445" data-name="Path 836445" d="M488.386,647.464c.015.165.118.289.231.278s.192-.154.177-.319-.118-.289-.231-.278-.192.154-.177.319" transform="translate(-418.691 -549.057)" fill="#080435"/>
        <path id="Path_836446" data-name="Path 836446" d="M502.712,642.4a.064.064,0,0,0,.052-.028.072.072,0,0,0-.013-.1.677.677,0,0,0-.866-.041.072.072,0,0,0-.022.1.069.069,0,0,0,.09.023,1.058,1.058,0,0,1,.719.033.062.062,0,0,0,.039.014" transform="translate(-430.238 -544.776)" fill="#080435"/>
        <path id="Path_836447" data-name="Path 836447" d="M502.957,646.723c-.045.158.006.315.114.35s.233-.065.278-.224-.006-.315-.114-.35-.233.065-.278.224" transform="translate(-431.17 -548.504)" fill="#080435"/>
        <path id="Path_836448" data-name="Path 836448" d="M449.926,612.583a1.745,1.745,0,0,1-1.4,1.731c-1.5.428-2.464,1.255-2.12,2.392s3.091,3.222,1.4,4.4-1.518-.617-3.425.054-2.594-2.056-1.441-3.849.095-5.98,5.168-6.477,3.738,4.034,3.738,4.034-1.749-.859-1.918-2.289" transform="translate(-379.246 -518.221)" fill="#331832"/>
        <path id="Path_836449" data-name="Path 836449" d="M460.68,628.4l-.021-.039a1.071,1.071,0,0,0,.588-.784c.115-.877-.99-2.051-1.963-3.087-.259-.275-.5-.535-.721-.784a2.179,2.179,0,0,1-.406-2.372,2.21,2.21,0,0,1,2.338-1.2,2.43,2.43,0,0,0,2.578-1.112l.036.02a2.391,2.391,0,0,1-2.21,1.158,3.86,3.86,0,0,1-.408-.022,2.169,2.169,0,0,0-2.3,1.172,2.105,2.105,0,0,0,.4,2.321c.218.249.462.509.719.784.981,1.044,2.093,2.227,1.975,3.125a1.127,1.127,0,0,1-.608.816" transform="translate(-392.614 -525.2)" fill="#fff"/>
        <path id="Path_836450" data-name="Path 836450" d="M499.276,634.969l.04-.044a3.381,3.381,0,0,1-.085-.941.57.57,0,0,0-.109-.051,3.45,3.45,0,0,0,.154,1.037m-.134-.278a3.341,3.341,0,0,0,.073.348,1.736,1.736,0,0,0,.779,1.147l.008,0a.781.781,0,0,0,.445.075.849.849,0,0,0,.3-.1,1.144,1.144,0,0,0,.267-.207,1.553,1.553,0,0,0,.2-.244,2.687,2.687,0,0,0,.381-1.027,2.576,2.576,0,0,0-.842-2.652.775.775,0,0,0-.129-.051.741.741,0,0,0-.433,0,.95.95,0,0,0-.188.077,1.116,1.116,0,0,0-.2.144,1.433,1.433,0,0,0-.1.1,2.46,2.46,0,0,0-.542,1.231c-.008.042-.014.083-.019.124,0,0,0,.007,0,.012h0c-.011.085-.018.172-.024.258a3.6,3.6,0,0,0,.035.764m2.358-.317c-.008.1-.021.192-.037.287a2.608,2.608,0,0,1-.338.94,1.534,1.534,0,0,1-.182.239,1.039,1.039,0,0,1-.256.2.681.681,0,0,1-.616.029.119.119,0,0,1-.021-.008,1.651,1.651,0,0,1-.733-1.14,3.381,3.381,0,0,1-.085-.941c0-.089.012-.178.025-.268.006-.052.014-.1.023-.155a2.284,2.284,0,0,1,.519-1.177,1.1,1.1,0,0,1,.259-.206.692.692,0,0,1,.182-.07.465.465,0,0,1,.1-.019h0a.632.632,0,0,1,.263.032.793.793,0,0,1,.09.037,2.294,2.294,0,0,1,.807,2.21.013.013,0,0,1,0,.007" transform="translate(-427.877 -536.165)" fill="#fff198"/>
        <g id="Group_1018212" data-name="Group 1018212" transform="translate(67.881 95.525)" opacity="0.3">
          <g id="Group_1018211" data-name="Group 1018211">
            <g id="Group_1018210" data-name="Group 1018210" clip-path="url(#clip-path-4)">
              <path id="Path_836451" data-name="Path 836451" d="M475.69,631.818a2.379,2.379,0,0,0,1.124,2.446c.721.254,1.387-.43,1.487-1.527a2.379,2.379,0,0,0-1.124-2.445c-.721-.254-1.387.43-1.487,1.527" transform="translate(-475.677 -630.239)" fill="#fff"/>
            </g>
          </g>
        </g>
        <g id="Group_1018215" data-name="Group 1018215" transform="translate(71.245 95.91)" opacity="0.3">
          <g id="Group_1018214" data-name="Group 1018214">
            <g id="Group_1018213" data-name="Group 1018213" clip-path="url(#clip-path-5)">
              <path id="Path_836452" data-name="Path 836452" d="M499.265,634.331a2.563,2.563,0,0,0,.994,2.5c.649.279,1.257-.388,1.357-1.49a2.563,2.563,0,0,0-.994-2.5c-.649-.279-1.257.388-1.357,1.49" transform="translate(-499.251 -632.778)" fill="#fff"/>
            </g>
          </g>
        </g>
        <path id="Path_836453" data-name="Path 836453" d="M475.128,630.847a3.1,3.1,0,0,0,.283.905,1.786,1.786,0,0,0,.857.88.59.59,0,0,0,.07.028.991.991,0,0,0,.468.051.934.934,0,0,0,.253-.072,1.172,1.172,0,0,0,.2-.109,2.054,2.054,0,0,0,.748-1.524c.006-.062.01-.126.012-.189,0-.087,0-.173,0-.259a2.857,2.857,0,0,0-.663-1.767,1.413,1.413,0,0,0-.583-.4,1,1,0,0,0-.924.134,1.948,1.948,0,0,0-.721,1.327c-.01.063-.018.129-.025.194s-.011.139-.012.206a3.251,3.251,0,0,0,.036.6M477.5,632.1a1.294,1.294,0,0,1-.313.319,1.03,1.03,0,0,1-.137.078.888.888,0,0,1-.675.038c-.025-.009-.051-.018-.075-.029a1.645,1.645,0,0,1-.77-.8,3.022,3.022,0,0,1-.316-1.423c0-.076.006-.153.012-.229a2.8,2.8,0,0,1,.048-.311,1.75,1.75,0,0,1,.054-.208.005.005,0,0,1,0,0,2.1,2.1,0,0,1,.126-.328,1.461,1.461,0,0,1,.462-.573.888.888,0,0,1,.814-.119,1.286,1.286,0,0,1,.519.356,2.71,2.71,0,0,1,.64,1.711c0,.088,0,.174,0,.261,0,.049,0,.1-.009.149a2.314,2.314,0,0,1-.371,1.094.042.042,0,0,1-.009.013" transform="translate(-407.293 -533.094)" fill="#fff198"/>
        <path id="Path_836454" data-name="Path 836454" d="M493.992,643.35a.112.112,0,0,1-.079-.019,1.021,1.021,0,0,0-.869-.044.122.122,0,0,1-.151-.08.126.126,0,0,1,.076-.159,1.223,1.223,0,0,1,1.072.068.132.132,0,0,1,.036.175.115.115,0,0,1-.085.059" transform="translate(-422.551 -545.506)" fill="#fff198"/>
        <path id="Path_836455" data-name="Path 836455" d="M494.125,657.705c0,.222-.135.4-.3.4s-.3-.18-.3-.4.135-.4.3-.4.3.18.3.4" transform="translate(-423.094 -557.677)" fill="#fff"/>
        <path id="Path_836456" data-name="Path 836456" d="M358.417,744.962a74.734,74.734,0,0,1,6.176-19.564,20.884,20.884,0,0,1,1.566-2.859c.433-.646-.111-2.219-1.111-3.044-.938-.775-2.5-.823-2.769-.515a18.354,18.354,0,0,0-1.838,3.218c-2.911,5.744-4.612,11.839-6.039,21.756Z" transform="translate(-303.828 -609.855)" fill="#ffb27d"/>
        <path id="Path_836457" data-name="Path 836457" d="M347.178,881.219a12.327,12.327,0,0,1,1-2.476s3.135.138,3.278.448c.329.716.687,2.289,1,3.012.137.313.532,1.4.268,1.593-.23.166-.916-.535-1.207-.912-.329,2.265-1.731,5.406-1.354.6h-.007c-.079.482-.519,3.526-1.061,3.157-.478-.326-.235-2.623-.113-3.417l-.02-.006c-.188.8-.749,3.094-1.113,2.622-.457-.592.007-3,.007-3s-.342,2.178-.945,1.567c-.411-.417,0-2.143.168-2.9a1.392,1.392,0,0,1,.1-.285" transform="translate(-297.257 -745.553)" fill="#ffb27d"/>
        <path id="Path_836458" data-name="Path 836458" d="M651.139,801.034A16.139,16.139,0,0,1,659.5,781.4c7.784-3.854,16.51.792,18.976,8.92s-1.74,16.84-9.392,19.459-15.483-.622-17.949-8.75" transform="translate(-557.551 -661.801)" fill="#fff198"/>
        <path id="Path_836459" data-name="Path 836459" d="M701.385,831.417a1.411,1.411,0,0,1-.842-.281l-7.714-5.735a1.623,1.623,0,0,1-.361-2.171,1.417,1.417,0,0,1,2.044-.383l5.984,4.45,2.847-11.632a1.454,1.454,0,0,1,1.789-1.116,1.569,1.569,0,0,1,1.051,1.9l-3.378,13.8a1.529,1.529,0,0,1-.913,1.07,1.4,1.4,0,0,1-.507.1" transform="translate(-593.424 -691.043)" fill="#fff"/>
        <path id="Path_838851" data-name="Path 838851" d="M0,0,1.354-.018.577,54.968l-1.354.018Z" transform="matrix(0.235, -0.972, 0.972, 0.235, 144.249, 124.141)" fill="#331832"/>
        <path id="Path_836460" data-name="Path 836460" d="M1342.039,868.531l6.9,6.785-10.08.494,5.415-2.239Z" transform="translate(-1147.804 -736.889)" fill="#331832"/>
        <path id="Path_836461" data-name="Path 836461" d="M991.443,787.922l2.653,5.056-4.087,1.94-2.438-.388,1.2-1.14-2.345.752-2.986-.728,3.717-2.522.192-3.783,1.681.339.822,1.746.183-1.795Z" transform="translate(-843.103 -667.808)" fill="#fff198"/>
        <path id="Path_838852" data-name="Path 838852" d="M0,0,.183,0,.126,4.338l-.183,0Z" transform="translate(145.291 119.553) rotate(-13.363)" fill="#331832"/>
        <path id="Path_836462" data-name="Path 836462" d="M1020.472,823.024l-.118-.148,2.8-2.494.118.148Z" transform="translate(-874.746 -696.038)" fill="#331832"/>
        <path id="Path_838853" data-name="Path 838853" d="M0,0,.193,0,.075,7.239l-.193,0Z" transform="translate(144.032 123.178) rotate(-74.192)" fill="#331832"/>
        <path id="Path_838854" data-name="Path 838854" d="M0,0,55.391-1.291,55.361.054-.03,1.344Z" transform="translate(146.862 165.402) rotate(-24.649)" fill="#331832"/>
        <path id="Path_836463" data-name="Path 836463" d="M1337.722,926.027l9.853-.562-7.011,5.939.578-3.3Z" transform="translate(-1146.825 -785.193)" fill="#331832"/>
        <path id="Path_836464" data-name="Path 836464" d="M1016.813,1060.8l5.03,2.229-2.081,4.21-2.141,1.3.282-1.686-1.4,2.131-2.77,1.391,1.451-4.424-2.053-3.1,1.518-.838,1.663.832-.9-1.53Z" transform="translate(-868.549 -900.012)" fill="#fff198"/>
        <path id="Path_836465" data-name="Path 836465" d="M1023.1,1072.958l-3.212-2.707.113-.152,3.212,2.707Z" transform="translate(-874.351 -907.905)" fill="#331832"/>
        <path id="Path_836466" data-name="Path 836466" d="M1051.554,1086.28l-.179-.039.744-3.8.179.038Z" transform="translate(-901.34 -918.378)" fill="#331832"/>
        <path id="Path_836467" data-name="Path 836467" d="M1027.344,1078.011l-.069-.178,6.663-2.919.069.178Z" transform="translate(-880.68 -911.99)" fill="#331832"/>
        <path id="Path_836468" data-name="Path 836468" d="M849.413,1000.5l-.034-4.986a1.454,1.454,0,0,0-1.161-1.391l-3.779-.712a1.4,1.4,0,0,0-1.49.728l-2.475,5.133-1.028-.559,2.491-5.165a2.532,2.532,0,0,1,2.7-1.345l3.779.713a2.667,2.667,0,0,1,2.113,2.578l.035,5Z" transform="translate(-719.655 -841.783)" fill="#366f90"/>
        <path id="Path_836469" data-name="Path 836469" d="M807.272,1042.185l-19.835-.428a2.6,2.6,0,0,1-2.49-2.688l.194-14.763a2.591,2.591,0,0,1,2.776-2.609l23.853,2.245a2.649,2.649,0,0,1,2.18,3.495l-4.212,12.946a2.556,2.556,0,0,1-2.465,1.8" transform="translate(-672.932 -866.83)" fill="#33ece0"/>
        <path id="Path_836470" data-name="Path 836470" d="M799.638,1063.548a.1.1,0,0,1-.033-.007l-14.167-5.725a.1.1,0,0,1-.054-.129.093.093,0,0,1,.121-.058l14.14,5.714,13.976-3.435a.092.092,0,0,1,.113.075.1.1,0,0,1-.071.12l-14,3.442a.072.072,0,0,1-.021,0" transform="translate(-673.301 -897.32)" fill="#331832"/>
        <path id="Path_836471" data-name="Path 836471" d="M881.532,1090.726h0a.857.857,0,0,1-.726-.956l.093-.828a.839.839,0,0,1,.917-.758.857.857,0,0,1,.726.956l-.092.828a.839.839,0,0,1-.917.758" transform="translate(-755.108 -923.245)" fill="#331832"/>
        <path id="Path_836472" data-name="Path 836472" d="M1654.2,696.046s-2.191.2-3.049-.7-1.308-2.734-.663-2.3a8.152,8.152,0,0,1,1.32,1.24s-1.368-1.783-.834-1.939,1.71,1.406,1.71,1.406-1.467-2.258-.917-2.234,1.653,1.748,1.653,1.748-1.286-2.158-.648-2.114,1.052,1.791,1.586,1.634a1.594,1.594,0,0,1,1.921,1.746Z" transform="translate(-1414.694 -586.395)" fill="#ffb27d"/>
        <path id="Path_836473" data-name="Path 836473" d="M1693.486,719.547c-.09-5.837.473-7.183-4.925-9.484a35.54,35.54,0,0,0-4.949-1.145c-4.543-.415-7.926,5.342-8.433,6.612l-.012.029c-.085.213-.168.429-.253.659-.076.206-.145.4-.21.59-.032.093-.063.184-.094.279-.1.313-1.36-6.58-2.142-7.491-.479-.558-3.349,1.4-3.349,1.4a41.941,41.941,0,0,0,.49,10.284c1.245,4.813,5.661,3.921,6.191,3.349-.051,1.265-.176,5.149-.163,6.591a29.371,29.371,0,0,1,18.452,2.439c.017-.23-.515-8.5-.6-14.106" transform="translate(-1430.81 -601.45)" fill="#68a1bf"/>
        <path id="Path_836474" data-name="Path 836474" d="M1743.108,1142.724s-.04,1.67-1.111,2.141-4.178.9-3.017,1.969c.666.616,3.8.218,4.69.218s1.718.407,2.376-.218c.724-.687,0-4.11,0-4.11a3.405,3.405,0,0,1-1.452.4,2.72,2.72,0,0,1-1.486-.4" transform="translate(-1490.603 -969.523)" fill="#331832"/>
        <path id="Path_836475" data-name="Path 836475" d="M1721.6,856.316s-1.032,3.477,1.084,16.884c1.528,9.679,2.811,19.336,3.7,24.012a3.525,3.525,0,0,0,3.233,2.963l.85.036a3,3,0,0,0,2.973-3.317l-2.147-31.635-.529-10.413Z" transform="translate(-1475.703 -725.277)" fill="#366f90"/>
        <path id="Path_836476" data-name="Path 836476" d="M1734.007,851.831c-.267,1.213-4.53,2.484-9.633,1.2s-9.084-2.651-8.817-3.864,4.682-1.812,9.785-.527,8.932,1.979,8.665,3.192" transform="translate(-1470.731 -719.402)" fill="#331832"/>
        <path id="Path_836477" data-name="Path 836477" d="M1829.37,1142.722s-.04,1.67-1.112,2.141-4.177.9-3.017,1.969c.666.616,3.8.218,4.69.218s1.718.407,2.376-.218c.724-.688,0-4.11,0-4.11a3.4,3.4,0,0,1-1.452.4,2.717,2.717,0,0,1-1.485-.4" transform="translate(-1564.555 -969.521)" fill="#331832"/>
        <path id="Path_836478" data-name="Path 836478" d="M1723.087,860.535l9.557,18.547,7.432,23.225a3.881,3.881,0,0,0,3.588,2.879l.717.013a2.828,2.828,0,0,0,2.678-3.415L1739.8,862.7c-.095-.451-1.723-1.045-2.14-1.154-4.023-1.053-14.8-2.686-14.576-1.015" transform="translate(-1477.195 -729.496)" fill="#366f90"/>
        <path id="Path_836479" data-name="Path 836479" d="M1763.84,917.394l-2.632-10.478c-.093-.3-.187-.631-.283-.976-.48-1.708-1.077-3.833-2.5-4.47l.078-.2c1.511.676,2.123,2.855,2.615,4.605.1.343.189.673.283.976l2.634,10.484Z" transform="translate(-1507.491 -764.669)" fill="#020202"/>
        <path id="Path_836480" data-name="Path 836480" d="M1767.173,623.881s-.074-2.683,2.178-2.719,1.605,1.7,1.974,2.188-.765,1.738-1.853,1.819-2.3-1.289-2.3-1.289" transform="translate(-1514.992 -527.013)" fill="#331832"/>
        <path id="Path_836481" data-name="Path 836481" d="M1774.391,670.438a3.614,3.614,0,0,1-3.092,1.4c-1.911,0-1.02-2.073-1.02-2.073a.718.718,0,0,0,.765-.755l.047-.606.023-.3.076-.96.067-.862.276-3.534.881,3.6.15.611.516,2.109a1.877,1.877,0,0,0,1.3,1.373l.01,0" transform="translate(-1517.478 -562.292)" fill="#ffb27d"/>
        <path id="Path_836482" data-name="Path 836482" d="M1778.822,690.519a2.3,2.3,0,0,1-1.449,1.146l.076-.96c.552-.115,1.373-.186,1.373-.186" transform="translate(-1523.736 -585.858)" fill="#331832"/>
        <path id="Path_836483" data-name="Path 836483" d="M1793.549,667.684a4.116,4.116,0,0,0-.36,1.74c-.089,1.806-2.1,1.852-2.4,1.218-.038-.078.935-2.855.935-2.855l.686-.153Z" transform="translate(-1535.232 -566.441)" fill="#331832"/>
        <path id="Path_836484" data-name="Path 836484" d="M1759.1,642.668c.687-2.144,2.581-3.4,4.231-2.811s2.43,2.81,1.743,4.954-2.581,3.4-4.231,2.811-2.43-2.81-1.743-4.954" transform="translate(-1507.859 -542.75)" fill="#ffb27d"/>
        <path id="Path_836485" data-name="Path 836485" d="M1764.235,636.592c.045.149-1.065,1.978,2.294,3.715s2.688-3.509.129-4.54c-3.695-1.489-5.089.966-5.035,2.049s2.612-1.223,2.612-1.223" transform="translate(-1510.233 -539.008)" fill="#331832"/>
        <path id="Path_836486" data-name="Path 836486" d="M1794.15,663.223s.924,2.109-.1,3.56c0,0,1.14-.66,1.273-1.011a15.291,15.291,0,0,0,.326-1.722Z" transform="translate(-1538.037 -562.699)" fill="#331832"/>
        <path id="Path_836487" data-name="Path 836487" d="M1791.584,667.881a.756.756,0,0,1-1.082-.3.925.925,0,0,1,.539-1.094.756.756,0,0,1,1.082.3.925.925,0,0,1-.538,1.094" transform="translate(-1534.954 -565.378)" fill="#ffb27d"/>
        <path id="Path_836488" data-name="Path 836488" d="M1779.234,665.053a.078.078,0,0,1-.032-.059.074.074,0,0,1,.068-.079.769.769,0,0,1,.813.522.078.078,0,0,1-.035.1.077.077,0,0,1-.1-.037,1.216,1.216,0,0,0-.675-.434.07.07,0,0,1-.044-.013" transform="translate(-1525.305 -564.131)" fill="#080435"/>
        <path id="Path_836489" data-name="Path 836489" d="M1778.731,670.136c-.05.173-.186.281-.305.243s-.175-.209-.125-.382.186-.281.3-.243.175.209.125.382" transform="translate(-1524.516 -568.234)" fill="#080435"/>
        <path id="Path_836490" data-name="Path 836490" d="M1761.247,661.209a.073.073,0,0,1-.051-.042.077.077,0,0,1,.034-.1.747.747,0,0,1,.94.157.079.079,0,0,1,0,.107.076.076,0,0,1-.1,0,1.172,1.172,0,0,0-.781-.131.069.069,0,0,1-.045.006" transform="translate(-1509.863 -560.784)" fill="#080435"/>
        <path id="Path_836491" data-name="Path 836491" d="M1763.219,666.1c.017.18-.07.335-.194.348s-.237-.123-.254-.3.07-.335.194-.348.237.123.254.3" transform="translate(-1511.217 -564.882)" fill="#080435"/>
        <g id="Group_1018218" data-name="Group 1018218" transform="translate(253.149 99.76)" opacity="0.3">
          <g id="Group_1018217" data-name="Group 1018217">
            <g id="Group_1018216" data-name="Group 1018216" clip-path="url(#clip-path-6)">
              <path id="Path_836492" data-name="Path 836492" d="M1776.474,659.781a2.157,2.157,0,0,1-1.3,2.11c-.693.146-1.237-.561-1.215-1.58a2.157,2.157,0,0,1,1.3-2.11c.693-.146,1.237.561,1.215,1.58" transform="translate(-1773.962 -658.182)" fill="#fff"/>
            </g>
          </g>
        </g>
        <g id="Group_1018221" data-name="Group 1018221" transform="translate(250.225 99.251)" opacity="0.3">
          <g id="Group_1018220" data-name="Group 1018220">
            <g id="Group_1018219" data-name="Group 1018219" clip-path="url(#clip-path-7)">
              <path id="Path_836493" data-name="Path 836493" d="M1755.745,656.434c-.128.991-.735,1.881-1.356,1.988s-1.02-.611-.892-1.6.735-1.881,1.355-1.988,1.02.61.892,1.6" transform="translate(-1753.473 -654.822)" fill="#fff"/>
            </g>
          </g>
        </g>
        <path id="Path_836494" data-name="Path 836494" d="M1775.4,658.649a2.847,2.847,0,0,0,.053-.4c0-.047.006-.094.007-.14,0-.079,0-.156-.005-.233a1.809,1.809,0,0,0-.527-1.253.94.94,0,0,0-.84-.234,1.108,1.108,0,0,0-.186.056,2.129,2.129,0,0,0-1.108,1.407c-.023.076-.042.151-.058.23a2.889,2.889,0,0,0-.066.565,2.727,2.727,0,0,0,.043.529,1.654,1.654,0,0,0,.49.957,1.031,1.031,0,0,0,.324.2.927.927,0,0,0,.515.036,1.193,1.193,0,0,0,.424-.18,2.22,2.22,0,0,0,.8-1.076c.019-.047.036-.1.052-.146a2.844,2.844,0,0,0,.083-.315m-2.377,1.059a1.854,1.854,0,0,1-.192-.557,2.433,2.433,0,0,1-.041-.5,2.849,2.849,0,0,1,.056-.513,2.382,2.382,0,0,1,.057-.233,1.974,1.974,0,0,1,1.068-1.35.873.873,0,0,1,.139-.04.82.82,0,0,1,.361,0,.851.851,0,0,1,.38.2,1.372,1.372,0,0,1,.367.579,1.925,1.925,0,0,1,.08.3c0,.006,0,.011,0,.017a.043.043,0,0,1,0,.01,1.388,1.388,0,0,1,.023.167,2.457,2.457,0,0,1,.014.311,2.741,2.741,0,0,1-.027.343c-.01.076-.024.15-.041.224s-.038.154-.061.229h0a2.191,2.191,0,0,1-.757,1.141,1.108,1.108,0,0,1-.435.2.843.843,0,0,1-.462-.034.875.875,0,0,1-.278-.172,1.2,1.2,0,0,1-.252-.323.016.016,0,0,0,0-.006" transform="translate(-1519.706 -556.884)" fill="#68a1bf"/>
        <path id="Path_836495" data-name="Path 836495" d="M1755.072,655.52c.014-.052.026-.1.037-.156a.326.326,0,0,0-.045.011,3.117,3.117,0,0,1-.243.788,0,0,0,0,1,0,0c.014-.026.027-.052.039-.079,0,0,0-.009.006-.013.016-.03.031-.064.044-.1.021-.048.043-.1.062-.147s.037-.1.053-.153.03-.1.044-.15m0,0c.014-.052.026-.1.037-.156a.326.326,0,0,0-.045.011,3.117,3.117,0,0,1-.243.788,0,0,0,0,1,0,0c.014-.026.027-.052.039-.079,0,0,0-.009.006-.013.016-.03.031-.064.044-.1.021-.048.043-.1.062-.147s.037-.1.053-.153.03-.1.044-.15m0,0c.014-.052.026-.1.037-.156a.326.326,0,0,0-.045.011,3.117,3.117,0,0,1-.243.788,0,0,0,0,1,0,0c.014-.026.027-.052.039-.079,0,0,0-.009.006-.013.016-.03.031-.064.044-.1.021-.048.043-.1.062-.147s.037-.1.053-.153.03-.1.044-.15m0,0c.014-.052.026-.1.037-.156a.326.326,0,0,0-.045.011,3.117,3.117,0,0,1-.243.788,0,0,0,0,1,0,0c.014-.026.027-.052.039-.079,0,0,0-.009.006-.013.016-.03.031-.064.044-.1.021-.048.043-.1.062-.147s.037-.1.053-.153.03-.1.044-.15m0,0c.014-.052.026-.1.037-.156a.326.326,0,0,0-.045.011,3.117,3.117,0,0,1-.243.788,0,0,0,0,1,0,0c.014-.026.027-.052.039-.079,0,0,0-.009.006-.013.016-.03.031-.064.044-.1.021-.048.043-.1.062-.147s.037-.1.053-.153.03-.1.044-.15m0,0c.014-.052.026-.1.037-.156a.326.326,0,0,0-.045.011,3.117,3.117,0,0,1-.243.788,0,0,0,0,1,0,0c.014-.026.027-.052.039-.079,0,0,0-.009.006-.013.016-.03.031-.064.044-.1.021-.048.043-.1.062-.147s.037-.1.053-.153.03-.1.044-.15m0,0c.014-.052.026-.1.037-.156a.326.326,0,0,0-.045.011,3.117,3.117,0,0,1-.243.788,0,0,0,0,1,0,0c.014-.026.027-.052.039-.079,0,0,0-.009.006-.013.016-.03.031-.064.044-.1.021-.048.043-.1.062-.147s.037-.1.053-.153.03-.1.044-.15m0,0c.014-.052.026-.1.037-.156a.326.326,0,0,0-.045.011,3.117,3.117,0,0,1-.243.788,0,0,0,0,1,0,0c.014-.026.027-.052.039-.079,0,0,0-.009.006-.013.016-.03.031-.064.044-.1.021-.048.043-.1.062-.147s.037-.1.053-.153.03-.1.044-.15m.115-.169c.014-.078.023-.157.03-.235,0-.042.006-.085.008-.128a1.96,1.96,0,0,0-.472-1.522.838.838,0,0,0-.246-.156.713.713,0,0,0-.22-.05.744.744,0,0,0-.165.01h0l-.042.007c-.664.141-1.244,1.126-1.291,2.2a1.963,1.963,0,0,0,.474,1.522.791.791,0,0,0,.269.165.718.718,0,0,0,.356.033h0l.045-.008a1.228,1.228,0,0,0,.667-.45h0a2.681,2.681,0,0,0,.468-.888,3.1,3.1,0,0,0,.116-.5m-.381.843a2.074,2.074,0,0,1-.406.583,1.026,1.026,0,0,1-.415.262s0,0,0,0,0,0,0,0a.04.04,0,0,1-.016,0,.346.346,0,0,1-.054.015.441.441,0,0,1-.065.01.624.624,0,0,1-.508-.172,1.818,1.818,0,0,1-.433-1.394s0,0,0,0,0,0,0-.006v-.016c.046-1.018.582-1.951,1.2-2.081a.642.642,0,0,1,.117-.014.588.588,0,0,1,.225.034.686.686,0,0,1,.23.141.123.123,0,0,1,.016.016,1.293,1.293,0,0,1,.322.563,2.528,2.528,0,0,1,.094.841c0,.048-.006.1-.01.145-.008.083-.019.166-.032.248a3.117,3.117,0,0,1-.243.788.353.353,0,0,0-.016.032m.266-.675c.014-.052.026-.1.037-.156a.326.326,0,0,0-.045.011,3.117,3.117,0,0,1-.243.788,0,0,0,0,1,0,0c.014-.026.027-.052.039-.079,0,0,0-.009.006-.013.016-.03.031-.064.044-.1.021-.048.043-.1.062-.147s.037-.1.053-.153.03-.1.044-.15m0,0c.014-.052.026-.1.037-.156a.326.326,0,0,0-.045.011,3.117,3.117,0,0,1-.243.788,0,0,0,0,1,0,0c.014-.026.027-.052.039-.079,0,0,0-.009.006-.013.016-.03.031-.064.044-.1.021-.048.043-.1.062-.147s.037-.1.053-.153.03-.1.044-.15m0,0c.014-.052.026-.1.037-.156a.326.326,0,0,0-.045.011,3.117,3.117,0,0,1-.243.788,0,0,0,0,1,0,0c.014-.026.027-.052.039-.079,0,0,0-.009.006-.013.016-.03.031-.064.044-.1.021-.048.043-.1.062-.147s.037-.1.053-.153.03-.1.044-.15m0,0c.014-.052.026-.1.037-.156a.326.326,0,0,0-.045.011,3.117,3.117,0,0,1-.243.788,0,0,0,0,1,0,0c.014-.026.027-.052.039-.079,0,0,0-.009.006-.013.016-.03.031-.064.044-.1.021-.048.043-.1.062-.147s.037-.1.053-.153.03-.1.044-.15m0,0c.014-.052.026-.1.037-.156a.326.326,0,0,0-.045.011,3.117,3.117,0,0,1-.243.788,0,0,0,0,1,0,0c.014-.026.027-.052.039-.079,0,0,0-.009.006-.013.016-.03.031-.064.044-.1.021-.048.043-.1.062-.147s.037-.1.053-.153.03-.1.044-.15m0,0c.014-.052.026-.1.037-.156a.326.326,0,0,0-.045.011,3.117,3.117,0,0,1-.243.788,0,0,0,0,1,0,0c.014-.026.027-.052.039-.079,0,0,0-.009.006-.013.016-.03.031-.064.044-.1.021-.048.043-.1.062-.147s.037-.1.053-.153.03-.1.044-.15m0,0c.014-.052.026-.1.037-.156a.326.326,0,0,0-.045.011,3.117,3.117,0,0,1-.243.788,0,0,0,0,1,0,0c.014-.026.027-.052.039-.079,0,0,0-.009.006-.013.016-.03.031-.064.044-.1.021-.048.043-.1.062-.147s.037-.1.053-.153.03-.1.044-.15" transform="translate(-1502.656 -554.245)" fill="#68a1bf"/>
        <path id="Path_836496" data-name="Path 836496" d="M1767.749,665.758a.113.113,0,0,1-.069-.072.118.118,0,0,1,.068-.149,1.158,1.158,0,0,1,.986.178.121.121,0,0,1,.036.161.108.108,0,0,1-.153.038.952.952,0,0,0-.8-.156.1.1,0,0,1-.072,0" transform="translate(-1515.421 -564.626)" fill="#331832"/>
        <path id="Path_836497" data-name="Path 836497" d="M1801.108,635.823s1.09-2.422,3.115-1.375,1.189,2.152.818,2.893a2.044,2.044,0,0,1-2.437.73c-1.006-.449-1.5-2.248-1.5-2.248" transform="translate(-1544.084 -538.063)" fill="#331832"/>
        <path id="Path_836498" data-name="Path 836498" d="M1791.833,691.882a.066.066,0,0,0,.04-.005.074.074,0,0,0,.035-.1,3.248,3.248,0,0,0-1.124-1.32.067.067,0,0,0-.1.023.076.076,0,0,0,.022.1,3.151,3.151,0,0,1,1.071,1.255.07.07,0,0,0,.051.043" transform="translate(-1535.144 -585.799)" fill="#331832"/>
        <path id="Path_836499" data-name="Path 836499" d="M1781.437,713.51l1.291.266s.229.708-.4.932-.759.224-.962.74a.965.965,0,0,1-1.267.359c-.277-.18-.762.494-1.211.494s-.714-.839-.539-1.4a7.97,7.97,0,0,0,3.092-1.4" transform="translate(-1524.524 -605.364)" fill="#fff"/>
        <path id="Path_836500" data-name="Path 836500" d="M1763.5,707.61s-.794,2.024,1.02,2.073c0,0-.953,1.006-1.62.6s-.028-.763-.312-1.032-.6-.464-.312-.778.105-.937.105-.937a.809.809,0,0,1,1.119.072" transform="translate(-1510.696 -600.142)" fill="#fff"/>
        <path id="Path_836501" data-name="Path 836501" d="M1763.656,740.531a.285.285,0,1,0-.285.3.293.293,0,0,0,.285-.3" transform="translate(-1511.488 -628.034)" fill="#fff"/>
        <path id="Path_836502" data-name="Path 836502" d="M1755.267,804.221a.286.286,0,1,0-.285.3.293.293,0,0,0,.285-.3" transform="translate(-1504.296 -682.071)" fill="#fff"/>
        <path id="Path_836503" data-name="Path 836503" d="M1755.267,775.363a.286.286,0,1,0-.285.3.293.293,0,0,0,.285-.3" transform="translate(-1504.296 -657.587)" fill="#fff"/>
        <path id="Path_836504" data-name="Path 836504" d="M1862.2,915.784l-.681-.014.056-2.957a1.574,1.574,0,0,1,1.26-1.516l2.221-.392a1.471,1.471,0,0,1,1.58.82l1.423,3.083-.611.318-1.418-3.071a.812.812,0,0,0-.862-.437l-2.222.392a.858.858,0,0,0-.69.824Z" transform="translate(-1595.872 -772.819)" fill="#fff198"/>
        <path id="Path_836505" data-name="Path 836505" d="M1830.174,940.269l10.439-.787a1.392,1.392,0,0,0,1.244-1.5l-.475-7.857a1.363,1.363,0,0,0-1.528-1.311l-12.51,1.868a1.421,1.421,0,0,0-1.06,1.923l2.547,6.776a1.34,1.34,0,0,0,1.344.891" transform="translate(-1565.585 -788.021)" fill="#fff198"/>
        <path id="Path_836506" data-name="Path 836506" d="M1837.108,950.926l-.024-.005-7.465-1.438.029-.164,7.441,1.433,7.3-3.438.065.154Z" transform="translate(-1568.527 -803.73)" fill="#fff198"/>
        <path id="Path_836507" data-name="Path 836507" d="M1878.473,967.777h0a.459.459,0,0,0,.358-.529l-.069-.438a.441.441,0,0,0-.5-.378.459.459,0,0,0-.358.53l.07.438a.44.44,0,0,0,.5.378" transform="translate(-1609.914 -819.945)" fill="#fff198"/>
        <path id="Path_836508" data-name="Path 836508" d="M1855.424,896.729a14.686,14.686,0,0,0,.528-1.426,9.439,9.439,0,0,1,.43-1.11c.134-.26,2.915-.294,2.915-.294a10.316,10.316,0,0,1,.831,2.134,1.155,1.155,0,0,1,.078.245c.133.65.435,1.546.061,1.89-.408.375-.662-.271-.765-.626a1.636,1.636,0,0,1-.148,1.3c-.316.372-.679-.645-.836-1.162h0c.112.465.267,1.364-.132,1.609-.472.289-.836-1.094-.933-1.41l-.035,0c-.276,1.968-1.015.974-1.182-.541-.27.315-.884.88-1.081.734-.23-.17.145-1.086.273-1.349" transform="translate(-1590.352 -758.412)" fill="#ffb27d"/>
        <path id="Path_836509" data-name="Path 836509" d="M1808.49,716.824s6.648,1.591,9.9,12.733a41.433,41.433,0,0,1,1.93,14.3c0,.014-3.065,1.845-5.186.64,0,0-2.826-16.867-6.48-20.437Z" transform="translate(-1550.413 -608.176)" fill="#68a1bf"/>
        <path id="Path_836510" data-name="Path 836510" d="M1708.918,766.058a13.376,13.376,0,0,0-.653-2.9l.078-.032a13.34,13.34,0,0,1,.658,2.919Z" transform="translate(-1464.49 -647.462)" fill="#331832"/>
        <path id="Path_836511" data-name="Path 836511" d="M1825.755,791.65a56.253,56.253,0,0,0-2.876-8.1l.076-.038a56.2,56.2,0,0,1,2.882,8.117Z" transform="translate(-1562.749 -664.754)" fill="#331832"/>
        <path id="Path_836512" data-name="Path 836512" d="M1715.742,757.089c-.118-5.394,2.232-12.91,2.256-12.985l.08.028c-.024.075-2.368,7.576-2.252,12.955Z" transform="translate(-1470.897 -631.321)" fill="#331832"/>
        <path id="Path_836513" data-name="Path 836513" d="M1766.358,680.02a1.276,1.276,0,0,1-1.261-.715.04.04,0,0,1,.018-.052.035.035,0,0,1,.048.019c.4.919,1.633.627,1.643.622s.04.008.045.029a.042.042,0,0,1-.028.048,2.237,2.237,0,0,1-.466.048" transform="translate(-1513.21 -576.296)" fill="#020202"/>
      </g>
    </g>
  </g>
</svg>
