<svg xmlns="http://www.w3.org/2000/svg" xmlns:xlink="http://www.w3.org/1999/xlink" width="400" height="196" viewBox="0 0 400 196">
  <defs>
    <clipPath id="clip-path">
      <rect id="Rectangle_385862" data-name="Rectangle 385862" width="400" height="196" transform="translate(1020 7555)" fill="#fff" stroke="#707070" stroke-width="1"/>
    </clipPath>
    <clipPath id="clip-path-2">
      <rect id="Rectangle_385861" data-name="Rectangle 385861" width="321.485" height="196.264" fill="none"/>
    </clipPath>
    <clipPath id="clip-path-7">
      <rect id="Rectangle_385846" data-name="Rectangle 385846" width="173.794" height="119.052" fill="#33ece0"/>
    </clipPath>
    <clipPath id="clip-path-9">
      <rect id="Rectangle_385848" data-name="Rectangle 385848" width="32.951" height="26.269" fill="none"/>
    </clipPath>
    <clipPath id="clip-path-10">
      <rect id="Rectangle_385849" data-name="Rectangle 385849" width="26.306" height="26.098" fill="none"/>
    </clipPath>
    <clipPath id="clip-path-11">
      <rect id="Rectangle_385850" data-name="Rectangle 385850" width="30.395" height="31.218" fill="none"/>
    </clipPath>
    <clipPath id="clip-path-12">
      <rect id="Rectangle_385851" data-name="Rectangle 385851" width="28.309" height="35.775" fill="none"/>
    </clipPath>
  </defs>
  <g id="Mask_Group_66" data-name="Mask Group 66" transform="translate(-1020 -7555)" clip-path="url(#clip-path)">
    <g id="Group_1019353" data-name="Group 1019353" transform="translate(1060.515 7555)">
      <g id="Group_1019352" data-name="Group 1019352" clip-path="url(#clip-path-2)">
        <rect id="Rectangle_385837" data-name="Rectangle 385837" width="22.71" height="16.981" transform="translate(282.715 85.401)" fill="#ebebeb"/>
        <path id="Path_837340" data-name="Path 837340" d="M591.582,209.042h8.661l-4.331,4.679Z" transform="translate(-301.843 -106.66)" fill="#ebebeb"/>
        <g id="Group_1019324" data-name="Group 1019324">
          <g id="Group_1019323" data-name="Group 1019323" clip-path="url(#clip-path-2)">
            <path id="Path_837341" data-name="Path 837341" d="M599.14,187.674a13.723,13.723,0,0,1-4.409,3.826,13.729,13.729,0,0,1-4.407-3.826c-1.552-2.054-1.476-5.269.745-5.965,2.455-.769,3.662,2.926,3.662,2.926s1.225-3.72,3.664-2.926c2.213.719,2.3,3.911.745,5.965" transform="translate(-300.661 -92.657)" fill="#fff"/>
            <rect id="Rectangle_385838" data-name="Rectangle 385838" width="22.71" height="16.981" transform="translate(197.053 30.156)" fill="#ebebeb"/>
            <path id="Path_837342" data-name="Path 837342" d="M416.68,96.243h8.662l-4.331,4.679Z" transform="translate(-212.603 -49.106)" fill="#ebebeb"/>
            <path id="Path_837343" data-name="Path 837343" d="M425.426,70.859a2.324,2.324,0,1,1-2.324-2.324,2.324,2.324,0,0,1,2.324,2.324" transform="translate(-214.694 -34.969)" fill="#fff"/>
            <path id="Path_837344" data-name="Path 837344" d="M425.318,83.941h-9.811a10.6,10.6,0,0,1,.745-3.035c.478-.7,1.743-1.484,4.159-1.484s3.682.786,4.16,1.484a10.612,10.612,0,0,1,.747,3.035" transform="translate(-212.005 -40.524)" fill="#fff"/>
            <path id="Path_837345" data-name="Path 837345" d="M4.819,274.3H96.258l1.9-37.52H2.918Z" transform="translate(-1.489 -120.812)" fill="#ebebeb"/>
            <path id="Path_837346" data-name="Path 837346" d="M144.078,258.277H105.85l-.717-13.025h39.781Zm-37.791-.461h37.358l.777-12.1h-38.8Z" transform="translate(-53.642 -125.135)" fill="#dbdbdb"/>
            <path id="Path_837347" data-name="Path 837347" d="M145.069,290.194H109.044l-.585-11.757H145.8Zm-35.586-.461h35.153l.677-10.835H108.944Z" transform="translate(-55.339 -142.067)" fill="#dbdbdb"/>
            <path id="Path_837348" data-name="Path 837348" d="M146.025,258.16H139.6l-.406-3.141h7.234Zm-6.018-.461h5.612l.286-2.218h-6.184Z" transform="translate(-71.022 -130.119)" fill="#dbdbdb"/>
            <path id="Path_837349" data-name="Path 837349" d="M146.025,290.373H139.6l-.406-3.141h7.234Zm-6.018-.461h5.612l.286-2.219h-6.184Z" transform="translate(-71.022 -146.555)" fill="#dbdbdb"/>
            <path id="Path_837350" data-name="Path 837350" d="M52.267,258.277H14.039l-.717-13.025H53.1Zm-37.791-.461H51.834l.777-12.1H13.81Z" transform="translate(-6.797 -125.135)" fill="#dbdbdb"/>
            <path id="Path_837351" data-name="Path 837351" d="M53.259,290.194H17.234l-.585-11.757H53.994Zm-35.586-.461H52.826L53.5,278.9H17.134Z" transform="translate(-8.495 -142.067)" fill="#dbdbdb"/>
            <path id="Path_837352" data-name="Path 837352" d="M54.214,258.16H47.791l-.406-3.141h7.234ZM48.2,257.7h5.612l.286-2.218H47.91Z" transform="translate(-24.177 -130.119)" fill="#dbdbdb"/>
            <path id="Path_837353" data-name="Path 837353" d="M54.214,290.373H47.791l-.406-3.141h7.234Zm-6.017-.461h5.612l.286-2.219H47.91Z" transform="translate(-24.177 -146.555)" fill="#dbdbdb"/>
            <path id="Path_837354" data-name="Path 837354" d="M19.39,313.386l-.574,4.088-1.155,8.212H15.4v-12.3Z" transform="translate(-7.859 -159.899)" fill="#ebebeb"/>
            <path id="Path_837355" data-name="Path 837355" d="M19.39,313.386l-.574,4.088H15.4v-4.088Z" transform="translate(-7.859 -159.899)" fill="#dbdbdb"/>
            <path id="Path_837356" data-name="Path 837356" d="M176.756,313.386l.574,4.088,1.155,8.212h2.258v-12.3Z" transform="translate(-90.186 -159.899)" fill="#ebebeb"/>
            <path id="Path_837357" data-name="Path 837357" d="M176.756,313.386l.574,4.088h3.413v-4.088Z" transform="translate(-90.186 -159.899)" fill="#dbdbdb"/>
            <rect id="Rectangle_385839" data-name="Rectangle 385839" width="14.75" height="11.03" transform="translate(85.485 41.121)" fill="#ebebeb"/>
            <path id="Path_837358" data-name="Path 837358" d="M183.856,106.479h5.626l-2.813,3.04Z" transform="translate(-93.809 -54.329)" fill="#ebebeb"/>
            <path id="Path_837359" data-name="Path 837359" d="M188.765,92.6a8.912,8.912,0,0,1-2.864,2.485,8.92,8.92,0,0,1-2.863-2.485c-1.008-1.334-.958-3.423.484-3.875,1.595-.5,2.379,1.9,2.379,1.9s.795-2.416,2.38-1.9c1.437.468,1.492,2.54.484,3.875" transform="translate(-93.041 -45.234)" fill="#fff"/>
          </g>
        </g>
        <g id="Group_1019326" data-name="Group 1019326">
          <g id="Group_1019325" data-name="Group 1019325" clip-path="url(#clip-path-2)">
            <path id="Path_837360" data-name="Path 837360" d="M318.237,362.618c0,6.825-64.76,12.359-144.646,12.359S28.945,369.443,28.945,362.618s64.76-12.359,144.646-12.359,144.646,5.533,144.646,12.359" transform="translate(-14.769 -178.713)" fill="#ebebeb"/>
          </g>
        </g>
        <path id="Path_837361" data-name="Path 837361" d="M79.412,338.319l-39.706.043L0,338.481l39.706.119,39.706.043,79.411.082,79.411-.081,39.706-.043,39.706-.12-39.706-.12-39.706-.043-79.411-.081Z" transform="translate(0 -172.579)" fill="#263238"/>
        <g id="Group_1019328" data-name="Group 1019328">
          <g id="Group_1019327" data-name="Group 1019327" clip-path="url(#clip-path-2)">
            <path id="Path_837362" data-name="Path 837362" d="M615.5,247.944s4.9-17.6,8.818-23.574,11.213-12.541,11.213-12.541-.171,27.131-20.031,36.115" transform="translate(-314.048 -108.082)" fill="#fff198"/>
            <path id="Path_837363" data-name="Path 837363" d="M616.183,255.083a84.169,84.169,0,0,0,4.469-8.526,59.569,59.569,0,0,1,2.435-9.253c.021-.056.1-.025.086.031-.65,2.78-1.407,5.535-2.095,8.307,1.979-4.283,3.86-8.62,6.218-12.668a27.05,27.05,0,0,1,2.272-5.631c.026-.051.111-.024.086.031a36.087,36.087,0,0,0-1.529,4.224,42.128,42.128,0,0,1,3.725-5.145c.086-.1.258.011.173.119a61.973,61.973,0,0,0-7.4,13.231,70.389,70.389,0,0,0,6.151-7.689.026.026,0,0,1,.043.029,63.119,63.119,0,0,1-6.587,8.54c-1.509,3.395-2.992,6.8-4.791,10.032,3.595-3.038,6.36-6.969,9.1-10.763a.082.082,0,0,1,.135.093c-2.738,4.162-5.572,8.082-9.511,11.164a43.639,43.639,0,0,1-2.632,4.112.21.21,0,0,1-.346-.238" transform="translate(-314.378 -115.523)" fill="#263238"/>
            <path id="Path_837364" data-name="Path 837364" d="M606.673,233.286s8.812-16.226,6.252-31.957-5.3-21.333-5.3-21.333a62.613,62.613,0,0,0-.952,53.291" transform="translate(-306.739 -91.839)" fill="#fff198"/>
            <path id="Path_837365" data-name="Path 837365" d="M604.932,215.824a76.769,76.769,0,0,0,3.4,13.1c.025-5.773.135-11.547.289-17.319a44.632,44.632,0,0,1-1.663-10.752c0-.107.155-.1.163,0a61.315,61.315,0,0,0,1.544,9.252q.2-7.144.465-14.285a.062.062,0,0,1,.124,0c-.007,7.439,0,14.879-.05,22.319a59.657,59.657,0,0,0,2.54-8.838.026.026,0,0,1,.051.008,34.594,34.594,0,0,1-2.6,10.057c-.034,4.756-.086,9.511-.192,14.266,1.491-5.056,3.083-9.952,3.515-15.295a.056.056,0,0,1,.112,0,56.991,56.991,0,0,1-3.579,17.412.319.319,0,0,1-.1.14q-.066,2.607-.152,5.214a.194.194,0,0,1-.387-.007q-.1-5.334-.087-10.667a47.789,47.789,0,0,1-3.474-14.605c0-.044.071-.053.077-.009" transform="translate(-308.616 -99.886)" fill="#263238"/>
            <path id="Path_837366" data-name="Path 837366" d="M606.045,231.522a30.322,30.322,0,0,1,.615,4.287c0,.049-.072.055-.084.01a30.372,30.372,0,0,1-.725-4.274c-.013-.11.172-.131.193-.023" transform="translate(-309.124 -118.093)" fill="#263238"/>
            <path id="Path_837367" data-name="Path 837367" d="M616.268,207.348c.008-.049.083-.033.083.013a11.01,11.01,0,0,1-.442,2.957c-.022.078-.135.042-.12-.035.192-.975.311-1.957.478-2.934" transform="translate(-314.194 -105.78)" fill="#263238"/>
            <path id="Path_837368" data-name="Path 837368" d="M587.693,251.684s.359-16.937-4.5-25.356a36.508,36.508,0,0,0-12.918-12.709s3.25,29.856,17.418,38.065" transform="translate(-290.972 -108.995)" fill="#fff198"/>
            <path id="Path_837369" data-name="Path 837369" d="M583.705,243.523a62.892,62.892,0,0,0,6.575,8.335q-1.455-5.2-3.363-10.215c-2.724-2.388-5.425-4.863-7.1-8.132a.046.046,0,0,1,.08-.047,34.053,34.053,0,0,0,6.728,7.439,131.176,131.176,0,0,0-6.764-14.729.108.108,0,0,1,.186-.109,80.443,80.443,0,0,1,4.241,7.731c-.456-1.811-.819-3.662-1.286-5.459a.04.04,0,0,1,.078-.022,30.749,30.749,0,0,1,2,7.184,86.274,86.274,0,0,1,4.277,11.591c-.125-2.539-.284-5.068-.546-7.6,0-.048.075-.059.085-.012a41.114,41.114,0,0,1,.736,8.531q1.05,3.786,1.763,7.652c.013.069-.089.1-.106.029-.264-1.079-.55-2.148-.843-3.216-.019-.008-.038,0-.055-.022a34.409,34.409,0,0,1-6.708-8.915.015.015,0,0,1,.027-.016" transform="translate(-295.839 -115.319)" fill="#263238"/>
            <path id="Path_837370" data-name="Path 837370" d="M576.175,233.61c.542.585,1.038,1.2,1.561,1.8a13.808,13.808,0,0,1,1.4,1.634.028.028,0,0,1-.038.038,8.236,8.236,0,0,1-1.616-1.594,13.649,13.649,0,0,1-1.383-1.82.049.049,0,0,1,.077-.06" transform="translate(-293.94 -119.187)" fill="#263238"/>
            <path id="Path_837371" data-name="Path 837371" d="M613.421,287.116l-.612,8.023-1.846,24.252h-16.1l-1.846-24.252-.612-8.023h21.012Z" transform="translate(-302.265 -146.496)" fill="#455a64"/>
            <path id="Path_837372" data-name="Path 837372" d="M613.421,287.116l-.612,8.023H593.021l-.612-8.023h21.012Z" transform="translate(-302.265 -146.496)" fill="#37474f"/>
            <rect id="Rectangle_385842" data-name="Rectangle 385842" width="23.872" height="6.151" transform="translate(288.713 136.684)" fill="#455a64"/>
          </g>
        </g>
        <rect id="Rectangle_385844" data-name="Rectangle 385844" width="173.794" height="93.333" transform="translate(71.926 57.121)" fill="#fff198"/>
        <path id="Path_837373" data-name="Path 837373" d="M275.679,307.194h47.607l-23.8,25.718Z" transform="translate(-140.66 -156.74)" fill="#fff198"/>
        <g id="Group_1019333" data-name="Group 1019333">
          <g id="Group_1019332" data-name="Group 1019332" clip-path="url(#clip-path-2)">
            <g id="Group_1019331" data-name="Group 1019331" transform="translate(71.926 57.121)">
              <g id="Group_1019330" data-name="Group 1019330">
                <g id="Group_1019329" data-name="Group 1019329" clip-path="url(#clip-path-7)">
                  <rect id="Rectangle_385845" data-name="Rectangle 385845" width="173.794" height="93.333" transform="translate(0)" fill="#33ece0"/>
                  <path id="Path_837374" data-name="Path 837374" d="M275.679,307.194h47.607l-23.8,25.718Z" transform="translate(-212.585 -213.861)" fill="#33ece0"/>
                </g>
              </g>
            </g>
            <path id="Path_837375" data-name="Path 837375" d="M232.382,187.37a7.375,7.375,0,1,1-7.375-7.375,7.375,7.375,0,0,1,7.375,7.375" transform="translate(-111.042 -91.839)" fill="#fff"/>
            <path id="Path_837376" data-name="Path 837376" d="M232.04,228.887H200.9s.849-7.42,2.366-9.632,5.532-4.708,13.2-4.708,11.684,2.495,13.2,4.708,2.37,9.632,2.37,9.632" transform="translate(-102.506 -109.469)" fill="#fff"/>
            <path id="Path_837377" data-name="Path 837377" d="M302.555,191.888a10.537,10.537,0,0,1,3.146,7.541,10.695,10.695,0,0,1-18.271,7.584,2.438,2.438,0,0,1,3.447-3.447,5.736,5.736,0,0,0,4.093,1.68,5.908,5.908,0,0,0,4.137-1.68,5.772,5.772,0,0,0,1.724-4.137,5.6,5.6,0,0,0-1.724-4.093,5.775,5.775,0,0,0-4.094-1.723,2.13,2.13,0,0,1-1.767-.776c-.043,0-.043,0-.043-.043a2.445,2.445,0,0,1-.086-3.447l4.4-4.481h-6.981a2.435,2.435,0,0,1,0-4.869h12.712a2.419,2.419,0,0,1,2.456,2.413,2.59,2.59,0,0,1-.3,1.164,3.059,3.059,0,0,1-.431.6l-5.43,5.6a9.776,9.776,0,0,1,3.016,2.111" transform="translate(-146.293 -91.839)" fill="#fff"/>
            <path id="Path_837378" data-name="Path 837378" d="M361.92,202.232a2.373,2.373,0,0,1-2.413,2.37h-.431v3.275a2.37,2.37,0,1,1-4.74,0V204.6H340.763a2.115,2.115,0,0,1-1.465-.517,2.308,2.308,0,0,1-.388-3.319l15.944-19.822c.043,0,.043-.043.086-.086a.6.6,0,0,0,.129-.172.46.46,0,0,0,.216-.129c.043-.043.129-.086.172-.129a.462.462,0,0,1,.259-.086c.043-.086.086-.129.172-.129.043-.043.129-.043.259-.086a.259.259,0,0,0,.172-.043h.733a.388.388,0,0,0,.215.043c.043.043.172.043.259.086.043,0,.129.043.172.043.086.086.172.129.216.172.086.043.129.086.215.129a.042.042,0,0,1,.043.043c.043,0,.129.043.129.086l.172.172c.043.043.086.129.129.172a1.181,1.181,0,0,1,.172.215.328.328,0,0,0,.086.172,1.776,1.776,0,0,1,.086.259c0,.043.043.129.043.172a.467.467,0,0,1,.043.259c0,.086.043.129.043.215v17.538h.431a2.4,2.4,0,0,1,2.413,2.37m-7.584-13.014-8.575,10.644h8.575Z" transform="translate(-172.652 -91.884)" fill="#fff"/>
            <path id="Path_837379" data-name="Path 837379" d="M401.225,208.1V182.893a2.37,2.37,0,0,1,4.74,0V195.26l13.961-14a2.341,2.341,0,0,1,3.361,0,2.42,2.42,0,0,1,0,3.361l-9.48,9.436,9.567,12.54a2.306,2.306,0,0,1-.345,3.318,2.189,2.189,0,0,1-1.508.56,2.33,2.33,0,0,1-1.767-.862l-9.308-12.194-4.481,4.568V208.1a2.37,2.37,0,1,1-4.74,0" transform="translate(-204.717 -92.108)" fill="#fff"/>
            <path id="Path_837380" data-name="Path 837380" d="M253.976,44.315A19.073,19.073,0,0,1,250.3,46.6c2-3.369,1.694-10.98,1.451-9.894-1.168,5.189-4.432,10.873-5.673,11.154-.008,0-.013,0-.021,0a14.321,14.321,0,0,1-8.89-1.879.031.031,0,0,1,.009-.017c2.575-3.81,2.471-11.548,2.3-11.078-1.89,5.048-5.8,8-6.471,7.989h0c-2.506-2.4-3.833-4.789-3.475-5.031,2.6-1.766,4.812-6.319,6.809-11.133v0c1.974-4.745,2.97-9.26,5.746-13.495,2.541-3.877,7.614-4.611,10.487-2.629,7.537,5.2,3.024,32.467,1.415,33.726" transform="translate(-117.078 -4.859)" fill="#263238"/>
            <path id="Path_837381" data-name="Path 837381" d="M245.123,12.12c-2.089.492-3.808,2.408-4.9,4.178a80.216,80.216,0,0,0-3.615,7.505,52.266,52.266,0,0,1-9.1,13.384.091.091,0,0,0,.124.134c4.053-3.054,6.833-7.438,9.11-11.944,1.164-2.3,2.079-4.715,3.18-7.047a15.645,15.645,0,0,1,2.226-3.582,9.653,9.653,0,0,1,3.118-2.271.193.193,0,0,0-.136-.356" transform="translate(-116.063 -6.182)" fill="#263238"/>
            <path id="Path_837382" data-name="Path 837382" d="M268.251,54.048c8.064,8.453,18.091,26.117,16.108,29.631-2.209,3.914-13.838-8.118-13.473-8.694.31-.489-3.708-11.126-6.627-18.9s2-4.122,3.992-2.032" transform="translate(-134.373 -26.196)" fill="#ffc4c0"/>
            <path id="Path_837383" data-name="Path 837383" d="M277.807,64.182l-11.58,2.085s-2.891-8.2-3.464-12.76c-.321-2.553,1.179-2.658,3.066-1.3a63.885,63.885,0,0,1,11.977,11.976" transform="translate(-134.048 -26.196)" fill="#37474f"/>
            <path id="Path_837384" data-name="Path 837384" d="M270.02,75.934A77.9,77.9,0,0,1,279.785,74c.02,0,.035.071.017.075-2.632.676-7.969,1.647-9.758,1.962-.034.006-.057-.1-.024-.108" transform="translate(-137.765 -37.76)" fill="#263238"/>
            <path id="Path_837385" data-name="Path 837385" d="M276.257,64.463l-10.029,1.8s-2.889-8.2-3.462-12.758c-.207-1.634.335-2.265,1.247-2.153Z" transform="translate(-134.049 -26.197)" fill="#263238"/>
            <path id="Path_837386" data-name="Path 837386" d="M252.38,82.363H223.034s3.458-20.1,12.912-30.87a5.971,5.971,0,0,1,8.575-.448,20.373,20.373,0,0,1,2.129,2.418c1.988,2.554,5.235,8.688,5.538,10.346.5,2.742-1.925,5.7-1.925,5.7Z" transform="translate(-113.799 -25.228)" fill="#455a64"/>
            <path id="Path_837387" data-name="Path 837387" d="M279.91,108.3c-1.891,2.61-6.925,3.029-19.5,5.275-1.741.311-7.238-11.382-5.4-11.809,2.32-.538,11.438-2.125,12.119-2.157,5.748-.268,14.063,6.92,12.781,8.691" transform="translate(-129.924 -50.822)" fill="#ffc4c0"/>
            <path id="Path_837388" data-name="Path 837388" d="M241.341,102.943s-5.325.714-8.006,1.955a18.992,18.992,0,0,0-6.945,5.856c-1.959,2.676-4.847,10.5-2.738,11.725,1.908,1.109,4.456-7.038,4.456-7.038s-3.968,7.878-1.425,8.79,4.963-8.713,4.963-8.713-3.9,8.185-1.124,8.711c2.094.4,4.777-8.2,4.777-8.2s-3.3,7.059-1.163,7.56c2.361.554,5.335-7.224,5.335-7.224,5.646.361,8.481-1.776,10.317-3.537.445-.426-8.447-9.889-8.447-9.889" transform="translate(-113.738 -52.525)" fill="#ffc4c0"/>
            <path id="Path_837389" data-name="Path 837389" d="M232.353,122.706c-.5.909-1.011,1.825-1.429,2.775s-.8,1.915-1.128,2.9a17.662,17.662,0,0,0-.907,3.951,38.2,38.2,0,0,1,2.3-6.745c.416-.948.785-1.917,1.2-2.865.01-.024-.025-.036-.037-.015" transform="translate(-116.785 -62.603)" fill="#263238"/>
            <path id="Path_837390" data-name="Path 837390" d="M239.75,125.656c-.588,1.188-1.215,2.345-1.75,3.559s-.933,2.4-1.381,3.642c-.035.1.028.083.067-.012.5-1.223,1.052-2.315,1.563-3.532s.977-2.454,1.531-3.646c.009-.019-.021-.03-.029-.012" transform="translate(-120.725 -64.109)" fill="#263238"/>
            <path id="Path_837391" data-name="Path 837391" d="M247.174,127.091a29.592,29.592,0,0,0-2.26,5.647c-.03.1.049.07.085-.026.716-1.891,1.264-3.38,2.236-5.587.015-.034-.041-.072-.062-.034" transform="translate(-124.959 -64.838)" fill="#263238"/>
            <path id="Path_837392" data-name="Path 837392" d="M285.691,100.949a8.936,8.936,0,0,0-5.533-1.429.02.02,0,0,0,0,.041,15.2,15.2,0,0,1,5.513,1.422.019.019,0,0,0,.019-.034" transform="translate(-142.935 -50.748)" fill="#263238"/>
            <path id="Path_837393" data-name="Path 837393" d="M247.736,61.165c1.324,7.669,5.547,21.375,9.467,23.39,3.8,1.954,22.3-3.986,25.6-6.417,1.315-.967-5.119-9.241-6.827-8.882-6.653,1.4-13.181,3.636-14.2,3.3-.568-.188-5.921-8.2-9.533-13.112-4.537-6.176-5.106-1.723-4.512,1.719" transform="translate(-126.303 -28.759)" fill="#ffc4c0"/>
            <path id="Path_837394" data-name="Path 837394" d="M310.078,80.352c.762-.273,6.96-4.359,8.5-6.151a22.971,22.971,0,0,0,4.02-6.263c1.548-3.629,2.275-6.284,1.9-7.471-.438-1.38-1.715-.908-4.178,4.421-1.668,3.608-4,3.8-5.7,3.767a27.317,27.317,0,0,0-12.2,2.7s4.732,10.048,7.66,9" transform="translate(-154.303 -30.515)" fill="#ffc4c0"/>
            <path id="Path_837395" data-name="Path 837395" d="M324.625,45.636l-9.213,12.818a.532.532,0,0,0,.257.894l7.387,2.077a1.243,1.243,0,0,0,1.239-.473l9.213-12.818a.531.531,0,0,0-.257-.893l-7.386-2.077a1.241,1.241,0,0,0-1.239.473" transform="translate(-160.858 -23.027)" fill="#263238"/>
            <path id="Path_837396" data-name="Path 837396" d="M323.263,45.322,314.05,58.14a.532.532,0,0,0,.257.894l7.387,2.077a1.243,1.243,0,0,0,1.239-.473l9.213-12.818a.531.531,0,0,0-.257-.893L324.5,44.849a1.241,1.241,0,0,0-1.239.473" transform="translate(-160.163 -22.867)" fill="#37474f"/>
            <path id="Path_837397" data-name="Path 837397" d="M324.069,46.663l-8.447,11.752c-.259.359-.168.734.2.838l6.608,1.859a1.153,1.153,0,0,0,1.137-.462L332.017,48.9c.527-.732.343-.978-.027-1.082l-1.324-.372a.289.289,0,0,0-.265.136l-.03.042a.354.354,0,0,1-.475.142l-3.061-.861c-.172-.048-.31-.088-.146-.316l.03-.042c.07-.1.064-.193-.014-.215l-1.324-.373c-.369-.1-.83.035-1.312.706" transform="translate(-160.965 -23.433)" fill="#fff"/>
            <path id="Path_837398" data-name="Path 837398" d="M341.329,47.878l.835.235a.083.083,0,0,0,.085-.032.036.036,0,0,0-.018-.061l-.835-.235a.083.083,0,0,0-.085.032.036.036,0,0,0,.018.061" transform="translate(-174.142 -24.38)" fill="#fff"/>
            <path id="Path_837399" data-name="Path 837399" d="M325.245,56.984l5.615,1.579,3.622-5.04-5.615-1.579Z" transform="translate(-165.95 -26.504)" fill="#fff198"/>
            <path id="Path_837400" data-name="Path 837400" d="M328.8,64.959l3.276.921.213-.3-3.277-.921Z" transform="translate(-167.766 -32.993)" fill="#a6a6a6"/>
            <path id="Path_837401" data-name="Path 837401" d="M326.859,65.76l3.879,1.091.106-.148-3.879-1.091Z" transform="translate(-166.774 -33.477)" fill="#a6a6a6"/>
            <path id="Path_837402" data-name="Path 837402" d="M326.462,66.313l3.88,1.091.106-.148-3.879-1.091Z" transform="translate(-166.571 -33.76)" fill="#a6a6a6"/>
            <path id="Path_837403" data-name="Path 837403" d="M326.064,66.867l3.879,1.091.106-.148-3.879-1.091Z" transform="translate(-166.368 -34.042)" fill="#a6a6a6"/>
            <path id="Path_837404" data-name="Path 837404" d="M344.927,51.507l.7.2.088-.122-.7-.2Z" transform="translate(-175.992 -26.218)" fill="#a6a6a6"/>
            <path id="Path_837405" data-name="Path 837405" d="M344.6,51.963l.7.2.088-.122-.7-.2Z" transform="translate(-175.825 -26.451)" fill="#a6a6a6"/>
            <path id="Path_837406" data-name="Path 837406" d="M344.271,52.42l.7.2.088-.122-.7-.2Z" transform="translate(-175.658 -26.684)" fill="#a6a6a6"/>
            <path id="Path_837407" data-name="Path 837407" d="M324.284,63.511a.384.384,0,0,0,.073.2,1.04,1.04,0,0,0,.3-.1c.185-.089.288-.255.15-.293-.108-.031-.235.1-.235.1s.076-.143-.032-.173c-.137-.039-.268.119-.251.265" transform="translate(-165.459 -32.267)" fill="#fff198"/>
            <path id="Path_837408" data-name="Path 837408" d="M320.03,70.13l4.53,1.274.837-1.165-4.53-1.273Z" transform="translate(-163.289 -35.188)" fill="#fff198"/>
            <path id="Path_837409" data-name="Path 837409" d="M316.843,70.7c-1.753.03,3.937-3.538,4.02-5.533S319,63.8,317.472,64.933c-5.312,3.921-9.327,3.738-12.017,7.481S316.843,70.7,316.843,70.7" transform="translate(-155.678 -32.59)" fill="#ffc4c0"/>
            <path id="Path_837410" data-name="Path 837410" d="M285.747,85.39c-1.357.247-7.509,1.838-8.19,1.96-.048.009-.026.075.023.073a67.048,67.048,0,0,0,8.19-1.96.038.038,0,0,0-.022-.073" transform="translate(-141.604 -43.568)" fill="#263238"/>
            <path id="Path_837411" data-name="Path 837411" d="M281.515,104.9a81.479,81.479,0,0,1-10.173,2.759c-1.682.353-3.379.664-5.084.88a5.331,5.331,0,0,1-2.427-.113,3.911,3.911,0,0,1-1.67-1.113,35.307,35.307,0,0,1-3.1-4.525c-.022-.044-.085,0-.065.04a36.1,36.1,0,0,0,2.6,4.346,4.958,4.958,0,0,0,1.429,1.333,3.86,3.86,0,0,0,2.15.533,17.8,17.8,0,0,0,2.507-.313q1.319-.215,2.63-.479c1.747-.352,3.483-.767,5.2-1.262,1.943-.561,4.149-1.277,6.037-1.995.057-.022.031-.112-.027-.092" transform="translate(-132.147 -52.437)" fill="#263238"/>
            <path id="Path_837412" data-name="Path 837412" d="M249.181,73.49l8.84-7.765s-4.622-7.37-7.83-10.654c-1.8-1.841-2.814-.732-2.927,1.59a63.887,63.887,0,0,0,1.917,16.828" transform="translate(-126.138 -27.628)" fill="#37474f"/>
            <path id="Path_837413" data-name="Path 837413" d="M258.24,75.495a77.867,77.867,0,0,0-7.589,6.441c-.014.014.033.072.049.06,2.168-1.639,6.25-5.211,7.61-6.415.026-.023-.042-.106-.07-.086" transform="translate(-127.889 -38.518)" fill="#263238"/>
            <path id="Path_837414" data-name="Path 837414" d="M250.811,81.633c-.247.231-1.226,1.063-1.47,1.262-.122-.769-.283-1.449-.432-2.213q-.252-1.283-.467-2.573c-.293-1.749-.528-3.507-.774-5.263-.005-.038-.063-.039-.061,0,.032.985.112,1.966.22,2.944-.122-.4-.236-.811-.337-1.222-.006-.024-.041-.012-.037.011a12.819,12.819,0,0,0,.421,1.6c.077.64.163,1.279.264,1.916q.2,1.253.454,2.495a21.382,21.382,0,0,0,.62,2.6,19.391,19.391,0,0,0,1.656-1.5c.035-.036-.02-.086-.055-.053" transform="translate(-126.258 -37.154)" fill="#263238"/>
            <path id="Path_837415" data-name="Path 837415" d="M265.851,72.484c-.484-.828-1.048-1.619-1.591-2.41-.106-.252-.213-.505-.334-.751a5.407,5.407,0,0,0-.547-.906.013.013,0,0,0-.022.014c.078.152.169.3.25.448s.156.3.235.456.16.313.232.474c-.534-.774-1.09-1.534-1.677-2.269-.017-.021-.05,0-.036.022.5.871,1.037,1.72,1.6,2.551.549.809,1.089,1.64,1.691,2.413-.116.116-.232.23-.339.356a.038.038,0,0,0,.048.059c.16-.1.308-.215.46-.328a.1.1,0,0,0,.03-.127" transform="translate(-133.863 -34.456)" fill="#263238"/>
            <path id="Path_837416" data-name="Path 837416" d="M257.02,47.758c-2.073.539-1.945,2.809-.459,4.886s3.514,2.565,4.516,2.28,1.792-1.527.549-4.037c-1.583-3.2-3.353-3.455-4.606-3.13" transform="translate(-130.34 -24.313)" fill="#37474f"/>
            <path id="Path_837417" data-name="Path 837417" d="M257.131,42.441c.034.5,1.82,3.993,4.035,4.248.721.081,1.343-3.835,1.343-3.835l.112-.278,1.565-3.9-4.259-3.827-.621-.516s-.358,1.1-.79,2.465c-.021.063-.041.127-.062.195s-.052.149-.074.222c-.067.2-.135.412-.2.621-.049.159-.1.313-.142.481s-.094.332-.144.5a27,27,0,0,0-.766,3.626" transform="translate(-131.196 -17.517)" fill="#ffc4c0"/>
            <path id="Path_837418" data-name="Path 837418" d="M259.957,36.8a8.434,8.434,0,0,0,4.106,5.78l1.565-3.9-4.26-3.827-.622-.516s-.358,1.1-.789,2.465" transform="translate(-132.638 -17.517)" fill="#263238"/>
            <path id="Path_837419" data-name="Path 837419" d="M272.148,23.264c-1.027,7.306-5.518,7.516-7.093,7.293-1.43-.2-6.273-1.074-6.007-8.447s3.988-9.206,7.282-8.915,6.845,2.762,5.818,10.069" transform="translate(-132.169 -6.718)" fill="#ffc4c0"/>
            <path id="Path_837420" data-name="Path 837420" d="M282.351,28.916a4.815,4.815,0,0,1-.47-.2.821.821,0,0,1-.44-.293.262.262,0,0,1,.061-.314.652.652,0,0,1,.659-.028.957.957,0,0,1,.525.446.28.28,0,0,1-.335.387" transform="translate(-143.585 -14.29)" fill="#263238"/>
            <path id="Path_837421" data-name="Path 837421" d="M273.52,27.363a4.9,4.9,0,0,0,.509-.009.822.822,0,0,0,.518-.108.262.262,0,0,0,.06-.314.65.65,0,0,0-.6-.271.958.958,0,0,0-.653.218.28.28,0,0,0,.167.484" transform="translate(-139.426 -13.603)" fill="#263238"/>
            <path id="Path_837422" data-name="Path 837422" d="M274.247,32.2c0-.02-.043.017-.046.037-.068.5-.23,1.057-.705,1.146-.015,0-.018.028,0,.028.56.016.767-.729.751-1.211" transform="translate(-139.54 -16.427)" fill="#263238"/>
            <path id="Path_837423" data-name="Path 837423" d="M273.49,30.981c-.787-.195-1.119,1.392-.39,1.573s1.049-1.41.39-1.573" transform="translate(-139.137 -15.799)" fill="#263238"/>
            <path id="Path_837424" data-name="Path 837424" d="M272.649,30.784c-.157.061-.326.191-.5.172-.2-.022-.309-.218-.4-.4-.009-.019-.026-.008-.031.013a.592.592,0,0,0,.3.753c.288.1.558-.121.7-.411.026-.053-.006-.147-.069-.123" transform="translate(-138.626 -15.583)" fill="#263238"/>
            <path id="Path_837425" data-name="Path 837425" d="M280.765,32.983c.008-.018.033.031.028.051-.122.488-.18,1.067.228,1.326.013.008.006.032-.01.026-.525-.194-.441-.962-.247-1.4" transform="translate(-143.178 -16.827)" fill="#263238"/>
            <path id="Path_837426" data-name="Path 837426" d="M281.361,32.131c.8.112.52,1.709-.223,1.6s-.45-1.7.223-1.6" transform="translate(-143.225 -16.392)" fill="#263238"/>
            <path id="Path_837427" data-name="Path 837427" d="M282.581,32.457c.111.107.209.283.358.319.172.043.332-.107.473-.253.015-.015.025,0,.022.022-.046.307-.2.607-.506.614-.277.006-.427-.29-.446-.607,0-.059.055-.137.1-.094" transform="translate(-144.131 -16.554)" fill="#263238"/>
            <path id="Path_837428" data-name="Path 837428" d="M272.874,40c.087.144.163.331.336.391a1.329,1.329,0,0,0,.554.012.017.017,0,0,1,.015.03.677.677,0,0,1-.686.106.535.535,0,0,1-.272-.529c0-.03.04-.031.052-.01" transform="translate(-139.202 -20.401)" fill="#263238"/>
            <path id="Path_837429" data-name="Path 837429" d="M276.434,32.061s-.044.76-.112,1.109a1.914,1.914,0,0,1-1.716-.924c-.022-.037.034-.066.061-.038a2.552,2.552,0,0,0,1.429.732c.044-.092.031-1.3.087-1.3a3.093,3.093,0,0,1,.757.335c.137-1.58.018-3.169.177-4.74a.049.049,0,0,1,.1,0,25.712,25.712,0,0,1,.026,5.113c-.011.2-.677-.2-.805-.286" transform="translate(-140.11 -13.876)" fill="#263238"/>
            <path id="Path_837430" data-name="Path 837430" d="M275.507,38.265a1.835,1.835,0,0,1-.839.4.824.824,0,0,1-.5-.075c-.335-.17-.273-.5-.148-.762a1.973,1.973,0,0,1,.251-.392,2.377,2.377,0,0,0,1.233.828" transform="translate(-139.764 -19.102)" fill="#263238"/>
            <path id="Path_837431" data-name="Path 837431" d="M274.669,39.075a.826.826,0,0,1-.5-.075c-.335-.17-.273-.5-.148-.762a.854.854,0,0,1,.645.838" transform="translate(-139.764 -19.51)" fill="#ff9abb"/>
            <path id="Path_837432" data-name="Path 837432" d="M258.85,20.792c1.294.531,2.467-2.447,2.467-2.447s5.972.573,7.711-3.947a8.15,8.15,0,0,0,2.808,5.377s1.176-5.152-2.6-7.233c0,0-4.523-3.179-8.416.041s-2.84,7.852-1.971,8.209" transform="translate(-131.656 -5.685)" fill="#263238"/>
            <path id="Path_837433" data-name="Path 837433" d="M273.734,17.1a5.235,5.235,0,0,1-.828,2.054,5.45,5.45,0,0,1-1.584,1.587,4.607,4.607,0,0,1-.49.281l-.248.135c-.086.037-.174.071-.262.1-.176.065-.35.137-.529.194s-.364.089-.547.129c-.091.02-.182.043-.273.059l-.278.029-.554.057c-.371,0-.742-.013-1.107-.034.366-.055.732-.072,1.091-.13l.535-.1.266-.051c.088-.023.173-.053.259-.079.172-.055.343-.108.516-.157s.331-.139.5-.208l.247-.1.234-.131a4.556,4.556,0,0,0,.46-.273,6.277,6.277,0,0,0,1.56-1.456,6.525,6.525,0,0,0,.588-.908,6.29,6.29,0,0,0,.449-1" transform="translate(-136.249 -8.725)" fill="#263238"/>
            <path id="Path_837434" data-name="Path 837434" d="M258.419,30.021s-1.053-2.605-2.2-2.28-.716,3.85.378,4.57a1.248,1.248,0,0,0,1.78-.279Z" transform="translate(-130.385 -14.14)" fill="#ffc4c0"/>
            <path id="Path_837435" data-name="Path 837435" d="M257.208,29.826c-.019-.006-.029.02-.014.03a3.155,3.155,0,0,1,1.147,2.288.689.689,0,0,0-.962-.414c-.025.011-.012.049.013.05a.767.767,0,0,1,.763.451,3.714,3.714,0,0,1,.241.756c.022.084.167.075.158-.018,0-.007,0-.014,0-.021.267-1.064-.219-2.751-1.342-3.122" transform="translate(-131.225 -15.218)" fill="#263238"/>
            <path id="Path_837436" data-name="Path 837436" d="M258.665,36.373a.3.3,0,1,1-.2-.375.3.3,0,0,1,.2.375" transform="translate(-131.681 -18.36)" fill="#fff"/>
            <path id="Path_837437" data-name="Path 837437" d="M257.7,35.084a.216.216,0,1,1-.142-.27.215.215,0,0,1,.142.27" transform="translate(-131.269 -17.758)" fill="#fff"/>
            <path id="Path_837438" data-name="Path 837438" d="M255.852,28.9l-.426-.174a.15.15,0,0,1-.083-.2l.005-.013a.151.151,0,0,1,.2-.083l.425.173a.151.151,0,0,1,.083.2l-.005.013a.15.15,0,0,1-.2.083" transform="translate(-130.278 -14.503)" fill="#fff198"/>
            <path id="Path_837439" data-name="Path 837439" d="M255.546,29.894l-.453-.079a.151.151,0,0,1-.122-.174l0-.014a.151.151,0,0,1,.174-.122l.453.079a.151.151,0,0,1,.122.175l0,.014a.152.152,0,0,1-.175.122" transform="translate(-130.093 -15.053)" fill="#fff198"/>
            <path id="Path_837440" data-name="Path 837440" d="M258.3,20.878l-.6.514,1.472,2.487,1.317-1.17Zm1.013,2.265-1.074-1.595.137-.123,1.409,1.313Z" transform="translate(-131.489 -10.653)" fill="#fff198"/>
            <path id="Path_837441" data-name="Path 837441" d="M259.738,18.608l-.36.7,2.3,1.749.779-1.58Zm1.792,1.717-1.6-1.073.08-.166,1.8.686Z" transform="translate(-132.343 -9.494)" fill="#fff198"/>
          </g>
        </g>
        <g id="Group_1019347" data-name="Group 1019347">
          <g id="Group_1019346" data-name="Group 1019346" clip-path="url(#clip-path-2)">
            <path id="Path_837442" data-name="Path 837442" d="M567.107,354.907c-1.015.332-30.751.062-31.845-.649-.421-.263,1.772-28.454,1.772-28.454l18.922.123-1.97,18.863s11.034,5.059,12.157,5.968,1.98,3.822.965,4.149" transform="translate(-273.08 -166.235)" fill="#ad6359"/>
            <path id="Path_837443" data-name="Path 837443" d="M567.055,377.6c-1.013.33-30.752.06-31.845-.651a28.162,28.162,0,0,1,.218-6.668c5.4.836,24.682,3.549,26.168,2.649,1.037-.627.1-1.576-.763-2.211a52.618,52.618,0,0,1,5.257,2.733c1.114.9,1.978,3.822.965,4.148" transform="translate(-273.028 -188.929)" fill="#263238"/>
            <path id="Path_837444" data-name="Path 837444" d="M544.728,253.338H523.88s3.925-44.388,3.761-45.238c-.208-1.089-1.439-6.018-3.077-12.456-.514-2.015-1.067-4.176-1.643-6.416-1.554-6.057-3.268-12.678-4.76-18.438-2.241-8.63-3.99-15.335-3.99-15.335h17.668s2.059,6.527,4.654,15.02c4.229,13.8,9.879,32.8,10.437,37.417.9,7.457-2.2,45.447-2.2,45.447" transform="translate(-262.346 -79.317)" fill="#37474f"/>
            <path id="Path_837445" data-name="Path 837445" d="M555.162,347.891c-3.184-.066-2.269-.092-5.454-.123-1.558-.015-11.8-.1-13.254.137a.034.034,0,0,0,0,.065c1.456.241,11.7.152,13.254.137,3.184-.031,2.27-.057,5.454-.123a.047.047,0,0,0,0-.093" transform="translate(-273.703 -177.428)" fill="#263238"/>
            <path id="Path_837446" data-name="Path 837446" d="M535.321,209.734c-.684-3.014-1.7-5.967-2.594-8.925q-2.71-9.015-5.453-18.021-1.369-4.5-2.75-9-.7-2.272-1.406-4.541c-.464-1.48-.992-2.946-1.41-4.439-.171-.607-.264-.274-.046.5.44,1.555.874,3.112,1.327,4.663q1.347,4.608,2.711,9.21,2.711,9.162,5.469,18.309,1.377,4.589,2.76,9.174a37.672,37.672,0,0,1,1.127,4.438,20.422,20.422,0,0,1,.184,4.748c-.2,3.189-.569,6.374-.864,9.556s-.59,6.378-.885,9.566c-.588,6.346-.9,8.39-1.473,14.737-.073.8-.143,1.609-.2,2.414-.021.269.386.249.415-.01.687-6.275.94-8.268,1.529-14.552q.88-9.381,1.757-18.762c.146-1.57.314-3.143.315-4.722a19.49,19.49,0,0,0-.507-4.336" transform="translate(-266.103 -83.928)" fill="#263238"/>
            <path id="Path_837447" data-name="Path 837447" d="M529.834,155.455c-1.226,9.489-3.565,27.281-5.269,40.189-3.985-15.64-10.392-40.189-10.392-40.189Z" transform="translate(-262.346 -79.318)" fill="#263238"/>
            <path id="Path_837448" data-name="Path 837448" d="M521.716,355.616c-1.014.332-30.751.062-31.845-.649-.421-.262.467-28.454.467-28.454l18.921.123-.664,18.863s11.034,5.059,12.157,5.968,1.98,3.822.965,4.149" transform="translate(-249.89 -166.597)" fill="#ad6359"/>
            <path id="Path_837449" data-name="Path 837449" d="M521.716,378.31c-1.013.33-30.752.06-31.845-.651a52.375,52.375,0,0,1-.08-6.668c5.4.836,24.98,3.549,26.467,2.649,1.037-.627.1-1.576-.763-2.211a52.609,52.609,0,0,1,5.257,2.733c1.114.9,1.978,3.822.965,4.148" transform="translate(-249.889 -189.291)" fill="#263238"/>
            <path id="Path_837450" data-name="Path 837450" d="M517.474,155.455a78.216,78.216,0,0,1-2.342,15.149c-.155.553-.323,1.1-.505,1.621a31.4,31.4,0,0,0-5.092,2.617s-.2,6.8-.408,14.387c-.226,8.479-.46,17.938-.411,19.944.177,7.505-.736,44.083-.736,44.083l-20.843.084s3.565-41.4,3.539-44.145c-.04-4.419,1.034-36.27.841-36.981-2.536-9.366,3.041-16.757,3.041-16.757Z" transform="translate(-248.552 -79.318)" fill="#37474f"/>
            <path id="Path_837451" data-name="Path 837451" d="M508.72,347.456c-3.184-.053-2.27-.082-5.454-.1-1.558-.009-11.8-.054-13.254.193a.034.034,0,0,0,0,.065c1.457.235,11.7.1,13.255.08,3.184-.044,2.27-.066,5.453-.146a.047.047,0,0,0,0-.093" transform="translate(-250.007 -177.228)" fill="#263238"/>
            <path id="Path_837452" data-name="Path 837452" d="M538.791,188.653a38.711,38.711,0,0,0-5.958,3.121.069.069,0,0,0,.062.123c2.011-.977,4.064-1.918,6.018-3a.134.134,0,0,0-.122-.239" transform="translate(-271.85 -96.251)" fill="#263238"/>
            <path id="Path_837453" data-name="Path 837453" d="M538.571,173.027q.1-1.43.22-2.859c.191-2.171.417-4.351.8-6.5.03-.168.266-.1.252.056-.147,1.687-.339,3.371-.5,5.057-.156,1.67-.36,3.363-.39,5.041-.009.506.025,1.364.645,1.5.835.188,1.229-.909,1.429-1.507a27.9,27.9,0,0,0,1.047-4.595c.275-1.77.42-3.563.59-5.345.006-.064.113-.054.113.01.012,3.538-.04,7.236-1.361,10.576a1.962,1.962,0,0,1-1.464,1.4c-.012,0-.024,0-.036,0a.149.149,0,0,1,.01.062c-.014.1-.042.2-.059.3-.013.083-.03.166-.05.248-.035.171-.06.345-.1.516a.13.13,0,0,1-.256-.03.109.109,0,0,1-.073-.1,2.8,2.8,0,0,1,.23-1,1.25,1.25,0,0,1-.914-.769,4.428,4.428,0,0,1-.131-2.058" transform="translate(-274.767 -83.459)" fill="#263238"/>
            <path id="Path_837454" data-name="Path 837454" d="M499.231,177.825a40.278,40.278,0,0,0-.888-4.223c-.692-3.181-.009-6.368.739-9.476a.065.065,0,0,0-.126-.031c-.748,2.648-1.508,5.333-1.218,8.115a35.783,35.783,0,0,0,.8,3.889,18.056,18.056,0,0,1,.363,4.255c-.06,2.828-.246,5.658-.375,8.483q-.2,4.363-.393,8.726-.774,17.275-1.495,34.552c-.266,6.455-.518,12.909-.706,19.367,0,.059.088.056.092,0,.686-11.514,1.195-23.037,1.718-34.558q.781-17.189,1.511-34.379a31.491,31.491,0,0,0-.022-4.719" transform="translate(-253.04 -83.702)" fill="#263238"/>
            <path id="Path_837455" data-name="Path 837455" d="M512.635,164.606c-.215.988-.377,1.987-.647,2.965a4.053,4.053,0,0,1-1.418,2.288,5.993,5.993,0,0,1-2.495,1.036,10.965,10.965,0,0,1-3.628.056c-.053-.009-.074.063-.021.074.631.134,1.247.35,1.889.429a8.451,8.451,0,0,0,1.876.1,5.252,5.252,0,0,0,2.873-1.072,4.38,4.38,0,0,0,1.446-2.581,16.53,16.53,0,0,0,.279-3.28c0-.079-.137-.094-.154-.015" transform="translate(-257.358 -83.96)" fill="#263238"/>
            <path id="Path_837456" data-name="Path 837456" d="M507.388,61.55c-4.08,3.5-2.944,8.6-4.648,11.366-1.042,1.692-4.436,3.479-5.11,5.428-1.109,3.2,1.607,4.354,1,6.095-.861,2.467-4.163,2.275-4.758,6.311s3.845,8.328,14.383,9.49,16.327-2.7,16.705-6.119-3.128-4.563-3.367-7.12c-.152-1.634,2.013-2.772,2.122-5.778s-2.821-3.985-3.24-6.538.932-8.759-2.821-11.927-8.252-2.933-10.265-1.207" transform="translate(-251.962 -30.767)" fill="#263238"/>
            <path id="Path_837457" data-name="Path 837457" d="M506.98,63.033a8.689,8.689,0,0,0-2.709,3.125,19.033,19.033,0,0,0-1.506,4.142,11.455,11.455,0,0,1-.818,2.48,6.344,6.344,0,0,1-1.414,1.746,41.273,41.273,0,0,0-3.524,2.973,4.575,4.575,0,0,0-1.337,4.061,15.4,15.4,0,0,0,1.08,2.236,1.921,1.921,0,0,1-.174,2.21,14.234,14.234,0,0,1-1.889,1.163,6.632,6.632,0,0,0-1.538,1.491,5.155,5.155,0,0,0-.97,4.053c.62,3.278,3.7,5.142,6.535,6.316q.594.245,1.192.481c.061.024.114-.064.051-.092-2.85-1.275-6.157-2.772-7.251-5.958a4.807,4.807,0,0,1,.491-4.23,6.087,6.087,0,0,1,1.505-1.584c.573-.423,1.235-.683,1.818-1.085a1.937,1.937,0,0,0,.9-1.731,4.762,4.762,0,0,0-.784-2.095,3.89,3.89,0,0,1-.672-2.207,4.248,4.248,0,0,1,.843-2.106,16.354,16.354,0,0,1,3.378-3.031,7.113,7.113,0,0,0,2.564-3.547c.218-.751.354-1.525.543-2.284a20.17,20.17,0,0,1,.629-2.083,9.947,9.947,0,0,1,2.228-3.672,5.728,5.728,0,0,1,.871-.715c.035-.024,0-.08-.035-.056" transform="translate(-251.08 -32.158)" fill="#263238"/>
            <path id="Path_837458" data-name="Path 837458" d="M551.214,95.782a3.933,3.933,0,0,0-.729-1.533c-.366-.464-.81-.857-1.216-1.285a3,3,0,0,1-.862-1.423,2.854,2.854,0,0,1,.464-1.9,14.282,14.282,0,0,0,.943-1.837,6.679,6.679,0,0,0,.4-1.964,6.77,6.77,0,0,0-1.06-3.919c-.359-.588-.764-1.148-1.127-1.733a8.447,8.447,0,0,1-.935-2.047c-.475-1.587-.577-3.26-.965-4.869a25.135,25.135,0,0,0-1.711-4.779c-.018-.038-.074,0-.056.035a21.889,21.889,0,0,1,1.5,4.317c.335,1.41.464,2.847.713,4.272a10.788,10.788,0,0,0,.535,2.054,11.068,11.068,0,0,0,.915,1.762,9.818,9.818,0,0,1,1.644,3.683,6.441,6.441,0,0,1-.68,3.945c-.554,1.048-1.33,2.2-.845,3.429.41,1.038,1.4,1.661,2.058,2.521a4.163,4.163,0,0,1,.713,3.331c-.567,2.95-3.524,4.414-6.293,4.56a.067.067,0,0,0,0,.135c2.407-.029,5.025-1.087,6.153-3.34a5.1,5.1,0,0,0,.439-3.416" transform="translate(-277.749 -34.939)" fill="#263238"/>
            <path id="Path_837459" data-name="Path 837459" d="M578.416,74.61l-3.44,13.228c-.145.387.049.705.43.708l6.839.052a1.107,1.107,0,0,0,.954-.7l3.441-13.228c.145-.388-.048-.705-.43-.708l-6.839-.052a1.107,1.107,0,0,0-.955.7" transform="translate(-293.346 -37.713)" fill="#a6a6a6"/>
            <path id="Path_837460" data-name="Path 837460" d="M580.073,74.608l-3.441,13.228c-.145.387.048.705.43.708l6.839.052a1.108,1.108,0,0,0,.954-.7L588.3,74.672c.145-.388-.048-.706-.43-.709l-6.839-.052a1.107,1.107,0,0,0-.955.7" transform="translate(-294.191 -37.712)" fill="#dbdbdb"/>
            <path id="Path_837461" data-name="Path 837461" d="M586.316,75.978a.581.581,0,1,1-.564-.6.581.581,0,0,1,.564.6" transform="translate(-298.564 -38.461)" fill="#455a64"/>
            <path id="Path_837462" data-name="Path 837462" d="M535.5,109.173c3.734,8.3,12.246,19.149,15.84,19.256,1.71.051,4.757.51,7.034-1.418,4.968-4.208,9.2-12.341,10.109-17.023.324-1.665-7.74-5.417-8.963-4.077-2.861,3.138-6.231,9.333-6.727,9.287-1.838-.17-8.933-6.28-13.886-10.581-6.012-5.222-4.895,1.247-3.407,4.557" transform="translate(-272.628 -52.376)" fill="#ad6359"/>
            <path id="Path_837463" data-name="Path 837463" d="M599.589,89.733c-.8-3.4-1.533-4.155-.685-7.389.556-2.122-.56-3.388-2.1-1.7-2.516,2.755-2.4,7.366-1.9,8.953Z" transform="translate(-303.391 -40.748)" fill="#ad6359"/>
            <path id="Path_837464" data-name="Path 837464" d="M590.983,99.89s1.591-4.7,1.094-8.413c-.344-2.567-1.716-8.07-8.838-11.08-1.69-.714-4.6-.533-2.267,1.635,1.659,1.54,3.177,2.015,3.978,3.087,0,0-3.679.67-4.328,2.391a33.889,33.889,0,0,0-1.376,4.616,7.1,7.1,0,0,0,.841.335,6.063,6.063,0,0,0,.722,4.008Z" transform="translate(-295.55 -40.83)" fill="#ad6359"/>
            <path id="Path_837465" data-name="Path 837465" d="M588.206,93.338a20.368,20.368,0,0,0-5.542-3.654c-2.583-1-7.827-2.221-8.544-.307-.525,1.4,1.436,2.047,1.436,2.047s-2.274-.049-2.471,1.322c-.18,1.25,1.367,1.657,1.367,1.657s-1.385.208-1.326,1.444c.071,1.488,2.962.81,4.336,2.256.309.325,10.744-4.766,10.744-4.766" transform="translate(-292.398 -45.089)" fill="#ad6359"/>
            <path id="Path_837466" data-name="Path 837466" d="M584.643,95.632a11.03,11.03,0,0,0-6.465-1.2c-.056.009-.079.056-.026.059a27.176,27.176,0,0,1,6.483,1.168c.014,0,.021-.017.009-.025" transform="translate(-294.975 -48.132)" fill="#263238"/>
            <path id="Path_837467" data-name="Path 837467" d="M582.373,101.243a12.381,12.381,0,0,0-6.526-.814c-.056.011-.076.06-.023.06a29.124,29.124,0,0,1,6.541.779c.015,0,.021-.019.008-.025" transform="translate(-293.788 -51.165)" fill="#263238"/>
            <path id="Path_837468" data-name="Path 837468" d="M556.611,108.818l10,10.359s-7.6,8.323-10.18,9.091a11.9,11.9,0,0,1-6.448.084c-1.862-.421-11.449-10.348-14.888-18.707s-.284-8.95,5.054-4.073,11.882,9.612,12.16,9.221,4.3-5.975,4.3-5.975" transform="translate(-272.29 -52.293)" fill="#fff198"/>
            <g id="Group_1019336" data-name="Group 1019336" transform="translate(261.37 50.196)" opacity="0.1">
              <g id="Group_1019335" data-name="Group 1019335">
                <g id="Group_1019334" data-name="Group 1019334" clip-path="url(#clip-path-9)">
                  <path id="Path_837469" data-name="Path 837469" d="M556.611,108.818l10,10.359s-7.6,8.323-10.18,9.091a11.9,11.9,0,0,1-6.448.084c-1.862-.421-11.449-10.348-14.888-18.707s-.284-8.95,5.054-4.073,11.882,9.612,12.16,9.221,4.3-5.975,4.3-5.975" transform="translate(-533.66 -102.489)"/>
                </g>
              </g>
            </g>
            <path id="Path_837470" data-name="Path 837470" d="M577.307,121.68c.4.323,3.737,3.69,4.481,4.449s3.585,3.852,4.3,4.638c.03.033-.016.083-.048.051-.386-.378-.8-.723-1.191-1.1s-2.611-2.633-3.331-3.388-3.962-4.186-4.274-4.6c-.028-.037.027-.075.059-.049" transform="translate(-294.526 -62.081)" fill="#263238"/>
            <g id="Group_1019339" data-name="Group 1019339" transform="translate(261.37 50.367)" opacity="0.1">
              <g id="Group_1019338" data-name="Group 1019338">
                <g id="Group_1019337" data-name="Group 1019337" clip-path="url(#clip-path-10)">
                  <path id="Path_837471" data-name="Path 837471" d="M559.965,125.976a12.64,12.64,0,0,1-3.536,2.468,11.874,11.874,0,0,1-6.445.088c-1.861-.421-11.451-10.349-14.889-18.709-1.7-4.143-1.788-6.377-.793-6.984Z" transform="translate(-533.659 -102.839)"/>
                </g>
              </g>
            </g>
            <path id="Path_837472" data-name="Path 837472" d="M522.439,121.164l2.732,11.57s-24.568-.371-30.651-.983c0,0,5.814-22.334,12.581-29.255,3.385-3.462,7.226-3.081,9.6-.519.6.648,6.726,8.535,7.395,12.3.582,3.32-1.661,6.888-1.661,6.888" transform="translate(-252.319 -51.012)" fill="#fff198"/>
            <g id="Group_1019342" data-name="Group 1019342" transform="translate(242.21 49.476)" opacity="0.1">
              <g id="Group_1019341" data-name="Group 1019341">
                <g id="Group_1019340" data-name="Group 1019340" clip-path="url(#clip-path-11)">
                  <path id="Path_837473" data-name="Path 837473" d="M530.689,101.22H525.12c.142-.073.284-.142.426-.2h4.736a4.466,4.466,0,0,1,.407.2" transform="translate(-510.143 -101.019)"/>
                  <path id="Path_837474" data-name="Path 837474" d="M530.368,103.97H521.19c.073-.069.147-.137.225-.2h8.762c.044.044.093.093.137.142.015.015.029.034.054.059" transform="translate(-508.138 -102.422)"/>
                  <path id="Path_837475" data-name="Path 837475" d="M530.1,106.73H518.58c.054-.069.113-.132.166-.2h11.206c.049.064.1.132.152.2" transform="translate(-506.806 -103.83)"/>
                  <path id="Path_837476" data-name="Path 837476" d="M530.047,109.48H516.5c.049-.069.1-.137.142-.2H529.9c.049.064.1.132.152.2" transform="translate(-505.745 -105.234)"/>
                  <path id="Path_837477" data-name="Path 837477" d="M530.079,112.23H514.7c.044-.069.083-.137.127-.2h15.109c.049.069.1.132.142.2" transform="translate(-504.826 -106.637)"/>
                  <path id="Path_837478" data-name="Path 837478" d="M530.173,114.99H513.09c.034-.069.073-.132.113-.2h16.838c.039.069.088.137.132.2" transform="translate(-504.005 -108.045)"/>
                  <path id="Path_837479" data-name="Path 837479" d="M530.265,117.74H511.6c.039-.069.073-.137.108-.2h18.435c.044.069.083.132.123.2" transform="translate(-503.245 -109.448)"/>
                  <path id="Path_837480" data-name="Path 837480" d="M530.36,120.495H510.23c.029-.064.064-.132.093-.2h19.929a1.538,1.538,0,0,1,.108.2" transform="translate(-502.546 -110.856)"/>
                  <path id="Path_837481" data-name="Path 837481" d="M530.421,123.25H508.93c.029-.069.059-.132.088-.2h21.3c.039.069.069.137.1.2" transform="translate(-501.882 -112.259)"/>
                  <path id="Path_837482" data-name="Path 837482" d="M530.391,126H507.7c.029-.069.059-.132.088-.2h22.525a2.082,2.082,0,0,1,.078.2" transform="translate(-501.255 -113.663)"/>
                  <path id="Path_837483" data-name="Path 837483" d="M530.21,128.76H506.53c.024-.069.054-.137.083-.2h23.553a1.635,1.635,0,0,1,.044.2" transform="translate(-500.658 -115.071)"/>
                  <path id="Path_837484" data-name="Path 837484" d="M529.751,131.309v.2H505.41c.024-.069.054-.132.078-.2Z" transform="translate(-500.086 -116.474)"/>
                  <path id="Path_837485" data-name="Path 837485" d="M529.1,134.059c-.01.069-.02.132-.034.2H504.33c.025-.069.054-.137.074-.2Z" transform="translate(-499.535 -117.877)"/>
                  <path id="Path_837486" data-name="Path 837486" d="M528.273,136.819c-.02.069-.039.137-.059.2H503.29c.025-.064.049-.132.074-.2Z" transform="translate(-499.005 -119.285)"/>
                  <path id="Path_837487" data-name="Path 837487" d="M527.293,139.569c-.029.069-.059.137-.083.2H502.29c.024-.069.044-.132.073-.2Z" transform="translate(-498.494 -120.688)"/>
                  <path id="Path_837488" data-name="Path 837488" d="M526.161,142.319c-.039.078-.073.142-.108.2H501.32c.025-.069.049-.137.069-.2Z" transform="translate(-497.999 -122.092)"/>
                  <path id="Path_837489" data-name="Path 837489" d="M525.686,145.28H500.38c.024-.069.044-.137.064-.2h25.194Z" transform="translate(-497.52 -123.5)"/>
                  <path id="Path_837490" data-name="Path 837490" d="M525.54,148.03H499.47c.02-.069.044-.132.064-.2h25.958Z" transform="translate(-497.055 -124.903)"/>
                  <path id="Path_837491" data-name="Path 837491" d="M525.41,150.78H498.59c.02-.069.039-.132.064-.2h26.707Z" transform="translate(-496.606 -126.306)"/>
                  <path id="Path_837492" data-name="Path 837492" d="M525.289,153.54H497.73c.015-.064.039-.132.059-.2h27.456Z" transform="translate(-496.168 -127.714)"/>
                  <path id="Path_837493" data-name="Path 837493" d="M525.179,156.29H496.89c.02-.064.039-.132.064-.2h28.181Z" transform="translate(-495.739 -129.117)"/>
                  <path id="Path_837494" data-name="Path 837494" d="M525.084,159.04h-29c.02-.064.039-.132.059-.2h28.9Z" transform="translate(-495.326 -130.521)"/>
                  <path id="Path_837495" data-name="Path 837495" d="M525,161.8H495.29c.02-.064.039-.132.059-.2h29.607Z" transform="translate(-494.923 -131.929)"/>
                  <path id="Path_837496" data-name="Path 837496" d="M524.935,164.55h-30.4c.015-.039.029-.108.054-.2h30.3Z" transform="translate(-494.54 -133.332)"/>
                </g>
              </g>
            </g>
            <path id="Path_837497" data-name="Path 837497" d="M551.217,122.337a11.14,11.14,0,0,0-1.211-4.036s0,0,0-.006a3.309,3.309,0,0,0-.151-.393c-.052-.134-.1-.268-.156-.4-.215-.526-.435-1.049-.664-1.568-.007-.018-.036-.01-.029.009q.222.607.458,1.207.093.238.189.474-.17-.309-.349-.612a28.943,28.943,0,0,0-1.871-2.74.023.023,0,0,0-.039.025,37.756,37.756,0,0,1,2.615,4.951,10.887,10.887,0,0,1,.7,5.417,10.307,10.307,0,0,1-.933,3.04.038.038,0,0,0,.067.037,8.78,8.78,0,0,0,1.372-5.4" transform="translate(-279.295 -58.299)" fill="#263238"/>
            <path id="Path_837498" data-name="Path 837498" d="M494.847,73.629c-9.091-4.436-18.195-13.086-19.249-15.567-1.159-2.73-2.529-12.865-1.738-19.242.2-1.594,12.557,1.815,12.274,3.509-.545,3.261-.356,11.736.367,13.234.669,1.386,7.292,8.154,11.315,12.875,3.361,3.945,1.583,7.412-2.969,5.191" transform="translate(-241.659 -19.596)" fill="#ad6359"/>
            <path id="Path_837499" data-name="Path 837499" d="M477.825,9.427a1.913,1.913,0,0,1,1.89,1.1,2.839,2.839,0,0,1,1.826-.625c1.167.075,1.561,1.938,1.561,1.938a3.5,3.5,0,0,1,2.032-.353c1.109.184,1.775,2.007,1.775,2.007a3.07,3.07,0,0,1,1.981.814c1.393,1.4.712,4.329.3,6.2s-3.337,6.782-3.8,7.775l-12.016-2.552s-.529-8.907.269-11.035c.673-1.793,2.7-5.08,4.182-5.26" transform="translate(-241.442 -4.803)" fill="#ad6359"/>
            <path id="Path_837500" data-name="Path 837500" d="M483.489,11.742a25.008,25.008,0,0,0-2.475,5.671.036.036,0,0,0,.068.024c.681-1.947,1.74-3.733,2.5-5.649a.05.05,0,0,0-.089-.045" transform="translate(-245.427 -5.981)" fill="#263238"/>
            <path id="Path_837501" data-name="Path 837501" d="M491.353,14.336a5.457,5.457,0,0,0-.512,1.332q-.223.725-.421,1.458c-.266.977-.509,1.961-.723,2.95-.009.044.055.069.068.024.266-.974.547-1.943.854-2.9q.231-.722.473-1.44a6.528,6.528,0,0,0,.392-1.373.073.073,0,0,0-.131-.047" transform="translate(-249.858 -7.299)" fill="#263238"/>
            <path id="Path_837502" data-name="Path 837502" d="M499.632,17.806a3.793,3.793,0,0,0-.4,1.224q-.167.671-.342,1.341c-.234.893-.467,1.785-.731,2.67-.013.044.054.068.068.024.273-.9.558-1.79.823-2.689q.2-.663.383-1.327a3.566,3.566,0,0,0,.242-1.232.026.026,0,0,0-.046-.01" transform="translate(-254.176 -9.08)" fill="#263238"/>
            <path id="Path_837503" data-name="Path 837503" d="M497.383,69.3c-2.782-4-12-12.78-12.234-13.8s-.04-12.417-.04-12.417L470.464,38.9s1.14,15.13,3.554,19.842c1.856,3.621,12.645,12.662,17.886,14.915s9.037.754,5.478-4.358" transform="translate(-240.045 -19.85)" fill="#fff198"/>
            <g id="Group_1019345" data-name="Group 1019345" transform="translate(230.419 19.053)" opacity="0.1">
              <g id="Group_1019344" data-name="Group 1019344">
                <g id="Group_1019343" data-name="Group 1019343" clip-path="url(#clip-path-12)">
                  <path id="Path_837504" data-name="Path 837504" d="M497.383,69.3c-2.782-4-12-12.78-12.234-13.8s-.04-12.417-.04-12.417L470.464,38.9s1.14,15.13,3.554,19.842c1.856,3.621,12.645,12.662,17.886,14.915s9.037.754,5.478-4.358" transform="translate(-470.464 -38.903)"/>
                </g>
              </g>
            </g>
            <path id="Path_837505" data-name="Path 837505" d="M472.527,45.447a119.47,119.47,0,0,0,12.4,3.729.035.035,0,0,0,.019-.068,119.55,119.55,0,0,0-12.393-3.762.053.053,0,0,0-.027.1" transform="translate(-241.079 -23.136)" fill="#263238"/>
            <path id="Path_837506" data-name="Path 837506" d="M530.523,99.361c2.731,1.184,5.413,5.94,4.868,6.561s-2.631-1.093-2.631-1.093-.172,1.965-1.4,2.019-3.155-2.533-3.593-4.407c-.655-2.8.431-4.087,2.754-3.08" transform="translate(-269.188 -50.524)" fill="#fff"/>
            <path id="Path_837507" data-name="Path 837507" d="M527.646,95.615c.2.454,3.048,3.105,5.2,2.593.7-.168-.047-4.028-.047-4.028l.01-.3.138-4.165-5.264-2.125-.754-.27s.038,1.142.1,2.564c0,.066,0,.132.009.2s0,.157.006.232c.006.213.014.43.026.646.008.165.016.324.031.5s.026.341.035.514a26.774,26.774,0,0,0,.514,3.639" transform="translate(-268.854 -44.554)" fill="#ad6359"/>
            <path id="Path_837508" data-name="Path 837508" d="M527.026,89.886a8.361,8.361,0,0,0,5.782,4l.138-4.165-5.264-2.125-.754-.27s.038,1.142.1,2.564" transform="translate(-268.855 -44.554)" fill="#263238"/>
            <path id="Path_837509" data-name="Path 837509" d="M535.13,70.4c1.2,7.216-2.987,8.749-4.543,9.006-1.413.233-6.253.848-8.191-6.205s1.037-9.892,4.24-10.6,7.3.58,8.494,7.8" transform="translate(-266.229 -31.857)" fill="#ad6359"/>
            <path id="Path_837510" data-name="Path 837510" d="M522.028,72.607c1.785-.181,1.943-5.714,1.955-6.393a13,13,0,0,0,.28,2.776,1.743,1.743,0,0,0,.554-.143h0a5.361,5.361,0,0,1,.012-.815c.006-.126.065.269.166.754.1-.035.207-.075.324-.114a6.527,6.527,0,0,1,.057-1.733,12.153,12.153,0,0,1,.419,1.569,21.629,21.629,0,0,1,4.629-1.134c.445-.046.83-.066,1.172-.072-.042-.669-.166-1.376-.107-1.225a6.44,6.44,0,0,1,.361,1.223c.186,0,.357,0,.511,0-.016-.947-.564-2.424-.4-2.2a6.661,6.661,0,0,1,1.064,2.265c.652.082.839.2.845.028a7.891,7.891,0,0,0-2.716-4.722,6.342,6.342,0,0,0-9.171,1.215,5.826,5.826,0,0,0-2.165,3.687c-.184,2.195,1.17,5.137,2.2,5.033" transform="translate(-265.224 -31.251)" fill="#263238"/>
            <path id="Path_837511" data-name="Path 837511" d="M522.353,83.466s-1.77-2.152-2.758-1.5.467,3.854,1.715,4.211a1.237,1.237,0,0,0,1.6-.792Z" transform="translate(-264.947 -41.758)" fill="#ad6359"/>
            <path id="Path_837512" data-name="Path 837512" d="M520.817,83.945a.017.017,0,0,0,0,.033,3.128,3.128,0,0,1,1.764,1.824.683.683,0,0,0-1.033-.107c-.021.018,0,.051.027.044a.762.762,0,0,1,.856.2,3.709,3.709,0,0,1,.453.644c.046.073.18.022.144-.064l-.009-.02c-.063-1.085-1.025-2.536-2.2-2.555" transform="translate(-265.729 -42.831)" fill="#263238"/>
            <path id="Path_837513" data-name="Path 837513" d="M545.442,75.4a4.867,4.867,0,0,1-.506-.061.826.826,0,0,1-.5-.161.263.263,0,0,1-.028-.319.65.65,0,0,1,.626-.207.957.957,0,0,1,.627.285.28.28,0,0,1-.216.464" transform="translate(-277.751 -38.085)" fill="#263238"/>
            <path id="Path_837514" data-name="Path 837514" d="M536.556,76.211a5.067,5.067,0,0,0,.488-.147.822.822,0,0,0,.468-.247.261.261,0,0,0-.028-.319.649.649,0,0,0-.652-.1.955.955,0,0,0-.568.389.28.28,0,0,0,.293.42" transform="translate(-273.594 -38.451)" fill="#263238"/>
            <path id="Path_837515" data-name="Path 837515" d="M538.816,80.706c-.006-.019-.036.028-.033.049.071.5.069,1.079-.364,1.295-.014.007-.009.032.007.027.543-.139.538-.911.391-1.371" transform="translate(-274.714 -41.176)" fill="#263238"/>
            <path id="Path_837516" data-name="Path 837516" d="M537.629,79.746c-.81.028-.694,1.646.056,1.62s.622-1.643-.056-1.62" transform="translate(-274.03 -40.689)" fill="#263238"/>
            <path id="Path_837517" data-name="Path 837517" d="M536.581,79.956c-.135.1-.261.273-.431.3-.2.033-.356-.125-.5-.279-.015-.016-.027,0-.026.021.018.311.16.62.5.642.306.021.5-.269.559-.586.011-.059-.046-.141-.1-.1" transform="translate(-273.293 -40.79)" fill="#263238"/>
            <path id="Path_837518" data-name="Path 837518" d="M545.091,79.845c0-.02.041.021.042.042.016.5.119,1.075.583,1.213.015,0,.015.029,0,.028-.558-.043-.687-.8-.622-1.283" transform="translate(-278.115 -40.737)" fill="#263238"/>
            <path id="Path_837519" data-name="Path 837519" d="M545.511,78.716c.8-.113.969,1.5.225,1.6s-.9-1.51-.225-1.6" transform="translate(-278.12 -40.161)" fill="#263238"/>
            <path id="Path_837520" data-name="Path 837520" d="M546.583,78.687c.136.072.278.215.432.209.178-.007.291-.194.386-.374.01-.018.024-.006.027.015.04.308-.029.639-.319.729-.264.082-.49-.162-.6-.462-.02-.055.015-.146.07-.118" transform="translate(-278.845 -40.06)" fill="#263238"/>
            <path id="Path_837521" data-name="Path 837521" d="M539.3,88.789c.124.115.247.273.43.284a1.328,1.328,0,0,0,.537-.14.017.017,0,0,1,.022.025.676.676,0,0,1-.63.289.535.535,0,0,1-.406-.434c-.008-.029.03-.041.048-.024" transform="translate(-275.14 -45.299)" fill="#263238"/>
            <path id="Path_837522" data-name="Path 837522" d="M541.975,79.454s.167.742.2,1.1a1.915,1.915,0,0,1-1.9-.418c-.031-.029.015-.073.049-.054a2.545,2.545,0,0,0,1.575.312c.017-.1-.328-1.262-.272-1.271a3.093,3.093,0,0,1,.82.115c-.3-1.557-.851-3.053-1.129-4.607a.049.049,0,0,1,.091-.031,25.671,25.671,0,0,1,1.427,4.91c.046.2-.706-.006-.853-.054" transform="translate(-275.656 -38.049)" fill="#263238"/>
            <path id="Path_837523" data-name="Path 837523" d="M541.541,86.308a1.841,1.841,0,0,1-.7.617.826.826,0,0,1-.5.064c-.369-.072-.4-.4-.352-.693a1.974,1.974,0,0,1,.134-.446,2.382,2.382,0,0,0,1.413.458" transform="translate(-275.513 -43.803)" fill="#263238"/>
            <path id="Path_837524" data-name="Path 837524" d="M540.844,87.389a.826.826,0,0,1-.5.064c-.369-.072-.4-.4-.352-.692a.853.853,0,0,1,.85.628" transform="translate(-275.513 -44.268)" fill="#ff9abb"/>
          </g>
        </g>
        <g id="Group_1019349" data-name="Group 1019349">
          <g id="Group_1019348" data-name="Group 1019348" clip-path="url(#clip-path-2)">
            <path id="Path_837525" data-name="Path 837525" d="M49.493,353.443c.366-1.035,19.327-25.033,20.6-25.476.145-.059,8.272,5.983,8.272,5.983.331.461,16.08-2.526,16.08-2.526L94.2,350.343l-28.55-1.2s-3.905,2.188-7.473,3.962c-.006,0-.008,0-.012,0a42.553,42.553,0,0,1-4.689,2.155c-1.437.336-4.36-.787-3.987-1.817" transform="translate(-25.236 -167.339)" fill="#c95f50"/>
            <path id="Path_837526" data-name="Path 837526" d="M53.481,355.26A41.624,41.624,0,0,0,58.17,353.1s.009,0,.013,0c3.565-1.774,7.471-3.965,7.471-3.965l6.354.269,10.286-15.851a15.641,15.641,0,0,1-3.932.392s-8.123-6.042-8.27-5.981c-1.27.442-20.23,24.439-20.6,25.474s2.55,2.157,3.987,1.818" transform="translate(-25.237 -167.339)" fill="#fff"/>
            <path id="Path_837527" data-name="Path 837527" d="M49.147,353.471c.385-1.06,19.429-25.043,20.733-25.5.494-.175,4.477,2.4,8.305,5.977L65.889,349.4s-11.165,5.62-12.649,5.966-4.478-.831-4.093-1.891" transform="translate(-25.059 -167.337)" fill="#fff198"/>
            <path id="Path_837528" data-name="Path 837528" d="M51.6,355.546c3.291-3.942,16.193-20.151,19.147-24.3.024-.034,0-.051-.025-.02-3.348,3.836-16.118,20.149-19.188,24.266-.065.087,0,.135.066.052" transform="translate(-26.281 -168.995)" fill="#263238"/>
            <path id="Path_837529" data-name="Path 837529" d="M61.229,376.12a4.125,4.125,0,0,0,.928-3.184,4,4,0,0,0-1.433-2.6c-.024-.018-.06.025-.038.049a4.766,4.766,0,0,1,.493,5.7.032.032,0,0,0,.05.04" transform="translate(-30.96 -188.953)" fill="#263238"/>
            <path id="Path_837530" data-name="Path 837530" d="M80.257,367.393a7.153,7.153,0,0,0,1.692-5.953c-.02-.079-.133-.049-.146.018a28.387,28.387,0,0,1-1.766,5.8.129.129,0,0,0,.22.13" transform="translate(-40.832 -184.394)" fill="#263238"/>
            <path id="Path_837531" data-name="Path 837531" d="M77.254,369.145a7.156,7.156,0,0,0,1.692-5.953c-.021-.079-.133-.049-.146.018a28.389,28.389,0,0,1-1.766,5.8.129.129,0,0,0,.22.13" transform="translate(-39.299 -185.288)" fill="#263238"/>
            <path id="Path_837532" data-name="Path 837532" d="M74.251,370.9a7.152,7.152,0,0,0,1.692-5.953c-.02-.079-.133-.049-.146.018a28.4,28.4,0,0,1-1.766,5.805.129.129,0,0,0,.22.129" transform="translate(-37.768 -186.181)" fill="#263238"/>
            <path id="Path_837533" data-name="Path 837533" d="M71.249,372.647a7.154,7.154,0,0,0,1.692-5.953c-.02-.079-.133-.049-.146.018a28.4,28.4,0,0,1-1.766,5.805.129.129,0,0,0,.22.129" transform="translate(-36.236 -187.075)" fill="#263238"/>
            <path id="Path_837534" data-name="Path 837534" d="M93.587,336.554a1.793,1.793,0,0,0-2.812-2.22,1.793,1.793,0,0,0,2.812,2.22" transform="translate(-46.115 -170.244)" fill="#263238"/>
            <path id="Path_837535" data-name="Path 837535" d="M83.875,376.205c1.322-.278,1.477-1.829,1.174-2.888a10.785,10.785,0,0,0-2.954-4.73.054.054,0,0,0-.086.014.251.251,0,0,0-.359.187,17.947,17.947,0,0,0-.032,5.416c.252,1.026,1.006,2.264,2.257,2m-1.852-4.69c.037-.874.116-1.742.12-2.617a32.392,32.392,0,0,1,1.664,2.8,11.632,11.632,0,0,1,.619,1.45c.254.771.344,3.419-1.533,2.189-1.035-.678-.912-2.779-.869-3.822" transform="translate(-41.537 -188.057)" fill="#263238"/>
            <path id="Path_837536" data-name="Path 837536" d="M84.966,358.556a17.945,17.945,0,0,0-2.956,4.538.251.251,0,0,0,.2.354.054.054,0,0,0,.064.059,10.781,10.781,0,0,0,5.07-2.321c.836-.718,1.56-2.1.61-3.057-.9-.908-2.21-.291-2.986.428m1.687-.244c2.245.007.711,2.167.074,2.671a11.562,11.562,0,0,1-1.315.869,32.173,32.173,0,0,1-2.931,1.421c.479-.733.89-1.5,1.341-2.251.538-.894,1.593-2.715,2.83-2.711" transform="translate(-41.829 -182.496)" fill="#263238"/>
            <path id="Path_837537" data-name="Path 837537" d="M119.028,321.254l12.877-1.015s18.6-5.39,29.344-2.568c12.321,3.235,14.06,17.632,1.533,23.4-12.393,5.708-66.955,3.6-66.955,3.6l11.7-17.323s17.963-4.22,33.69-3.363l-22.266,2.564Z" transform="translate(-48.893 -161.668)" fill="#37474f"/>
            <path id="Path_837538" data-name="Path 837538" d="M143.318,331.422c1.916-.315,3.854-.472,5.787-.651,1.949-.181,3.9-.322,5.855-.445a116.175,116.175,0,0,1,11.711-.178c.366.014.731.036,1.1.056.078-.024.161-.036.241-.054.189-.041.376-.084.566-.116.353-.06.709-.1,1.065-.151.741-.1,1.484-.16,2.221-.283.045-.007.061.06.016.07-.742.148-1.473.347-2.215.493-.214.042-.429.084-.643.122,1.43.1,2.856.245,4.282.4.045,0,.045.075,0,.071-1.941-.155-3.9-.21-5.847-.217s-3.867-.005-5.8.065c-3.909.142-7.818.411-11.716.737-2.187.183-4.38.408-6.575.454-.213,0-.26-.342-.044-.378" transform="translate(-73.053 -168.172)" fill="#263238"/>
            <path id="Path_837539" data-name="Path 837539" d="M107.228,354.805c.722-1.1,1.342-2.283,2.005-3.422s1.331-2.285,2-3.426c1.332-2.276,6.1-9.927,6.566-10.459.03-.034.088.007.072.047-.229.595-3.212,5.664-3.9,6.794-1.372,2.259-2.809,4.473-4.227,6.7-.405.637-.824,1.265-1.234,1.9s-.845,1.254-1.224,1.9c-.023.04-.085,0-.06-.039" transform="translate(-54.708 -172.196)" fill="#263238"/>
            <path id="Path_837540" data-name="Path 837540" d="M191.649,359.582c-.316-1.051-18.121-25.92-19.368-26.423-.143-.066-8.546,5.585-8.546,5.585-.353.445-15.942-3.284-15.942-3.284l-.659,18.909,28.575.151s3.8,2.37,7.276,4.311c.006,0,.009,0,.012,0a42.7,42.7,0,0,0,4.582,2.375c1.419.4,4.393-.58,4.069-1.626" transform="translate(-75.072 -169.988)" fill="#c95f50"/>
            <path id="Path_837541" data-name="Path 837541" d="M200.8,361.209a41.494,41.494,0,0,1-4.581-2.375s-.009,0-.013,0c-3.477-1.941-7.275-4.313-7.275-4.313l-6.36-.032-9.524-16.321a15.649,15.649,0,0,0,3.909.578s8.4-5.651,8.544-5.583c1.248.5,19.05,25.37,19.368,26.421s-2.649,2.033-4.068,1.626" transform="translate(-88.295 -169.989)" fill="#fff"/>
            <path id="Path_837542" data-name="Path 837542" d="M209.11,359.616c-.335-1.078-18.222-25.934-19.5-26.451-.485-.2-4.586,2.187-8.579,5.577l11.551,16.012s10.886,6.142,12.352,6.558,4.512-.618,4.178-1.7" transform="translate(-92.366 -169.985)" fill="#fff198"/>
            <path id="Path_837543" data-name="Path 837543" d="M217.076,361.652c-3.1-4.093-15.221-20.9-17.975-25.177-.023-.035,0-.051.026-.019,3.162,3.99,15.146,20.889,18.017,25.146.06.09,0,.136-.069.049" transform="translate(-101.583 -171.662)" fill="#263238"/>
            <path id="Path_837544" data-name="Path 837544" d="M224.778,382.694a4.124,4.124,0,0,1-.776-3.225,4,4,0,0,1,1.555-2.532c.025-.017.059.028.036.05a4.765,4.765,0,0,0-.762,5.67.032.032,0,0,1-.052.037" transform="translate(-114.257 -192.323)" fill="#263238"/>
            <path id="Path_837545" data-name="Path 837545" d="M205.7,372.987a7.152,7.152,0,0,1-1.408-6.026c.024-.078.135-.043.145.025a28.44,28.44,0,0,0,1.489,5.882.129.129,0,0,1-.226.119" transform="translate(-104.126 -187.212)" fill="#263238"/>
            <path id="Path_837546" data-name="Path 837546" d="M208.615,374.878a7.154,7.154,0,0,1-1.408-6.026c.024-.078.135-.043.145.025a28.378,28.378,0,0,0,1.489,5.882.129.129,0,0,1-.226.119" transform="translate(-105.614 -188.177)" fill="#263238"/>
            <path id="Path_837547" data-name="Path 837547" d="M211.531,376.769a7.154,7.154,0,0,1-1.408-6.026c.024-.078.135-.043.145.025a28.409,28.409,0,0,0,1.489,5.882.129.129,0,0,1-.226.119" transform="translate(-107.102 -189.142)" fill="#263238"/>
            <path id="Path_837548" data-name="Path 837548" d="M214.448,378.66a7.152,7.152,0,0,1-1.408-6.026c.023-.078.134-.043.144.025a28.383,28.383,0,0,0,1.489,5.882.129.129,0,0,1-.226.119" transform="translate(-108.591 -190.106)" fill="#263238"/>
            <path id="Path_837549" data-name="Path 837549" d="M192.23,341.556a1.793,1.793,0,0,1,2.914-2.084,1.793,1.793,0,0,1-2.914,2.084" transform="translate(-97.906 -172.833)" fill="#263238"/>
            <path id="Path_837550" data-name="Path 837550" d="M202.032,379.784a17.947,17.947,0,0,0,.224-5.411.251.251,0,0,0-.35-.2.054.054,0,0,0-.085-.018,10.781,10.781,0,0,0-3.174,4.584c-.352,1.044-.271,2.6,1.036,2.94,1.237.322,2.049-.879,2.349-1.892m-1.326,1.072c-1.934,1.14-1.718-1.5-1.428-2.259a11.519,11.519,0,0,1,.687-1.418,32.278,32.278,0,0,1,1.795-2.718c-.038.875,0,1.745,0,2.62-.006,1.043.017,3.148-1.05,3.776" transform="translate(-101.264 -190.897)" fill="#263238"/>
            <path id="Path_837551" data-name="Path 837551" d="M193.917,363.216c-.995.914-.336,2.326.464,3.083a10.784,10.784,0,0,0,4.955,2.559.054.054,0,0,0,.067-.056.25.25,0,0,0,.214-.343,17.935,17.935,0,0,0-2.738-4.674c-.74-.754-2.021-1.433-2.962-.569M197.9,366.3c.415.77.79,1.556,1.233,2.311a32.176,32.176,0,0,1-2.861-1.558,11.6,11.6,0,0,1-1.272-.93c-.612-.534-2.042-2.764.2-2.665,1.236.055,2.2,1.924,2.7,2.842" transform="translate(-98.686 -185.118)" fill="#263238"/>
            <path id="Path_837552" data-name="Path 837552" d="M97.106,320.438l-12.819-.34s-13.236-6.8-24.106-4.491c-12.46,2.648-14.457,18.158-5.347,23.9,11.541,7.279,63.755,7.315,63.755,7.315l-10.773-19.418s-17.254-4.113-33-4l22.119,3.615Z" transform="translate(-25.095 -160.788)" fill="#37474f"/>
            <path id="Path_837553" data-name="Path 837553" d="M127.028,335.839a.433.433,0,0,1-.021-.1l-.018-.08c-.014-.062-.028-.124-.044-.186a3.892,3.892,0,0,0-.121-.378c-.046-.125-.1-.247-.149-.368a2.875,2.875,0,0,0-.2-.343c-.007-.012-.02-.014-.029-.022l-.02-.015a.126.126,0,0,0-.028-.012.157.157,0,0,0-.028-.012c-1.9-.406-14.816-2.606-16.738-2.876-1.938-.273-3.882-.506-5.827-.721a116.1,116.1,0,0,0-11.69-.732c-.366,0-.732,0-1.1,0-.076-.028-.159-.044-.239-.066-.186-.05-.371-.1-.559-.143-.35-.077-.7-.138-1.056-.2-.736-.133-1.474-.231-2.2-.387-.045-.01-.064.057-.019.069.734.183,1.454.416,2.189.6.212.052.424.1.637.152-1.433.038-2.865.11-4.3.2-.045,0-.048.073,0,.071,1.946-.063,3.9-.025,5.85.06s3.862.178,5.79.339c3.9.328,7.79.781,11.668,1.291,2.176.286,15.344,2.566,17.534,2.716a.169.169,0,0,0,.027,0,1.294,1.294,0,0,0,.056.151c.057.12.114.24.176.358s.118.226.187.335c.034.054.068.108.1.162l.052.08a.409.409,0,0,1,.055.084.035.035,0,1,0,.065-.027" transform="translate(-43.589 -167.969)" fill="#263238"/>
            <path id="Path_837554" data-name="Path 837554" d="M172.42,358.7c-.669-1.136-1.232-2.344-1.841-3.513s-1.221-2.345-1.834-3.517c-1.222-2.337-5.623-10.2-6.064-10.758-.028-.035-.088,0-.074.043.2.6,2.94,5.809,3.571,6.97,1.263,2.322,2.594,4.6,3.905,6.895.374.655.763,1.3,1.143,1.954s.785,1.293,1.132,1.96c.021.041.085,0,.062-.036" transform="translate(-82.966 -173.939)" fill="#263238"/>
            <path id="Path_837555" data-name="Path 837555" d="M88.22,215.9l1.963,14.728c.1.437-.145.755-.558.707l-7.386-.848a1.2,1.2,0,0,1-.937-.879l-1.963-14.728c-.105-.438.145-.755.558-.707l7.386.848a1.2,1.2,0,0,1,.937.879" transform="translate(-40.469 -109.276)" fill="#37474f"/>
            <path id="Path_837556" data-name="Path 837556" d="M86.431,215.681l1.963,14.728c.1.437-.145.755-.558.707l-7.386-.848a1.2,1.2,0,0,1-.937-.879l-1.963-14.728c-.1-.438.145-.755.558-.707l7.387.848a1.2,1.2,0,0,1,.937.879" transform="translate(-39.556 -109.164)" fill="#455a64"/>
            <path id="Path_837557" data-name="Path 837557" d="M91.418,217.748a.632.632,0,1,0,.687-.571.631.631,0,0,0-.687.571" transform="translate(-46.643 -110.809)" fill="#263238"/>
            <path id="Path_837558" data-name="Path 837558" d="M103.84,260.087c-5.127,8.467-15.747,19.044-19.638,18.684-1.852-.171-5.2-.079-7.4-2.461-4.8-5.2-8.292-14.533-8.658-19.705-.13-1.84,9.069-4.822,10.21-3.214,2.673,3.765,5.489,10.895,6.031,10.911,2.006.06,10.47-5.595,16.383-9.582,7.178-4.84,5.117,1.993,3.074,5.367" transform="translate(-34.768 -129.053)" fill="#c95f50"/>
            <path id="Path_837559" data-name="Path 837559" d="M69.717,230.431c1.317-3.567,2.2-4.281,1.717-7.882-.319-2.363,1.053-3.582,2.49-1.56,2.35,3.306,1.617,8.266.868,9.912Z" transform="translate(-35.572 -112.234)" fill="#c95f50"/>
            <path id="Path_837560" data-name="Path 837560" d="M68.151,242.688s-1.1-5.282-.068-9.222c.711-2.725,2.919-8.481,11-10.787,1.917-.547,5.037.034,2.23,2.064-1.994,1.442-3.694,1.754-4.7,2.8,0,0,3.881,1.21,4.354,3.152a36.877,36.877,0,0,1,.874,5.164,7.822,7.822,0,0,1-.952.25,5.977,5.977,0,0,1-1.194,4.206Z" transform="translate(-34.513 -113.518)" fill="#c95f50"/>
            <path id="Path_837561" data-name="Path 837561" d="M70.775,235.757a22.106,22.106,0,0,1,6.463-3.21c2.919-.734,8.74-1.363,9.26.8.381,1.584-1.82,2.019-1.82,2.019s2.461.248,2.492,1.754c.028,1.373-1.695,1.607-1.695,1.607s1.467.407,1.24,1.734c-.273,1.6-3.3.482-4.977,1.86-.376.31-10.963-6.563-10.963-6.563" transform="translate(-36.112 -118.302)" fill="#c95f50"/>
            <path id="Path_837562" data-name="Path 837562" d="M84.5,239a11.988,11.988,0,0,1,7.136-.442c.059.017.078.071.021.067a29.524,29.524,0,0,0-7.15.4c-.016,0-.021-.021-.007-.027" transform="translate(-43.108 -121.537)" fill="#263238"/>
            <path id="Path_837563" data-name="Path 837563" d="M86.184,245.281a13.456,13.456,0,0,1,7.149-.016c.059.02.074.075.017.069a31.655,31.655,0,0,0-7.161-.025c-.017,0-.02-.023-.005-.028" transform="translate(-43.969 -124.897)" fill="#263238"/>
            <path id="Path_837564" data-name="Path 837564" d="M67.169,260.416s5.708,14.974,9.716,17.061a14.413,14.413,0,0,0,8.135,1.913,4.235,4.235,0,0,0,1.73-.622c4.536-2.566,13.21-12.423,16.905-18.087,2.775-4.259,2.947-8.359-.676-7.416a11.765,11.765,0,0,0-3.435,1.719c-6.976,4.7-14.957,9.029-15.29,8.807s-3.408-6.448-3.408-6.448Z" transform="translate(-34.272 -129.154)" fill="#fff198"/>
            <path id="Path_837565" data-name="Path 837565" d="M85,267.552a3.5,3.5,0,0,1-.061.986,3.447,3.447,0,0,1-.312.938,3.463,3.463,0,0,1,.061-.986,3.5,3.5,0,0,1,.312-.938m-8.9,4.14a3.444,3.444,0,0,0-.061.986,3.825,3.825,0,0,0,.373-1.924,3.5,3.5,0,0,0-.312.938m14.646,4.28a3.444,3.444,0,0,0-.061.986,3.824,3.824,0,0,0,.373-1.924,3.482,3.482,0,0,0-.312.938m4.792-14.189a3.459,3.459,0,0,0-.061.986,3.439,3.439,0,0,0,.312-.937,3.482,3.482,0,0,0,.061-.986,3.516,3.516,0,0,0-.312.938m.393,4.714a3.446,3.446,0,0,0-.986-.061,3.825,3.825,0,0,0,1.924.373,3.5,3.5,0,0,0-.938-.312m-17.246.843a3.46,3.46,0,0,0-.986-.061,3.446,3.446,0,0,0,.938.312,3.481,3.481,0,0,0,.986.061,3.5,3.5,0,0,0-.938-.312m8.459,5.582a3.445,3.445,0,0,0-.986-.061,3.447,3.447,0,0,0,.938.312,3.5,3.5,0,0,0,.986.061,3.479,3.479,0,0,0-.938-.312M71.076,261.891a3.446,3.446,0,0,0-.986-.061,3.815,3.815,0,0,0,1.924.373,3.5,3.5,0,0,0-.937-.312m7.738,15.425a3.447,3.447,0,0,0-.986-.061,3.447,3.447,0,0,0,.938.312,3.5,3.5,0,0,0,.986.061,3.486,3.486,0,0,0-.938-.312M106.2,254.56a3.273,3.273,0,0,0,.834.287,1.305,1.305,0,0,0-.143-.272,2.732,2.732,0,0,0-.691-.015M89.8,265.049a3.44,3.44,0,0,0,.654.74,3.465,3.465,0,0,0-.442-.884,3.5,3.5,0,0,0-.654-.74,3.5,3.5,0,0,0,.442.884m-8.476,7.785a3.449,3.449,0,0,0,.654.74,3.451,3.451,0,0,0-.443-.883,3.5,3.5,0,0,0-.654-.741,3.477,3.477,0,0,0,.442.884m-4.039-11.088a3.454,3.454,0,0,0,.654.741,3.814,3.814,0,0,0-1.1-1.625,3.5,3.5,0,0,0,.442.884m17.247,10.727a3.451,3.451,0,0,0,.654.741,3.464,3.464,0,0,0-.442-.884,3.506,3.506,0,0,0-.654-.741,3.492,3.492,0,0,0,.442.884M101.3,259a3.451,3.451,0,0,0,.654.741,3.464,3.464,0,0,0-.442-.884,3.506,3.506,0,0,0-.654-.741,3.492,3.492,0,0,0,.442.884m.5,5.429a3.456,3.456,0,0,0,.741-.654,3.815,3.815,0,0,0-1.625,1.1,3.5,3.5,0,0,0,.884-.442M73.13,266.223a3.454,3.454,0,0,0,.741-.654,3.455,3.455,0,0,0-.884.442,3.5,3.5,0,0,0-.741.654,3.487,3.487,0,0,0,.884-.442m8.9-2.2a3.451,3.451,0,0,0,.741-.654,3.46,3.46,0,0,0-.884.442,3.5,3.5,0,0,0-.741.654,3.489,3.489,0,0,0,.884-.442m9.387,5.895a3.466,3.466,0,0,0,.741-.654,3.445,3.445,0,0,0-.884.442,3.491,3.491,0,0,0-.741.654,3.5,3.5,0,0,0,.884-.442M85.2,277.7a3.441,3.441,0,0,0,.741-.654,3.466,3.466,0,0,0-.884.442,3.5,3.5,0,0,0-.741.654,3.48,3.48,0,0,0,.884-.442" transform="translate(-35.762 -129.877)" fill="#fff"/>
            <path id="Path_837566" data-name="Path 837566" d="M107.148,278.768c4.536-2.566,13.209-12.422,16.905-18.086,2.775-4.259,2.947-8.36-.676-7.416-2.154,3.347-11.561,18-16.229,25.5" transform="translate(-54.67 -129.154)" fill="#263238"/>
            <path id="Path_837567" data-name="Path 837567" d="M70.224,270.264c.5-.215,5.2-1.5,6.23-1.752s5.215-1.345,6.295-1.522a.038.038,0,0,1,.021.073c-1.028.375-5.249,1.484-6.29,1.767s-5.716,1.448-6.247,1.505c-.045,0-.045-.057-.01-.072" transform="translate(-35.818 -136.226)" fill="#263238"/>
            <path id="Path_837568" data-name="Path 837568" d="M115.644,288c.441.526,30.312,3,30.474,2.818.44-.49-2.289-19.7-4.981-27.144-3.452-9.541-5.654-10.512-6.963-11.146a10.657,10.657,0,0,0-5.58-.562c-.876.3-4.838,4.242-6.153,7.543-2.639,6.629-7.18,28.029-6.8,28.491" transform="translate(-58.994 -128.483)" fill="#fff198"/>
            <path id="Path_837569" data-name="Path 837569" d="M132.4,259.1a3.824,3.824,0,0,1-.373,1.924,3.444,3.444,0,0,1,.061-.986,3.5,3.5,0,0,1,.312-.938m-1.282,15.205a3.445,3.445,0,0,0-.061.986,3.443,3.443,0,0,0,.312-.938,3.48,3.48,0,0,0,.061-.986,3.5,3.5,0,0,0-.312.938m16.261,15.8a3.445,3.445,0,0,0-.061.986,3.45,3.45,0,0,0,.312-.938,3.5,3.5,0,0,0,.061-.986,3.48,3.48,0,0,0-.312.938m-12.288-.028a3.443,3.443,0,0,0-.061.986,3.825,3.825,0,0,0,.373-1.924,3.5,3.5,0,0,0-.312.938m-9.761-7.118a3.464,3.464,0,0,0-.061.986,3.456,3.456,0,0,0,.312-.937,3.5,3.5,0,0,0,.061-.986,3.516,3.516,0,0,0-.312.937m15.128-13.931a3.459,3.459,0,0,0-.061.986,3.457,3.457,0,0,0,.313-.937,3.5,3.5,0,0,0,.061-.986,3.515,3.515,0,0,0-.312.938m.818,12.648a3.462,3.462,0,0,0-.061.986,3.465,3.465,0,0,0,.313-.938,3.5,3.5,0,0,0,.061-.986,3.514,3.514,0,0,0-.312.938M123.8,270.8a3.444,3.444,0,0,0-.061.986,3.448,3.448,0,0,0,.312-.938,3.5,3.5,0,0,0,.061-.986,3.482,3.482,0,0,0-.312.938m10.258-5.831a3.463,3.463,0,0,0-.986-.061,3.44,3.44,0,0,0,.937.312,3.482,3.482,0,0,0,.986.061,3.5,3.5,0,0,0-.937-.312m6.739,9.785a3.446,3.446,0,0,0-.986-.061,3.818,3.818,0,0,0,1.924.373,3.507,3.507,0,0,0-.938-.312m-11.689,4.77a3.46,3.46,0,0,0-.986-.061,3.463,3.463,0,0,0,.938.312,3.514,3.514,0,0,0,.986.061,3.508,3.508,0,0,0-.938-.312m8.172,6.482a3.447,3.447,0,0,0-.986-.061,3.439,3.439,0,0,0,.937.312,3.5,3.5,0,0,0,.986.061,3.477,3.477,0,0,0-.937-.312M120.569,285a3.463,3.463,0,0,0-.986-.061,3.464,3.464,0,0,0,.938.312,3.518,3.518,0,0,0,.986.061,3.5,3.5,0,0,0-.938-.312m11.867-30.38a3.447,3.447,0,0,0-.986-.061,3.825,3.825,0,0,0,1.924.373,3.5,3.5,0,0,0-.938-.312m4.262,3.867a3.449,3.449,0,0,0,.654.741,3.438,3.438,0,0,0-.442-.884,3.49,3.49,0,0,0-.654-.741,3.491,3.491,0,0,0,.443.884m-7.513,10.326a3.451,3.451,0,0,0,.654.741,3.449,3.449,0,0,0-.442-.884,3.492,3.492,0,0,0-.654-.741,3.507,3.507,0,0,0,.442.884m-7.473,10.377a3.439,3.439,0,0,0,.654.741,3.424,3.424,0,0,0-.442-.884,3.48,3.48,0,0,0-.654-.741,3.482,3.482,0,0,0,.443.884m7.3,8.54a3.453,3.453,0,0,0,.654.741,3.432,3.432,0,0,0-.442-.884,3.489,3.489,0,0,0-.654-.74,3.5,3.5,0,0,0,.443.884m16.089-1.74a3.464,3.464,0,0,0,.654.741,3.431,3.431,0,0,0-.442-.884,3.489,3.489,0,0,0-.654-.741,3.512,3.512,0,0,0,.442.884m-8.795-8.031a3.454,3.454,0,0,0,.654.741,3.453,3.453,0,0,0-.443-.884,3.489,3.489,0,0,0-.654-.741,3.481,3.481,0,0,0,.443.884M126.554,259a3.451,3.451,0,0,0,.654.74,3.464,3.464,0,0,0-.442-.884,3.518,3.518,0,0,0-.654-.741,3.494,3.494,0,0,0,.442.884m.5,5.429a3.453,3.453,0,0,0,.741-.654,3.445,3.445,0,0,0-.884.443,3.5,3.5,0,0,0-.741.654,3.474,3.474,0,0,0,.884-.442m18.181,13.028a3.362,3.362,0,0,0,.845-.419c-.015-.089-.03-.183-.045-.272l-.056.036a3.5,3.5,0,0,0-.744.654m-19.758-1.709a3.459,3.459,0,0,0,.741-.654,3.434,3.434,0,0,0-.884.442,3.5,3.5,0,0,0-.741.654,3.49,3.49,0,0,0,.884-.443m-1.841,13.873a3.454,3.454,0,0,0,.741-.654,3.826,3.826,0,0,0-1.625,1.1,3.475,3.475,0,0,0,.884-.442m16.621-26.74a3.44,3.44,0,0,0,.741-.654,3.837,3.837,0,0,0-1.624,1.1,3.5,3.5,0,0,0,.884-.443m-7.039,20.005a3.451,3.451,0,0,0,.741-.654,3.463,3.463,0,0,0-.884.442,3.5,3.5,0,0,0-.741.654,3.49,3.49,0,0,0,.884-.442m8.407,7.05a3.467,3.467,0,0,0,.741-.654,3.441,3.441,0,0,0-.884.442,3.488,3.488,0,0,0-.741.654,3.505,3.505,0,0,0,.884-.442m-5.991-19.445a3.441,3.441,0,0,0,.741-.654,3.449,3.449,0,0,0-.884.443,3.489,3.489,0,0,0-.741.654,3.477,3.477,0,0,0,.884-.442" transform="translate(-61.015 -129.876)" fill="#fff"/>
            <path id="Path_837570" data-name="Path 837570" d="M158.331,256.527C170.65,266.991,181,281.11,179.675,285.3c-1.4,4.435-10.619,8.943-18.553,9.5-1.626.114-5.908-12.008-4.223-12.453,1.312-.346,7.263-1.661,8.011-2.422.52-.529-7.8-13.847-10.355-20.693-2.675-7.165.479-5.51,3.777-2.709" transform="translate(-78.346 -129.667)" fill="#c95f50"/>
            <path id="Path_837571" data-name="Path 837571" d="M143.98,311.419s-4.952.2-8.184.485a19.86,19.86,0,0,0-6.141,1.428c-1.9,1.08-9.166,6.813-7.813,8.6,1.224,1.621,3.356-.7,3.356-.7s-2.569,2.32-.861,3.555c1.724,1.246,4.206-2.051,4.206-2.051s-2.9,2.274-.949,3.419c1.691.993,4.963-2.492,4.963-2.492s-3.3,2.053-1.671,3.241c1.806,1.312,7.368-3.3,7.368-3.3a23.253,23.253,0,0,0,9.813-.066c.554-.12-4.088-12.124-4.088-12.124" transform="translate(-62.083 -158.896)" fill="#c95f50"/>
            <path id="Path_837572" data-name="Path 837572" d="M133.563,331.346c.206-.251.418-.5.625-.746a16.027,16.027,0,0,1,1.267-1.406c.446-.426.908-.829,1.385-1.22.5-.413,1.051-.776,1.542-1.2a.036.036,0,1,1,.046.056,16.847,16.847,0,0,0-1.4,1.326c-.448.443-.89.892-1.332,1.341s-.89.845-1.335,1.271c-.221.212-.433.434-.645.656a5.171,5.171,0,0,1-.618.621c-.023.017-.05-.014-.038-.036a3.958,3.958,0,0,1,.5-.662" transform="translate(-67.891 -166.724)" fill="#263238"/>
            <path id="Path_837573" data-name="Path 837573" d="M127.788,327.38a25.3,25.3,0,0,1,2.292-2.664,17.637,17.637,0,0,1,2.739-2.212.037.037,0,0,1,.046.056c-.836.828-1.684,1.645-2.532,2.462-.414.4-2.239,2.27-2.455,2.442-.052.042-.119-.033-.09-.085" transform="translate(-65.198 -164.549)" fill="#263238"/>
            <path id="Path_837574" data-name="Path 837574" d="M139.9,335.119a24.818,24.818,0,0,1,2.2-2.465,22.564,22.564,0,0,1,2.769-1.939c.037-.019.077.029.046.056-.87.714-1.749,1.411-2.585,2.166-.407.368-1.944,1.928-2.364,2.246-.038.028-.09-.025-.066-.063" transform="translate(-71.38 -168.739)" fill="#263238"/>
            <path id="Path_837575" data-name="Path 837575" d="M155.839,281.707l6.236,13.527s15.749-3.325,17.442-10.293-15.3-24.047-20.6-28.151-8.627-4.783-4.733,4.145,10.153,18.231,9.583,18.65c-.481.354-7.929,2.122-7.929,2.122" transform="translate(-77.804 -129.541)" fill="#fff198"/>
            <path id="Path_837576" data-name="Path 837576" d="M167.844,274.832a3.825,3.825,0,0,1-.373,1.924,3.445,3.445,0,0,1,.061-.986,3.483,3.483,0,0,1,.312-.938m-3.1,17.138a3.446,3.446,0,0,0-.061.986,3.447,3.447,0,0,0,.312-.938,3.5,3.5,0,0,0,.061-.986,3.481,3.481,0,0,0-.312.938m8.419-7.531a3.444,3.444,0,0,0-.061.986,3.447,3.447,0,0,0,.312-.938,3.5,3.5,0,0,0,.061-.986,3.479,3.479,0,0,0-.312.938M158.115,270c.009.015.018.035.027.05a.6.6,0,0,0,0-.1.22.22,0,0,0-.022.048m3.85-7.54a3.467,3.467,0,0,0-.061.986,3.455,3.455,0,0,0,.312-.937,3.5,3.5,0,0,0,.061-.986,3.528,3.528,0,0,0-.312.937m-3.382,22.064a3.673,3.673,0,0,0,.312-.936q.029-.145.044-.292l-.253.061c-.018.058-.031.121-.044.179a3.535,3.535,0,0,0-.059.988m-.6-26.247a3.466,3.466,0,0,0-.987-.061,3.43,3.43,0,0,0,.938.312,3.48,3.48,0,0,0,.986.061,3.518,3.518,0,0,0-.937-.312m15.337,17.5a3.461,3.461,0,0,0-.986-.061,3.464,3.464,0,0,0,.938.312,3.515,3.515,0,0,0,.986.061,3.5,3.5,0,0,0-.938-.312m-7.257,8.022a3.439,3.439,0,0,0-.986-.061,3.451,3.451,0,0,0,.938.312,3.52,3.52,0,0,0,.986.061,3.482,3.482,0,0,0-.938-.312m3.577,9.837a3.444,3.444,0,0,0-.986-.061,3.446,3.446,0,0,0,.937.312,3.5,3.5,0,0,0,.986.061,3.5,3.5,0,0,0-.937-.311m7.755-6.324a3.465,3.465,0,0,0-.986-.061,3.818,3.818,0,0,0,1.924.373,3.52,3.52,0,0,0-.938-.312m-13.357-20.492a3.446,3.446,0,0,0-.986-.061,3.44,3.44,0,0,0,.937.312,3.484,3.484,0,0,0,.986.061,3.5,3.5,0,0,0-.937-.312m-9.964-6.472a3.45,3.45,0,0,0,.654.741,3.457,3.457,0,0,0-.443-.884,3.506,3.506,0,0,0-.654-.741,3.49,3.49,0,0,0,.443.884m9.191,11.879a3.452,3.452,0,0,0,.654.741,3.824,3.824,0,0,0-1.1-1.624,3.5,3.5,0,0,0,.443.884m-.785,15.624a3.449,3.449,0,0,0,.654.741,3.432,3.432,0,0,0-.442-.884,3.491,3.491,0,0,0-.654-.741,3.493,3.493,0,0,0,.443.884m10.073,2.616a3.448,3.448,0,0,0,.654.741,3.429,3.429,0,0,0-.442-.883,3.491,3.491,0,0,0-.654-.741,3.482,3.482,0,0,0,.443.884m-1.984-10.116a3.441,3.441,0,0,0,.654.741,3.448,3.448,0,0,0-.443-.884,3.489,3.489,0,0,0-.654-.741,3.5,3.5,0,0,0,.443.884m-7.915,15.751a3.466,3.466,0,0,0,.654.741,3.443,3.443,0,0,0-.442-.884,3.49,3.49,0,0,0-.654-.741,3.5,3.5,0,0,0,.442.884m.41-17.225v0c.036.065.072.131.1.191.111-.058.217-.126.323-.195a3.476,3.476,0,0,0,.739-.654,3.6,3.6,0,0,0-.88.441c-.1.069-.193.138-.286.212M177.27,281.5a3.455,3.455,0,0,0,.741-.654,3.459,3.459,0,0,0-.884.442,3.5,3.5,0,0,0-.741.654,3.475,3.475,0,0,0,.883-.442m-8.854,6.955a3.45,3.45,0,0,0,.741-.654,3.449,3.449,0,0,0-.884.442,3.49,3.49,0,0,0-.741.654,3.51,3.51,0,0,0,.884-.442m-10.794-23.71a3.439,3.439,0,0,0,.741-.654,3.836,3.836,0,0,0-1.624,1.1,3.5,3.5,0,0,0,.884-.443m11.336,6.015a3.44,3.44,0,0,0,.741-.654,3.463,3.463,0,0,0-.884.442,3.5,3.5,0,0,0-.741.654,3.5,3.5,0,0,0,.884-.442" transform="translate(-78.384 -131.744)" fill="#fff"/>
            <path id="Path_837577" data-name="Path 837577" d="M170.865,322.6c-.309-.453-2.479-4.814-2.93-5.771s-2.333-4.854-2.716-5.879a.038.038,0,0,1,.069-.035c.567.935,2.476,4.86,2.956,5.826s2.531,5.326,2.69,5.835c.013.043-.047.055-.068.024" transform="translate(-84.298 -158.63)" fill="#263238"/>
            <path id="Path_837578" data-name="Path 837578" d="M158.958,292s.226.425.3.554c.009.016.043.06.018-.007-.039-.1-.2-.473-.2-.473,2.128-.374,4.248-.8,6.349-1.339.264-.07.527-.14.791-.225a3.7,3.7,0,0,0,.812-.337.441.441,0,0,0,.061-.051.449.449,0,0,0,.08-.118.512.512,0,0,0,0-.231c-.021-.07-.047-.149-.073-.215-.048-.13-.1-.26-.157-.385-.11-.251-.23-.5-.345-.743-.47-.985-.96-1.951-1.467-2.913-1.027-1.915-2.049-3.83-3.116-5.713-1.007-1.787-2.051-3.8-3.115-5.552-.063-.1-.234-.208-.045.176.961,1.946,1.836,3.627,2.832,5.55l3.017,5.762c.5.961,1.011,1.914,1.487,2.884.121.241.24.483.351.729.057.12.105.241.158.361.017.05.03.09.042.135a.22.22,0,0,0,.036-.023s.009,0,.009,0a.072.072,0,0,0-.011.034c-.02,0-.017.043-.021.028s-.009-.025-.013-.035a4.526,4.526,0,0,1-.651.266l-.767.241c-1.031.316-2.08.592-3.133.858Z" transform="translate(-81.003 -139.883)" fill="#263238"/>
            <path id="Path_837579" data-name="Path 837579" d="M175.04,306.169c0,.01.009.025.013.035s0-.024.021-.028a.067.067,0,0,1,.011-.034s-.01,0-.01,0a.193.193,0,0,1-.036.022" transform="translate(-89.311 -156.203)" fill="#263238"/>
            <path id="Path_837580" data-name="Path 837580" d="M159.249,279.348c-.142-.12-.134-.027-.071.062.352.492.906,1.048,1.3,1.5a16.68,16.68,0,0,0,1.506,1.512,16.61,16.61,0,0,0-1.322-1.675,14.628,14.628,0,0,0-1.414-1.4" transform="translate(-81.196 -142.503)" fill="#263238"/>
            <path id="Path_837581" data-name="Path 837581" d="M141.7,251.493c1.655.565,4.813-1.743,6.165-3.729.092-.137.018-1.674.017-3.546,0-1.136.035-2.4.146-3.553.024-.237-7.4,1.056-7.4,1.056a18.444,18.444,0,0,1,.269,4.492,2.6,2.6,0,0,1-.1.468c0,.022-.013.047-.018.077-.234.884-.687,4.189.912,4.736" transform="translate(-71.709 -122.779)" fill="#c95f50"/>
            <path id="Path_837582" data-name="Path 837582" d="M147.669,240.667c-.524,1.915-2.191,6.505-6.056,6.219a4.369,4.369,0,0,1-.735-.112.337.337,0,0,1,.017-.078,2.965,2.965,0,0,0,.1-.466,18.457,18.457,0,0,0-.272-4.5s5.354-.933,6.95-1.067" transform="translate(-71.799 -122.796)" fill="#263238"/>
            <path id="Path_837583" data-name="Path 837583" d="M145.056,218.446c.556,2.633-1.453,9.923-3.423,11.413-2.856,2.161-7.205,2.008-8.959-1.351-1.7-3.256,1.086-12.708,3.257-14.029,3.2-1.946,8.3.077,9.126,3.967" transform="translate(-67.426 -109.051)" fill="#c95f50"/>
            <path id="Path_837584" data-name="Path 837584" d="M142.4,232.5c.009-.018.032.034.026.054-.148.487-.237,1.071.165,1.354.012.009,0,.033-.012.026-.522-.223-.4-1-.179-1.434" transform="translate(-72.559 -118.625)" fill="#263238"/>
            <path id="Path_837585" data-name="Path 837585" d="M143.031,231.686c.807.154.44,1.756-.308,1.614s-.369-1.743.308-1.614" transform="translate(-72.615 -118.21)" fill="#263238"/>
            <path id="Path_837586" data-name="Path 837586" d="M136.035,231.226c0-.02-.044.015-.048.035-.1.5-.294,1.056-.781,1.118-.015,0-.02.027,0,.028.566.049.819-.693.832-1.182" transform="translate(-68.979 -117.976)" fill="#263238"/>
            <path id="Path_837587" data-name="Path 837587" d="M135.354,229.94c-.785-.243-1.214,1.343-.487,1.569s1.145-1.365.487-1.569" transform="translate(-68.623 -117.309)" fill="#263238"/>
            <path id="Path_837588" data-name="Path 837588" d="M144.568,228.206a6.411,6.411,0,0,1-.625-.255,1.092,1.092,0,0,1-.588-.382.347.347,0,0,1,.076-.417.862.862,0,0,1,.872-.047,1.267,1.267,0,0,1,.7.582.371.371,0,0,1-.437.518" transform="translate(-73.124 -115.828)" fill="#263238"/>
            <path id="Path_837589" data-name="Path 837589" d="M134.932,226.257a6.346,6.346,0,0,0,.675-.02,1.091,1.091,0,0,0,.684-.151.348.348,0,0,0,.075-.418.862.862,0,0,0-.8-.35,1.265,1.265,0,0,0-.862.3.371.371,0,0,0,.228.639" transform="translate(-68.668 -114.965)" fill="#263238"/>
            <path id="Path_837590" data-name="Path 837590" d="M141.068,242.248c-.145.089-.3.222-.484.2a1.344,1.344,0,0,1-.5-.247.018.018,0,0,0-.027.021.685.685,0,0,0,.569.414.542.542,0,0,0,.491-.35c.014-.027-.021-.047-.043-.033" transform="translate(-71.458 -123.575)" fill="#263238"/>
            <path id="Path_837591" data-name="Path 837591" d="M138.824,232.9a1.733,1.733,0,0,1-1.3.494,2.177,2.177,0,0,1-.615-.111.615.615,0,0,1-.113-.04c-.035-.013-.067-.024-.1-.042a.126.126,0,0,1-.074-.134v0a.26.26,0,0,1,.016-.05v0l.011-.044c.077-.384.247-.957.247-.957-.156.038-.941.2-.884,0a26.067,26.067,0,0,1,1.827-4.965.047.047,0,0,1,.088.033c-.4,1.585-1.069,3.09-1.493,4.676a3.047,3.047,0,0,1,.853-.06c.051.028-.349,1.1-.369,1.277a.059.059,0,0,0,0,.019,2.4,2.4,0,0,0,1.874-.143c.044-.02.075.023.036.055" transform="translate(-69.394 -115.829)" fill="#263238"/>
            <path id="Path_837592" data-name="Path 837592" d="M138.4,239.252a2.057,2.057,0,0,0,.661.806.925.925,0,0,0,.54.16c.42-.014.514-.375.512-.7a2.218,2.218,0,0,0-.069-.517,2.663,2.663,0,0,1-1.644.254" transform="translate(-70.616 -121.944)" fill="#263238"/>
            <path id="Path_837593" data-name="Path 837593" d="M139.749,240.588a.929.929,0,0,0,.54.16c.42-.014.513-.375.512-.7a.955.955,0,0,0-1.052.543" transform="translate(-71.304 -122.474)" fill="#ff97b8"/>
            <path id="Path_837594" data-name="Path 837594" d="M144.685,222.445c-1.317-.146-1.025-3.369-1.025-3.369s-2-.465-2.842-3.281c0,0-2.677,1.5-4.832.99-3.378-.794-3.06-5.219-1.738-6.056,1.873-1.187,5,.841,5,.841s4.944-1.109,6.227,2.262a2.5,2.5,0,0,1,2.2,2.615c.027,2.409-2,6.107-2.986,6" transform="translate(-68.021 -107.33)" fill="#263238"/>
            <path id="Path_837595" data-name="Path 837595" d="M151.849,224.193a4.494,4.494,0,0,1-2.476-1.522,3.364,3.364,0,0,1-.624-3.023c.019-.054-.071-.08-.087-.023a3.864,3.864,0,0,0,.376,3.262,3.135,3.135,0,0,0,2.8,1.4c.052,0,.07-.083.013-.1" transform="translate(-75.755 -112.043)" fill="#263238"/>
            <path id="Path_837596" data-name="Path 837596" d="M159.783,218.8a3.074,3.074,0,0,0-2.661-1.087c-.058,0-.057.093,0,.09a2.822,2.822,0,0,1,2.451,1.5,3.51,3.51,0,0,1,.051,2.7,7.1,7.1,0,0,1-3.043,4.074.023.023,0,0,0,.023.039,7.09,7.09,0,0,0,3.409-4.457,3.549,3.549,0,0,0-.23-2.856" transform="translate(-79.887 -111.086)" fill="#263238"/>
            <path id="Path_837597" data-name="Path 837597" d="M139.5,211.376a3.333,3.333,0,0,0-1.8-1.531,3.991,3.991,0,0,0-2.844.144,2.251,2.251,0,0,0-1.278,1.855,3.979,3.979,0,0,0,.764,2.561.02.02,0,0,0,.034-.021,3.969,3.969,0,0,1-.58-2.321,2.072,2.072,0,0,1,1.312-1.769c1.43-.55,3.471-.343,4.315,1.126.028.05.1,0,.075-.046" transform="translate(-68.147 -106.969)" fill="#263238"/>
            <path id="Path_837598" data-name="Path 837598" d="M133.011,231.244c-.72-.2-1.062-1.247-.761-2.337s1.133-1.814,1.854-1.614,1.061,1.248.76,2.337-1.132,1.814-1.853,1.614m1.019-3.686c-.575-.159-1.254.479-1.515,1.423s-.005,1.84.57,2,1.254-.479,1.514-1.423.006-1.84-.569-2" transform="translate(-67.422 -115.955)" fill="#fff198"/>
            <path id="Path_837599" data-name="Path 837599" d="M141.525,233.711a2.055,2.055,0,1,1,2.392-1.465,1.988,1.988,0,0,1-2.392,1.465m1.019-3.686a1.78,1.78,0,1,0,1.107,2.148,1.712,1.712,0,0,0-1.107-2.148" transform="translate(-71.507 -117.197)" fill="#fff198"/>
            <path id="Path_837600" data-name="Path 837600" d="M138.986,231.75c-.893-.621-1.429-.421-1.434-.418l-.106-.254c.026-.012.667-.269,1.7.446Z" transform="translate(-70.129 -117.875)" fill="#fff198"/>
            <path id="Path_837601" data-name="Path 837601" d="M147.669,234.19l.023-.274c.18.016,4.418.386,4.864.483a5.006,5.006,0,0,1,1.482,1.1l-.194.194a5.229,5.229,0,0,0-1.326-1.026l-.02-.005c-.343-.074-3.308-.345-4.829-.478" transform="translate(-75.345 -119.351)" fill="#fff198"/>
            <path id="Path_837602" data-name="Path 837602" d="M153.506,233.7s1.932-2.209,2.952-1.5-.614,4.043-1.939,4.379a1.3,1.3,0,0,1-1.66-.885Z" transform="translate(-77.993 -118.404)" fill="#c95f50"/>
            <path id="Path_837603" data-name="Path 837603" d="M156.691,234.274a.018.018,0,0,1,0,.035,3.294,3.294,0,0,0-1.915,1.865.719.719,0,0,1,1.091-.079c.022.019,0,.053-.029.045a.8.8,0,0,0-.907.183,3.86,3.86,0,0,0-.5.664c-.05.075-.19.017-.149-.072l.009-.02c.1-1.141,1.16-2.638,2.394-2.62" transform="translate(-78.718 -119.534)" fill="#263238"/>
            <path id="Path_837604" data-name="Path 837604" d="M148.01,255.043a33.534,33.534,0,0,1-2.7,2.657,5.549,5.549,0,0,1-3.186,1.47c-1.153.047-2.289-.245-2.642-1.671a8.484,8.484,0,0,1,.1-3.692.043.043,0,1,0-.084-.018c-.354,1.825-.773,4.658.866,5.379,1.833.8,3.714-.065,5.094-1.29a17.341,17.341,0,0,0,2.583-2.805c.015-.02-.015-.048-.032-.03" transform="translate(-71.012 -129.47)" fill="#263238"/>
          </g>
        </g>
        <rect id="Rectangle_385854" data-name="Rectangle 385854" width="22.71" height="16.981" transform="translate(30.58 77.326)" fill="#fff198"/>
        <path id="Path_837605" data-name="Path 837605" d="M76.778,192.555H85.44l-4.331,4.679Z" transform="translate(-39.175 -98.247)" fill="#fff198"/>
        <g id="Group_1019351" data-name="Group 1019351">
          <g id="Group_1019350" data-name="Group 1019350" clip-path="url(#clip-path-2)">
            <path id="Path_837606" data-name="Path 837606" d="M84.336,171.186a13.723,13.723,0,0,1-4.409,3.826,13.73,13.73,0,0,1-4.407-3.826c-1.552-2.054-1.476-5.269.745-5.965,2.455-.769,3.662,2.926,3.662,2.926s1.224-3.72,3.664-2.926c2.213.719,2.3,3.911.745,5.965" transform="translate(-37.992 -84.244)" fill="#fff"/>
            <rect id="Rectangle_385855" data-name="Rectangle 385855" width="14.75" height="11.03" transform="translate(12.688 59.055)" fill="#fff198"/>
            <path id="Path_837607" data-name="Path 837607" d="M35.222,143.1h5.626l-2.813,3.039Z" transform="translate(-17.971 -73.013)" fill="#fff198"/>
            <path id="Path_837608" data-name="Path 837608" d="M40.131,129.218a8.918,8.918,0,0,1-2.864,2.485,8.926,8.926,0,0,1-2.863-2.485c-1.008-1.334-.958-3.422.484-3.874,1.595-.5,2.379,1.9,2.379,1.9s.795-2.416,2.38-1.9c1.437.468,1.492,2.54.484,3.874" transform="translate(-17.203 -63.918)" fill="#fff"/>
            <rect id="Rectangle_385856" data-name="Rectangle 385856" width="14.75" height="11.03" transform="translate(217.809 50.086)" fill="#fff198"/>
            <path id="Path_837609" data-name="Path 837609" d="M454.032,124.785h5.626l-2.813,3.04Z" transform="translate(-231.661 -63.669)" fill="#fff198"/>
            <path id="Path_837610" data-name="Path 837610" d="M458.941,110.905a8.912,8.912,0,0,1-2.864,2.485,8.92,8.92,0,0,1-2.863-2.485c-1.008-1.334-.958-3.423.484-3.875,1.595-.5,2.379,1.9,2.379,1.9s.795-2.416,2.38-1.9c1.437.468,1.492,2.54.484,3.875" transform="translate(-230.893 -54.574)" fill="#fff"/>
            <rect id="Rectangle_385857" data-name="Rectangle 385857" width="14.75" height="11.03" transform="translate(300.394 27.944)" fill="#fff198"/>
            <path id="Path_837611" data-name="Path 837611" d="M622.653,79.576h5.626l-2.813,3.039Z" transform="translate(-317.697 -40.602)" fill="#fff198"/>
            <path id="Path_837612" data-name="Path 837612" d="M627.562,65.7a8.91,8.91,0,0,1-2.864,2.485,8.913,8.913,0,0,1-2.863-2.485c-1.008-1.334-.959-3.423.484-3.875,1.595-.5,2.379,1.9,2.379,1.9s.795-2.416,2.38-1.9c1.437.468,1.492,2.54.484,3.875" transform="translate(-316.929 -31.507)" fill="#fff"/>
            <rect id="Rectangle_385858" data-name="Rectangle 385858" width="22.71" height="16.981" transform="translate(147.467)" fill="#fff198"/>
            <path id="Path_837613" data-name="Path 837613" d="M315.438,34.672H324.1l-4.331,4.679Z" transform="translate(-160.946 -17.691)" fill="#fff198"/>
            <path id="Path_837614" data-name="Path 837614" d="M322.995,13.3a13.731,13.731,0,0,1-4.409,3.826,13.738,13.738,0,0,1-4.407-3.826c-1.552-2.054-1.476-5.269.745-5.965,2.455-.769,3.662,2.926,3.662,2.926s1.224-3.72,3.664-2.926c2.213.72,2.3,3.911.745,5.965" transform="translate(-159.763 -3.688)" fill="#fff"/>
            <rect id="Rectangle_385859" data-name="Rectangle 385859" width="22.71" height="16.981" transform="translate(269.317 8.321)" fill="#fff198"/>
            <path id="Path_837615" data-name="Path 837615" d="M564.227,51.661h8.661l-4.331,4.679Z" transform="translate(-287.886 -26.359)" fill="#fff198"/>
            <path id="Path_837616" data-name="Path 837616" d="M571.785,30.292a13.731,13.731,0,0,1-4.409,3.826,13.738,13.738,0,0,1-4.407-3.826c-1.552-2.054-1.476-5.269.745-5.965,2.455-.769,3.662,2.926,3.662,2.926s1.224-3.72,3.664-2.926c2.213.72,2.3,3.911.745,5.965" transform="translate(-286.704 -12.355)" fill="#fff"/>
          </g>
        </g>
      </g>
    </g>
  </g>
</svg>
