<svg id="Group_1019618" data-name="Group 1019618" xmlns="http://www.w3.org/2000/svg" xmlns:xlink="http://www.w3.org/1999/xlink" width="84.386" height="85.674" viewBox="0 0 84.386 85.674">
  <defs>
    <clipPath id="clip-path">
      <rect id="Rectangle_385422" data-name="Rectangle 385422" width="84.386" height="85.674" fill="none"/>
    </clipPath>
    <clipPath id="clip-path-3">
      <rect id="Rectangle_385420" data-name="Rectangle 385420" width="42.783" height="84.386" fill="none"/>
    </clipPath>
  </defs>
  <g id="Group_1017651" data-name="Group 1017651" clip-path="url(#clip-path)">
    <g id="Group_1017650" data-name="Group 1017650" transform="translate(0 0)">
      <g id="Group_1017649" data-name="Group 1017649" clip-path="url(#clip-path)">
        <path id="Path_835900" data-name="Path 835900" d="M0,42.193A42.193,42.193,0,1,1,42.193,84.387,42.193,42.193,0,0,1,0,42.193" transform="translate(0 0)" fill="#ffd530"/>
        <path id="Path_835901" data-name="Path 835901" d="M37.4,81.342a2.207,2.207,0,0,1-1.734-3.572,15.782,15.782,0,0,1,24.586-.3,2.208,2.208,0,1,1-3.4,2.812,11.368,11.368,0,0,0-17.711.218,2.2,2.2,0,0,1-1.737.844" transform="translate(-5.781 -11.784)"/>
        <path id="Path_835902" data-name="Path 835902" d="M28.7,39.523a1.717,1.717,0,0,0-.548-3.053,10.309,10.309,0,0,0-11.914,5.3,1.717,1.717,0,0,0,3.068,1.544,6.875,6.875,0,0,1,7.944-3.532,1.716,1.716,0,0,0,1.451-.261" transform="translate(-2.638 -5.931)"/>
        <path id="Path_835903" data-name="Path 835903" d="M21.317,53.289a5.53,5.53,0,0,1,5.315-5.724,5.74,5.74,0,0,1,0,11.448,5.53,5.53,0,0,1-5.315-5.724" transform="translate(-3.502 -7.814)"/>
        <path id="Path_835904" data-name="Path 835904" d="M69.642,39.523a1.717,1.717,0,0,1,.548-3.053,10.309,10.309,0,0,1,11.914,5.3,1.717,1.717,0,0,1-3.068,1.544,6.875,6.875,0,0,0-7.944-3.532,1.716,1.716,0,0,1-1.451-.261" transform="translate(-11.322 -5.931)"/>
        <path id="Path_835905" data-name="Path 835905" d="M77.567,53.289a5.329,5.329,0,1,0-5.315,5.724,5.53,5.53,0,0,0,5.315-5.724" transform="translate(-10.996 -7.814)"/>
        <g id="Group_1017648" data-name="Group 1017648" transform="translate(41.603)" style="mix-blend-mode: multiply;isolation: isolate">
          <g id="Group_1017647" data-name="Group 1017647">
            <g id="Group_1017646" data-name="Group 1017646" clip-path="url(#clip-path-3)">
              <path id="Path_835906" data-name="Path 835906" d="M50.37,0c-.2,0-.393.013-.59.015V84.371c.2,0,.392.015.59.015A42.193,42.193,0,1,0,50.37,0" transform="translate(-49.78 0)" fill="#e2e4e7"/>
            </g>
          </g>
        </g>
        <path id="Path_835907" data-name="Path 835907" d="M77.286,78.446a1.162,1.162,0,0,1,2.1-.018l4.73,9.7a6.72,6.72,0,1,1-11.349,0Z" transform="translate(-11.781 -12.777)" fill="#4678fd"/>
      </g>
    </g>
  </g>
</svg>
