<svg xmlns="http://www.w3.org/2000/svg" xmlns:xlink="http://www.w3.org/1999/xlink" width="62" height="62" viewBox="0 0 62 62">
  <defs>
    <clipPath id="clip-path">
      <rect id="Rectangle_385330" data-name="Rectangle 385330" width="36.6" height="36.619" fill="none"/>
    </clipPath>
  </defs>
  <g id="Group_1087122" data-name="Group 1087122" transform="translate(-772 -1182.301)">
    <g id="Group_1017409" data-name="Group 1017409" transform="translate(499 -11723.699)">
      <g id="Group_1014856" data-name="Group 1014856" transform="translate(-111.999 10848)">
        <path id="Union_12" data-name="Union 12" d="M44.385,58.97a31.027,31.027,0,1,1,10.348-8.025L58.991,62Z" transform="translate(384.999 2058)" fill="#a3bfe4"/>
        <circle id="Ellipse_4842" data-name="Ellipse 4842" cx="26" cy="26" r="26" transform="translate(389.999 2063)" fill="#fff"/>
      </g>
    </g>
    <g id="Group_1017417" data-name="Group 1017417" transform="translate(785 1194.99)">
      <g id="Group_1017416" data-name="Group 1017416" clip-path="url(#clip-path)">
        <path id="Path_835592" data-name="Path 835592" d="M26.733,0a7.723,7.723,0,0,1,1.176.562A2.393,2.393,0,0,1,28.958,2.5c.028.666.019,1.334.012,2,0,.381-.2.586-.526.587a.523.523,0,0,1-.539-.581c-.013-.572,0-1.144-.006-1.716a1.605,1.605,0,0,0-1.718-1.72c-.63,0-1.26,0-1.94,0,0,.494,0,.966,0,1.438A1.268,1.268,0,0,1,22.8,3.932H13.727A1.279,1.279,0,0,1,12.3,2.5c0-.462,0-.924,0-1.409-.776,0-1.526-.043-2.268.013A1.529,1.529,0,0,0,8.692,2.4a2.111,2.111,0,0,0-.033.39c0,.509,0,1.018,0,1.55a3.161,3.161,0,0,1,1.958.646,2.93,2.93,0,0,1,1.179,2.341c.016,1.024.011,2.049,0,3.074a3.034,3.034,0,0,1-2.916,3.1c-.059,0-.118.011-.226.022v.416q0,5.433,0,10.867a3.436,3.436,0,0,1-.005.357.529.529,0,0,1-1.048.061,1.762,1.762,0,0,1-.018-.391q0-5.433,0-10.867v-.441H6.363c0,.526-.009,1.035,0,1.544.009.354-.072.645-.446.761s-.578-.108-.771-.371c-.4-.547-.823-1.081-1.207-1.64A.656.656,0,0,0,3.3,13.5a2.924,2.924,0,0,1-2.65-1.2A7.978,7.978,0,0,1,0,10.938v-4a.351.351,0,0,0,.054-.089A3.022,3.022,0,0,1,3.2,4.356c1.19,0,2.379,0,3.569,0h.811c0-.584-.008-1.128,0-1.672A2.694,2.694,0,0,1,9.359.161C9.525.1,9.7.053,9.864,0ZM5.221,13.752l.069-.036c0-.178,0-.356,0-.535,0-.582.162-.746.736-.747.9,0,1.809.007,2.713,0a1.954,1.954,0,0,0,1.984-1.962q.017-1.553,0-3.107a1.929,1.929,0,0,0-1.933-1.93q-2.892-.019-5.784,0a1.931,1.931,0,0,0-1.927,1.9c-.019,1.059-.016,2.119,0,3.178a1.906,1.906,0,0,0,1.571,1.862,6.173,6.173,0,0,0,1.173.052.736.736,0,0,1,.665.332c.238.336.489.661.734.991M23.167,1.1h-9.8c0,.452,0,.879,0,1.306,0,.455,0,.456.46.456h8c.345,0,.69-.006,1.035,0,.2,0,.311-.064.308-.286-.007-.486,0-.972,0-1.478" fill="#727997"/>
        <path id="Path_835593" data-name="Path 835593" d="M24.982,44.512h2.427c0-.685-.006-1.36,0-2.034a4.5,4.5,0,0,1,.906-2.73,4.578,4.578,0,0,1,3.675-1.89c.319-.011.638,0,1,0,0-.3.013-.572-.008-.84a.318.318,0,0,0-.161-.229,5.393,5.393,0,0,1-3.3-3.38,1.914,1.914,0,0,1-1.91-1.56,2.068,2.068,0,0,1,.72-2.449.47.47,0,0,0,.1-.386,6.286,6.286,0,0,1,.35-3.644,4.488,4.488,0,0,1,3.47-2.673,11.848,11.848,0,0,1,4.4-.063c.413.066.626.311.575.632s-.307.493-.735.426a11.058,11.058,0,0,0-4.082.072,3.562,3.562,0,0,0-3,3.5c-.023.414.021.831.035,1.247a1.444,1.444,0,0,0,.665,1.219c.051-.528.1-1.043.15-1.557a2.893,2.893,0,0,1,.883-1.9,1.158,1.158,0,0,1,1.772.038,5.472,5.472,0,0,0,2.138,1.38c.487.192.977.374,1.463.57a4.8,4.8,0,0,1,2.427,1.758A2.984,2.984,0,0,0,39.8,27.23a3.82,3.82,0,0,0-1.286-2.7.53.53,0,0,1-.108-.811.537.537,0,0,1,.795-.005,4.53,4.53,0,0,1,1.626,3.192c.073.785,0,1.584-.009,2.449a2.079,2.079,0,0,1,.74,2.612,1.844,1.844,0,0,1-1.87,1.43,4.966,4.966,0,0,1-1.582,2.36,10.04,10.04,0,0,1-1.577.957c-.235.122-.356.226-.323.5a5.11,5.11,0,0,1,0,.613c.544.028,1.055.025,1.558.083a4.571,4.571,0,0,1,4.008,4.228c.039.653.018,1.31.024,1.965,0,.128,0,.257,0,.408h2.4V41.02c-.193-.028-.391-.05-.586-.086A3.006,3.006,0,0,1,41.127,38c-.013-1.024-.01-2.049,0-3.074a3.027,3.027,0,0,1,2.895-3.082c.057,0,.113-.011.207-.02V20.77c0-.575.172-.841.542-.84s.531.256.531.843V31.839h.428c1.358,0,2.716,0,4.074,0a3.036,3.036,0,0,1,3.12,3.114q.009,1.448,0,2.9a3.018,3.018,0,0,1-3.13,3.13.926.926,0,0,0-.905.45c-.355.549-.774,1.056-1.163,1.583a.62.62,0,0,1-.732.3.63.63,0,0,1-.435-.7c.01-.524,0-1.048,0-1.6H45.3v.4c0,1.954-.039,3.909.011,5.861a2.81,2.81,0,0,1-2.95,2.943c-5.169-.041-10.339-.015-15.509-.016a2.709,2.709,0,0,1-2.943-2.931q0-2.949,0-5.9c0-.083,0-.167,0-.25a.538.538,0,0,1,.543-.581.521.521,0,0,1,.526.588c.006.762,0,1.525,0,2.287,0,.354,0,.708,0,1.083M44.2,45.626H24.982c0,.575,0,1.132,0,1.688a1.643,1.643,0,0,0,1.835,1.826H42.391c.107,0,.214,0,.321,0a1.538,1.538,0,0,0,1.47-1.282c.065-.729.015-1.468.015-2.229m3.436-4.415.072.026c.1-.132.2-.265.295-.395.837-1.1.476-.907,1.828-.924a1.967,1.967,0,0,0,2.021-2q.013-1.5,0-3a1.958,1.958,0,0,0-2.016-2q-2.8-.01-5.606,0A1.952,1.952,0,0,0,42.2,34.935q-.009,1.464,0,2.929a1.96,1.96,0,0,0,2.071,2.053c.9,0,1.809,0,2.714,0,.457,0,.644.2.651.656,0,.212,0,.424,0,.636m-13.024-5.2a4.257,4.257,0,0,0,4.252-4.1c.007-.223-.024-.369-.258-.472a.7.7,0,0,1-.317-.365,2.853,2.853,0,0,0-1.614-1.58c-.65-.291-1.319-.54-1.981-.8a6.01,6.01,0,0,1-2.468-1.579c-.167-.195-.331-.168-.423.021a4.5,4.5,0,0,0-.452,1.137c-.144.807-.178,1.632-.319,2.439a1.246,1.246,0,0,1-.45.716.489.489,0,0,0-.232.487,4.275,4.275,0,0,0,4.262,4.1M28.438,44.49H40.78a19.845,19.845,0,0,0-.185-2.891A3.614,3.614,0,0,0,36.211,39c0,.9.015,1.8,0,2.7a1.595,1.595,0,0,1-3.168.21A9.221,9.221,0,0,1,33,40.665c-.006-.568,0-1.136,0-1.729-.41,0-.778-.021-1.143,0A3.428,3.428,0,0,0,28.6,41.674a21.235,21.235,0,0,0-.166,2.816m5.631-5.551c0,.892,0,1.746,0,2.6,0,.388.213.63.526.639.331.009.54-.233.543-.648,0-.772,0-1.545,0-2.317a2.2,2.2,0,0,0-.034-.272Zm5.941-8.711c-.036.726-.069,1.4-.1,2.11a1.425,1.425,0,0,0,.735-1.427.7.7,0,0,0-.631-.683m-10.888.02a.778.778,0,0,0-.553.92c.062.581.35,1.037.728,1.1a7.619,7.619,0,0,0-.174-2.025m5.989,6.845H34.086v.738H35.11Z" transform="translate(-16.325 -13.609)" fill="#727997"/>
        <path id="Path_835594" data-name="Path 835594" d="M13.575,23.615c0-.38-.009-.761,0-1.141a.874.874,0,0,1,1.389-.783q.97.564,1.923,1.156a.87.87,0,0,1,.008,1.563q-.967.6-1.954,1.172a.868.868,0,0,1-1.363-.755c-.017-.4,0-.808,0-1.212m1.085.89,1.456-.877-1.456-.871Z" transform="translate(-9.266 -14.702)" fill="#727997"/>
        <path id="Path_835595" data-name="Path 835595" d="M49.345,105.663q-1.569,0-3.139,0c-.452,0-.693-.189-.694-.534s.239-.537.691-.537q3.157,0,6.314,0c.444,0,.7.2.7.534s-.256.537-.7.537q-1.588,0-3.175,0" transform="translate(-31.077 -71.418)" fill="#727997"/>
        <path id="Path_835596" data-name="Path 835596" d="M91.189,67.023q-.963,0-1.927,0a2.294,2.294,0,0,1-.32-.015.518.518,0,0,1-.489-.553.491.491,0,0,1,.509-.5q2.23-.012,4.461,0a.493.493,0,0,1,.521.517.508.508,0,0,1-.542.538c-.737.017-1.475.005-2.212.005v.005" transform="translate(-60.397 -45.035)" fill="#727997"/>
        <path id="Path_835597" data-name="Path 835597" d="M91.172,73.782q-.946,0-1.892,0a2.566,2.566,0,0,1-.32-.011.531.531,0,0,1-.512-.537.511.511,0,0,1,.527-.516q2.213-.014,4.425,0a.5.5,0,0,1,.541.533.511.511,0,0,1-.558.524c-.737.015-1.475,0-2.212,0v0" transform="translate(-60.396 -49.649)" fill="#727997"/>
      </g>
    </g>
  </g>
</svg>
