<svg xmlns="http://www.w3.org/2000/svg" xmlns:xlink="http://www.w3.org/1999/xlink" width="62" height="62" viewBox="0 0 62 62">
  <defs>
    <clipPath id="clip-path">
      <rect id="Rectangle_385332" data-name="Rectangle 385332" width="37.085" height="35.071" fill="none"/>
    </clipPath>
  </defs>
  <g id="Group_1087123" data-name="Group 1087123" transform="translate(-1020 -1182.301)">
    <g id="Group_1017410" data-name="Group 1017410" transform="translate(747 -11723.699)">
      <g id="Group_1014856" data-name="Group 1014856" transform="translate(-111.999 10848)">
        <path id="Union_12" data-name="Union 12" d="M44.385,58.97a31.027,31.027,0,1,1,10.348-8.025L58.991,62Z" transform="translate(384.999 2058)" fill="#a3bfe4"/>
        <circle id="Ellipse_4842" data-name="Ellipse 4842" cx="26" cy="26" r="26" transform="translate(389.999 2063)" fill="#fff"/>
      </g>
    </g>
    <g id="Group_1017421" data-name="Group 1017421" transform="translate(1033.448 1197.538)">
      <g id="Group_1017420" data-name="Group 1017420" transform="translate(0 0)" clip-path="url(#clip-path)">
        <path id="Path_835605" data-name="Path 835605" d="M110.385,11.085a3.7,3.7,0,0,1-.618.575c-1.177.679-2.37,1.33-3.558,1.99a2.186,2.186,0,0,1-.323.159.713.713,0,0,1-.878-.3.665.665,0,0,1,.2-.926c1.386-.8,2.781-1.579,4.191-2.332.378-.2.7,0,.982.475Z" transform="translate(-73.3 -7.106)" fill="#727997"/>
        <path id="Path_835606" data-name="Path 835606" d="M14.662,27.053c.292.506.564.972.831,1.442a.792.792,0,0,1-.333,1.264c-.561.328-1.124.65-1.71.988.56.971,1.126,1.909,1.646,2.873a8.947,8.947,0,0,1,.839,1.862,2.777,2.777,0,0,1-1.374,2.978,2.869,2.869,0,0,1-3.306-.308A4.345,4.345,0,0,1,10.5,37.2Q8.79,34.3,7.126,31.376c-.124-.218-.221-.27-.474-.186A5.056,5.056,0,0,1,.472,28.5,5.01,5.01,0,0,1,2.361,22.12c1.983-1.216,4.022-2.34,6.03-3.513a1.851,1.851,0,0,0,.509-.443q4.6-5.843,9.185-11.7a2.274,2.274,0,0,1,2.229-1.039,2.18,2.18,0,0,1,1.615,1.157c.8,1.4,1.618,2.8,2.414,4.2a.488.488,0,0,0,.533.3c.769-.065,1.541-.093,2.311-.149a.863.863,0,0,1,.886.491c.42.746.842,1.49,1.284,2.223a.9.9,0,0,1-.039,1.073c-.417.606-.8,1.233-1.226,1.834a.527.527,0,0,0-.029.668c.75,1.265,1.492,2.535,2.208,3.819A2.169,2.169,0,0,1,28.8,24.279q-1.475.274-2.947.563Q20.428,25.9,15,26.969c-.094.019-.186.046-.339.084m3.477-18.34a1.77,1.77,0,0,1-.1.161q-3.921,5-7.848,9.991a.33.33,0,0,0-.005.443q1.778,3.066,3.542,6.141a.35.35,0,0,0,.449.21c2.908-.579,5.818-1.143,8.728-1.712,1.193-.233,2.385-.472,3.614-.715L18.139,8.713M12.523,26.248,8.908,19.989c-1.549.893-3.063,1.764-4.574,2.639-.448.259-.9.508-1.331.8a3.612,3.612,0,0,0,3.929,6.057c1.8-1.02,3.591-2.068,5.385-3.1.062-.036.121-.077.206-.133M19.121,7.5c.072.128.135.243.2.358l3.145,5.451q2.684,4.652,5.37,9.3c.059.1.149.288.2.28a2.444,2.444,0,0,0,.844-.23.59.59,0,0,0,.2-.744,2.1,2.1,0,0,0-.179-.354Q24.816,14.488,20.728,7.41a2.563,2.563,0,0,0-.151-.246A.7.7,0,0,0,19.435,7.1c-.112.124-.207.263-.314.4M8.245,30.407c.049.092.079.155.114.216q1.707,2.958,3.416,5.914a2.47,2.47,0,0,0,.22.331,1.443,1.443,0,0,0,2.3-.092,1.46,1.46,0,0,0,0-1.666Q12.584,32.156,10.88,29.2c-.041-.071-.089-.137-.147-.227L8.245,30.407m17.1-17.9,1.721,2.98c.295-.445.559-.831.806-1.227a.3.3,0,0,0,0-.254c-.267-.485-.546-.963-.828-1.439-.038-.065-.12-.151-.179-.149-.489.019-.977.055-1.524.09M12.726,29.49l1.25-.725-.724-1.252L12,28.239l.723,1.251" transform="translate(0 -3.771)" fill="#727997"/>
        <path id="Path_835607" data-name="Path 835607" d="M106.708,32.91l.755.2c.65.174,1.3.341,1.95.523a.725.725,0,1,1-.358,1.392c-.884-.228-1.768-.459-2.646-.708a.717.717,0,0,1-.578-.832c.07-.365.367-.592.877-.576" transform="translate(-73.938 -22.995)" fill="#727997"/>
        <path id="Path_835608" data-name="Path 835608" d="M92.29,3.374c.024-.1.064-.288.113-.473.2-.766.4-1.534.621-2.3a.724.724,0,0,1,.893-.577.716.716,0,0,1,.494.939c-.23.908-.469,1.815-.729,2.715a.692.692,0,0,1-.856.529.726.726,0,0,1-.536-.837" transform="translate(-64.485 -0.001)" fill="#727997"/>
        <path id="Path_835609" data-name="Path 835609" d="M12.453,76.812a2.232,2.232,0,0,1-1.987-1,.712.712,0,0,1,.126-1,.7.7,0,0,1,1,.12c.491.53.678.558,1.312.193.3-.174.6-.356.909-.522a.74.74,0,0,1,1.073.223.728.728,0,0,1-.332,1.015c-.444.266-.892.53-1.359.752a4.091,4.091,0,0,1-.74.224" transform="translate(-7.209 -52.032)" fill="#727997"/>
        <path id="Path_835610" data-name="Path 835610" d="M30.107,69.662a.7.7,0,1,1-.743.677.7.7,0,0,1,.743-.677" transform="translate(-20.517 -48.675)" fill="#727997"/>
      </g>
    </g>
  </g>
</svg>
