<svg id="Group_1019616" data-name="Group 1019616" xmlns="http://www.w3.org/2000/svg" xmlns:xlink="http://www.w3.org/1999/xlink" width="85" height="85" viewBox="0 0 85 85">
  <defs>
    <clipPath id="clip-path">
      <rect id="Rectangle_385416" data-name="Rectangle 385416" width="85" height="85" fill="none"/>
    </clipPath>
    <clipPath id="clip-path-3">
      <rect id="Rectangle_385414" data-name="Rectangle 385414" width="43.095" height="85" fill="none"/>
    </clipPath>
    <clipPath id="clip-path-4">
      <path id="Path_835892" data-name="Path 835892" d="M16.467,54.163a28.655,28.655,0,0,0,57.276,0Z" transform="translate(-16.467 -54.163)" fill="none"/>
    </clipPath>
  </defs>
  <g id="Group_1017637" data-name="Group 1017637" clip-path="url(#clip-path)">
    <g id="Group_1017634" data-name="Group 1017634" transform="translate(0 0)">
      <g id="Group_1017633" data-name="Group 1017633" clip-path="url(#clip-path)">
        <path id="Path_835886" data-name="Path 835886" d="M0,42.5A42.5,42.5,0,1,1,42.5,85,42.5,42.5,0,0,1,0,42.5" transform="translate(0 0)" fill="#ffd530"/>
        <g id="Group_1017632" data-name="Group 1017632" transform="translate(41.905)" style="mix-blend-mode: multiply;isolation: isolate">
          <g id="Group_1017631" data-name="Group 1017631">
            <g id="Group_1017630" data-name="Group 1017630" clip-path="url(#clip-path-3)">
              <path id="Path_835887" data-name="Path 835887" d="M50.375,0c-.2,0-.4.013-.594.015v84.97c.2,0,.395.015.594.015a42.5,42.5,0,1,0,0-85" transform="translate(-49.78 0)" fill="#e2e4e7"/>
            </g>
          </g>
        </g>
        <path id="Path_835888" data-name="Path 835888" d="M19.283,41.462a2.224,2.224,0,0,1-1.044-4.189l7.09-3.76-7.138-3.631a2.224,2.224,0,0,1,2.016-3.964L31.161,31.49a2.224,2.224,0,0,1,.035,3.947L20.323,41.2a2.214,2.214,0,0,1-1.04.259" transform="translate(-2.685 -4.062)"/>
        <path id="Path_835889" data-name="Path 835889" d="M78.8,41.462a2.214,2.214,0,0,1-1.04-.259L66.883,35.437a2.224,2.224,0,0,1,.035-3.947l10.954-5.571a2.224,2.224,0,0,1,2.016,3.964l-7.138,3.631,7.09,3.76A2.224,2.224,0,0,1,78.8,41.462" transform="translate(-10.393 -4.062)"/>
      </g>
    </g>
    <g id="Group_1017636" data-name="Group 1017636" transform="translate(13.862 45.595)">
      <g id="Group_1017635" data-name="Group 1017635" clip-path="url(#clip-path-4)">
        <path id="Path_835890" data-name="Path 835890" d="M16.467,54.163a28.655,28.655,0,0,0,57.276,0Z" transform="translate(-16.467 -54.163)"/>
        <path id="Path_835891" data-name="Path 835891" d="M45.364,84.487A31.382,31.382,0,0,0,72.823,68.31a65.748,65.748,0,0,0-54.718.367,31.381,31.381,0,0,0,27.259,15.81" transform="translate(-16.726 -55.486)" fill="#fe3957"/>
      </g>
    </g>
  </g>
</svg>
