<svg id="Group_1018183" data-name="Group 1018183" xmlns="http://www.w3.org/2000/svg" xmlns:xlink="http://www.w3.org/1999/xlink" width="185.617" height="153.005" viewBox="0 0 185.617 153.005">
  <defs>
    <clipPath id="clip-path">
      <rect id="Rectangle_385435" data-name="Rectangle 385435" width="185.617" height="153.005" fill="none"/>
    </clipPath>
  </defs>
  <g id="Group_1018182" data-name="Group 1018182" clip-path="url(#clip-path)">
    <path id="Path_835996" data-name="Path 835996" d="M179.946,128.93s-3.993-4.223.677-7.851c0,0,3.018-1.607,2.2-6.028s.654-7.9,4.8-8.23,12.066,2.427,11.881,5.266a2.988,2.988,0,0,1-.053,2c-.9,2.719-2.134,5.991-1.135,7.034a9.553,9.553,0,0,0,2.926,2.1c3.373,1.537,5.335,3.409,5.335,7.158,0,5.75-10.136,2.766-10.136,2.766Z" transform="translate(-36.039 -21.579)" fill="#fff"/>
    <path id="Path_835997" data-name="Path 835997" d="M89.4,65.833A22.425,22.425,0,1,1,66.976,43.409,22.425,22.425,0,0,1,89.4,65.833" transform="translate(-9.002 -8.771)" fill="#33ece0"/>
    <path id="Path_835998" data-name="Path 835998" d="M156.19,158.607H86.26a2.4,2.4,0,0,1-2.4-2.4v-86.5a2.4,2.4,0,0,1,2.4-2.4h69.93a2.4,2.4,0,0,1,2.4,2.4v86.5a2.4,2.4,0,0,1-2.4,2.4" transform="translate(-16.946 -13.603)" fill="#fff"/>
    <path id="Path_835999" data-name="Path 835999" d="M20.281,147.464a12.277,12.277,0,0,0-4.847,3.684c-1.776,2.472-5.8,8.335-7.058,12.522s-2.55,6.223-2.647,9.876,0,6.789,1.183,8.575l37.17.109,1.937-24.282s-2.449-5.581-5.052-8.1-5.928-4.146-8.4-4.05Z" transform="translate(-1.152 -29.459)" fill="#fff198"/>
    <path id="Path_836000" data-name="Path 836000" d="M56.012,183.807h31.1a4.741,4.741,0,0,0,4.512-3.118L99,159.39a4.585,4.585,0,0,0-4.512-5.98h-31.1a4.741,4.741,0,0,0-4.512,3.118l-7.375,21.3a4.584,4.584,0,0,0,4.512,5.98" transform="translate(-10.357 -30.998)" fill="#1a1a1a"/>
    <path id="Path_836001" data-name="Path 836001" d="M140.054,22.933s-2.276-2.514-1.927-4.234a4.259,4.259,0,0,1,3.141-3.269,6.2,6.2,0,0,1,2.8.6s1.088-1.184,3.813-.466,4.266,4.01,4.266,4.01a3.323,3.323,0,0,1,2.893,3.227,9.548,9.548,0,0,1-3.955,7.149c-2.175,1.666-1.906,1.731-2.51,1.643s-1.577-.342-1.123-2.774l-1.3-3.787s-2.046-.192-.733-2.774c0,0-1.886-2.249-4.394-2.178Z" transform="translate(-27.903 -3.099)" fill="#fff198"/>
    <path id="Path_836002" data-name="Path 836002" d="M169.792,165.763v9.467h31.874l-.1-6.818a9.354,9.354,0,0,0,5.317-6.061,18.55,18.55,0,0,0-.557-10.55c-.587-2.024-2.843-8.238-4.145-11.067s-2.87-6.776-3.753-8.267a11.293,11.293,0,0,0-5.648-5.11,22.588,22.588,0,0,0-6.432-1.044l-6-.121a19.354,19.354,0,0,0-4.745,1.145c-2.8,1.013-4.5,1.524-7.4,1.023a9.433,9.433,0,0,1-6.222-4.813,29.617,29.617,0,0,1-2.532-7.714c-.263-1.672-.365-3.805-.365-3.805s-.709-1.067-5.462-.852-5.989.9-6.052,1.082a51.893,51.893,0,0,0,1.586,9.284c1.147,4.251,3.559,9.578,6.4,12.826s7.612,7.29,13.121,8.04Z" transform="translate(-29.818 -22.458)" fill="#fff198"/>
    <path id="Path_836003" data-name="Path 836003" d="M194.908,149.464l-19.773.152a4.867,4.867,0,0,0-4.069,4.472c-.357,3.977.134,15.1.134,15.1s.452,4,3.939,4.448l19.108-.2a56.4,56.4,0,0,1-6.162-4.473,46.954,46.954,0,0,1-4.5-4.3s2.385-5.984,6.147-8.85l9.458,6.807a123.179,123.179,0,0,1-4.283-13.151" transform="translate(-34.539 -30.201)" fill="#1a1a1a"/>
    <path id="Path_836004" data-name="Path 836004" d="M143.629,149.7v9.657h-9.657a9.657,9.657,0,1,0,9.657-9.657" transform="translate(-27.07 -30.247)" fill="#1a1a1a"/>
    <path id="Path_836005" data-name="Path 836005" d="M130.463,154.893h9.544V145.35a9.319,9.319,0,0,0-6.926,2.978,8.888,8.888,0,0,0-2.618,6.565" transform="translate(-26.358 -29.368)" fill="#33ece0"/>
    <path id="Path_836006" data-name="Path 836006" d="M41.292,128.1a4.591,4.591,0,0,1,1.047,2.012,4.878,4.878,0,0,1-1.064,4s.14,4.358-3.047,4.3L38,141.864s.352,3.921-.848,4.046-3-2.384-3-2.384a6.733,6.733,0,0,0,1.333-3.454,7.26,7.26,0,0,0-1.436-4.844c-1.416-2.055-1.554-3.486-1.216-4.294a19.214,19.214,0,0,0,1.151-3.268,17.644,17.644,0,0,0-.354-2.458,2.592,2.592,0,0,1,.777,1.355,8.753,8.753,0,0,1,.018,1.558l1.7-.072Z" transform="translate(-6.604 -25.299)" fill="#fff"/>
    <path id="Path_836007" data-name="Path 836007" d="M32.062,184.343s4.2-2.05,5.115-2.094,1.42-.054,1.42-.054a3.5,3.5,0,0,1,3.5-.354,3,3,0,0,1,1.993-.7,2.455,2.455,0,0,1,1.568,1.291,9.734,9.734,0,0,0-.4,2.454c.09.709.635,3.076,2.449,3.927,0,0-.728.932-2.454-.168a4.439,4.439,0,0,1-3.279.557,3.535,3.535,0,0,1-1.78.1,3.432,3.432,0,0,1-1.492-1.064,15.6,15.6,0,0,1-.839-1.617s-.116,2.787-3.472,2.668a3.9,3.9,0,0,1-1.935-2.066,4.529,4.529,0,0,1-.386-2.883" transform="translate(-6.461 -36.599)" fill="#fff"/>
    <path id="Path_836008" data-name="Path 836008" d="M190.345,156.77s-.779-1.522-1.439-2.957-1.032-2.67-1.957-2.509-.665,1.7-.5,2.228.875,2.466.134,2.68-1.783-.2-2.877-1.171-2.98-2.8-2.98-2.8-1.06-.7-1.724-.121a1.093,1.093,0,0,0-.1,1.409s-.89-.041-1.132.352a1.3,1.3,0,0,0-.048,1.313,1.67,1.67,0,0,0-.43,2.162,23.111,23.111,0,0,0,4.353,4.319,13.629,13.629,0,0,0,3.738,2.077,29.416,29.416,0,0,1,2.2-3.817,26.6,26.6,0,0,1,2.762-3.169" transform="translate(-35.775 -30.57)" fill="#fff"/>
    <path id="Path_836009" data-name="Path 836009" d="M156.825,111.083a26.677,26.677,0,0,0-.19-5.574c-.425-1.587-.893-2.66-2.237-3.027s-2.618-.654-2.618-.654H150.3l.913,1.641-1.372.714-.918-1.622s-1.858.484-2.118,1.882a10.314,10.314,0,0,0,.585,5.5c.767,1.541,1.462,2.5,3.138,2.4a8.706,8.706,0,0,0,3.54-.721c1-.466,1.128-.824,1.128-.824l.284.51Z" transform="translate(-29.637 -20.575)" fill="#fff"/>
    <path id="Path_836010" data-name="Path 836010" d="M186.6,111.651l-1.092,5.281a15.915,15.915,0,0,0-.306,3.993c.223,1.254.364,2.974,3.015,3l-.27,2.371s-1.86,5,.424,5.069,3.305-1.579,4.093-2.631a23.328,23.328,0,0,0,1.487-2.317l.131-5.659s2.546.61,2.632-1.728-2.628-1.982-2.628-1.982a45.439,45.439,0,0,1-4.451-2.773c-1.4-1.093-3.033-2.624-3.033-2.624" transform="translate(-37.41 -22.56)" fill="#fff"/>
    <path id="Path_836011" data-name="Path 836011" d="M81.971,171.193c-.947,1.641-.84,3.476.24,4.1s2.722-.2,3.67-1.843.839-3.476-.239-4.1-2.723.2-3.671,1.842" transform="translate(-16.433 -34.177)" fill="#fff198"/>
    <path id="Path_836012" data-name="Path 836012" d="M51.724,63.619,53.951,63c.4-.111.807-.219,1.21-.334a34.9,34.9,0,0,0,5.089,4.938A2.041,2.041,0,0,0,62.118,68a6.391,6.391,0,0,0,1.908-.871A24.254,24.254,0,0,0,68,63.832,73.158,73.158,0,0,0,74.23,56.76a.313.313,0,0,1,.393-.133c1.206.345,2.415.675,3.624,1.011a67.806,67.806,0,0,1-7.771,11.649A28.45,28.45,0,0,1,65.49,74.2a15.414,15.414,0,0,1-1.937,1.183,4.808,4.808,0,0,1-4.425.062,9.346,9.346,0,0,1-3.566-2.972,20.187,20.187,0,0,1-3.018-6.027c-.3-.92-.543-1.86-.821-2.826" transform="translate(-10.451 -11.437)" fill="#fff"/>
    <path id="Path_836013" data-name="Path 836013" d="M23.147,142.516s4.792,2.216,7.275.759A5.108,5.108,0,0,0,32.939,138c-.1-1.649-1.53-3.819-2.154-4.68a3.953,3.953,0,0,1-.532-3.172c.218-1.321,1.08-2.208,1.151-3.268a8.812,8.812,0,0,0-.6-2.8,3.03,3.03,0,0,1,1.041,1.886c.019,1.02,0,1.375,0,1.375l.973.093a1.181,1.181,0,0,1,.567-.367c.262-.025.906.49.906.49l3.106-.123s.6-.385.956-.251a5.22,5.22,0,0,1,.567.251l.435.008a12.555,12.555,0,0,0-.3-3.53c-.412-1.121-.822-1.976-3-2.318s-4.36-.6-6.382.647c0,0-5.294-.381-5.653,4.276,0,0,1.051,5.947,1.313,7.62s.649,3.258-1,3.821-3.652.774-4.167,2.656-.3,2.688.479,3.325Z" transform="translate(-4.018 -24.511)" fill="#1a1a1a"/>
    <path id="Path_836014" data-name="Path 836014" d="M39.578,141.667l-.211,3.232,1.967.373a1.912,1.912,0,0,0,.7-1.8,4.966,4.966,0,0,0-.791-2.123s-1.314.562-1.66.319" transform="translate(-7.955 -28.561)" fill="#1a1a1a"/>
    <path id="Path_836015" data-name="Path 836015" d="M115.661,41.355s3.115,10.118,3.322,10.751.992,5.009,3.476,4.812,3.24-2.834,3.569-3.643,2.213-5.62,3.646-7.608a8.249,8.249,0,0,1,5.964-3.5c2.322-.164,9.5-.346,11.379.927s5.286,5.468,7.86,10.763S158.1,59.653,158.3,61.8l-5.749.148-17.093-.09a24.513,24.513,0,0,1-4.442,5.064s-1.846,1.139-2.873,1.641a16.552,16.552,0,0,1-6.9,1.457c-2.938-.1-7.09-.944-9.726-4.466a23.908,23.908,0,0,1-4.2-7.929c-.624-2.053-1.751-6.367-2.23-9.115s-.947-5.384-.947-5.384.839-1.611,5.377-2.286,6.149.513,6.149.513" transform="translate(-21.042 -8.211)" fill="#1a1a1a"/>
    <path id="Path_836016" data-name="Path 836016" d="M155.841,113.938l.854,1.61s.735.269,1.039,0,.2-.843.2-.843l-.878-1.629s-.7.793-1.212.862" transform="translate(-31.489 -22.848)" fill="#fff"/>
    <path id="Path_836017" data-name="Path 836017" d="M141.849,36.229V34.665s-2.683-.314-3.232-1.322a3.15,3.15,0,0,1-.356-2.435,15.617,15.617,0,0,0,.382-1.928s-1.564-1.1-1.392-1.713,2.381-2.072,2.381-2.072l.925-3.982s3.6.495,4.523,2.363c0,0-.913,2.479.768,2.628a2.1,2.1,0,0,1,2.13-.76A2.275,2.275,0,0,1,149.9,27.8c.108,1.324-1.171,2.308-2.759,2.192,0,0-.377,2.561.519,2.686a2.034,2.034,0,0,0,1.464-.322l.294,3.2Z" transform="translate(-27.73 -4.286)" fill="#fff"/>
    <path id="Path_836018" data-name="Path 836018" d="M112.453,40.149a22.116,22.116,0,0,1-.243-4.531c.123-2.526-.155-2.925.109-4.049s1.307-2.665.328-2.908a2.364,2.364,0,0,0-2.766.858c-.513.993-.952,3.323-1.27,3.635a1.625,1.625,0,0,1-1.422.446,1.786,1.786,0,0,1-1.016-1.144,11.951,11.951,0,0,0-1.92-3.534c-.938-.938-2.15-1.893-3.136-1.584a1.326,1.326,0,0,0-1.016,1.132,1.4,1.4,0,0,0-1.443,1.45,5.16,5.16,0,0,0,.867,1.583,13.528,13.528,0,0,1,1.653,2.7c.4.941,1.078,2.915,2.265,3.84s2.139,1.463,2.28,3.022a13.582,13.582,0,0,0,3.124-.089,12.343,12.343,0,0,0,3.6-.826" transform="translate(-19.935 -5.512)" fill="#fff"/>
    <path id="Path_836019" data-name="Path 836019" d="M115.662,40.769l.36,2.107s2.257-.823,2.154-1.4-2.514-.71-2.514-.71" transform="translate(-23.371 -8.238)" fill="#3a3a3a"/>
    <path id="Path_836020" data-name="Path 836020" d="M105.831,42.089a4.057,4.057,0,0,1,.963,1.967s-2.438.008-2.6-.531,1.64-1.436,1.64-1.436" transform="translate(-21.051 -8.505)" fill="#3a3a3a"/>
    <path id="Path_836021" data-name="Path 836021" d="M139.978,42.253l1.432-2.391s8.56-.959,10.08-.773l1.915,2.826s-6.612-.58-8.547-.419-4.88.757-4.88.757" transform="translate(-28.284 -7.893)" fill="#fff"/>
    <path id="Path_836022" data-name="Path 836022" d="M144.961,37.785l-1.953,1.649V38.012Z" transform="translate(-28.896 -7.635)" fill="#ccc"/>
    <path id="Path_836023" data-name="Path 836023" d="M31.913,183.869l4.188-1.908s1.971-.53,2.482-.24A4.39,4.39,0,0,1,41.8,181.2a4.921,4.921,0,0,0-1.53-1.427,6.364,6.364,0,0,0-4.084-.9,5.635,5.635,0,0,0-4.278,4.993" transform="translate(-6.448 -36.125)" fill="#1a1a1a"/>
    <path id="Path_836024" data-name="Path 836024" d="M36.646,190.811h4.227a5.461,5.461,0,0,1-2.006-2.551s-1.271,2.253-2.221,2.551" transform="translate(-7.405 -38.04)" fill="#1a1a1a"/>
    <path id="Path_836025" data-name="Path 836025" d="M94.914,152.99l-2.221-1.3H61.487a4.976,4.976,0,0,0-5.246,3.259l-7.281,21.974s-2.066,6.053,4.956,6.54c.048-.207-2.936-1.552-3.14-3.959s2.256-8,2.256-8l5.614-16.1s1.982-2.355,3.821-2.348Z" transform="translate(-9.835 -30.643)" fill="#fff"/>
    <path id="Path_836026" data-name="Path 836026" d="M113,15.166a8.373,8.373,0,1,1-8.373-8.373A8.373,8.373,0,0,1,113,15.166" transform="translate(-19.449 -1.373)" fill="#fff198"/>
    <path id="Path_836027" data-name="Path 836027" d="M106.745,29.24v1.039a12.786,12.786,0,0,1,.748,1.862c.243.86.476,1.811,1.82,1.774s1.271-3.078,2.059-3.889l0-.917a4.406,4.406,0,0,1-2.127.357,16.726,16.726,0,0,1-2.5-.227" transform="translate(-21.569 -5.882)" fill="#1a1a1a"/>
    <rect id="Rectangle_385433" data-name="Rectangle 385433" width="4.483" height="5.685" transform="translate(89.226 72.661)" fill="#33ece0"/>
    <rect id="Rectangle_385434" data-name="Rectangle 385434" width="4.453" height="8.654" transform="translate(81.727 69.62)" fill="#1a1a1a"/>
    <path id="Path_836028" data-name="Path 836028" d="M40.655,127.424s.6-.385.956-.251a5.314,5.314,0,0,1,.567.251l.435.007a12.53,12.53,0,0,0-.3-3.529c-.412-1.121-.821-1.976-2.995-2.318a16.055,16.055,0,0,0-3.308-.267c1.661.222,3.509.809,4.021,2.3a9.359,9.359,0,0,1,.532,3.814Z" transform="translate(-7.275 -24.511)" fill="#fff"/>
    <path id="Path_836029" data-name="Path 836029" d="M34.936,140.064c-.1-1.649-1.53-3.819-2.154-4.68a3.956,3.956,0,0,1-.533-3.172,4.142,4.142,0,0,1,.179-.675,5.937,5.937,0,0,0-.333,4.247c.582,2.387,3.134,7.961-2.327,10.036a4.67,4.67,0,0,0,2.652-.479,5.108,5.108,0,0,0,2.517-5.278" transform="translate(-6.015 -26.578)" fill="#fff"/>
    <path id="Path_836030" data-name="Path 836030" d="M41.51,141.349a7.067,7.067,0,0,1-.8.278,5.323,5.323,0,0,1,.095,3.495l.8.152a1.91,1.91,0,0,0,.694-1.8,4.959,4.959,0,0,0-.79-2.122" transform="translate(-8.226 -28.561)" fill="#fff"/>
    <path id="Path_836031" data-name="Path 836031" d="M141.012,17.572a2.608,2.608,0,0,1,1.8-1.967,3.574,3.574,0,0,0-4.682,3.114c-.348,1.72,1.927,4.234,1.927,4.234l.971-2.849a6.059,6.059,0,0,1,4.188,1.953c-.492-1.889-4.455-2.608-4.2-4.484" transform="translate(-27.903 -3.118)" fill="#fff"/>
    <path id="Path_836032" data-name="Path 836032" d="M149.392,15.568c-2.724-.718-3.812.466-3.812.466l.934.634s1.321-1.637,4.672-.186a5.071,5.071,0,0,0-1.795-.914" transform="translate(-29.416 -3.099)" fill="#fff"/>
    <path id="Path_836033" data-name="Path 836033" d="M117.55,74.189a6.492,6.492,0,0,1,6.538-4.325,6.984,6.984,0,0,1,6.457,4.461,13.131,13.131,0,0,1-6.718,1.5,12.931,12.931,0,0,1-6.277-1.635" transform="translate(-23.752 -14.114)" fill="#fff198"/>
    <path id="Path_836034" data-name="Path 836034" d="M97.457,94.723H92.974c-.189-.189-.189-14.111-.189-14.111a40.359,40.359,0,0,1,4.672-.188,39.828,39.828,0,0,1,.19,4.661c-.379,0-.379-4.283-.379-4.283h-4.1V94.346h4.1v-4.1c.379,0,.379,4.289.379,4.289a.19.19,0,0,1-.19.189" transform="translate(-18.748 -16.251)" fill="#1a1a1a"/>
    <path id="Path_836035" data-name="Path 836035" d="M106.857,96.055h-4.483c-.189-.189-.189-8.852-.189-8.852a40.359,40.359,0,0,1,4.672-.188c.189.188.189,8.852.189,8.852a.19.19,0,0,1-.189.189m-4.294-.377h4.1V87.391h-4.1Z" transform="translate(-20.648 -17.582)" fill="#1a1a1a"/>
    <path id="Path_836036" data-name="Path 836036" d="M116.255,96.852h-4.483a24.456,24.456,0,0,1-.189-3.619c.379,0,.379,3.242.379,3.242h4.1V91.335h-2.841c0-.377,3.03-.377,3.03-.377.189.188.189,5.7.189,5.7a.189.189,0,0,1-.189.189" transform="translate(-22.547 -18.379)" fill="#1a1a1a"/>
    <path id="Path_836037" data-name="Path 836037" d="M154.167,84.993H131.121c0-.377,23.046-.377,23.046-.377.188.293.105.377,0,.377" transform="translate(-26.494 -17.098)" fill="#1a1a1a"/>
    <path id="Path_836038" data-name="Path 836038" d="M157.6,96.337h-9.5c0-.377,9.5-.377,9.5-.377.188.293.105.377,0,.377" transform="translate(-29.924 -19.39)" fill="#1a1a1a"/>
    <path id="Path_836039" data-name="Path 836039" d="M142.827,96.337H131.12c0-.377,11.707-.377,11.707-.377.189.293.1.377,0,.377" transform="translate(-26.494 -19.39)" fill="#1a1a1a"/>
    <path id="Path_836040" data-name="Path 836040" d="M158.112,100.648h-7.469c0-.377,7.469-.377,7.469-.377.188.294.105.377,0,.377" transform="translate(-30.439 -20.261)" fill="#1a1a1a"/>
    <path id="Path_836041" data-name="Path 836041" d="M144.665,100.648H131.121c0-.377,13.544-.377,13.544-.377.188.294.1.377,0,.377" transform="translate(-26.494 -20.261)" fill="#1a1a1a"/>
    <path id="Path_836042" data-name="Path 836042" d="M156.832,89.3H144.311c0-.377,12.521-.377,12.521-.377.188.293.105.377,0,.377" transform="translate(-29.16 -17.968)" fill="#1a1a1a"/>
    <path id="Path_836043" data-name="Path 836043" d="M139.64,89.3h-8.52c0-.377,8.52-.377,8.52-.377.188.293.105.377,0,.377" transform="translate(-26.494 -17.968)" fill="#1a1a1a"/>
    <path id="Path_836044" data-name="Path 836044" d="M113.794,119.02H90.749c0-.377,23.045-.377,23.045-.377.189.293.105.377,0,.377" transform="translate(-18.337 -23.973)" fill="#1a1a1a"/>
    <path id="Path_836045" data-name="Path 836045" d="M113.794,130.365H90.749c0-.377,23.045-.377,23.045-.377.189.293.105.377,0,.377" transform="translate(-18.337 -26.265)" fill="#1a1a1a"/>
    <path id="Path_836046" data-name="Path 836046" d="M113.794,134.674H90.749c0-.377,23.045-.377,23.045-.377.189.293.105.377,0,.377" transform="translate(-18.337 -27.136)" fill="#1a1a1a"/>
    <path id="Path_836047" data-name="Path 836047" d="M113.794,123.331H90.749c0-.377,23.045-.377,23.045-.377.189.294.105.377,0,.377" transform="translate(-18.337 -24.844)" fill="#1a1a1a"/>
    <path id="Path_836048" data-name="Path 836048" d="M144.665,119.02H131.121c0-.377,13.544-.377,13.544-.377.188.293.1.377,0,.377" transform="translate(-26.494 -23.973)" fill="#1a1a1a"/>
    <path id="Path_836049" data-name="Path 836049" d="M147.389,130.365H131.121c0-.377,16.268-.377,16.268-.377.188.293.1.377,0,.377" transform="translate(-26.494 -26.265)" fill="#1a1a1a"/>
    <path id="Path_836050" data-name="Path 836050" d="M149.033,134.674H131.121c0-.377,17.912-.377,17.912-.377.189.293.1.377,0,.377" transform="translate(-26.494 -27.136)" fill="#1a1a1a"/>
    <path id="Path_836051" data-name="Path 836051" d="M145.665,123.331H131.12c0-.377,14.545-.377,14.545-.377.189.294.1.377,0,.377" transform="translate(-26.494 -24.844)" fill="#1a1a1a"/>
    <path id="Path_836052" data-name="Path 836052" d="M215.2,189.488c-.068-2.732-.068-2.732-.178-6.191l-.011-.376a.371.371,0,0,1,.39.365,49.315,49.315,0,0,1,0,5.773c-.018.351-.1.428-.2.428" transform="translate(-43.445 -36.961)" fill="#1a1a1a"/>
    <path id="Path_836053" data-name="Path 836053" d="M205.264,162.264c-3.3-6.333-5.327-16.32-5.347-16.42.391.026,2.4,9.963,5.516,16.146-.111.268-.14.274-.169.274" transform="translate(-40.395 -29.469)" fill="#1a1a1a"/>
    <path id="Path_836054" data-name="Path 836054" d="M175.278,189.248c-.189-.235-.11-4.575-.1-9.655.369,5.084.291,9.426.29,9.47a.187.187,0,0,1-.188.185" transform="translate(-35.392 -36.289)" fill="#1a1a1a"/>
    <path id="Path_836055" data-name="Path 836055" d="M176.2,147.786a32.413,32.413,0,0,1,1.653-8.307c-.276,1.961-1.087,5.029-1.466,8.142a.187.187,0,0,1-.188.164" transform="translate(-35.604 -28.183)" fill="#1a1a1a"/>
    <path id="Path_836056" data-name="Path 836056" d="M189.182,124.092c-.379,0-.75-.007-1.052-.022a4.245,4.245,0,0,1-1.641-.34,2.537,2.537,0,0,1-1.41-1.995,13.556,13.556,0,0,1,.148-4.5c.159-1.111,1.105-5.566,1.157-5.681.316.283-.606,4.5-.753,5.525a13.919,13.919,0,0,0-.18,4.583,2.182,2.182,0,0,0,1.2,1.724,3.856,3.856,0,0,0,1.5.306c.619.026,1.536.033,2.188-.013a1.294,1.294,0,0,1-1.151.412" transform="translate(-37.369 -22.541)" fill="#1a1a1a"/>
    <path id="Path_836057" data-name="Path 836057" d="M194.326,117.152c-6.439-3.41-7.895-5.8-7.954-5.906.34-.167,1.809,2.225,8.043,5.55.043.32-.022.356-.089.356" transform="translate(-37.658 -22.477)" fill="#1a1a1a"/>
    <path id="Path_836058" data-name="Path 836058" d="M192.036,117.151c-.147-.043-.255.008-.368.543-.125.6.017.721.152.733s.3-.156.344-.587.064-.633-.128-.689" transform="translate(-38.719 -23.669)" fill="#1a1a1a"/>
    <path id="Path_836059" data-name="Path 836059" d="M187.039,116.352c-.146-.048-.256,0-.385.53-.146.59-.009.721.126.738s.3-.146.364-.575.085-.63-.1-.693" transform="translate(-37.703 -23.507)" fill="#1a1a1a"/>
    <path id="Path_836060" data-name="Path 836060" d="M186.335,114.773c.156-.518.59-.716,1.363-.4a2.939,2.939,0,0,0-1.258.372.2.2,0,0,1-.1.03" transform="translate(-37.651 -23.08)" fill="#1a1a1a"/>
    <path id="Path_836061" data-name="Path 836061" d="M196.865,122.351a2.287,2.287,0,0,1-1.232-.384,2.8,2.8,0,0,1,1.113,0,1.722,1.722,0,0,0,1.291-.438,1.782,1.782,0,0,0-1.058-3.118,1.718,1.718,0,0,0-1.014.24.892.892,0,0,1,1.038-.618,2.16,2.16,0,0,1-.138,4.315" transform="translate(-39.53 -23.849)" fill="#1a1a1a"/>
    <path id="Path_836062" data-name="Path 836062" d="M197.218,121.67c-.134-.054-1.323-1.242-1.323-1.242.042-.3,1.638-1.192,1.638-1.192.184.331-1.193,1.1-1.193,1.1l1.012,1.009c-.038.3-.085.323-.134.323" transform="translate(-39.583 -24.093)" fill="#1a1a1a"/>
    <path id="Path_836063" data-name="Path 836063" d="M189.154,134.757a3.222,3.222,0,0,1-.61-.059,1.052,1.052,0,0,1-.742-.54c-.723-1.262.326-4.348.44-4.678l.186-2.472c.377.028.191,2.525.191,2.525-.022.081-1.15,3.283-.49,4.438a.681.681,0,0,0,.486.356c3.276.629,5.554-4.835,5.577-4.891.258.367-1.811,5.321-5.038,5.321" transform="translate(-37.896 -25.663)" fill="#1a1a1a"/>
    <path id="Path_836064" data-name="Path 836064" d="M189.454,123.1a1.972,1.972,0,0,1-.756-.168c.552-.18.9-.165,1.18-.309a1.4,1.4,0,0,0,.611-.855c.362.116.186.869-.438,1.19a1.266,1.266,0,0,1-.6.142" transform="translate(-38.128 -24.606)" fill="#1a1a1a"/>
    <path id="Path_836065" data-name="Path 836065" d="M205.335,133.086c1.307-1.272,1.243-3.842.66-5.265a7.508,7.508,0,0,0-2.561-3.11,18.658,18.658,0,0,0-2.886-1.654l-.326-.164a4.394,4.394,0,0,1-2.23-2.023,4.754,4.754,0,0,1,.227-3.672c.077-.195.16-.393.243-.6a9.241,9.241,0,0,0,.966-3.71,4.076,4.076,0,0,0-1.51-3.053,17.142,17.142,0,0,0-3.283-1.7c-.789-.281-7.8-2.679-10.4.363a7.176,7.176,0,0,0-1.457,4.324,8.681,8.681,0,0,0,.194,2.036,9.315,9.315,0,0,1,.2,2.035,5.4,5.4,0,0,1-1.412,3.413,6.946,6.946,0,0,1-.972.827,7.717,7.717,0,0,0-.8.66,4.589,4.589,0,0,0-1.123,1.787,3.521,3.521,0,0,0,.589,3.645c-1.4-.838-1.362-2.542-.947-3.766a4.978,4.978,0,0,1,1.216-1.934,7.9,7.9,0,0,1,.843-.693,6.633,6.633,0,0,0,.919-.78,5.029,5.029,0,0,0,1.312-3.175,8.917,8.917,0,0,0-.2-1.951,9.113,9.113,0,0,1-.2-2.125,7.532,7.532,0,0,1,1.547-4.546c2.764-3.239,9.995-.766,10.812-.473a17.48,17.48,0,0,1,3.359,1.742,4.417,4.417,0,0,1,1.684,3.353,9.48,9.48,0,0,1-.993,3.871c-.084.2-.165.4-.242.593a4.416,4.416,0,0,0-.23,3.389,4.084,4.084,0,0,0,2.05,1.829l.326.162a19.017,19.017,0,0,1,2.942,1.691,7.852,7.852,0,0,1,2.686,3.269c.631,1.541.673,4.341-.9,5.377a.191.191,0,0,1-.105.03" transform="translate(-36.019 -21.54)" fill="#1a1a1a"/>
    <path id="Path_836066" data-name="Path 836066" d="M196.068,128.939c-.189-.192-.059-5.673-.059-5.673.377.01.248,5.49.248,5.49a.188.188,0,0,1-.189.184" transform="translate(-39.597 -24.907)" fill="#1a1a1a"/>
    <path id="Path_836067" data-name="Path 836067" d="M206.8,172.9c-6.624,0-15.391-6.7-20.189-11.9a17.836,17.836,0,0,1,2.806-5.343,35.11,35.11,0,0,1,3.309-3.868,75.968,75.968,0,0,1,12.475,9.224,141,141,0,0,0-12.319-8.848,37,37,0,0,0-3.162,3.72,23.338,23.338,0,0,0-2.75,4.946c7.217,7.782,17.892,14.171,23.569,10.725,9.272-5.625,1.906-21.445-2.05-29.944l-.267-.574c-.152-.326-.313-.733-.5-1.2-.894-2.253-2.245-5.66-5.282-7.511-1.982-1.208-4.019-1.957-8.038-1.957,4.108-.377,6.2.393,8.234,1.634,3.148,1.919,4.581,5.535,5.436,7.694.186.466.346.867.492,1.183l.267.574c4.006,8.607,11.464,24.625,1.9,30.428A7.455,7.455,0,0,1,206.8,172.9" transform="translate(-37.707 -26.322)" fill="#1a1a1a"/>
    <path id="Path_836068" data-name="Path 836068" d="M173.078,129.064a8.549,8.549,0,0,1-6.241-2.444,14.941,14.941,0,0,1-3.075-4.788,26.552,26.552,0,0,1-1.981-9.5,38.063,38.063,0,0,0,2.331,9.357,14.506,14.506,0,0,0,2.995,4.667c3.239,3.256,8.177,2.64,11.713.975a10.694,10.694,0,0,1,4.4-.963,24.581,24.581,0,0,0-4.239,1.306,14.209,14.209,0,0,1-5.9,1.394" transform="translate(-32.689 -22.697)" fill="#1a1a1a"/>
    <path id="Path_836069" data-name="Path 836069" d="M168.635,142.916c-3.877-.286-6.578-2.286-9.436-4.405-6.534-4.841-10.967-14.479-11.861-25.779,1.262,11.163,5.637,20.7,12.085,25.477,2.815,2.085,5.472,4.053,9.227,4.33.166.3.084.377-.014.377" transform="translate(-29.771 -22.779)" fill="#1a1a1a"/>
    <path id="Path_836070" data-name="Path 836070" d="M187.126,120.3c-.287-.59-.488-1.65-.116-1.939.23-.177.708-.015,1.078.155l.428-2.356c.371.068-.1,2.672-.1,2.672-.646-.063-1.066-.207-1.181-.166a2.733,2.733,0,0,0,.077,1.4c-.156.23-.171.232-.184.232" transform="translate(-37.746 -23.472)" fill="#1a1a1a"/>
    <path id="Path_836071" data-name="Path 836071" d="M157.646,111.345c-.082-2.012-.054-6.921-1.18-7.844-1.346-1.107-1.974-1.371-3.747-.014-.116.089-.243.18-.377.273-.562.4-1.2.843-1.223,1.4-.015.37.245.786.776,1.236.822.7,1.978.234,3.743-1.507-.938,1.453-2.683,2.9-3.986,1.795a2.015,2.015,0,0,1-.91-1.539c.033-.742.781-1.27,1.384-1.692.128-.092.252-.179.363-.264,1.858-1.423,2.679-1.242,4.218.021,1.506,1.233,1.145,7.686,1.13,7.959a.188.188,0,0,1-.189.178" transform="translate(-30.459 -20.648)" fill="#1a1a1a"/>
    <path id="Path_836072" data-name="Path 836072" d="M175.717,173.816a4.734,4.734,0,0,1-4.729-4.674l-.165-15a4.734,4.734,0,0,1,4.676-4.778l19.422-.132c0,.377-19.419.509-19.419.509a4.362,4.362,0,0,0-4.3,4.4l.165,15.005a4.357,4.357,0,0,0,4.351,4.3l18.574-.207c0,.378-18.524.585-18.524.585Z" transform="translate(-34.517 -30.153)" fill="#1a1a1a"/>
    <path id="Path_836073" data-name="Path 836073" d="M185.319,164.465c-2.735-.421-8.081-5.708-8.51-7.175a1.406,1.406,0,0,1,.572-1.633,1.112,1.112,0,0,1,.188-1.382,1.347,1.347,0,0,1,.487-.346,1.153,1.153,0,0,1,1.013.134c.066.062,6.411,10.112,6.411,10.112-.037.259-.1.29-.16.29M178.4,154.241a1.021,1.021,0,0,0-.562.293.741.741,0,0,0-.041,1.06c-.1.312-.9.681-.63,1.589.382,1.3,5.091,5.965,7.74,6.8l-6.07-9.616a.949.949,0,0,0-.436-.128" transform="translate(-35.712 -31.09)" fill="#1a1a1a"/>
    <path id="Path_836074" data-name="Path 836074" d="M184.163,158.563a16.8,16.8,0,0,1-1.864-1.4c.239-.294,1.98,1.064,1.98,1.064,0,.31-.057.338-.116.338" transform="translate(-36.835 -31.748)" fill="#1a1a1a"/>
    <path id="Path_836075" data-name="Path 836075" d="M181.714,156.1a19.068,19.068,0,0,1-1.668-1.418c-.66-.611-1.243-1.147-1.245-1.763a1.171,1.171,0,0,1,.429-.863c.953-.886,1.83-.046,2.411.512.109.1.267.262.456.45a27.7,27.7,0,0,0,2.062,1.932c-.052.326-2.382,1.139-2.382,1.139a.159.159,0,0,1-.062.012m-1.617-4.047a.9.9,0,0,0-.611.281.8.8,0,0,0-.306.583c0,.452.512.922.886,1.266.5.486,1.076,1,1.688,1.514l1.907-.665c-.563-.48-1.312-1.226-1.83-1.745-.188-.188-.344-.345-.451-.448-.513-.492-.908-.786-1.282-.786" transform="translate(-36.129 -30.647)" fill="#1a1a1a"/>
    <path id="Path_836076" data-name="Path 836076" d="M191.859,156.893c-.048-.006-3.236-.859-3.236-.859a1.018,1.018,0,0,1-.428.351c-.56.269-1.448-.113-2.969-1.275.164-.332,3.169.471,3.169.471a3.664,3.664,0,0,0-.33-1.594,3.338,3.338,0,0,1-.092-2.582.829.829,0,0,1,.594-.418c1.136-.176,1.437.7,1.679,1.4.055.16.108.318.17.46.121.278.251.646.4,1.072a11.208,11.208,0,0,0,1.191,2.668c-.029.273-.089.3-.151.3m-3.1-1.212,2.67.714a15.4,15.4,0,0,1-.972-2.349c-.147-.419-.274-.78-.39-1.045-.066-.151-.123-.319-.182-.491-.271-.8-.5-1.273-1.262-1.15a.455.455,0,0,0-.33.239,3.094,3.094,0,0,0,.123,2.26,3.858,3.858,0,0,1,.342,1.822m-2.47-.27c.851.564,1.438.778,1.74.633.184-.118-1.74-.633-1.74-.633" transform="translate(-37.427 -30.504)" fill="#1a1a1a"/>
    <path id="Path_836077" data-name="Path 836077" d="M181.97,160.209c-.118-.042-1.1-.836-2.2-1.736a17.515,17.515,0,0,1-1.97-2.039c.23-.314,1.321,1.017,2.211,1.745,1.1.9,2.079,1.694,2.079,1.694-.01.311-.065.335-.119.335" transform="translate(-35.926 -31.6)" fill="#1a1a1a"/>
    <path id="Path_836078" data-name="Path 836078" d="M148.252,113.237c-.613-.091-.912-.309-.914-.65a.852.852,0,0,1,.289-.507c.09.672.443.75.654.781.144.309.063.376-.029.376" transform="translate(-29.771 -22.647)" fill="#1a1a1a"/>
    <path id="Path_836079" data-name="Path 836079" d="M157.717,113.415c-.021-.377.95-.481.95-.481,1.879-.3,2.3-.7,2.292-.814s-.191-.265-.523-.377c-.385-.078-1.121-.2-1.291-.2.3-.4,1.278-.184,1.391-.16.211.07.786.267.8.732.014.52-.867.922-2.62,1.2l-.98.1Z" transform="translate(-31.868 -22.489)" fill="#1a1a1a"/>
    <path id="Path_836080" data-name="Path 836080" d="M142.117,156.529H133.03c0-.377,8.9-.377,8.9-.377v-8.9c.377,0,.377,9.089.377,9.089a.188.188,0,0,1-.189.188" transform="translate(-26.88 -29.754)" fill="#1a1a1a"/>
    <path id="Path_836081" data-name="Path 836081" d="M20.631,144.068c-.784-.424-1.076-1.329-.922-2.573a3.489,3.489,0,0,1,1.474-2.667,3.453,3.453,0,0,1,.6-.307,9.024,9.024,0,0,1,1.111-.342,4.29,4.29,0,0,0,1.92-.847,2.041,2.041,0,0,0,.523-1.806,88.314,88.314,0,0,0-1.557-8.855,4.6,4.6,0,0,1,2.136-3.782,5.7,5.7,0,0,1,3.562-.851,4.81,4.81,0,0,1,1.084-.6c2.044-.864,4.637-.353,6,.03a4.023,4.023,0,0,1,1.934,1.052,4.859,4.859,0,0,1,.985,2.853c.2,1.884.073,2.023,0,2.1a2.133,2.133,0,0,1-.609.069l.006-.377c.344-.14.356-.555.236-1.7a4.64,4.64,0,0,0-.9-2.695,3.7,3.7,0,0,0-1.756-.938c-1.314-.367-3.813-.866-5.752-.046a4.278,4.278,0,0,0-1.056.6,6.2,6.2,0,0,0-3.526.823,4.239,4.239,0,0,0-1.973,3.4c.081.326.82,3.394,1.558,8.869a2.4,2.4,0,0,1-.641,2.134,4.634,4.634,0,0,1-2.083.934,8.97,8.97,0,0,0-1.064.327,3.452,3.452,0,0,0-.54.274,3.135,3.135,0,0,0-1.3,2.4c-.08.629-.1,1.745.64,2.174.033.32-.03.353-.095.353" transform="translate(-3.974 -24.441)" fill="#1a1a1a"/>
    <path id="Path_836082" data-name="Path 836082" d="M41,129.107c-1.282-.007-3.272-.03-3.272-.03l0-.377s1.988.022,3.268.03c.188.293.1.377,0,.377" transform="translate(-7.624 -26.005)" fill="#1a1a1a"/>
    <path id="Path_836083" data-name="Path 836083" d="M29.038,144.682a13.625,13.625,0,0,1-5.167-1.268c.211-.318,4.914,1.91,7.677.3,1.2-.705,1.875-2.055,2-4.013a7.68,7.68,0,0,0-1.815-4.976c-.093-.129-.178-.25-.251-.357-1.4-2.044-.505-4.142.148-5.673.1-.232.192-.454.274-.663a3.794,3.794,0,0,0-.61-3.118,2.623,2.623,0,0,1,1.536,3.016l.839.008c0,.377-1.076.368-1.076.368-.161-.3.128-1.286-.336-2.273a3.213,3.213,0,0,1,0,2.135c-.081.212-.178.436-.278.674-.651,1.533-1.463,3.438-.184,5.313l.247.349a8.019,8.019,0,0,1,1.885,5.222c-.13,2.09-.865,3.541-2.184,4.313a5.3,5.3,0,0,1-2.7.646" transform="translate(-4.823 -25.239)" fill="#1a1a1a"/>
    <path id="Path_836084" data-name="Path 836084" d="M12.717,185.224c6.016-5.7,19.73-6.578,19.866-6.585-.113.385-13.7,1.258-19.742,6.54a.186.186,0,0,1-.124.045" transform="translate(-2.57 -36.096)" fill="#1a1a1a"/>
    <path id="Path_836085" data-name="Path 836085" d="M6.852,182.69c-4.178-7.853,1.585-20.837,5.621-27.285a39.2,39.2,0,0,1,3.266-4.618,14.218,14.218,0,0,1,4.394-3.11,31.028,31.028,0,0,0-4.107,3.356,38.831,38.831,0,0,0-3.233,4.571C9.074,161.548,3.08,174.8,7.02,182.414c-.109.27-.138.276-.168.276" transform="translate(-1.091 -29.84)" fill="#1a1a1a"/>
    <path id="Path_836086" data-name="Path 836086" d="M52.807,158.089a1.968,1.968,0,0,1-.382-.6c-2.888-6.672-6.561-10.252-11.559-11.268-.392-.081-1.573-.286-1.573-.286l.065-.372s1.19.206,1.584.287c5.059,1.029,8.928,4.786,11.83,11.489.07.163.14.328.21.492-.126.257-.151.262-.175.262" transform="translate(-7.94 -29.412)" fill="#1a1a1a"/>
    <path id="Path_836087" data-name="Path 836087" d="M38.988,140.746c-.2,0-.39-.012-.548-.025a22.291,22.291,0,0,1-2.212-.3,5.836,5.836,0,0,1,2.243-.08A3.884,3.884,0,0,0,40,140.23a2.18,2.18,0,0,0,1.407-1.555,9.021,9.021,0,0,0,.417-2.828,4.256,4.256,0,0,1-.058,2.946,2.53,2.53,0,0,1-1.651,1.8,3.774,3.774,0,0,1-1.122.154" transform="translate(-7.32 -27.449)" fill="#1a1a1a"/>
    <path id="Path_836088" data-name="Path 836088" d="M37.391,149.457c-1.051,0-2.765-2.087-3.12-2.536,1.181.878,2.675,2.365,3.223,2.141.638-.247.725-2.624.628-4.064l.168-3.2c.377.018.209,3.2.209,3.2.045.646.212,4-.869,4.42a.646.646,0,0,1-.239.042" transform="translate(-6.925 -28.651)" fill="#1a1a1a"/>
    <path id="Path_836089" data-name="Path 836089" d="M41.923,145.343a3.431,3.431,0,0,0-.572-3.835c.291-.243,2.162,1.732.726,3.755a.187.187,0,0,1-.154.08" transform="translate(-8.355 -28.589)" fill="#1a1a1a"/>
    <path id="Path_836090" data-name="Path 836090" d="M22.309,177.431c-.842-6.8,2.841-17.776,2.877-17.886.322.231-3.335,11.126-2.689,17.678-.176.207-.182.207-.188.207" transform="translate(-4.483 -32.238)" fill="#1a1a1a"/>
    <path id="Path_836091" data-name="Path 836091" d="M39.135,137.809a1.33,1.33,0,0,1-.774-.227,1.788,1.788,0,0,1-.66-1.2c.377-.03.444.6.877.892a1.214,1.214,0,0,0,1.029.09c-.1.421-.293.448-.472.448" transform="translate(-7.618 -27.557)" fill="#1a1a1a"/>
    <path id="Path_836092" data-name="Path 836092" d="M82.251,174.117a1.8,1.8,0,0,1-.9-.235c-1.168-.676-1.308-2.63-.309-4.36a4.631,4.631,0,0,1,1.864-1.843,2.147,2.147,0,0,1,2.064-.067c1.168.676,1.307,2.629.31,4.359a4.637,4.637,0,0,1-1.865,1.843,2.607,2.607,0,0,1-1.163.3m1.817-6.361a2.236,2.236,0,0,0-.993.26,4.269,4.269,0,0,0-1.707,1.7c-.894,1.546-.818,3.27.171,3.841a1.767,1.767,0,0,0,1.7-.077,4.268,4.268,0,0,0,1.708-1.7c.893-1.547.816-3.271-.171-3.841a1.4,1.4,0,0,0-.713-.184" transform="translate(-16.24 -33.821)" fill="#1a1a1a"/>
    <path id="Path_836093" data-name="Path 836093" d="M53.314,183.6a4.944,4.944,0,0,1-4.692-6.5L56,154.846a4.934,4.934,0,0,1,4.692-3.389h31.1a5.1,5.1,0,0,1,1.095.12,1.6,1.6,0,0,1-1.095.258H60.69a4.559,4.559,0,0,0-4.334,3.13l-7.375,22.259a4.567,4.567,0,0,0,4.333,6c.189.293.105.377,0,.377" transform="translate(-9.773 -30.603)" fill="#1a1a1a"/>
    <path id="Path_836094" data-name="Path 836094" d="M87.063,183.949h-31.1a5.007,5.007,0,0,1-4.084-2.068,4.539,4.539,0,0,1-.607-4.162l7.375-21.3a4.924,4.924,0,0,1,4.691-3.244h31.1a5.007,5.007,0,0,1,4.085,2.068,4.536,4.536,0,0,1,.606,4.162l-7.375,21.3a4.92,4.92,0,0,1-4.691,3.245M63.34,153.55a4.547,4.547,0,0,0-4.334,2.991l-7.375,21.3a4.16,4.16,0,0,0,.558,3.817,4.626,4.626,0,0,0,3.776,1.911h31.1a4.544,4.544,0,0,0,4.334-2.993l7.375-21.3a4.159,4.159,0,0,0-.557-3.818,4.625,4.625,0,0,0-3.777-1.91Z" transform="translate(-10.309 -30.95)" fill="#1a1a1a"/>
    <path id="Path_836095" data-name="Path 836095" d="M40.932,189.82c-2.672,0-3.335-3.132-3.335-3.578.379.031.805,3.2,3.335,3.2.584,0,.962-.133,1.12-.393.34-.559-.251-1.7-.683-2.534-.105-.2-.2-.393-.281-.56s-.168-.394-.258-.625c-.507-1.3-1.2-3.083-3.663-2.659a20.261,20.261,0,0,0-4.947,2.157,13.357,13.357,0,0,1,4.864-2.525c2.783-.484,3.576,1.546,4.1,2.89.087.221.167.427.248.6.076.161.172.346.274.546.5.964,1.12,2.163.67,2.9a1.567,1.567,0,0,1-1.443.575" transform="translate(-6.51 -36.821)" fill="#1a1a1a"/>
    <path id="Path_836096" data-name="Path 836096" d="M44.827,189.645c1.025-.445,1.674-.73,1.869-1.206a1.25,1.25,0,0,0-.335-1.224,7.777,7.777,0,0,1-.96-1.988,10.512,10.512,0,0,0-1.55-3.034c-1.048-1.139-3.438.2-3.463.212-.079-.389,2.49-1.827,3.742-.468a10.745,10.745,0,0,1,1.624,3.15,7.842,7.842,0,0,0,.889,1.875,1.6,1.6,0,0,1,.4,1.621c-.177.432-.7.965-2.207,1.062Z" transform="translate(-8.161 -36.647)" fill="#1a1a1a"/>
    <path id="Path_836097" data-name="Path 836097" d="M34.659,190.992a3.216,3.216,0,0,1-.4-.026.585.585,0,0,1,.581-.358c3.066-.153,3.28-2.511,3.287-2.611.375.057.128,2.82-3.267,2.988-.068,0-.135.006-.2.006" transform="translate(-6.922 -37.987)" fill="#1a1a1a"/>
    <path id="Path_836098" data-name="Path 836098" d="M34.253,189.081a5.643,5.643,0,0,1-2.5-5.687,5.537,5.537,0,0,1,6.194-4.759A6.792,6.792,0,0,1,42,180.957a8.891,8.891,0,0,0-4.113-1.948,5.148,5.148,0,0,0-5.76,4.445,5.3,5.3,0,0,0,2.232,5.28c.018.318-.042.347-.1.347" transform="translate(-6.401 -36.083)" fill="#1a1a1a"/>
    <path id="Path_836099" data-name="Path 836099" d="M48.173,182.878c-.186-.152-.472-1.2-1.222-1.514-.946-.392-2.136.567-2.15.575-.184-.34,1.138-1.406,2.295-.925a2.616,2.616,0,0,1,1.26,1.627c-.152.235-.168.237-.184.237" transform="translate(-9.049 -36.551)" fill="#1a1a1a"/>
    <path id="Path_836100" data-name="Path 836100" d="M49.875,191.292a2.206,2.206,0,0,1-1.588-.74c.33-.195,1.2.844,2.544.084a.933.933,0,0,1-.956.656" transform="translate(-9.757 -38.498)" fill="#1a1a1a"/>
    <path id="Path_836101" data-name="Path 836101" d="M48.106,177.05c2.98-11.69.487-18.8.461-18.87.381-.057,2.919,7.155-.278,18.732a.189.189,0,0,1-.183.139" transform="translate(-9.72 -31.962)" fill="#1a1a1a"/>
    <path id="Path_836102" data-name="Path 836102" d="M106.809,153.6c-.093-.024-2.82-1.562-2.82-1.562.185-.331,2.912,1.208,2.912,1.208.037.319-.027.354-.093.354" transform="translate(-21.012 -30.711)" fill="#1a1a1a"/>
    <path id="Path_836103" data-name="Path 836103" d="M79.924,143.856H63.312c-.179-.251,2.722-8.452,2.722-8.452.358.124-2.454,8.075-2.454,8.075H79.924c.189.293.1.377,0,.377" transform="translate(-12.791 -27.36)" fill="#1a1a1a"/>
    <path id="Path_836104" data-name="Path 836104" d="M86.014,131.187H72.656c0-.377,13.358-.377,13.358-.377.189.293.1.377,0,.377" transform="translate(-14.681 -26.432)" fill="#1a1a1a"/>
    <path id="Path_836105" data-name="Path 836105" d="M84.085,142.96c-.161-.045-.213-.152-.179-.251l4.152-11.74c.357.124-3.795,11.865-3.795,11.865a.191.191,0,0,1-.179.126" transform="translate(-16.952 -26.464)" fill="#1a1a1a"/>
    <path id="Path_836106" data-name="Path 836106" d="M36.613,134.624c-.993,0-1.806-1.331-1.858-3.055-.055-1.743.692-3.133,1.7-3.164,1.025,0,1.838,1.33,1.892,3.052.056,1.743-.691,3.134-1.7,3.166h-.033m-.128-5.842c-.788.026-1.4,1.3-1.353,2.774s.721,2.688,1.481,2.688c.789-.025,1.4-1.3,1.353-2.776s-.721-2.687-1.482-2.687" transform="translate(-7.022 -25.946)" fill="#1a1a1a"/>
    <path id="Path_836107" data-name="Path 836107" d="M42.507,134.624a1.119,1.119,0,0,1-.828-.346,2.666,2.666,0,0,1,.86-.033c.768-.025,1.378-1.3,1.332-2.776s-.721-2.687-1.481-2.687c-.789.025-1.4,1.294-1.353,2.774a3.987,3.987,0,0,0,.254,1.41c-.531-.318-.611-.762-.631-1.4-.054-1.743.692-3.133,1.7-3.164,1.025,0,1.838,1.33,1.891,3.052.055,1.743-.691,3.134-1.7,3.165l-.044,0" transform="translate(-8.215 -25.946)" fill="#1a1a1a"/>
    <path id="Path_836108" data-name="Path 836108" d="M40.419,132.7a.9.9,0,0,0-1.258-.086c.547-.891,1.179-.5,1.406-.22-.065.294-.107.306-.148.306" transform="translate(-7.913 -26.684)" fill="#1a1a1a"/>
    <path id="Path_836109" data-name="Path 836109" d="M106.7,30.655c-.19-.188-.19-1.46-.19-1.46a12.133,12.133,0,0,0,4.755-.31,1.87,1.87,0,0,1,.252.958c-.379,0-.379-.525-.379-.525a7.812,7.812,0,0,1-4.249-.006v1.155a.188.188,0,0,1-.189.188" transform="translate(-21.521 -5.836)" fill="#1a1a1a"/>
    <path id="Path_836110" data-name="Path 836110" d="M107.694,25.873a7.738,7.738,0,1,1,2.358-.367,7.717,7.717,0,0,1-2.358.367m0-15.1a7.364,7.364,0,1,0,7.363,7.363,7.372,7.372,0,0,0-7.363-7.363" transform="translate(-20.196 -2.099)" fill="#1a1a1a"/>
    <path id="Path_836111" data-name="Path 836111" d="M103.962,23.123c.211-.361.843-.381,1.252-.738a.823.823,0,0,0-.252-.687,2.292,2.292,0,0,1-.448-1.7c.027-.207.219-1.031.649-1.266a.516.516,0,0,1,.478-.014c.3.141.41.54.484.8a3.556,3.556,0,0,1,.147,1.037,3.471,3.471,0,0,1-.323,1.471,5.032,5.032,0,0,0,2.429.415,4.72,4.72,0,0,0,1.556-.268,2.554,2.554,0,0,0,1.2-.9,1.585,1.585,0,0,1-.875-1.14,1.437,1.437,0,0,1,.142-.79.976.976,0,0,1,.566-.552.57.57,0,0,1,.527.076c.389.286.406,1.056.405,1.209a2.435,2.435,0,0,1-.228,1.025,7.256,7.256,0,0,0,2.425.3,3.455,3.455,0,0,1-2.613.039,2.911,2.911,0,0,1-1.42,1.089,5.1,5.1,0,0,1-1.68.291,5.381,5.381,0,0,1-2.636-.469,1.93,1.93,0,0,1-.287.314,2.255,2.255,0,0,1-1.5.453m1.45-4.076c-.3.145-.487.728-.523,1a1.906,1.906,0,0,0,.373,1.416,1.959,1.959,0,0,0,.362.36,3,3,0,0,0,.269-1.267,3.121,3.121,0,0,0-.116-.873c-.069-.245-.155-.555-.3-.622a.168.168,0,0,0-.068-.018m5.759.1a.645.645,0,0,0-.425.368,1.057,1.057,0,0,0-.109.58,1.172,1.172,0,0,0,.636.831,1.372,1.372,0,0,0,.252-.843,1.33,1.33,0,0,0-.252-.9.157.157,0,0,0-.1-.034" transform="translate(-21.007 -3.772)" fill="#1a1a1a"/>
    <path id="Path_836112" data-name="Path 836112" d="M96.911,13.318c-.114-.039-8.476-6.337-8.476-6.337.227-.3,8.59,6,8.59,6,0,.314-.057.341-.114.341" transform="translate(-17.869 -1.408)" fill="#1a1a1a"/>
    <path id="Path_836113" data-name="Path 836113" d="M89.917,30.263c-.1-.348,7.8-5.481,7.8-5.481.206.317-7.7,5.452-7.7,5.452a.2.2,0,0,1-.1.03" transform="translate(-18.168 -5.007)" fill="#1a1a1a"/>
    <path id="Path_836114" data-name="Path 836114" d="M109.6,6.569C109.407,6.38,109.407,0,109.407,0c.378,0,.378,6.38.378,6.38a.19.19,0,0,1-.189.189" transform="translate(-22.107)" fill="#1a1a1a"/>
    <path id="Path_836115" data-name="Path 836115" d="M119.31,14.244c-.091-.356,4.217-2.688,4.217-2.688.181.333-4.126,2.664-4.126,2.664a.191.191,0,0,1-.091.024" transform="translate(-24.107 -2.335)" fill="#1a1a1a"/>
    <path id="Path_836116" data-name="Path 836116" d="M127.09,34.794c-.126-.047-8.631-7.61-8.631-7.61.253-.282,8.757,7.28,8.757,7.28-.022.31-.075.33-.127.33" transform="translate(-23.936 -5.491)" fill="#1a1a1a"/>
    <path id="Path_836117" data-name="Path 836117" d="M143.619,24.84a1.418,1.418,0,0,0-1.546-.675c.292-.484,1.2-.493,1.709.392-.1.275-.131.283-.164.283" transform="translate(-28.707 -4.817)" fill="#1a1a1a"/>
    <path id="Path_836118" data-name="Path 836118" d="M142.4,26.01c-.152-.025-.252.04-.3.583-.051.606.105.714.242.709s.273-.192.269-.625-.015-.636-.213-.668" transform="translate(-28.711 -5.255)" fill="#1a1a1a"/>
    <path id="Path_836119" data-name="Path 836119" d="M142.9,39.828a5.823,5.823,0,0,1-.136-1.737c.377.013.325,1.555.325,1.555a.189.189,0,0,1-.189.182" transform="translate(-28.847 -7.697)" fill="#1a1a1a"/>
    <path id="Path_836120" data-name="Path 836120" d="M155.434,62.343c-.167-5.4-.4-9.946-.4-9.991a14.566,14.566,0,0,0-1.619-4.928,9.367,9.367,0,0,0-2.222-3.137,6.148,6.148,0,0,0-3.443-1.631c-2.748-.316-8.342-.3-8.386-.293a9.115,9.115,0,0,0-3.349.714,9.38,9.38,0,0,0-4.251,4.327,45.667,45.667,0,0,0-2.146,4.8c-.2.5-.4,1.007-.611,1.5a6.92,6.92,0,0,1-1.752,2.774,2.8,2.8,0,0,1-3.207.336,4.135,4.135,0,0,1-1.68-2.632l-1.395-4.266c-.433-1.321-.861-2.712-1.276-4.056-.419-1.361-.852-2.77-1.293-4.109a15.53,15.53,0,0,1,1.655,4c.413,1.341.84,2.729,1.273,4.049l1.394,4.268a3.813,3.813,0,0,0,1.51,2.42,2.42,2.42,0,0,0,2.776-.3,6.61,6.61,0,0,0,1.646-2.628c.206-.5.408-1,.61-1.5a45.081,45.081,0,0,1,2.166-4.836,9.74,9.74,0,0,1,4.428-4.493,9.455,9.455,0,0,1,3.49-.744c.072,0,5.673-.024,8.441.3A6.5,6.5,0,0,1,151.441,44a9.732,9.732,0,0,1,2.316,3.258,14.89,14.89,0,0,1,1.653,5.072c0,.045.234,4.6.211,9.823a.187.187,0,0,1-.188.187" transform="translate(-23.925 -8.436)" fill="#1a1a1a"/>
    <path id="Path_836121" data-name="Path 836121" d="M121.29,70.757a12.636,12.636,0,0,1-9.24-3.7c-3.021-3.082-4.509-7.335-5.566-11.089a97.823,97.823,0,0,1-2.232-10.774l-.212-1.265c.373-.063.585,1.2.585,1.2a98.3,98.3,0,0,0,2.221,10.734c1.046,3.709,2.512,7.907,5.472,10.926,4.609,4.7,11.664,4.25,16.615,1.719l.524-.26C136.7,63.862,138.7,54.1,138.717,54c.351.172-1.676,10.094-9.076,14.574l-.537.267a17.476,17.476,0,0,1-7.814,1.912" transform="translate(-21.022 -8.875)" fill="#1a1a1a"/>
    <path id="Path_836122" data-name="Path 836122" d="M169.661,63.134a59.336,59.336,0,0,0-9.537-17.587,48.4,48.4,0,0,1,9.717,17.343c-.144.242-.162.243-.18.243" transform="translate(-32.355 -9.203)" fill="#1a1a1a"/>
    <path id="Path_836123" data-name="Path 836123" d="M141.635,34.82c-2.646,0-3.339-1.36-3.52-2.043a10.971,10.971,0,0,1,.412-3.614,3.931,3.931,0,0,1-1.434-1.368.957.957,0,0,1,.244-1.14,23.286,23.286,0,0,1,2.079-1.345,27.749,27.749,0,0,1,1.006-3.939,28.469,28.469,0,0,1-.652,4.1c-.106.136-1.7,1.07-2.189,1.478a.577.577,0,0,0-.146.689,3.937,3.937,0,0,0,1.4,1.273c.087.239-.59,2.88-.355,3.773.243.913,1.233,2.328,5.191,1.536a3.249,3.249,0,0,1-2.037.6" transform="translate(-27.683 -4.318)" fill="#1a1a1a"/>
    <path id="Path_836124" data-name="Path 836124" d="M149.917,31.169a2.461,2.461,0,0,1-1.949-.961,3.067,3.067,0,0,0,2.829.389,2.1,2.1,0,0,0,1.031-2.774,2.093,2.093,0,0,0-3.607-.348.962.962,0,0,1,.672-1.028,2.472,2.472,0,1,1,1.025,4.721" transform="translate(-29.898 -5.299)" fill="#1a1a1a"/>
    <path id="Path_836125" data-name="Path 836125" d="M150.506,30.509c-.124-.047-1.616-1.348-1.616-1.348.029-.3,2.009-1.487,2.009-1.487.193.325-1.562,1.373-1.562,1.373l1.294,1.131c-.02.309-.072.331-.125.331" transform="translate(-30.085 -5.592)" fill="#1a1a1a"/>
    <path id="Path_836126" data-name="Path 836126" d="M107.214,44.1c-.454,0-.878-.021-1.264-.057-1.254-.127-1.925-.436-1.992-.918-.09-.636.792-1.071,1.464-1.342-.69.686-1.128,1.02-1.091,1.289.028.2.478.476,1.657.593a18.078,18.078,0,0,0,4.085-.156c3.451-.48,5.472-1.483,5.4-1.988-.034-.25-.58-.543-2.009-.62,1.513-.3,2.308.021,2.383.567.145,1.044-2.77,2-5.725,2.416a21.369,21.369,0,0,1-2.91.217" transform="translate(-21.005 -8.242)" fill="#1a1a1a"/>
    <path id="Path_836127" data-name="Path 836127" d="M112.744,40.231a9.028,9.028,0,0,1-.445-3.685c.032-.947,0-1.917-.03-2.856-.01-.306-.021-.61-.028-.915A6.663,6.663,0,0,1,113,29.6a.865.865,0,0,0,.146-.547c-.088-.325-.651-.532-1.007-.551a1.989,1.989,0,0,0-1.326.5c-.9.682-1.282,2.347-1.511,3.343a3.1,3.1,0,0,1-.239.809,1.589,1.589,0,0,1-1.907.441c-.5-.2-.544-.3-.726-.8a16.915,16.915,0,0,0-.983-2.211c-1.21-2.341-2.643-3.439-4.045-3.1a1.225,1.225,0,0,0-.78.768,1.478,1.478,0,0,0,.339,1.407c.476.614,1.293,2.05,2.083,3.436a24.071,24.071,0,0,0,2.061,3.323c-.548.073-1.258-1.15-2.391-3.136a39.6,39.6,0,0,0-2.054-3.393,1.81,1.81,0,0,1-.4-1.762,1.605,1.605,0,0,1,1.046-1.011c.919-.226,2.72-.1,4.47,3.291a16.752,16.752,0,0,1,1,2.258c.16.439.16.439.511.579a1.2,1.2,0,0,0,1.451-.3,4.22,4.22,0,0,0,.187-.685c.24-1.045.642-2.794,1.65-3.559a2.49,2.49,0,0,1,1.577-.579c.443.024,1.2.271,1.351.831a1.162,1.162,0,0,1-.172.812,6.312,6.312,0,0,0-.718,3c.009.3.018.608.029.914.03.942.062,1.919.03,2.878a11.791,11.791,0,0,0,.25,3.436c-.149.235-.166.237-.182.237" transform="translate(-20.242 -5.464)" fill="#1a1a1a"/>
    <path id="Path_836128" data-name="Path 836128" d="M105.659,41.508c-.287-.922-.553-1.9-1.258-2.262-1.228-.63-2.556-2.478-3.464-4.823a10.563,10.563,0,0,0-1.463-2.431c-.65-.879-1.21-1.637-1.04-2.38A1.661,1.661,0,0,1,100,28.324c-.03.379-.981.418-1.2,1.373-.13.574.357,1.234.976,2.071a10.837,10.837,0,0,1,1.51,2.518c.863,2.227,2.154,4.042,3.285,4.622a3.039,3.039,0,0,1,1.271,2.387c-.171.213-.18.213-.187.213" transform="translate(-19.884 -5.723)" fill="#1a1a1a"/>
    <path id="Path_836129" data-name="Path 836129" d="M152.507,38.646a21.049,21.049,0,0,1-.393-3.209c.377-.025.582,3.008.582,3.008-.181.2-.184.2-.189.2" transform="translate(-30.736 -7.16)" fill="#1a1a1a"/>
    <path id="Path_836130" data-name="Path 836130" d="M150.73,32.913a1.2,1.2,0,0,1-.361-.054c-.965-.3-1-1.771-.969-2.389.038-.733.136-.754.24-.776a10.953,10.953,0,0,0,.368,2.354.8.8,0,0,0,.472.448c.746.227,1.73-.7,3.5-2.383l.428-.409c2.139-2.03,3.153-4.864,2.466-6.892a2.848,2.848,0,0,0-2.524-1.99,2.5,2.5,0,0,1,2.882,1.87c.744,2.2-.285,5.124-2.562,7.288l-.428.406c-1.7,1.616-2.652,2.527-3.513,2.527" transform="translate(-30.187 -4.2)" fill="#1a1a1a"/>
    <path id="Path_836131" data-name="Path 836131" d="M139.687,33.245a1.887,1.887,0,0,1-1.033-.289c.26-.281,1.076.258,2.2-.471a1.189,1.189,0,0,1-1.167.76" transform="translate(-28.017 -6.564)" fill="#1a1a1a"/>
    <path id="Path_836132" data-name="Path 836132" d="M139.845,42.739a6.7,6.7,0,0,1,1.436-2.943,99.888,99.888,0,0,1,10.1-.812c.623,0,1.8,2.217,2.272,3.171a19.274,19.274,0,0,0-2.273-2.794c-1.69,0-9.452.569-9.92.768a12.541,12.541,0,0,0-1.446,2.5.19.19,0,0,1-.17.106" transform="translate(-28.257 -7.877)" fill="#1a1a1a"/>
    <path id="Path_836133" data-name="Path 836133" d="M62.466,74.392a5.447,5.447,0,0,1-2.275-.527,9.461,9.461,0,0,1-3.639-3.028,20.152,20.152,0,0,1-3.047-6.082c-.207-.633-.381-1.258-.567-1.921-.085-.3-.169-.6-.257-.909a14.868,14.868,0,0,1,2.671-.938c.3-.081.6-.164.9-.247a.407.407,0,0,1,.48.164,25.517,25.517,0,0,0,4.779,4.808,1.855,1.855,0,0,0,1.706.353,6.178,6.178,0,0,0,1.85-.847A24.219,24.219,0,0,0,69,61.949a72.755,72.755,0,0,0,6.218-7.055.5.5,0,0,1,.594-.2c.9.257,1.8.505,2.7.755l.926.255A57.243,57.243,0,0,1,71.761,67.66a28.731,28.731,0,0,1-5.02,4.942,15.484,15.484,0,0,1-1.959,1.2,4.931,4.931,0,0,1-2.316.592M53.1,62q.1.369.2.729c.184.66.357,1.281.562,1.906a19.8,19.8,0,0,0,2.988,5.973,9.141,9.141,0,0,0,3.494,2.913,4.664,4.664,0,0,0,4.259-.056A15.211,15.211,0,0,0,66.518,72.3a28.364,28.364,0,0,0,4.953-4.879,85.914,85.914,0,0,0,7.841-11.353l-.9-.248q-1.351-.373-2.7-.755c-2.372,2.848-4.417,5.167-6.442,7.157a24.487,24.487,0,0,1-4,3.317,6.481,6.481,0,0,1-1.965.9,2.237,2.237,0,0,1-2.03-.425,25.808,25.808,0,0,1-4.847-4.879,9.211,9.211,0,0,0-.972.224Z" transform="translate(-10.645 -11.046)" fill="#1a1a1a"/>
    <path id="Path_836134" data-name="Path 836134" d="M63.923,83.914a22.614,22.614,0,1,1,22.46-25.281,22.886,22.886,0,0,0-22.46-19.569,22.237,22.237,0,1,0,9.2,42.487,17.506,17.506,0,0,1-9.2,2.363" transform="translate(-8.347 -7.817)" fill="#1a1a1a"/>
    <path id="Path_836135" data-name="Path 836135" d="M185.506,191.6H0c0-.377,185.506-.377,185.506-.377.189.294.1.377,0,.377" transform="translate(0 -38.638)" fill="#1a1a1a"/>
    <path id="Path_836136" data-name="Path 836136" d="M150.955,112.676c-.213,0-.433-.006-.662-.022a2.8,2.8,0,0,1-2.318-1.322,8.885,8.885,0,0,1-1.572-4.59c-.09-1.771.023-3.556,2.415-4.224-1.833.9-2.142,2.131-2.037,4.2a8.5,8.5,0,0,0,1.507,4.393,2.418,2.418,0,0,0,2.03,1.161,6.348,6.348,0,0,0,2.982-.417c1.443-.626,2.162-1.348,2.083-2.094a1.3,1.3,0,0,0-.673-.967c.36-.324.961.2,1.048.906.079.65-.255,1.614-2.308,2.5a6.15,6.15,0,0,1-2.494.469" transform="translate(-29.578 -20.715)" fill="#1a1a1a"/>
    <path id="Path_836137" data-name="Path 836137" d="M151.509,111.261a12.957,12.957,0,0,1,2.178-.861,5.815,5.815,0,0,0,1.883-.969,1.362,1.362,0,0,0,.492-1.148,1.918,1.918,0,0,0-.945-1.392,1.431,1.431,0,0,1,1.322,1.36,1.731,1.731,0,0,1-.618,1.462,5.943,5.943,0,0,1-1.927,1.015,7.523,7.523,0,0,1-2.379.535Z" transform="translate(-30.614 -21.598)" fill="#1a1a1a"/>
    <path id="Path_836138" data-name="Path 836138" d="M150.1,108.786a12.649,12.649,0,0,1,2.307-.931,3.582,3.582,0,0,1-2.3.931Z" transform="translate(-30.329 -21.793)" fill="#1a1a1a"/>
    <path id="Path_836139" data-name="Path 836139" d="M177.459,126.228c-.189-.188-.189-26.611-.189-26.611.377,0,.377,26.423.377,26.423a.187.187,0,0,1-.188.188" transform="translate(-35.819 -20.129)" fill="#1a1a1a"/>
    <path id="Path_836140" data-name="Path 836140" d="M174.941,81.994c-.189-.189-.189-12.129-.189-12.129a2.637,2.637,0,0,0-2.817-2.4H164.81c0-.377,7.126-.377,7.126-.377a3.012,3.012,0,0,1,3.193,2.78V81.8a.187.187,0,0,1-.188.189" transform="translate(-33.302 -13.555)" fill="#1a1a1a"/>
    <path id="Path_836141" data-name="Path 836141" d="M160.455,67.462h-17.2c0-.377,17.2-.377,17.2-.377.188.293.1.377,0,.377" transform="translate(-28.946 -13.555)" fill="#1a1a1a"/>
    <path id="Path_836142" data-name="Path 836142" d="M83.452,117.271c-.188-.189-.188-47.406-.188-47.406a3.011,3.011,0,0,1,3.194-2.78h18.487c0,.377-18.487.377-18.487.377a2.637,2.637,0,0,0-2.816,2.4v47.217a.19.19,0,0,1-.19.189" transform="translate(-16.824 -13.555)" fill="#1a1a1a"/>
    <path id="Path_836143" data-name="Path 836143" d="M157.192,115.936c-.511-.109-.716-.271-.837-.492l-.722-1.3c.33-.184,1.052,1.12,1.052,1.12a.572.572,0,0,0,.346.274.554.554,0,0,0,.436-.048.576.576,0,0,0,.227-.781l-.866-1.565c.33-.184,1.2,1.38,1.2,1.38a.954.954,0,0,1-.374,1.3.927.927,0,0,1-.457.12" transform="translate(-31.447 -22.858)" fill="#1a1a1a"/>
    <path id="Path_836144" data-name="Path 836144" d="M148.635,101.132c-.165-.1-7.829-13.923-7.829-13.923a.953.953,0,1,1,1.668-.923l7.7,13.851c-.33.184-8.026-13.668-8.026-13.668a.575.575,0,0,0-1.008.555l7.663,13.827c-.1.274-.134.281-.165.281" transform="translate(-28.428 -17.335)" fill="#1a1a1a"/>
    <path id="Path_836145" data-name="Path 836145" d="M154.5,102.441a3.442,3.442,0,0,0-2.89-.353c-.123-.362,1.081-.97,2.976,0,.049.32-.018.357-.086.357" transform="translate(-30.633 -20.522)" fill="#1a1a1a"/>
    <path id="Path_836146" data-name="Path 836146" d="M130.548,182.12H105.23c0-.377,25.318-.377,25.318-.377.188.293.1.377,0,.377" transform="translate(-21.263 -36.723)" fill="#1a1a1a"/>
    <path id="Path_836147" data-name="Path 836147" d="M171.715,182.12H161.206c0-.377,10.509-.377,10.509-.377.188.293.1.377,0,.377" transform="translate(-32.573 -36.723)" fill="#1a1a1a"/>
    <path id="Path_836148" data-name="Path 836148" d="M41.31,135.451c.441-1.044.441-1.309.413-1.388-.038-.112-.263-.164-.46-.213a.906.906,0,0,1-.642-.342,6.724,6.724,0,0,1-.022-2.57c.274.788.18,2.074.353,2.387.041.071.239.12.4.157.278.067.623.15.729.459s-.083.762-.622,1.44a.188.188,0,0,1-.148.07" transform="translate(-8.179 -26.457)" fill="#1a1a1a"/>
    <path id="Path_836149" data-name="Path 836149" d="M149.348,104.946c0-.379,1.635-.536,2.269-1.222-.454,1.049-2.178,1.215-2.253,1.222Z" transform="translate(-30.177 -20.959)" fill="#1a1a1a"/>
    <path id="Path_836150" data-name="Path 836150" d="M140.034,23.064a5.389,5.389,0,0,1-2.134-3.8,4.312,4.312,0,0,1,1.712-3.323,3.306,3.306,0,0,1,2.514-.885,6.151,6.151,0,0,1,3.631,2.175c-.309.219-1.833-1.641-3.667-1.8a2.932,2.932,0,0,0-2.229.793,3.958,3.958,0,0,0-1.585,3.029,5.346,5.346,0,0,0,1.876,3.47c-.011.312-.065.335-.12.335" transform="translate(-27.864 -3.041)" fill="#1a1a1a"/>
    <path id="Path_836151" data-name="Path 836151" d="M153.612,19.66c-.188-.145-1.8-3.583-4.7-4.108-2.784-.507-3.192.43-3.2.439-.313-.254.15-1.376,3.264-.812,3.094.562,4.738,4.063,4.807,4.212-.118.262-.145.268-.172.268" transform="translate(-29.426 -3.035)" fill="#1a1a1a"/>
    <path id="Path_836152" data-name="Path 836152" d="M146.749,26.359a1.454,1.454,0,0,1-1.154-.7,2.764,2.764,0,0,1,.065-2.111c-.962-1.777-4.863-2.271-4.9-2.276.219-.355,4.3.162,5.28,2.184,0,.169-.5,1.328-.111,2.02a1.07,1.07,0,0,0,.85.5c.147.308.065.377-.026.377" transform="translate(-28.441 -4.278)" fill="#1a1a1a"/>
    <path id="Path_836153" data-name="Path 836153" d="M216.183,109.217a8.145,8.145,0,0,1,.83-2.21,4.224,4.224,0,0,1-.662,2.111.194.194,0,0,1-.168.1m1.926-3.909a8.341,8.341,0,0,1,.686-2.261,4.254,4.254,0,0,1-.515,2.15.187.187,0,0,1-.172.11m1.654-4.031c-.164-.049-.213-.157-.178-.255.255-.679.5-1.368.724-2.047a4.136,4.136,0,0,1-.368,2.178.19.19,0,0,1-.178.123m1.379-4.129c-.152-.037-.211-.142-.181-.242.206-.7.4-1.405.575-2.093a4.117,4.117,0,0,1-.213,2.2.189.189,0,0,1-.181.136m1.078-4.219a10.693,10.693,0,0,1,.227-2.36,4.064,4.064,0,0,1-.042,2.21.19.19,0,0,1-.185.15m.734-4.291a11.913,11.913,0,0,1,.036-2.369,4.077,4.077,0,0,1,.152,2.2.189.189,0,0,1-.188.164M223.3,84.3a4.5,4.5,0,0,1-.169-1.427c0-.31,0-.622-.011-.934a1.012,1.012,0,0,1,.389.934c0,.417-.007.831-.019,1.244a.19.19,0,0,1-.189.183m-.1-4.35a17.13,17.13,0,0,1-.424-2.326,3.953,3.953,0,0,1,.613,2.122c-.18.2-.184.2-.189.2m-.6-4.31a21.686,21.686,0,0,1-.688-2.255,3.931,3.931,0,0,1,.874,2.029c-.161.224-.173.226-.186.226m-1.15-4.2c-.419-.814-.681-1.492-.959-2.142a3.873,3.873,0,0,1,1.137,1.892c-.136.247-.157.251-.178.251" transform="translate(-43.682 -14.003)" fill="#1a1a1a"/>
    <path id="Path_836154" data-name="Path 836154" d="M208.7,57.608a2.089,2.089,0,0,1-.412-.415c.387-.118.474,0,.563.113-.072.29-.111.3-.152.3M207.04,55.6c-.622-.6-1.124-1.127-1.635-1.623a3.878,3.878,0,0,1,1.775,1.307c-.049.3-.094.316-.14.316m-3.122-3.024c-.669-.5-1.245-.944-1.833-1.362a3.875,3.875,0,0,1,1.954,1.028c-.014.311-.066.334-.121.334m-3.543-2.516c-.72-.4-1.357-.748-1.993-1.064a3.8,3.8,0,0,1,2.09.713c.029.318-.033.35-.1.35m-3.893-1.937c-.727-.28-1.41-.526-2.1-.747a3.868,3.868,0,0,1,2.175.384c.073.319,0,.363-.072.363m-4.144-1.327c-.731-.172-1.443-.317-2.162-.437a3.911,3.911,0,0,1,2.207.065c.117.314.041.373-.045.373m-15.105-.065c-.018-.381.757-.591,2.106-.8a14.571,14.571,0,0,1-2.056.8.177.177,0,0,1-.049.007m10.817-.658q-1.082-.109-2.178-.148a3.978,3.978,0,0,1,2.2-.229c.159.3.077.377-.018.377m-6.521-.033a4.027,4.027,0,0,1,2.168-.5,5.081,5.081,0,0,1-2.151.5Z" transform="translate(-35.812 -9.201)" fill="#1a1a1a"/>
    <path id="Path_836155" data-name="Path 836155" d="M141.837,165.682a9.466,9.466,0,1,1,9.172-7.1,10.872,10.872,0,0,1-.077-2.369,9.09,9.09,0,1,0-4.691,7.958,6.378,6.378,0,0,1-4.4,1.513" transform="translate(-26.746 -29.65)" fill="#1a1a1a"/>
    <path id="Path_836156" data-name="Path 836156" d="M17.734,128.9a7.312,7.312,0,0,1-1.05-.639,1.516,1.516,0,0,1,1.143.287c.037.318-.028.352-.093.352m-2.573-2.035a9.821,9.821,0,0,1-1.522-1.772,6.674,6.674,0,0,1,1.659,1.452c-.042.3-.09.32-.136.32m-2.482-3.557a10.356,10.356,0,0,1-1.074-2.1,5.716,5.716,0,0,1,1.242,1.824c-.109.271-.139.277-.168.277m-1.618-4.038a10.62,10.62,0,0,1-.749-2.246,5.135,5.135,0,0,1,.931,2c-.144.241-.164.243-.182.243m-1-4.231a5.814,5.814,0,0,1-.419-1.6c-.035-.239-.068-.478-.1-.719a.721.721,0,0,1,.474.665c.068.468.144.946.231,1.431-.165.221-.176.221-.187.221m-.568-4.315a9.582,9.582,0,0,1-.33-2.352,4.831,4.831,0,0,1,.519,2.146c-.178.206-.184.206-.189.206m-.18-4.346A8.7,8.7,0,0,1,9.189,104a4.918,4.918,0,0,1,.307,2.188.188.188,0,0,1-.188.187m.257-4.345a7.923,7.923,0,0,1,.124-2.374,4.916,4.916,0,0,1,.064,2.207.188.188,0,0,1-.188.167m.751-4.286a7.074,7.074,0,0,1,.4-2.341,5.027,5.027,0,0,1-.214,2.2.19.19,0,0,1-.184.145" transform="translate(-1.85 -19.278)" fill="#1a1a1a"/>
    <path id="Path_836157" data-name="Path 836157" d="M15.733,83.087a4.8,4.8,0,0,1,1-1.87,3.993,3.993,0,0,1-.84,1.789.19.19,0,0,1-.156.081m2.541-3.234a5.285,5.285,0,0,1,1.372-1.9,5.153,5.153,0,0,1-1.231,1.834.185.185,0,0,1-.14.062m3.109-3.041a4.989,4.989,0,0,1,1.585-1.7,5.093,5.093,0,0,1-1.461,1.654.187.187,0,0,1-.124.045m3.483-2.606a4.764,4.764,0,0,1,1.768-1.48,5.038,5.038,0,0,1-1.665,1.45.188.188,0,0,1-.1.03m3.792-2.129a4.47,4.47,0,0,1,1.924-1.237,5.13,5.13,0,0,1-1.842,1.218.184.184,0,0,1-.081.019M32.7,70.468a4.325,4.325,0,0,1,2.048-.964,5.041,5.041,0,0,1-1.99.957.247.247,0,0,1-.058.007" transform="translate(-3.179 -14.044)" fill="#1a1a1a"/>
    <path id="Path_836158" data-name="Path 836158" d="M110.963,31.506h-3.975c0-.377,3.975-.377,3.975-.377.189.293.105.377,0,.377" transform="translate(-21.618 -6.29)" fill="#1a1a1a"/>
    <path id="Path_836159" data-name="Path 836159" d="M110.6,33.8h-2.559c0-.377,2.559-.377,2.559-.377.189.294.1.377,0,.377" transform="translate(-21.831 -6.753)" fill="#1a1a1a"/>
    <path id="Path_836160" data-name="Path 836160" d="M130.671,74.566a6.845,6.845,0,0,0-6.6-4.646,6.556,6.556,0,0,0-6.3,4.148c.572-2.757,3.248-4.524,6.3-4.524a6.881,6.881,0,0,1,6.779,4.784c-.148.237-.165.239-.182.239" transform="translate(-23.797 -14.052)" fill="#1a1a1a"/>
    <path id="Path_836161" data-name="Path 836161" d="M218.593,66.774a3.091,3.091,0,1,1,3.091-3.09,3.094,3.094,0,0,1-3.091,3.09m0-5.8a2.713,2.713,0,1,0,2.714,2.714,2.716,2.716,0,0,0-2.714-2.714" transform="translate(-43.545 -12.243)" fill="#1a1a1a"/>
    <path id="Path_836162" data-name="Path 836162" d="M11.935,92.782a3.09,3.09,0,1,1,3.09-3.091,3.094,3.094,0,0,1-3.09,3.091m0-5.8a2.713,2.713,0,1,0,2.713,2.712,2.715,2.715,0,0,0-2.713-2.712" transform="translate(-1.787 -17.499)" fill="#1a1a1a"/>
  </g>
</svg>
